%TF.GenerationSoftware,KiCad,Pcbnew,5.1.5+dfsg1-2build2*%
%TF.CreationDate,2020-10-22T23:20:21-04:00*%
%TF.ProjectId,Projeto_placa,50726f6a-6574-46f5-9f70-6c6163612e6b,rev?*%
%TF.SameCoordinates,Original*%
%TF.FileFunction,Copper,L2,Bot*%
%TF.FilePolarity,Positive*%
%FSLAX46Y46*%
G04 Gerber Fmt 4.6, Leading zero omitted, Abs format (unit mm)*
G04 Created by KiCad (PCBNEW 5.1.5+dfsg1-2build2) date 2020-10-22 23:20:21*
%MOMM*%
%LPD*%
G04 APERTURE LIST*
%TA.AperFunction,Profile*%
%ADD10C,0.050000*%
%TD*%
%TA.AperFunction,ComponentPad*%
%ADD11O,1.700000X1.700000*%
%TD*%
%TA.AperFunction,ComponentPad*%
%ADD12R,1.700000X1.700000*%
%TD*%
%TA.AperFunction,ComponentPad*%
%ADD13C,1.800000*%
%TD*%
%TA.AperFunction,ComponentPad*%
%ADD14R,1.800000X1.800000*%
%TD*%
%TA.AperFunction,ComponentPad*%
%ADD15O,2.200000X2.200000*%
%TD*%
%TA.AperFunction,ComponentPad*%
%ADD16R,2.200000X2.200000*%
%TD*%
%TA.AperFunction,ComponentPad*%
%ADD17O,1.800000X3.600000*%
%TD*%
%TA.AperFunction,ComponentPad*%
%ADD18C,0.100000*%
%TD*%
%TA.AperFunction,ComponentPad*%
%ADD19O,3.600000X1.800000*%
%TD*%
%TA.AperFunction,ComponentPad*%
%ADD20O,1.600000X1.600000*%
%TD*%
%TA.AperFunction,ComponentPad*%
%ADD21C,1.600000*%
%TD*%
%TA.AperFunction,ComponentPad*%
%ADD22O,1.800000X1.800000*%
%TD*%
%TA.AperFunction,ComponentPad*%
%ADD23O,2.000000X1.905000*%
%TD*%
%TA.AperFunction,ComponentPad*%
%ADD24R,2.000000X1.905000*%
%TD*%
%TA.AperFunction,ComponentPad*%
%ADD25C,1.524000*%
%TD*%
%TA.AperFunction,ComponentPad*%
%ADD26C,1.980000*%
%TD*%
%TA.AperFunction,ComponentPad*%
%ADD27C,1.935000*%
%TD*%
%TA.AperFunction,ComponentPad*%
%ADD28R,1.980000X1.980000*%
%TD*%
%TA.AperFunction,ComponentPad*%
%ADD29O,1.524000X3.048000*%
%TD*%
%TA.AperFunction,ComponentPad*%
%ADD30O,3.048000X1.524000*%
%TD*%
%TA.AperFunction,Conductor*%
%ADD31C,0.250000*%
%TD*%
%TA.AperFunction,Conductor*%
%ADD32C,0.254000*%
%TD*%
G04 APERTURE END LIST*
D10*
X72644000Y-29464000D02*
X72644000Y-113284000D01*
X170688000Y-29464000D02*
X72644000Y-29464000D01*
X170688000Y-113284000D02*
X170688000Y-29464000D01*
X72644000Y-113284000D02*
X170688000Y-113284000D01*
D11*
%TO.P,J9,8*%
%TO.N,Net-(J9-Pad8)*%
X166852600Y-76276200D03*
%TO.P,J9,7*%
%TO.N,Net-(J9-Pad7)*%
X166852600Y-73736200D03*
%TO.P,J9,6*%
%TO.N,Net-(J9-Pad6)*%
X166852600Y-71196200D03*
%TO.P,J9,5*%
%TO.N,Net-(J9-Pad5)*%
X166852600Y-68656200D03*
%TO.P,J9,4*%
%TO.N,I2C_SDA*%
X166852600Y-66116200D03*
%TO.P,J9,3*%
%TO.N,I2C_SCL*%
X166852600Y-63576200D03*
%TO.P,J9,2*%
%TO.N,GND*%
X166852600Y-61036200D03*
D12*
%TO.P,J9,1*%
%TO.N,+3V3*%
X166852600Y-58496200D03*
%TD*%
D13*
%TO.P,D1,2*%
%TO.N,Net-(D1-Pad2)*%
X94472760Y-89321640D03*
D14*
%TO.P,D1,1*%
%TO.N,Net-(D1-Pad1)*%
X97012760Y-89321640D03*
%TD*%
D15*
%TO.P,D2,2*%
%TO.N,Net-(D2-Pad2)*%
X112014000Y-57404000D03*
D16*
%TO.P,D2,1*%
%TO.N,+5V*%
X112014000Y-67564000D03*
%TD*%
D11*
%TO.P,J1,2*%
%TO.N,GND*%
X131064000Y-109728000D03*
D12*
%TO.P,J1,1*%
%TO.N,VBAT*%
X128524000Y-109728000D03*
%TD*%
D11*
%TO.P,J2,3*%
%TO.N,GND*%
X102362000Y-32512000D03*
%TO.P,J2,2*%
%TO.N,+3V3*%
X99822000Y-32512000D03*
D12*
%TO.P,J2,1*%
%TO.N,+5V*%
X97282000Y-32512000D03*
%TD*%
D11*
%TO.P,J3,3*%
%TO.N,GND*%
X76032360Y-99634040D03*
%TO.P,J3,2*%
%TO.N,UART_EXT_RX*%
X76032360Y-102174040D03*
D12*
%TO.P,J3,1*%
%TO.N,UART_EXT_TX*%
X76032360Y-104714040D03*
%TD*%
D11*
%TO.P,J4,4*%
%TO.N,+3V3*%
X166370000Y-32512000D03*
%TO.P,J4,3*%
%TO.N,GND*%
X163830000Y-32512000D03*
%TO.P,J4,2*%
%TO.N,I2C_SCL*%
X161290000Y-32512000D03*
D12*
%TO.P,J4,1*%
%TO.N,I2C_SDA*%
X158750000Y-32512000D03*
%TD*%
D11*
%TO.P,J5,4*%
%TO.N,+3V3*%
X166941500Y-40589200D03*
%TO.P,J5,3*%
%TO.N,GND*%
X166941500Y-43129200D03*
%TO.P,J5,2*%
%TO.N,I2C_SCL*%
X166941500Y-45669200D03*
D12*
%TO.P,J5,1*%
%TO.N,I2C_SDA*%
X166941500Y-48209200D03*
%TD*%
D11*
%TO.P,J6,4*%
%TO.N,Net-(J6-Pad4)*%
X101600000Y-109728000D03*
%TO.P,J6,3*%
%TO.N,MQ2_DOUT_5V*%
X99060000Y-109728000D03*
%TO.P,J6,2*%
%TO.N,GND*%
X96520000Y-109728000D03*
D12*
%TO.P,J6,1*%
%TO.N,+5V*%
X93980000Y-109728000D03*
%TD*%
D11*
%TO.P,J7,2*%
%TO.N,REED_SW_5V*%
X114808000Y-109728000D03*
D12*
%TO.P,J7,1*%
%TO.N,+5V*%
X112268000Y-109728000D03*
%TD*%
D11*
%TO.P,J8,6*%
%TO.N,+3V3*%
X167640000Y-110236000D03*
%TO.P,J8,5*%
%TO.N,GND*%
X165100000Y-110236000D03*
%TO.P,J8,4*%
%TO.N,I2C_SCL*%
X162560000Y-110236000D03*
%TO.P,J8,3*%
%TO.N,I2C_SDA*%
X160020000Y-110236000D03*
%TO.P,J8,2*%
%TO.N,Net-(J10-Pad2)*%
X157480000Y-110236000D03*
D12*
%TO.P,J8,1*%
%TO.N,Net-(J10-Pad1)*%
X154940000Y-110236000D03*
%TD*%
D17*
%TO.P,J10,2*%
%TO.N,Net-(J10-Pad2)*%
X140208000Y-107696000D03*
%TA.AperFunction,ComponentPad*%
D18*
%TO.P,J10,1*%
%TO.N,Net-(J10-Pad1)*%
G36*
X145962504Y-105897204D02*
G01*
X145986773Y-105900804D01*
X146010571Y-105906765D01*
X146033671Y-105915030D01*
X146055849Y-105925520D01*
X146076893Y-105938133D01*
X146096598Y-105952747D01*
X146114777Y-105969223D01*
X146131253Y-105987402D01*
X146145867Y-106007107D01*
X146158480Y-106028151D01*
X146168970Y-106050329D01*
X146177235Y-106073429D01*
X146183196Y-106097227D01*
X146186796Y-106121496D01*
X146188000Y-106146000D01*
X146188000Y-109246000D01*
X146186796Y-109270504D01*
X146183196Y-109294773D01*
X146177235Y-109318571D01*
X146168970Y-109341671D01*
X146158480Y-109363849D01*
X146145867Y-109384893D01*
X146131253Y-109404598D01*
X146114777Y-109422777D01*
X146096598Y-109439253D01*
X146076893Y-109453867D01*
X146055849Y-109466480D01*
X146033671Y-109476970D01*
X146010571Y-109485235D01*
X145986773Y-109491196D01*
X145962504Y-109494796D01*
X145938000Y-109496000D01*
X144638000Y-109496000D01*
X144613496Y-109494796D01*
X144589227Y-109491196D01*
X144565429Y-109485235D01*
X144542329Y-109476970D01*
X144520151Y-109466480D01*
X144499107Y-109453867D01*
X144479402Y-109439253D01*
X144461223Y-109422777D01*
X144444747Y-109404598D01*
X144430133Y-109384893D01*
X144417520Y-109363849D01*
X144407030Y-109341671D01*
X144398765Y-109318571D01*
X144392804Y-109294773D01*
X144389204Y-109270504D01*
X144388000Y-109246000D01*
X144388000Y-106146000D01*
X144389204Y-106121496D01*
X144392804Y-106097227D01*
X144398765Y-106073429D01*
X144407030Y-106050329D01*
X144417520Y-106028151D01*
X144430133Y-106007107D01*
X144444747Y-105987402D01*
X144461223Y-105969223D01*
X144479402Y-105952747D01*
X144499107Y-105938133D01*
X144520151Y-105925520D01*
X144542329Y-105915030D01*
X144565429Y-105906765D01*
X144589227Y-105900804D01*
X144613496Y-105897204D01*
X144638000Y-105896000D01*
X145938000Y-105896000D01*
X145962504Y-105897204D01*
G37*
%TD.AperFunction*%
%TD*%
D19*
%TO.P,J11,3*%
%TO.N,GND*%
X165354000Y-83820000D03*
%TO.P,J11,2*%
%TO.N,ANALOG_2*%
X165354000Y-88900000D03*
%TA.AperFunction,ComponentPad*%
D18*
%TO.P,J11,1*%
%TO.N,ANALOG_1*%
G36*
X166928504Y-93081204D02*
G01*
X166952773Y-93084804D01*
X166976571Y-93090765D01*
X166999671Y-93099030D01*
X167021849Y-93109520D01*
X167042893Y-93122133D01*
X167062598Y-93136747D01*
X167080777Y-93153223D01*
X167097253Y-93171402D01*
X167111867Y-93191107D01*
X167124480Y-93212151D01*
X167134970Y-93234329D01*
X167143235Y-93257429D01*
X167149196Y-93281227D01*
X167152796Y-93305496D01*
X167154000Y-93330000D01*
X167154000Y-94630000D01*
X167152796Y-94654504D01*
X167149196Y-94678773D01*
X167143235Y-94702571D01*
X167134970Y-94725671D01*
X167124480Y-94747849D01*
X167111867Y-94768893D01*
X167097253Y-94788598D01*
X167080777Y-94806777D01*
X167062598Y-94823253D01*
X167042893Y-94837867D01*
X167021849Y-94850480D01*
X166999671Y-94860970D01*
X166976571Y-94869235D01*
X166952773Y-94875196D01*
X166928504Y-94878796D01*
X166904000Y-94880000D01*
X163804000Y-94880000D01*
X163779496Y-94878796D01*
X163755227Y-94875196D01*
X163731429Y-94869235D01*
X163708329Y-94860970D01*
X163686151Y-94850480D01*
X163665107Y-94837867D01*
X163645402Y-94823253D01*
X163627223Y-94806777D01*
X163610747Y-94788598D01*
X163596133Y-94768893D01*
X163583520Y-94747849D01*
X163573030Y-94725671D01*
X163564765Y-94702571D01*
X163558804Y-94678773D01*
X163555204Y-94654504D01*
X163554000Y-94630000D01*
X163554000Y-93330000D01*
X163555204Y-93305496D01*
X163558804Y-93281227D01*
X163564765Y-93257429D01*
X163573030Y-93234329D01*
X163583520Y-93212151D01*
X163596133Y-93191107D01*
X163610747Y-93171402D01*
X163627223Y-93153223D01*
X163645402Y-93136747D01*
X163665107Y-93122133D01*
X163686151Y-93109520D01*
X163708329Y-93099030D01*
X163731429Y-93090765D01*
X163755227Y-93084804D01*
X163779496Y-93081204D01*
X163804000Y-93080000D01*
X166904000Y-93080000D01*
X166928504Y-93081204D01*
G37*
%TD.AperFunction*%
%TD*%
D11*
%TO.P,J12,2*%
%TO.N,GND*%
X146558000Y-93980000D03*
D12*
%TO.P,J12,1*%
%TO.N,VBAT*%
X149098000Y-93980000D03*
%TD*%
D19*
%TO.P,J13,3*%
%TO.N,Net-(J13-Pad3)*%
X78232000Y-66040000D03*
%TO.P,J13,2*%
%TO.N,Net-(J13-Pad2)*%
X78232000Y-60960000D03*
%TA.AperFunction,ComponentPad*%
D18*
%TO.P,J13,1*%
%TO.N,Net-(J13-Pad1)*%
G36*
X79806504Y-54981204D02*
G01*
X79830773Y-54984804D01*
X79854571Y-54990765D01*
X79877671Y-54999030D01*
X79899849Y-55009520D01*
X79920893Y-55022133D01*
X79940598Y-55036747D01*
X79958777Y-55053223D01*
X79975253Y-55071402D01*
X79989867Y-55091107D01*
X80002480Y-55112151D01*
X80012970Y-55134329D01*
X80021235Y-55157429D01*
X80027196Y-55181227D01*
X80030796Y-55205496D01*
X80032000Y-55230000D01*
X80032000Y-56530000D01*
X80030796Y-56554504D01*
X80027196Y-56578773D01*
X80021235Y-56602571D01*
X80012970Y-56625671D01*
X80002480Y-56647849D01*
X79989867Y-56668893D01*
X79975253Y-56688598D01*
X79958777Y-56706777D01*
X79940598Y-56723253D01*
X79920893Y-56737867D01*
X79899849Y-56750480D01*
X79877671Y-56760970D01*
X79854571Y-56769235D01*
X79830773Y-56775196D01*
X79806504Y-56778796D01*
X79782000Y-56780000D01*
X76682000Y-56780000D01*
X76657496Y-56778796D01*
X76633227Y-56775196D01*
X76609429Y-56769235D01*
X76586329Y-56760970D01*
X76564151Y-56750480D01*
X76543107Y-56737867D01*
X76523402Y-56723253D01*
X76505223Y-56706777D01*
X76488747Y-56688598D01*
X76474133Y-56668893D01*
X76461520Y-56647849D01*
X76451030Y-56625671D01*
X76442765Y-56602571D01*
X76436804Y-56578773D01*
X76433204Y-56554504D01*
X76432000Y-56530000D01*
X76432000Y-55230000D01*
X76433204Y-55205496D01*
X76436804Y-55181227D01*
X76442765Y-55157429D01*
X76451030Y-55134329D01*
X76461520Y-55112151D01*
X76474133Y-55091107D01*
X76488747Y-55071402D01*
X76505223Y-55053223D01*
X76523402Y-55036747D01*
X76543107Y-55022133D01*
X76564151Y-55009520D01*
X76586329Y-54999030D01*
X76609429Y-54990765D01*
X76633227Y-54984804D01*
X76657496Y-54981204D01*
X76682000Y-54980000D01*
X79782000Y-54980000D01*
X79806504Y-54981204D01*
G37*
%TD.AperFunction*%
%TD*%
D20*
%TO.P,R1,2*%
%TO.N,ADC_BAT*%
X157226000Y-89154000D03*
D21*
%TO.P,R1,1*%
%TO.N,VBAT*%
X157226000Y-104394000D03*
%TD*%
D20*
%TO.P,R2,2*%
%TO.N,GND*%
X152654000Y-99568000D03*
D21*
%TO.P,R2,1*%
%TO.N,ADC_BAT*%
X137414000Y-99568000D03*
%TD*%
D20*
%TO.P,R3,2*%
%TO.N,LED_1*%
X90424000Y-82296000D03*
D21*
%TO.P,R3,1*%
%TO.N,Net-(Q1-Pad1)*%
X75184000Y-82296000D03*
%TD*%
D20*
%TO.P,R4,2*%
%TO.N,GND*%
X109728000Y-31750000D03*
D21*
%TO.P,R4,1*%
%TO.N,Net-(Q1-Pad1)*%
X109728000Y-46990000D03*
%TD*%
D20*
%TO.P,R5,2*%
%TO.N,Net-(D1-Pad2)*%
X100330000Y-82804000D03*
D21*
%TO.P,R5,1*%
%TO.N,+5V*%
X115570000Y-82804000D03*
%TD*%
D20*
%TO.P,R6,2*%
%TO.N,UART_EXT_RX_3V3*%
X74676000Y-94234000D03*
D21*
%TO.P,R6,1*%
%TO.N,UART_EXT_RX*%
X89916000Y-94234000D03*
%TD*%
D20*
%TO.P,R7,2*%
%TO.N,GND*%
X75184000Y-88392000D03*
D21*
%TO.P,R7,1*%
%TO.N,Net-(JP1-Pad2)*%
X90424000Y-88392000D03*
%TD*%
D20*
%TO.P,R8,2*%
%TO.N,RELAY*%
X76454000Y-38862000D03*
D21*
%TO.P,R8,1*%
%TO.N,Net-(Q2-Pad3)*%
X91694000Y-38862000D03*
%TD*%
D20*
%TO.P,R9,2*%
%TO.N,GND*%
X76454000Y-32766000D03*
D21*
%TO.P,R9,1*%
%TO.N,Net-(Q2-Pad3)*%
X91694000Y-32766000D03*
%TD*%
D20*
%TO.P,R11,2*%
%TO.N,MQ2_DOUT_3V3*%
X122174000Y-69596000D03*
D21*
%TO.P,R11,1*%
%TO.N,MQ2_DOUT_5V*%
X122174000Y-84836000D03*
%TD*%
D20*
%TO.P,R12,2*%
%TO.N,GND*%
X119380000Y-50038000D03*
D21*
%TO.P,R12,1*%
%TO.N,MQ2_DOUT_3V3*%
X119380000Y-65278000D03*
%TD*%
D20*
%TO.P,R13,2*%
%TO.N,GND*%
X160274000Y-56896000D03*
D21*
%TO.P,R13,1*%
%TO.N,REED_SW_5V*%
X160274000Y-41656000D03*
%TD*%
D20*
%TO.P,R14,2*%
%TO.N,REED_SW_3V3*%
X125730000Y-40640000D03*
D21*
%TO.P,R14,1*%
%TO.N,+3V3*%
X125730000Y-55880000D03*
%TD*%
D22*
%TO.P,Q2,3*%
%TO.N,Net-(Q2-Pad3)*%
X97586800Y-39585900D03*
%TO.P,Q2,2*%
%TO.N,Net-(D2-Pad2)*%
X100126800Y-39585900D03*
D14*
%TO.P,Q2,1*%
%TO.N,GND*%
X102666800Y-39585900D03*
%TD*%
D15*
%TO.P,D3,2*%
%TO.N,Net-(D3-Pad2)*%
X119837200Y-102880160D03*
D16*
%TO.P,D3,1*%
%TO.N,Net-(D3-Pad1)*%
X119837200Y-92720160D03*
%TD*%
D15*
%TO.P,D4,2*%
%TO.N,Net-(D4-Pad2)*%
X107929680Y-104988360D03*
D16*
%TO.P,D4,1*%
%TO.N,Net-(D3-Pad1)*%
X107929680Y-94828360D03*
%TD*%
D15*
%TO.P,D5,2*%
%TO.N,Net-(D5-Pad2)*%
X101833680Y-104866440D03*
D16*
%TO.P,D5,1*%
%TO.N,Net-(D3-Pad1)*%
X101833680Y-94706440D03*
%TD*%
D11*
%TO.P,J14,4*%
%TO.N,GND*%
X79049880Y-109540040D03*
%TO.P,J14,3*%
%TO.N,Net-(D5-Pad2)*%
X81589880Y-109540040D03*
%TO.P,J14,2*%
%TO.N,Net-(D4-Pad2)*%
X84129880Y-109540040D03*
D12*
%TO.P,J14,1*%
%TO.N,Net-(D3-Pad2)*%
X86669880Y-109540040D03*
%TD*%
D23*
%TO.P,U2,3*%
%TO.N,+5V*%
X128336040Y-89910920D03*
%TO.P,U2,2*%
%TO.N,GND*%
X128336040Y-92450920D03*
D24*
%TO.P,U2,1*%
%TO.N,Net-(D3-Pad1)*%
X128336040Y-94990920D03*
%TD*%
D25*
%TO.P,U1,36*%
%TO.N,GND*%
X154495500Y-38100000D03*
%TO.P,U1,35*%
%TO.N,+5V*%
X154495500Y-40640000D03*
%TO.P,U1,34*%
%TO.N,+3V3*%
X154495500Y-43116500D03*
%TO.P,U1,33*%
%TO.N,MQ2_DOUT_3V3*%
X154495500Y-45656500D03*
%TO.P,U1,32*%
%TO.N,Net-(U1-Pad32)*%
X154495500Y-48196500D03*
%TO.P,U1,31*%
%TO.N,Net-(U1-Pad31)*%
X154495500Y-50736500D03*
%TO.P,U1,30*%
%TO.N,Net-(U1-Pad30)*%
X154495500Y-53276500D03*
%TO.P,U1,29*%
%TO.N,REED_SW_3V3*%
X154495500Y-55816500D03*
%TO.P,U1,28*%
%TO.N,Net-(U1-Pad28)*%
X154495500Y-58356500D03*
%TO.P,U1,27*%
%TO.N,Net-(U1-Pad27)*%
X154495500Y-60960000D03*
%TO.P,U1,26*%
%TO.N,Net-(U1-Pad26)*%
X154495500Y-63500000D03*
%TO.P,U1,25*%
%TO.N,ANALOG_2*%
X154495500Y-66040000D03*
%TO.P,U1,24*%
%TO.N,Net-(U1-Pad24)*%
X154495500Y-68580000D03*
%TO.P,U1,23*%
%TO.N,Net-(U1-Pad23)*%
X154495500Y-71120000D03*
%TO.P,U1,22*%
%TO.N,Net-(U1-Pad22)*%
X154495500Y-73660000D03*
%TO.P,U1,21*%
%TO.N,UART_EXT_RX_3V3*%
X154495500Y-76200000D03*
%TO.P,U1,20*%
%TO.N,ADC_BAT*%
X154495500Y-78740000D03*
%TO.P,U1,19*%
%TO.N,UART_EXT_TX*%
X154495500Y-81280000D03*
%TO.P,U1,18*%
%TO.N,Net-(U1-Pad18)*%
X130556000Y-81280000D03*
%TO.P,U1,17*%
%TO.N,RELAY*%
X130556000Y-78740000D03*
%TO.P,U1,16*%
%TO.N,I2C_SDA*%
X130556000Y-76200000D03*
%TO.P,U1,15*%
%TO.N,ANALOG_1*%
X130556000Y-73660000D03*
%TO.P,U1,14*%
%TO.N,I2C_SCL*%
X130556000Y-71120000D03*
%TO.P,U1,13*%
%TO.N,Net-(U1-Pad13)*%
X130556000Y-68580000D03*
%TO.P,U1,12*%
%TO.N,Net-(U1-Pad12)*%
X130556000Y-66040000D03*
%TO.P,U1,11*%
%TO.N,LED_1*%
X130556000Y-63500000D03*
%TO.P,U1,10*%
%TO.N,Net-(U1-Pad10)*%
X130556000Y-60960000D03*
%TO.P,U1,9*%
%TO.N,Net-(U1-Pad9)*%
X130556000Y-58420000D03*
%TO.P,U1,8*%
%TO.N,Net-(U1-Pad8)*%
X130556000Y-55880000D03*
%TO.P,U1,7*%
%TO.N,Net-(U1-Pad7)*%
X130556000Y-53340000D03*
%TO.P,U1,6*%
%TO.N,Net-(U1-Pad6)*%
X130556000Y-50800000D03*
%TO.P,U1,5*%
%TO.N,Net-(U1-Pad5)*%
X130556000Y-48260000D03*
%TO.P,U1,4*%
%TO.N,GND*%
X130556000Y-45720000D03*
%TO.P,U1,3*%
%TO.N,+3V3*%
X130556000Y-43180000D03*
%TO.P,U1,2*%
%TO.N,+5V*%
X130556000Y-40640000D03*
%TO.P,U1,1*%
%TO.N,GND*%
X130556000Y-38100000D03*
%TD*%
D26*
%TO.P,K1,NC*%
%TO.N,Net-(J13-Pad3)*%
X91436000Y-66960000D03*
%TO.P,K1,NO*%
%TO.N,Net-(J13-Pad1)*%
X91436000Y-54960000D03*
%TO.P,K1,A2*%
%TO.N,Net-(D2-Pad2)*%
X103636000Y-54960000D03*
D27*
%TO.P,K1,COM*%
%TO.N,Net-(J13-Pad2)*%
X105636000Y-60960000D03*
D28*
%TO.P,K1,A1*%
%TO.N,+5V*%
X103636000Y-66960000D03*
%TD*%
D29*
%TO.P,Q1,3*%
%TO.N,GND*%
X111760000Y-88900000D03*
%TO.P,Q1,2*%
%TO.N,Net-(D1-Pad1)*%
X109220000Y-88900000D03*
%TO.P,Q1,1*%
%TO.N,Net-(Q1-Pad1)*%
X106680000Y-88900000D03*
%TD*%
D30*
%TO.P,Q3,3*%
%TO.N,GND*%
X118872000Y-35814000D03*
%TO.P,Q3,2*%
%TO.N,REED_SW_3V3*%
X118872000Y-38354000D03*
%TO.P,Q3,1*%
%TO.N,REED_SW_5V*%
X118872000Y-40894000D03*
%TD*%
D31*
%TO.N,Net-(D1-Pad1)*%
X107370990Y-90749010D02*
X109220000Y-88900000D01*
X98440130Y-90749010D02*
X107370990Y-90749010D01*
X97012760Y-89321640D02*
X98440130Y-90749010D01*
%TO.N,+5V*%
X111092999Y-108552999D02*
X112268000Y-109728000D01*
X95155001Y-108552999D02*
X111092999Y-108552999D01*
X93980000Y-109728000D02*
X95155001Y-108552999D01*
X115570000Y-106426000D02*
X112268000Y-109728000D01*
X115570000Y-82804000D02*
X115570000Y-106426000D01*
X130606800Y-40589200D02*
X130556000Y-40640000D01*
X154381200Y-40589200D02*
X130606800Y-40589200D01*
%TO.N,VBAT*%
X147922999Y-92804999D02*
X141637001Y-92804999D01*
X149098000Y-93980000D02*
X147922999Y-92804999D01*
X128016000Y-109220000D02*
X128524000Y-109728000D01*
X128016000Y-106426000D02*
X128016000Y-109220000D01*
X141637001Y-92804999D02*
X128016000Y-106426000D01*
%TO.N,GND*%
X128270000Y-35814000D02*
X130556000Y-38100000D01*
X118872000Y-35814000D02*
X128270000Y-35814000D01*
X129468999Y-39187001D02*
X130556000Y-38100000D01*
X129468999Y-44632999D02*
X129468999Y-39187001D01*
X130556000Y-45720000D02*
X129468999Y-44632999D01*
X114808000Y-31750000D02*
X118872000Y-35814000D01*
X109728000Y-31750000D02*
X114808000Y-31750000D01*
X76032360Y-89240360D02*
X75184000Y-88392000D01*
X76032360Y-99634040D02*
X76032360Y-89240360D01*
%TO.N,+3V3*%
X166116000Y-32766000D02*
X166370000Y-32512000D01*
X113748208Y-36901010D02*
X110534199Y-33687001D01*
X125635910Y-36901010D02*
X113748208Y-36901010D01*
X100997001Y-33687001D02*
X99822000Y-32512000D01*
X110534199Y-33687001D02*
X100997001Y-33687001D01*
X127720675Y-45196075D02*
X127720675Y-38985775D01*
X129331601Y-46807001D02*
X127720675Y-45196075D01*
X131881999Y-46807001D02*
X129331601Y-46807001D01*
X132384800Y-45008800D02*
X132384800Y-46304200D01*
X127720675Y-38985775D02*
X125635910Y-36901010D01*
X132384800Y-46304200D02*
X131881999Y-46807001D01*
X130556000Y-43180000D02*
X132384800Y-45008800D01*
X130606800Y-43129200D02*
X130556000Y-43180000D01*
X154381200Y-43129200D02*
X130606800Y-43129200D01*
%TO.N,UART_EXT_RX*%
X76032360Y-102174040D02*
X80802480Y-102174040D01*
X80802480Y-102174040D02*
X86222840Y-96753680D01*
X87396320Y-96753680D02*
X89916000Y-94234000D01*
X86222840Y-96753680D02*
X87396320Y-96753680D01*
%TO.N,I2C_SDA*%
X165766499Y-47034199D02*
X164432999Y-47034199D01*
X166941500Y-48209200D02*
X165766499Y-47034199D01*
X164432999Y-47034199D02*
X162204400Y-44805600D01*
X162204400Y-44805600D02*
X162204400Y-41186100D01*
X158750000Y-37731700D02*
X158750000Y-32512000D01*
X162204400Y-41186100D02*
X158750000Y-37731700D01*
X168566510Y-39177510D02*
X168566510Y-64402290D01*
X162465001Y-33076001D02*
X168566510Y-39177510D01*
X161854001Y-31336999D02*
X162465001Y-31947999D01*
X160725999Y-31336999D02*
X161854001Y-31336999D01*
X168566510Y-64402290D02*
X166852600Y-66116200D01*
X162465001Y-31947999D02*
X162465001Y-33076001D01*
X160114999Y-31947999D02*
X160725999Y-31336999D01*
X159314001Y-31947999D02*
X158750000Y-32512000D01*
X160114999Y-31947999D02*
X159314001Y-31947999D01*
X134599799Y-72156201D02*
X130556000Y-76200000D01*
X166852600Y-66116200D02*
X161048700Y-71920100D01*
X134599799Y-72156201D02*
X149626201Y-72156201D01*
X149626201Y-72156201D02*
X152400000Y-74930000D01*
X152400000Y-74930000D02*
X158750000Y-74930000D01*
X158750000Y-74930000D02*
X160020000Y-76200000D01*
X160020000Y-76200000D02*
X160020000Y-76115238D01*
X160020000Y-110236000D02*
X160020000Y-76200000D01*
X161048700Y-71920100D02*
X160489900Y-71920100D01*
X158750000Y-73660000D02*
X158750000Y-74930000D01*
X160489900Y-71920100D02*
X158750000Y-73660000D01*
%TO.N,I2C_SCL*%
X163334700Y-43903900D02*
X165100000Y-45669200D01*
X163334700Y-41186100D02*
X163334700Y-43903900D01*
X161290000Y-39141400D02*
X163334700Y-41186100D01*
X165100000Y-45669200D02*
X166941500Y-45669200D01*
X161290000Y-32512000D02*
X161290000Y-39141400D01*
X168116501Y-62312299D02*
X166852600Y-63576200D01*
X168116501Y-46844201D02*
X168116501Y-62312299D01*
X166941500Y-45669200D02*
X168116501Y-46844201D01*
X165841799Y-64587001D02*
X166852600Y-63576200D01*
%TO.N,MQ2_DOUT_5V*%
X122174000Y-84836000D02*
X122174000Y-109728000D01*
X122174000Y-109728000D02*
X119888000Y-112014000D01*
X100235001Y-110903001D02*
X99060000Y-109728000D01*
X101759001Y-110903001D02*
X100235001Y-110903001D01*
X102870000Y-112014000D02*
X101759001Y-110903001D01*
X119888000Y-112014000D02*
X102870000Y-112014000D01*
%TO.N,REED_SW_5V*%
X117348000Y-49655590D02*
X117348000Y-42418000D01*
X117348000Y-42418000D02*
X118872000Y-40894000D01*
X131643001Y-62978239D02*
X131077761Y-62412999D01*
X131643001Y-64021761D02*
X131643001Y-62978239D01*
X131077761Y-64587001D02*
X131643001Y-64021761D01*
X131077761Y-62412999D02*
X130105409Y-62412999D01*
X122971003Y-64587001D02*
X131077761Y-64587001D01*
X116695001Y-70863003D02*
X122971003Y-64587001D01*
X130105409Y-62412999D02*
X117348000Y-49655590D01*
X116695001Y-107840999D02*
X116695001Y-70863003D01*
X114808000Y-109728000D02*
X116695001Y-107840999D01*
%TO.N,Net-(Q1-Pad1)*%
X114376200Y-51638200D02*
X109728000Y-46990000D01*
X114444999Y-83675001D02*
X114444999Y-51706999D01*
X114444999Y-51706999D02*
X114376200Y-51638200D01*
X113538000Y-84582000D02*
X114444999Y-83675001D01*
X77470000Y-84582000D02*
X113538000Y-84582000D01*
X75184000Y-82296000D02*
X77470000Y-84582000D01*
%TO.N,REED_SW_3V3*%
X125730000Y-40640000D02*
X125730000Y-38862000D01*
X125222000Y-38354000D02*
X118872000Y-38354000D01*
X125730000Y-38862000D02*
X125222000Y-38354000D01*
%TO.N,ADC_BAT*%
X154381200Y-78689200D02*
X157480000Y-81788000D01*
X157480000Y-88900000D02*
X157226000Y-89154000D01*
X157480000Y-81788000D02*
X157480000Y-88900000D01*
%TO.N,LED_1*%
X100838000Y-81678999D02*
X91041001Y-81678999D01*
X101455001Y-82296000D02*
X100838000Y-81678999D01*
X106972100Y-82296000D02*
X101455001Y-82296000D01*
X108602999Y-46449999D02*
X108602999Y-80665101D01*
X108602999Y-80665101D02*
X106972100Y-82296000D01*
X109187999Y-45864999D02*
X108602999Y-46449999D01*
X112920999Y-45864999D02*
X109187999Y-45864999D01*
X91041001Y-81678999D02*
X90424000Y-82296000D01*
X130556000Y-63500000D02*
X112920999Y-45864999D01*
%TO.N,RELAY*%
X131006591Y-75112999D02*
X130034239Y-75112999D01*
X133350000Y-72769590D02*
X131006591Y-75112999D01*
X133350000Y-67733238D02*
X133350000Y-72769590D01*
X154339737Y-46743501D02*
X133350000Y-67733238D01*
X129468999Y-77652999D02*
X129794001Y-77978001D01*
X155017261Y-46743501D02*
X154339737Y-46743501D01*
X130034239Y-75112999D02*
X129468999Y-75678239D01*
X155582501Y-45134739D02*
X155582501Y-46178261D01*
X155017261Y-44569499D02*
X155582501Y-45134739D01*
X130894762Y-49530000D02*
X135855263Y-44569499D01*
X129468999Y-75678239D02*
X129468999Y-77652999D01*
X155582501Y-46178261D02*
X155017261Y-46743501D01*
X129807264Y-49530000D02*
X130894762Y-49530000D01*
X129794001Y-77978001D02*
X130556000Y-78740000D01*
X120084254Y-39806990D02*
X129807264Y-49530000D01*
X135855263Y-44569499D02*
X155017261Y-44569499D01*
X117659746Y-39806990D02*
X120084254Y-39806990D01*
X114045436Y-43421300D02*
X117659746Y-39806990D01*
X92633800Y-43421300D02*
X114045436Y-43421300D01*
X88074500Y-38862000D02*
X92633800Y-43421300D01*
X76454000Y-38862000D02*
X88074500Y-38862000D01*
%TO.N,MQ2_DOUT_3V3*%
X131077761Y-67127001D02*
X143002000Y-55202762D01*
X124642999Y-67127001D02*
X131077761Y-67127001D01*
X122174000Y-69596000D02*
X124642999Y-67127001D01*
X143002000Y-55202762D02*
X143002000Y-50901600D01*
X148234400Y-45669200D02*
X154381200Y-45669200D01*
X143002000Y-50901600D02*
X148234400Y-45669200D01*
%TO.N,Net-(D3-Pad1)*%
X107807760Y-94706440D02*
X107929680Y-94828360D01*
X101833680Y-94706440D02*
X107807760Y-94706440D01*
%TO.N,Net-(D4-Pad2)*%
X106626599Y-106291441D02*
X107929680Y-104988360D01*
X95131557Y-106291441D02*
X106626599Y-106291441D01*
X90707957Y-110715041D02*
X95131557Y-106291441D01*
X85304881Y-110715041D02*
X90707957Y-110715041D01*
X84129880Y-109540040D02*
X85304881Y-110715041D01*
%TO.N,Net-(D5-Pad2)*%
X81589880Y-109540040D02*
X86542880Y-104587040D01*
X101554280Y-104587040D02*
X101833680Y-104866440D01*
X86542880Y-104587040D02*
X101554280Y-104587040D01*
%TD*%
D32*
%TO.N,+3V3*%
G36*
X170028000Y-104192986D02*
G01*
X170028000Y-112141000D01*
X120835801Y-112141000D01*
X122685003Y-110291799D01*
X122714001Y-110268001D01*
X122808974Y-110152276D01*
X122879546Y-110020247D01*
X122923003Y-109876986D01*
X122934000Y-109765333D01*
X122934000Y-109765324D01*
X122937676Y-109728001D01*
X122934000Y-109690678D01*
X122934000Y-108878000D01*
X127035928Y-108878000D01*
X127035928Y-110578000D01*
X127048188Y-110702482D01*
X127084498Y-110822180D01*
X127143463Y-110932494D01*
X127222815Y-111029185D01*
X127319506Y-111108537D01*
X127429820Y-111167502D01*
X127549518Y-111203812D01*
X127674000Y-111216072D01*
X129374000Y-111216072D01*
X129498482Y-111203812D01*
X129618180Y-111167502D01*
X129728494Y-111108537D01*
X129825185Y-111029185D01*
X129904537Y-110932494D01*
X129963502Y-110822180D01*
X129985513Y-110749620D01*
X130117368Y-110881475D01*
X130360589Y-111043990D01*
X130630842Y-111155932D01*
X130917740Y-111213000D01*
X131210260Y-111213000D01*
X131497158Y-111155932D01*
X131767411Y-111043990D01*
X132010632Y-110881475D01*
X132217475Y-110674632D01*
X132379990Y-110431411D01*
X132491932Y-110161158D01*
X132549000Y-109874260D01*
X132549000Y-109581740D01*
X132491932Y-109294842D01*
X132379990Y-109024589D01*
X132217475Y-108781368D01*
X132010632Y-108574525D01*
X131767411Y-108412010D01*
X131497158Y-108300068D01*
X131210260Y-108243000D01*
X130917740Y-108243000D01*
X130630842Y-108300068D01*
X130360589Y-108412010D01*
X130117368Y-108574525D01*
X129985513Y-108706380D01*
X129963502Y-108633820D01*
X129904537Y-108523506D01*
X129825185Y-108426815D01*
X129728494Y-108347463D01*
X129618180Y-108288498D01*
X129498482Y-108252188D01*
X129374000Y-108239928D01*
X128776000Y-108239928D01*
X128776000Y-106740801D01*
X128796209Y-106720592D01*
X138673000Y-106720592D01*
X138673000Y-108671407D01*
X138695210Y-108896912D01*
X138782983Y-109186260D01*
X138925519Y-109452926D01*
X139117339Y-109686661D01*
X139351073Y-109878481D01*
X139617739Y-110021017D01*
X139907087Y-110108790D01*
X140208000Y-110138427D01*
X140508912Y-110108790D01*
X140798260Y-110021017D01*
X141064926Y-109878481D01*
X141298661Y-109686661D01*
X141490481Y-109452927D01*
X141633017Y-109186261D01*
X141720790Y-108896913D01*
X141743000Y-108671408D01*
X141743000Y-106720592D01*
X141720790Y-106495087D01*
X141633017Y-106205739D01*
X141601086Y-106146000D01*
X143749928Y-106146000D01*
X143749928Y-109246000D01*
X143766992Y-109419254D01*
X143817528Y-109585850D01*
X143899595Y-109739386D01*
X144010038Y-109873962D01*
X144144614Y-109984405D01*
X144298150Y-110066472D01*
X144464746Y-110117008D01*
X144638000Y-110134072D01*
X145938000Y-110134072D01*
X146111254Y-110117008D01*
X146277850Y-110066472D01*
X146431386Y-109984405D01*
X146565962Y-109873962D01*
X146676405Y-109739386D01*
X146758472Y-109585850D01*
X146809008Y-109419254D01*
X146826072Y-109246000D01*
X146826072Y-106146000D01*
X146809008Y-105972746D01*
X146758472Y-105806150D01*
X146676405Y-105652614D01*
X146565962Y-105518038D01*
X146431386Y-105407595D01*
X146277850Y-105325528D01*
X146111254Y-105274992D01*
X145938000Y-105257928D01*
X144638000Y-105257928D01*
X144464746Y-105274992D01*
X144298150Y-105325528D01*
X144144614Y-105407595D01*
X144010038Y-105518038D01*
X143899595Y-105652614D01*
X143817528Y-105806150D01*
X143766992Y-105972746D01*
X143749928Y-106146000D01*
X141601086Y-106146000D01*
X141490481Y-105939073D01*
X141298661Y-105705339D01*
X141064927Y-105513519D01*
X140798261Y-105370983D01*
X140508913Y-105283210D01*
X140208000Y-105253573D01*
X139907088Y-105283210D01*
X139617740Y-105370983D01*
X139351074Y-105513519D01*
X139117340Y-105705339D01*
X138925520Y-105939073D01*
X138782984Y-106205739D01*
X138695211Y-106495087D01*
X138673000Y-106720592D01*
X128796209Y-106720592D01*
X131264136Y-104252665D01*
X155791000Y-104252665D01*
X155791000Y-104535335D01*
X155846147Y-104812574D01*
X155954320Y-105073727D01*
X156111363Y-105308759D01*
X156311241Y-105508637D01*
X156546273Y-105665680D01*
X156807426Y-105773853D01*
X157084665Y-105829000D01*
X157367335Y-105829000D01*
X157644574Y-105773853D01*
X157905727Y-105665680D01*
X158140759Y-105508637D01*
X158340637Y-105308759D01*
X158497680Y-105073727D01*
X158605853Y-104812574D01*
X158661000Y-104535335D01*
X158661000Y-104252665D01*
X158605853Y-103975426D01*
X158497680Y-103714273D01*
X158340637Y-103479241D01*
X158140759Y-103279363D01*
X157905727Y-103122320D01*
X157644574Y-103014147D01*
X157367335Y-102959000D01*
X157084665Y-102959000D01*
X156807426Y-103014147D01*
X156546273Y-103122320D01*
X156311241Y-103279363D01*
X156111363Y-103479241D01*
X155954320Y-103714273D01*
X155846147Y-103975426D01*
X155791000Y-104252665D01*
X131264136Y-104252665D01*
X135979000Y-99537802D01*
X135979000Y-99709335D01*
X136034147Y-99986574D01*
X136142320Y-100247727D01*
X136299363Y-100482759D01*
X136499241Y-100682637D01*
X136734273Y-100839680D01*
X136995426Y-100947853D01*
X137272665Y-101003000D01*
X137555335Y-101003000D01*
X137832574Y-100947853D01*
X138093727Y-100839680D01*
X138328759Y-100682637D01*
X138528637Y-100482759D01*
X138685680Y-100247727D01*
X138793853Y-99986574D01*
X138849000Y-99709335D01*
X138849000Y-99426665D01*
X151219000Y-99426665D01*
X151219000Y-99709335D01*
X151274147Y-99986574D01*
X151382320Y-100247727D01*
X151539363Y-100482759D01*
X151739241Y-100682637D01*
X151974273Y-100839680D01*
X152235426Y-100947853D01*
X152512665Y-101003000D01*
X152795335Y-101003000D01*
X153072574Y-100947853D01*
X153333727Y-100839680D01*
X153568759Y-100682637D01*
X153768637Y-100482759D01*
X153925680Y-100247727D01*
X154033853Y-99986574D01*
X154089000Y-99709335D01*
X154089000Y-99426665D01*
X154033853Y-99149426D01*
X153925680Y-98888273D01*
X153768637Y-98653241D01*
X153568759Y-98453363D01*
X153333727Y-98296320D01*
X153072574Y-98188147D01*
X152795335Y-98133000D01*
X152512665Y-98133000D01*
X152235426Y-98188147D01*
X151974273Y-98296320D01*
X151739241Y-98453363D01*
X151539363Y-98653241D01*
X151382320Y-98888273D01*
X151274147Y-99149426D01*
X151219000Y-99426665D01*
X138849000Y-99426665D01*
X138793853Y-99149426D01*
X138685680Y-98888273D01*
X138528637Y-98653241D01*
X138328759Y-98453363D01*
X138093727Y-98296320D01*
X137832574Y-98188147D01*
X137555335Y-98133000D01*
X137383802Y-98133000D01*
X141951803Y-93564999D01*
X145126456Y-93564999D01*
X145073000Y-93833740D01*
X145073000Y-94126260D01*
X145130068Y-94413158D01*
X145242010Y-94683411D01*
X145404525Y-94926632D01*
X145611368Y-95133475D01*
X145854589Y-95295990D01*
X146124842Y-95407932D01*
X146411740Y-95465000D01*
X146704260Y-95465000D01*
X146991158Y-95407932D01*
X147261411Y-95295990D01*
X147504632Y-95133475D01*
X147636487Y-95001620D01*
X147658498Y-95074180D01*
X147717463Y-95184494D01*
X147796815Y-95281185D01*
X147893506Y-95360537D01*
X148003820Y-95419502D01*
X148123518Y-95455812D01*
X148248000Y-95468072D01*
X149948000Y-95468072D01*
X150072482Y-95455812D01*
X150192180Y-95419502D01*
X150302494Y-95360537D01*
X150399185Y-95281185D01*
X150478537Y-95184494D01*
X150537502Y-95074180D01*
X150573812Y-94954482D01*
X150586072Y-94830000D01*
X150586072Y-93130000D01*
X150573812Y-93005518D01*
X150537502Y-92885820D01*
X150478537Y-92775506D01*
X150399185Y-92678815D01*
X150302494Y-92599463D01*
X150192180Y-92540498D01*
X150072482Y-92504188D01*
X149948000Y-92491928D01*
X148684729Y-92491928D01*
X148486803Y-92294002D01*
X148463000Y-92264998D01*
X148347275Y-92170025D01*
X148215246Y-92099453D01*
X148071985Y-92055996D01*
X147960332Y-92044999D01*
X147960321Y-92044999D01*
X147922999Y-92041323D01*
X147885677Y-92044999D01*
X141674323Y-92044999D01*
X141637000Y-92041323D01*
X141599677Y-92044999D01*
X141599668Y-92044999D01*
X141488015Y-92055996D01*
X141344754Y-92099453D01*
X141212725Y-92170025D01*
X141097000Y-92264998D01*
X141073202Y-92293996D01*
X127505003Y-105862196D01*
X127475999Y-105885999D01*
X127432443Y-105939073D01*
X127381026Y-106001724D01*
X127373810Y-106015225D01*
X127310454Y-106133754D01*
X127266997Y-106277015D01*
X127256000Y-106388668D01*
X127256000Y-106388678D01*
X127252324Y-106426000D01*
X127256000Y-106463323D01*
X127256001Y-108399580D01*
X127222815Y-108426815D01*
X127143463Y-108523506D01*
X127084498Y-108633820D01*
X127048188Y-108753518D01*
X127035928Y-108878000D01*
X122934000Y-108878000D01*
X122934000Y-89910920D01*
X126693359Y-89910920D01*
X126724010Y-90222124D01*
X126814785Y-90521369D01*
X126962195Y-90797155D01*
X127160577Y-91038883D01*
X127333649Y-91180920D01*
X127160577Y-91322957D01*
X126962195Y-91564685D01*
X126814785Y-91840471D01*
X126724010Y-92139716D01*
X126693359Y-92450920D01*
X126724010Y-92762124D01*
X126814785Y-93061369D01*
X126962195Y-93337155D01*
X127065486Y-93463015D01*
X126981546Y-93507883D01*
X126884855Y-93587235D01*
X126805503Y-93683926D01*
X126746538Y-93794240D01*
X126710228Y-93913938D01*
X126697968Y-94038420D01*
X126697968Y-95943420D01*
X126710228Y-96067902D01*
X126746538Y-96187600D01*
X126805503Y-96297914D01*
X126884855Y-96394605D01*
X126981546Y-96473957D01*
X127091860Y-96532922D01*
X127211558Y-96569232D01*
X127336040Y-96581492D01*
X129336040Y-96581492D01*
X129460522Y-96569232D01*
X129580220Y-96532922D01*
X129690534Y-96473957D01*
X129787225Y-96394605D01*
X129866577Y-96297914D01*
X129925542Y-96187600D01*
X129961852Y-96067902D01*
X129974112Y-95943420D01*
X129974112Y-94038420D01*
X129961852Y-93913938D01*
X129925542Y-93794240D01*
X129866577Y-93683926D01*
X129787225Y-93587235D01*
X129690534Y-93507883D01*
X129606594Y-93463015D01*
X129709885Y-93337155D01*
X129857295Y-93061369D01*
X129948070Y-92762124D01*
X129978721Y-92450920D01*
X129948070Y-92139716D01*
X129857295Y-91840471D01*
X129709885Y-91564685D01*
X129511503Y-91322957D01*
X129338431Y-91180920D01*
X129511503Y-91038883D01*
X129709885Y-90797155D01*
X129857295Y-90521369D01*
X129948070Y-90222124D01*
X129978721Y-89910920D01*
X129948070Y-89599716D01*
X129857295Y-89300471D01*
X129709885Y-89024685D01*
X129511503Y-88782957D01*
X129269775Y-88584575D01*
X128993989Y-88437165D01*
X128694744Y-88346390D01*
X128461526Y-88323420D01*
X128210554Y-88323420D01*
X127977336Y-88346390D01*
X127678091Y-88437165D01*
X127402305Y-88584575D01*
X127160577Y-88782957D01*
X126962195Y-89024685D01*
X126814785Y-89300471D01*
X126724010Y-89599716D01*
X126693359Y-89910920D01*
X122934000Y-89910920D01*
X122934000Y-86054043D01*
X123088759Y-85950637D01*
X123288637Y-85750759D01*
X123445680Y-85515727D01*
X123553853Y-85254574D01*
X123609000Y-84977335D01*
X123609000Y-84694665D01*
X123553853Y-84417426D01*
X123445680Y-84156273D01*
X123288637Y-83921241D01*
X123088759Y-83721363D01*
X122853727Y-83564320D01*
X122592574Y-83456147D01*
X122315335Y-83401000D01*
X122032665Y-83401000D01*
X121755426Y-83456147D01*
X121494273Y-83564320D01*
X121259241Y-83721363D01*
X121059363Y-83921241D01*
X120902320Y-84156273D01*
X120794147Y-84417426D01*
X120739000Y-84694665D01*
X120739000Y-84977335D01*
X120794147Y-85254574D01*
X120902320Y-85515727D01*
X121059363Y-85750759D01*
X121259241Y-85950637D01*
X121414000Y-86054043D01*
X121414000Y-91200187D01*
X121388385Y-91168975D01*
X121291694Y-91089623D01*
X121181380Y-91030658D01*
X121061682Y-90994348D01*
X120937200Y-90982088D01*
X118737200Y-90982088D01*
X118612718Y-90994348D01*
X118493020Y-91030658D01*
X118382706Y-91089623D01*
X118286015Y-91168975D01*
X118206663Y-91265666D01*
X118147698Y-91375980D01*
X118111388Y-91495678D01*
X118099128Y-91620160D01*
X118099128Y-93820160D01*
X118111388Y-93944642D01*
X118147698Y-94064340D01*
X118206663Y-94174654D01*
X118286015Y-94271345D01*
X118382706Y-94350697D01*
X118493020Y-94409662D01*
X118612718Y-94445972D01*
X118737200Y-94458232D01*
X120937200Y-94458232D01*
X121061682Y-94445972D01*
X121181380Y-94409662D01*
X121291694Y-94350697D01*
X121388385Y-94271345D01*
X121414000Y-94240132D01*
X121414001Y-102153120D01*
X121374737Y-102058329D01*
X121184863Y-101774162D01*
X120943198Y-101532497D01*
X120659031Y-101342623D01*
X120343281Y-101211835D01*
X120008083Y-101145160D01*
X119666317Y-101145160D01*
X119331119Y-101211835D01*
X119015369Y-101342623D01*
X118731202Y-101532497D01*
X118489537Y-101774162D01*
X118299663Y-102058329D01*
X118168875Y-102374079D01*
X118102200Y-102709277D01*
X118102200Y-103051043D01*
X118168875Y-103386241D01*
X118299663Y-103701991D01*
X118489537Y-103986158D01*
X118731202Y-104227823D01*
X119015369Y-104417697D01*
X119331119Y-104548485D01*
X119666317Y-104615160D01*
X120008083Y-104615160D01*
X120343281Y-104548485D01*
X120659031Y-104417697D01*
X120943198Y-104227823D01*
X121184863Y-103986158D01*
X121374737Y-103701991D01*
X121414001Y-103607200D01*
X121414001Y-109413197D01*
X119573199Y-111254000D01*
X103184802Y-111254000D01*
X102679454Y-110748653D01*
X102753475Y-110674632D01*
X102915990Y-110431411D01*
X103027932Y-110161158D01*
X103085000Y-109874260D01*
X103085000Y-109581740D01*
X103031544Y-109312999D01*
X110778198Y-109312999D01*
X110779928Y-109314729D01*
X110779928Y-110578000D01*
X110792188Y-110702482D01*
X110828498Y-110822180D01*
X110887463Y-110932494D01*
X110966815Y-111029185D01*
X111063506Y-111108537D01*
X111173820Y-111167502D01*
X111293518Y-111203812D01*
X111418000Y-111216072D01*
X113118000Y-111216072D01*
X113242482Y-111203812D01*
X113362180Y-111167502D01*
X113472494Y-111108537D01*
X113569185Y-111029185D01*
X113648537Y-110932494D01*
X113707502Y-110822180D01*
X113729513Y-110749620D01*
X113861368Y-110881475D01*
X114104589Y-111043990D01*
X114374842Y-111155932D01*
X114661740Y-111213000D01*
X114954260Y-111213000D01*
X115241158Y-111155932D01*
X115511411Y-111043990D01*
X115754632Y-110881475D01*
X115961475Y-110674632D01*
X116123990Y-110431411D01*
X116235932Y-110161158D01*
X116293000Y-109874260D01*
X116293000Y-109581740D01*
X116249210Y-109361592D01*
X117206010Y-108404793D01*
X117235002Y-108381000D01*
X117258796Y-108352007D01*
X117258800Y-108352003D01*
X117329974Y-108265276D01*
X117329975Y-108265275D01*
X117400547Y-108133246D01*
X117444004Y-107989985D01*
X117455001Y-107878332D01*
X117455001Y-107878323D01*
X117458677Y-107841000D01*
X117455001Y-107803677D01*
X117455001Y-71177804D01*
X123285805Y-65347001D01*
X129338890Y-65347001D01*
X129317995Y-65378273D01*
X129212686Y-65632510D01*
X129159000Y-65902408D01*
X129159000Y-66177592D01*
X129196676Y-66367001D01*
X124680322Y-66367001D01*
X124642999Y-66363325D01*
X124605676Y-66367001D01*
X124605666Y-66367001D01*
X124494013Y-66377998D01*
X124350752Y-66421455D01*
X124218723Y-66492027D01*
X124102998Y-66587000D01*
X124079200Y-66615998D01*
X122497886Y-68197312D01*
X122315335Y-68161000D01*
X122032665Y-68161000D01*
X121755426Y-68216147D01*
X121494273Y-68324320D01*
X121259241Y-68481363D01*
X121059363Y-68681241D01*
X120902320Y-68916273D01*
X120794147Y-69177426D01*
X120739000Y-69454665D01*
X120739000Y-69737335D01*
X120794147Y-70014574D01*
X120902320Y-70275727D01*
X121059363Y-70510759D01*
X121259241Y-70710637D01*
X121494273Y-70867680D01*
X121755426Y-70975853D01*
X122032665Y-71031000D01*
X122315335Y-71031000D01*
X122592574Y-70975853D01*
X122853727Y-70867680D01*
X123088759Y-70710637D01*
X123288637Y-70510759D01*
X123445680Y-70275727D01*
X123553853Y-70014574D01*
X123609000Y-69737335D01*
X123609000Y-69454665D01*
X123572688Y-69272114D01*
X124957801Y-67887001D01*
X129338890Y-67887001D01*
X129317995Y-67918273D01*
X129212686Y-68172510D01*
X129159000Y-68442408D01*
X129159000Y-68717592D01*
X129212686Y-68987490D01*
X129317995Y-69241727D01*
X129470880Y-69470535D01*
X129665465Y-69665120D01*
X129894273Y-69818005D01*
X129971515Y-69850000D01*
X129894273Y-69881995D01*
X129665465Y-70034880D01*
X129470880Y-70229465D01*
X129317995Y-70458273D01*
X129212686Y-70712510D01*
X129159000Y-70982408D01*
X129159000Y-71257592D01*
X129212686Y-71527490D01*
X129317995Y-71781727D01*
X129470880Y-72010535D01*
X129665465Y-72205120D01*
X129894273Y-72358005D01*
X129971515Y-72390000D01*
X129894273Y-72421995D01*
X129665465Y-72574880D01*
X129470880Y-72769465D01*
X129317995Y-72998273D01*
X129212686Y-73252510D01*
X129159000Y-73522408D01*
X129159000Y-73797592D01*
X129212686Y-74067490D01*
X129317995Y-74321727D01*
X129470880Y-74550535D01*
X129493835Y-74573490D01*
X129470439Y-74601997D01*
X128958001Y-75114436D01*
X128928998Y-75138238D01*
X128873870Y-75205413D01*
X128834025Y-75253963D01*
X128780407Y-75354275D01*
X128763453Y-75385993D01*
X128719996Y-75529254D01*
X128708999Y-75640907D01*
X128708999Y-75640917D01*
X128705323Y-75678239D01*
X128708999Y-75715562D01*
X128709000Y-77615667D01*
X128705323Y-77652999D01*
X128719997Y-77801984D01*
X128763453Y-77945245D01*
X128834025Y-78077275D01*
X128893052Y-78149199D01*
X128928999Y-78193000D01*
X128957997Y-78216798D01*
X129189628Y-78448429D01*
X129159000Y-78602408D01*
X129159000Y-78877592D01*
X129212686Y-79147490D01*
X129317995Y-79401727D01*
X129470880Y-79630535D01*
X129665465Y-79825120D01*
X129894273Y-79978005D01*
X129971515Y-80010000D01*
X129894273Y-80041995D01*
X129665465Y-80194880D01*
X129470880Y-80389465D01*
X129317995Y-80618273D01*
X129212686Y-80872510D01*
X129159000Y-81142408D01*
X129159000Y-81417592D01*
X129212686Y-81687490D01*
X129317995Y-81941727D01*
X129470880Y-82170535D01*
X129665465Y-82365120D01*
X129894273Y-82518005D01*
X130148510Y-82623314D01*
X130418408Y-82677000D01*
X130693592Y-82677000D01*
X130963490Y-82623314D01*
X131217727Y-82518005D01*
X131446535Y-82365120D01*
X131641120Y-82170535D01*
X131794005Y-81941727D01*
X131899314Y-81687490D01*
X131953000Y-81417592D01*
X131953000Y-81142408D01*
X131899314Y-80872510D01*
X131794005Y-80618273D01*
X131641120Y-80389465D01*
X131446535Y-80194880D01*
X131217727Y-80041995D01*
X131140485Y-80010000D01*
X131217727Y-79978005D01*
X131446535Y-79825120D01*
X131641120Y-79630535D01*
X131794005Y-79401727D01*
X131899314Y-79147490D01*
X131953000Y-78877592D01*
X131953000Y-78602408D01*
X131899314Y-78332510D01*
X131794005Y-78078273D01*
X131641120Y-77849465D01*
X131446535Y-77654880D01*
X131217727Y-77501995D01*
X131140485Y-77470000D01*
X131217727Y-77438005D01*
X131446535Y-77285120D01*
X131641120Y-77090535D01*
X131794005Y-76861727D01*
X131899314Y-76607490D01*
X131953000Y-76337592D01*
X131953000Y-76062408D01*
X131922372Y-75908430D01*
X134493000Y-73337803D01*
X134493000Y-90424000D01*
X134495440Y-90448776D01*
X134502667Y-90472601D01*
X134514403Y-90494557D01*
X134530197Y-90513803D01*
X134549443Y-90529597D01*
X134571399Y-90541333D01*
X134595224Y-90548560D01*
X134620000Y-90551000D01*
X152908000Y-90551000D01*
X152932776Y-90548560D01*
X152956601Y-90541333D01*
X152978557Y-90529597D01*
X152997803Y-90513803D01*
X153013597Y-90494557D01*
X153025333Y-90472601D01*
X153032560Y-90448776D01*
X153034999Y-90423464D01*
X152972832Y-75690000D01*
X153194647Y-75690000D01*
X153152186Y-75792510D01*
X153098500Y-76062408D01*
X153098500Y-76337592D01*
X153152186Y-76607490D01*
X153257495Y-76861727D01*
X153410380Y-77090535D01*
X153604965Y-77285120D01*
X153833773Y-77438005D01*
X153911015Y-77470000D01*
X153833773Y-77501995D01*
X153604965Y-77654880D01*
X153410380Y-77849465D01*
X153257495Y-78078273D01*
X153152186Y-78332510D01*
X153098500Y-78602408D01*
X153098500Y-78877592D01*
X153152186Y-79147490D01*
X153257495Y-79401727D01*
X153410380Y-79630535D01*
X153604965Y-79825120D01*
X153833773Y-79978005D01*
X153911015Y-80010000D01*
X153833773Y-80041995D01*
X153604965Y-80194880D01*
X153410380Y-80389465D01*
X153257495Y-80618273D01*
X153152186Y-80872510D01*
X153098500Y-81142408D01*
X153098500Y-81417592D01*
X153152186Y-81687490D01*
X153257495Y-81941727D01*
X153410380Y-82170535D01*
X153604965Y-82365120D01*
X153833773Y-82518005D01*
X154088010Y-82623314D01*
X154357908Y-82677000D01*
X154633092Y-82677000D01*
X154902990Y-82623314D01*
X155157227Y-82518005D01*
X155386035Y-82365120D01*
X155580620Y-82170535D01*
X155733505Y-81941727D01*
X155838814Y-81687490D01*
X155892500Y-81417592D01*
X155892500Y-81275302D01*
X156720000Y-82102802D01*
X156720001Y-87810360D01*
X156546273Y-87882320D01*
X156311241Y-88039363D01*
X156111363Y-88239241D01*
X155954320Y-88474273D01*
X155846147Y-88735426D01*
X155791000Y-89012665D01*
X155791000Y-89295335D01*
X155846147Y-89572574D01*
X155954320Y-89833727D01*
X156111363Y-90068759D01*
X156311241Y-90268637D01*
X156546273Y-90425680D01*
X156807426Y-90533853D01*
X157084665Y-90589000D01*
X157367335Y-90589000D01*
X157644574Y-90533853D01*
X157905727Y-90425680D01*
X158140759Y-90268637D01*
X158340637Y-90068759D01*
X158497680Y-89833727D01*
X158605853Y-89572574D01*
X158661000Y-89295335D01*
X158661000Y-89012665D01*
X158605853Y-88735426D01*
X158497680Y-88474273D01*
X158340637Y-88239241D01*
X158240000Y-88138604D01*
X158240000Y-81825322D01*
X158243676Y-81788000D01*
X158240000Y-81750677D01*
X158240000Y-81750667D01*
X158229003Y-81639014D01*
X158185546Y-81495753D01*
X158149747Y-81428778D01*
X158114974Y-81363723D01*
X158043799Y-81276997D01*
X158020001Y-81247999D01*
X157991004Y-81224202D01*
X155851336Y-79084535D01*
X155892500Y-78877592D01*
X155892500Y-78602408D01*
X155838814Y-78332510D01*
X155733505Y-78078273D01*
X155580620Y-77849465D01*
X155386035Y-77654880D01*
X155157227Y-77501995D01*
X155079985Y-77470000D01*
X155157227Y-77438005D01*
X155386035Y-77285120D01*
X155580620Y-77090535D01*
X155733505Y-76861727D01*
X155838814Y-76607490D01*
X155892500Y-76337592D01*
X155892500Y-76062408D01*
X155838814Y-75792510D01*
X155796353Y-75690000D01*
X158435199Y-75690000D01*
X159260001Y-76514803D01*
X159260000Y-108957822D01*
X159073368Y-109082525D01*
X158866525Y-109289368D01*
X158750000Y-109463760D01*
X158633475Y-109289368D01*
X158426632Y-109082525D01*
X158183411Y-108920010D01*
X157913158Y-108808068D01*
X157626260Y-108751000D01*
X157333740Y-108751000D01*
X157046842Y-108808068D01*
X156776589Y-108920010D01*
X156533368Y-109082525D01*
X156401513Y-109214380D01*
X156379502Y-109141820D01*
X156320537Y-109031506D01*
X156241185Y-108934815D01*
X156144494Y-108855463D01*
X156034180Y-108796498D01*
X155914482Y-108760188D01*
X155790000Y-108747928D01*
X154090000Y-108747928D01*
X153965518Y-108760188D01*
X153845820Y-108796498D01*
X153735506Y-108855463D01*
X153638815Y-108934815D01*
X153559463Y-109031506D01*
X153500498Y-109141820D01*
X153464188Y-109261518D01*
X153451928Y-109386000D01*
X153451928Y-111086000D01*
X153464188Y-111210482D01*
X153500498Y-111330180D01*
X153559463Y-111440494D01*
X153638815Y-111537185D01*
X153735506Y-111616537D01*
X153845820Y-111675502D01*
X153965518Y-111711812D01*
X154090000Y-111724072D01*
X155790000Y-111724072D01*
X155914482Y-111711812D01*
X156034180Y-111675502D01*
X156144494Y-111616537D01*
X156241185Y-111537185D01*
X156320537Y-111440494D01*
X156379502Y-111330180D01*
X156401513Y-111257620D01*
X156533368Y-111389475D01*
X156776589Y-111551990D01*
X157046842Y-111663932D01*
X157333740Y-111721000D01*
X157626260Y-111721000D01*
X157913158Y-111663932D01*
X158183411Y-111551990D01*
X158426632Y-111389475D01*
X158633475Y-111182632D01*
X158750000Y-111008240D01*
X158866525Y-111182632D01*
X159073368Y-111389475D01*
X159316589Y-111551990D01*
X159586842Y-111663932D01*
X159873740Y-111721000D01*
X160166260Y-111721000D01*
X160453158Y-111663932D01*
X160723411Y-111551990D01*
X160966632Y-111389475D01*
X161173475Y-111182632D01*
X161290000Y-111008240D01*
X161406525Y-111182632D01*
X161613368Y-111389475D01*
X161856589Y-111551990D01*
X162126842Y-111663932D01*
X162413740Y-111721000D01*
X162706260Y-111721000D01*
X162993158Y-111663932D01*
X163263411Y-111551990D01*
X163506632Y-111389475D01*
X163713475Y-111182632D01*
X163830000Y-111008240D01*
X163946525Y-111182632D01*
X164153368Y-111389475D01*
X164396589Y-111551990D01*
X164666842Y-111663932D01*
X164953740Y-111721000D01*
X165246260Y-111721000D01*
X165533158Y-111663932D01*
X165803411Y-111551990D01*
X166046632Y-111389475D01*
X166253475Y-111182632D01*
X166375195Y-111000466D01*
X166444822Y-111117355D01*
X166639731Y-111333588D01*
X166873080Y-111507641D01*
X167135901Y-111632825D01*
X167283110Y-111677476D01*
X167513000Y-111556155D01*
X167513000Y-110363000D01*
X167767000Y-110363000D01*
X167767000Y-111556155D01*
X167996890Y-111677476D01*
X168144099Y-111632825D01*
X168406920Y-111507641D01*
X168640269Y-111333588D01*
X168835178Y-111117355D01*
X168984157Y-110867252D01*
X169081481Y-110592891D01*
X168960814Y-110363000D01*
X167767000Y-110363000D01*
X167513000Y-110363000D01*
X167493000Y-110363000D01*
X167493000Y-110109000D01*
X167513000Y-110109000D01*
X167513000Y-108915845D01*
X167767000Y-108915845D01*
X167767000Y-110109000D01*
X168960814Y-110109000D01*
X169081481Y-109879109D01*
X168984157Y-109604748D01*
X168835178Y-109354645D01*
X168640269Y-109138412D01*
X168406920Y-108964359D01*
X168144099Y-108839175D01*
X167996890Y-108794524D01*
X167767000Y-108915845D01*
X167513000Y-108915845D01*
X167283110Y-108794524D01*
X167135901Y-108839175D01*
X166873080Y-108964359D01*
X166639731Y-109138412D01*
X166444822Y-109354645D01*
X166375195Y-109471534D01*
X166253475Y-109289368D01*
X166046632Y-109082525D01*
X165803411Y-108920010D01*
X165533158Y-108808068D01*
X165246260Y-108751000D01*
X164953740Y-108751000D01*
X164666842Y-108808068D01*
X164396589Y-108920010D01*
X164153368Y-109082525D01*
X163946525Y-109289368D01*
X163830000Y-109463760D01*
X163713475Y-109289368D01*
X163506632Y-109082525D01*
X163263411Y-108920010D01*
X162993158Y-108808068D01*
X162706260Y-108751000D01*
X162413740Y-108751000D01*
X162126842Y-108808068D01*
X161856589Y-108920010D01*
X161613368Y-109082525D01*
X161406525Y-109289368D01*
X161290000Y-109463760D01*
X161173475Y-109289368D01*
X160966632Y-109082525D01*
X160780000Y-108957822D01*
X160780000Y-93330000D01*
X162915928Y-93330000D01*
X162915928Y-94630000D01*
X162932992Y-94803254D01*
X162983528Y-94969850D01*
X163065595Y-95123386D01*
X163176038Y-95257962D01*
X163310614Y-95368405D01*
X163464150Y-95450472D01*
X163630746Y-95501008D01*
X163804000Y-95518072D01*
X166904000Y-95518072D01*
X167077254Y-95501008D01*
X167243850Y-95450472D01*
X167397386Y-95368405D01*
X167531962Y-95257962D01*
X167642405Y-95123386D01*
X167724472Y-94969850D01*
X167775008Y-94803254D01*
X167792072Y-94630000D01*
X167792072Y-93330000D01*
X167775008Y-93156746D01*
X167724472Y-92990150D01*
X167642405Y-92836614D01*
X167531962Y-92702038D01*
X167397386Y-92591595D01*
X167243850Y-92509528D01*
X167077254Y-92458992D01*
X166904000Y-92441928D01*
X163804000Y-92441928D01*
X163630746Y-92458992D01*
X163464150Y-92509528D01*
X163310614Y-92591595D01*
X163176038Y-92702038D01*
X163065595Y-92836614D01*
X162983528Y-92990150D01*
X162932992Y-93156746D01*
X162915928Y-93330000D01*
X160780000Y-93330000D01*
X160780000Y-88900000D01*
X162911573Y-88900000D01*
X162941210Y-89200913D01*
X163028983Y-89490261D01*
X163171519Y-89756927D01*
X163363339Y-89990661D01*
X163597073Y-90182481D01*
X163863739Y-90325017D01*
X164153087Y-90412790D01*
X164378592Y-90435000D01*
X166329408Y-90435000D01*
X166554913Y-90412790D01*
X166844261Y-90325017D01*
X167110927Y-90182481D01*
X167344661Y-89990661D01*
X167536481Y-89756927D01*
X167679017Y-89490261D01*
X167766790Y-89200913D01*
X167796427Y-88900000D01*
X167766790Y-88599087D01*
X167679017Y-88309739D01*
X167536481Y-88043073D01*
X167344661Y-87809339D01*
X167110927Y-87617519D01*
X166844261Y-87474983D01*
X166554913Y-87387210D01*
X166329408Y-87365000D01*
X164378592Y-87365000D01*
X164153087Y-87387210D01*
X163863739Y-87474983D01*
X163597073Y-87617519D01*
X163363339Y-87809339D01*
X163171519Y-88043073D01*
X163028983Y-88309739D01*
X162941210Y-88599087D01*
X162911573Y-88900000D01*
X160780000Y-88900000D01*
X160780000Y-83820000D01*
X162911573Y-83820000D01*
X162941210Y-84120913D01*
X163028983Y-84410261D01*
X163171519Y-84676927D01*
X163363339Y-84910661D01*
X163597073Y-85102481D01*
X163863739Y-85245017D01*
X164153087Y-85332790D01*
X164378592Y-85355000D01*
X166329408Y-85355000D01*
X166554913Y-85332790D01*
X166844261Y-85245017D01*
X167110927Y-85102481D01*
X167344661Y-84910661D01*
X167536481Y-84676927D01*
X167679017Y-84410261D01*
X167766790Y-84120913D01*
X167796427Y-83820000D01*
X167766790Y-83519087D01*
X167679017Y-83229739D01*
X167536481Y-82963073D01*
X167344661Y-82729339D01*
X167110927Y-82537519D01*
X166844261Y-82394983D01*
X166554913Y-82307210D01*
X166329408Y-82285000D01*
X164378592Y-82285000D01*
X164153087Y-82307210D01*
X163863739Y-82394983D01*
X163597073Y-82537519D01*
X163363339Y-82729339D01*
X163171519Y-82963073D01*
X163028983Y-83229739D01*
X162941210Y-83519087D01*
X162911573Y-83820000D01*
X160780000Y-83820000D01*
X160780000Y-76237322D01*
X160783676Y-76199999D01*
X160780000Y-76162676D01*
X160780000Y-76077906D01*
X160769003Y-75966253D01*
X160725546Y-75822992D01*
X160654974Y-75690963D01*
X160560001Y-75575237D01*
X160444276Y-75480264D01*
X160312247Y-75409692D01*
X160301118Y-75406316D01*
X159510000Y-74615199D01*
X159510000Y-73974801D01*
X160804702Y-72680100D01*
X161011378Y-72680100D01*
X161048700Y-72683776D01*
X161086022Y-72680100D01*
X161086033Y-72680100D01*
X161197686Y-72669103D01*
X161340947Y-72625646D01*
X161472976Y-72555074D01*
X161588701Y-72460101D01*
X161612504Y-72431097D01*
X165367600Y-68676002D01*
X165367600Y-68802460D01*
X165424668Y-69089358D01*
X165536610Y-69359611D01*
X165699125Y-69602832D01*
X165905968Y-69809675D01*
X166080360Y-69926200D01*
X165905968Y-70042725D01*
X165699125Y-70249568D01*
X165536610Y-70492789D01*
X165424668Y-70763042D01*
X165367600Y-71049940D01*
X165367600Y-71342460D01*
X165424668Y-71629358D01*
X165536610Y-71899611D01*
X165699125Y-72142832D01*
X165905968Y-72349675D01*
X166080360Y-72466200D01*
X165905968Y-72582725D01*
X165699125Y-72789568D01*
X165536610Y-73032789D01*
X165424668Y-73303042D01*
X165367600Y-73589940D01*
X165367600Y-73882460D01*
X165424668Y-74169358D01*
X165536610Y-74439611D01*
X165699125Y-74682832D01*
X165905968Y-74889675D01*
X166080360Y-75006200D01*
X165905968Y-75122725D01*
X165699125Y-75329568D01*
X165536610Y-75572789D01*
X165424668Y-75843042D01*
X165367600Y-76129940D01*
X165367600Y-76422460D01*
X165424668Y-76709358D01*
X165536610Y-76979611D01*
X165699125Y-77222832D01*
X165905968Y-77429675D01*
X166149189Y-77592190D01*
X166419442Y-77704132D01*
X166706340Y-77761200D01*
X166998860Y-77761200D01*
X167285758Y-77704132D01*
X167556011Y-77592190D01*
X167799232Y-77429675D01*
X168006075Y-77222832D01*
X168168590Y-76979611D01*
X168280532Y-76709358D01*
X168337600Y-76422460D01*
X168337600Y-76129940D01*
X168280532Y-75843042D01*
X168168590Y-75572789D01*
X168006075Y-75329568D01*
X167799232Y-75122725D01*
X167624840Y-75006200D01*
X167799232Y-74889675D01*
X168006075Y-74682832D01*
X168168590Y-74439611D01*
X168280532Y-74169358D01*
X168337600Y-73882460D01*
X168337600Y-73589940D01*
X168280532Y-73303042D01*
X168168590Y-73032789D01*
X168006075Y-72789568D01*
X167799232Y-72582725D01*
X167624840Y-72466200D01*
X167799232Y-72349675D01*
X168006075Y-72142832D01*
X168168590Y-71899611D01*
X168280532Y-71629358D01*
X168337600Y-71342460D01*
X168337600Y-71049940D01*
X168280532Y-70763042D01*
X168168590Y-70492789D01*
X168006075Y-70249568D01*
X167799232Y-70042725D01*
X167624840Y-69926200D01*
X167799232Y-69809675D01*
X168006075Y-69602832D01*
X168168590Y-69359611D01*
X168280532Y-69089358D01*
X168337600Y-68802460D01*
X168337600Y-68509940D01*
X168280532Y-68223042D01*
X168168590Y-67952789D01*
X168006075Y-67709568D01*
X167799232Y-67502725D01*
X167624840Y-67386200D01*
X167799232Y-67269675D01*
X168006075Y-67062832D01*
X168168590Y-66819611D01*
X168280532Y-66549358D01*
X168337600Y-66262460D01*
X168337600Y-65969940D01*
X168293810Y-65749792D01*
X169077513Y-64966089D01*
X169106511Y-64942291D01*
X169201484Y-64826566D01*
X169272056Y-64694537D01*
X169315513Y-64551276D01*
X169326510Y-64439623D01*
X169326510Y-64439615D01*
X169330186Y-64402290D01*
X169326510Y-64364965D01*
X169326510Y-39214835D01*
X169330186Y-39177510D01*
X169326510Y-39140185D01*
X169326510Y-39140177D01*
X169315513Y-39028524D01*
X169272056Y-38885263D01*
X169201484Y-38753234D01*
X169106511Y-38637509D01*
X169077514Y-38613712D01*
X164362560Y-33898759D01*
X164533411Y-33827990D01*
X164776632Y-33665475D01*
X164983475Y-33458632D01*
X165105195Y-33276466D01*
X165174822Y-33393355D01*
X165369731Y-33609588D01*
X165603080Y-33783641D01*
X165865901Y-33908825D01*
X166013110Y-33953476D01*
X166243000Y-33832155D01*
X166243000Y-32639000D01*
X166497000Y-32639000D01*
X166497000Y-33832155D01*
X166726890Y-33953476D01*
X166874099Y-33908825D01*
X167136920Y-33783641D01*
X167370269Y-33609588D01*
X167565178Y-33393355D01*
X167714157Y-33143252D01*
X167811481Y-32868891D01*
X167690814Y-32639000D01*
X166497000Y-32639000D01*
X166243000Y-32639000D01*
X166223000Y-32639000D01*
X166223000Y-32385000D01*
X166243000Y-32385000D01*
X166243000Y-31191845D01*
X166497000Y-31191845D01*
X166497000Y-32385000D01*
X167690814Y-32385000D01*
X167811481Y-32155109D01*
X167714157Y-31880748D01*
X167565178Y-31630645D01*
X167370269Y-31414412D01*
X167136920Y-31240359D01*
X166874099Y-31115175D01*
X166726890Y-31070524D01*
X166497000Y-31191845D01*
X166243000Y-31191845D01*
X166013110Y-31070524D01*
X165865901Y-31115175D01*
X165603080Y-31240359D01*
X165369731Y-31414412D01*
X165174822Y-31630645D01*
X165105195Y-31747534D01*
X164983475Y-31565368D01*
X164776632Y-31358525D01*
X164533411Y-31196010D01*
X164263158Y-31084068D01*
X163976260Y-31027000D01*
X163683740Y-31027000D01*
X163396842Y-31084068D01*
X163126589Y-31196010D01*
X162923509Y-31331704D01*
X162417804Y-30826001D01*
X162394002Y-30796998D01*
X162278277Y-30702025D01*
X162146248Y-30631453D01*
X162002987Y-30587996D01*
X161891334Y-30576999D01*
X161891323Y-30576999D01*
X161854001Y-30573323D01*
X161816679Y-30576999D01*
X160763321Y-30576999D01*
X160725998Y-30573323D01*
X160688675Y-30576999D01*
X160688666Y-30576999D01*
X160577013Y-30587996D01*
X160433752Y-30631453D01*
X160301723Y-30702025D01*
X160301721Y-30702026D01*
X160301722Y-30702026D01*
X160214995Y-30773200D01*
X160214991Y-30773204D01*
X160185998Y-30796998D01*
X160162204Y-30825991D01*
X159890786Y-31097410D01*
X159844180Y-31072498D01*
X159724482Y-31036188D01*
X159600000Y-31023928D01*
X157900000Y-31023928D01*
X157775518Y-31036188D01*
X157655820Y-31072498D01*
X157545506Y-31131463D01*
X157448815Y-31210815D01*
X157369463Y-31307506D01*
X157310498Y-31417820D01*
X157274188Y-31537518D01*
X157261928Y-31662000D01*
X157261928Y-33362000D01*
X157274188Y-33486482D01*
X157310498Y-33606180D01*
X157369463Y-33716494D01*
X157448815Y-33813185D01*
X157545506Y-33892537D01*
X157655820Y-33951502D01*
X157775518Y-33987812D01*
X157900000Y-34000072D01*
X157990001Y-34000072D01*
X157990000Y-37694377D01*
X157986324Y-37731700D01*
X157990000Y-37769022D01*
X157990000Y-37769032D01*
X158000997Y-37880685D01*
X158022331Y-37951014D01*
X158044454Y-38023946D01*
X158115026Y-38155976D01*
X158136608Y-38182273D01*
X158209999Y-38271701D01*
X158239003Y-38295504D01*
X160164498Y-40221000D01*
X160132665Y-40221000D01*
X159855426Y-40276147D01*
X159594273Y-40384320D01*
X159359241Y-40541363D01*
X159159363Y-40741241D01*
X159002320Y-40976273D01*
X158894147Y-41237426D01*
X158839000Y-41514665D01*
X158839000Y-41797335D01*
X158894147Y-42074574D01*
X159002320Y-42335727D01*
X159159363Y-42570759D01*
X159359241Y-42770637D01*
X159594273Y-42927680D01*
X159855426Y-43035853D01*
X160132665Y-43091000D01*
X160415335Y-43091000D01*
X160692574Y-43035853D01*
X160953727Y-42927680D01*
X161188759Y-42770637D01*
X161388637Y-42570759D01*
X161444401Y-42487303D01*
X161444400Y-44768277D01*
X161440724Y-44805600D01*
X161444400Y-44842922D01*
X161444400Y-44842932D01*
X161455397Y-44954585D01*
X161486547Y-45057274D01*
X161498854Y-45097846D01*
X161569426Y-45229876D01*
X161600692Y-45267973D01*
X161664399Y-45345601D01*
X161693403Y-45369404D01*
X163869199Y-47545201D01*
X163892998Y-47574200D01*
X163921996Y-47597998D01*
X164008722Y-47669173D01*
X164063022Y-47698197D01*
X164140752Y-47739745D01*
X164284013Y-47783202D01*
X164395666Y-47794199D01*
X164395676Y-47794199D01*
X164432999Y-47797875D01*
X164470322Y-47794199D01*
X165451698Y-47794199D01*
X165453428Y-47795929D01*
X165453428Y-49059200D01*
X165465688Y-49183682D01*
X165501998Y-49303380D01*
X165560963Y-49413694D01*
X165640315Y-49510385D01*
X165737006Y-49589737D01*
X165847320Y-49648702D01*
X165967018Y-49685012D01*
X166091500Y-49697272D01*
X167356501Y-49697272D01*
X167356502Y-57010012D01*
X167138350Y-57011200D01*
X166979600Y-57169950D01*
X166979600Y-58369200D01*
X166999600Y-58369200D01*
X166999600Y-58623200D01*
X166979600Y-58623200D01*
X166979600Y-58643200D01*
X166725600Y-58643200D01*
X166725600Y-58623200D01*
X165526350Y-58623200D01*
X165367600Y-58781950D01*
X165364528Y-59346200D01*
X165376788Y-59470682D01*
X165413098Y-59590380D01*
X165472063Y-59700694D01*
X165551415Y-59797385D01*
X165648106Y-59876737D01*
X165758420Y-59935702D01*
X165830980Y-59957713D01*
X165699125Y-60089568D01*
X165536610Y-60332789D01*
X165424668Y-60603042D01*
X165367600Y-60889940D01*
X165367600Y-61182460D01*
X165424668Y-61469358D01*
X165536610Y-61739611D01*
X165699125Y-61982832D01*
X165905968Y-62189675D01*
X166080360Y-62306200D01*
X165905968Y-62422725D01*
X165699125Y-62629568D01*
X165536610Y-62872789D01*
X165424668Y-63143042D01*
X165367600Y-63429940D01*
X165367600Y-63722460D01*
X165411391Y-63942608D01*
X165278000Y-64075999D01*
X165206825Y-64162725D01*
X165136253Y-64294755D01*
X165092797Y-64438016D01*
X165078123Y-64587001D01*
X165092797Y-64735986D01*
X165136253Y-64879247D01*
X165206825Y-65011277D01*
X165301798Y-65127002D01*
X165417523Y-65221975D01*
X165549553Y-65292547D01*
X165605595Y-65309546D01*
X165536610Y-65412789D01*
X165424668Y-65683042D01*
X165367600Y-65969940D01*
X165367600Y-66262460D01*
X165411390Y-66482608D01*
X160733899Y-71160100D01*
X160527222Y-71160100D01*
X160489899Y-71156424D01*
X160452576Y-71160100D01*
X160452567Y-71160100D01*
X160340914Y-71171097D01*
X160197653Y-71214554D01*
X160065624Y-71285126D01*
X159949899Y-71380099D01*
X159926101Y-71409097D01*
X158239003Y-73096196D01*
X158209999Y-73119999D01*
X158154871Y-73187174D01*
X158115026Y-73235724D01*
X158106054Y-73252510D01*
X158044454Y-73367754D01*
X158000997Y-73511015D01*
X157990000Y-73622668D01*
X157990000Y-73622678D01*
X157986324Y-73660000D01*
X157990000Y-73697323D01*
X157990000Y-74170000D01*
X155796353Y-74170000D01*
X155838814Y-74067490D01*
X155892500Y-73797592D01*
X155892500Y-73522408D01*
X155838814Y-73252510D01*
X155733505Y-72998273D01*
X155580620Y-72769465D01*
X155386035Y-72574880D01*
X155157227Y-72421995D01*
X155079985Y-72390000D01*
X155157227Y-72358005D01*
X155386035Y-72205120D01*
X155580620Y-72010535D01*
X155733505Y-71781727D01*
X155838814Y-71527490D01*
X155892500Y-71257592D01*
X155892500Y-70982408D01*
X155838814Y-70712510D01*
X155733505Y-70458273D01*
X155580620Y-70229465D01*
X155386035Y-70034880D01*
X155157227Y-69881995D01*
X155079985Y-69850000D01*
X155157227Y-69818005D01*
X155386035Y-69665120D01*
X155580620Y-69470535D01*
X155733505Y-69241727D01*
X155838814Y-68987490D01*
X155892500Y-68717592D01*
X155892500Y-68442408D01*
X155838814Y-68172510D01*
X155733505Y-67918273D01*
X155580620Y-67689465D01*
X155386035Y-67494880D01*
X155157227Y-67341995D01*
X155079985Y-67310000D01*
X155157227Y-67278005D01*
X155386035Y-67125120D01*
X155580620Y-66930535D01*
X155733505Y-66701727D01*
X155838814Y-66447490D01*
X155892500Y-66177592D01*
X155892500Y-65902408D01*
X155838814Y-65632510D01*
X155733505Y-65378273D01*
X155580620Y-65149465D01*
X155386035Y-64954880D01*
X155157227Y-64801995D01*
X155079985Y-64770000D01*
X155157227Y-64738005D01*
X155386035Y-64585120D01*
X155580620Y-64390535D01*
X155733505Y-64161727D01*
X155838814Y-63907490D01*
X155892500Y-63637592D01*
X155892500Y-63362408D01*
X155838814Y-63092510D01*
X155733505Y-62838273D01*
X155580620Y-62609465D01*
X155386035Y-62414880D01*
X155157227Y-62261995D01*
X155079985Y-62230000D01*
X155157227Y-62198005D01*
X155386035Y-62045120D01*
X155580620Y-61850535D01*
X155733505Y-61621727D01*
X155838814Y-61367490D01*
X155892500Y-61097592D01*
X155892500Y-60822408D01*
X155838814Y-60552510D01*
X155733505Y-60298273D01*
X155580620Y-60069465D01*
X155386035Y-59874880D01*
X155157227Y-59721995D01*
X155003334Y-59658250D01*
X155157227Y-59594505D01*
X155386035Y-59441620D01*
X155580620Y-59247035D01*
X155733505Y-59018227D01*
X155838814Y-58763990D01*
X155892500Y-58494092D01*
X155892500Y-58218908D01*
X155838814Y-57949010D01*
X155733505Y-57694773D01*
X155580620Y-57465965D01*
X155386035Y-57271380D01*
X155157227Y-57118495D01*
X155079985Y-57086500D01*
X155157227Y-57054505D01*
X155386035Y-56901620D01*
X155532990Y-56754665D01*
X158839000Y-56754665D01*
X158839000Y-57037335D01*
X158894147Y-57314574D01*
X159002320Y-57575727D01*
X159159363Y-57810759D01*
X159359241Y-58010637D01*
X159594273Y-58167680D01*
X159855426Y-58275853D01*
X160132665Y-58331000D01*
X160415335Y-58331000D01*
X160692574Y-58275853D01*
X160953727Y-58167680D01*
X161188759Y-58010637D01*
X161388637Y-57810759D01*
X161498591Y-57646200D01*
X165364528Y-57646200D01*
X165367600Y-58210450D01*
X165526350Y-58369200D01*
X166725600Y-58369200D01*
X166725600Y-57169950D01*
X166566850Y-57011200D01*
X166002600Y-57008128D01*
X165878118Y-57020388D01*
X165758420Y-57056698D01*
X165648106Y-57115663D01*
X165551415Y-57195015D01*
X165472063Y-57291706D01*
X165413098Y-57402020D01*
X165376788Y-57521718D01*
X165364528Y-57646200D01*
X161498591Y-57646200D01*
X161545680Y-57575727D01*
X161653853Y-57314574D01*
X161709000Y-57037335D01*
X161709000Y-56754665D01*
X161653853Y-56477426D01*
X161545680Y-56216273D01*
X161388637Y-55981241D01*
X161188759Y-55781363D01*
X160953727Y-55624320D01*
X160692574Y-55516147D01*
X160415335Y-55461000D01*
X160132665Y-55461000D01*
X159855426Y-55516147D01*
X159594273Y-55624320D01*
X159359241Y-55781363D01*
X159159363Y-55981241D01*
X159002320Y-56216273D01*
X158894147Y-56477426D01*
X158839000Y-56754665D01*
X155532990Y-56754665D01*
X155580620Y-56707035D01*
X155733505Y-56478227D01*
X155838814Y-56223990D01*
X155892500Y-55954092D01*
X155892500Y-55678908D01*
X155838814Y-55409010D01*
X155733505Y-55154773D01*
X155580620Y-54925965D01*
X155386035Y-54731380D01*
X155157227Y-54578495D01*
X155079985Y-54546500D01*
X155157227Y-54514505D01*
X155386035Y-54361620D01*
X155580620Y-54167035D01*
X155733505Y-53938227D01*
X155838814Y-53683990D01*
X155892500Y-53414092D01*
X155892500Y-53138908D01*
X155838814Y-52869010D01*
X155733505Y-52614773D01*
X155580620Y-52385965D01*
X155386035Y-52191380D01*
X155157227Y-52038495D01*
X155079985Y-52006500D01*
X155157227Y-51974505D01*
X155386035Y-51821620D01*
X155580620Y-51627035D01*
X155733505Y-51398227D01*
X155838814Y-51143990D01*
X155892500Y-50874092D01*
X155892500Y-50598908D01*
X155838814Y-50329010D01*
X155733505Y-50074773D01*
X155580620Y-49845965D01*
X155386035Y-49651380D01*
X155157227Y-49498495D01*
X155079985Y-49466500D01*
X155157227Y-49434505D01*
X155386035Y-49281620D01*
X155580620Y-49087035D01*
X155733505Y-48858227D01*
X155838814Y-48603990D01*
X155892500Y-48334092D01*
X155892500Y-48058908D01*
X155838814Y-47789010D01*
X155733505Y-47534773D01*
X155580620Y-47305965D01*
X155557665Y-47283010D01*
X155581064Y-47254499D01*
X156093503Y-46742061D01*
X156122502Y-46718262D01*
X156148833Y-46686178D01*
X156217475Y-46602538D01*
X156288047Y-46470508D01*
X156293887Y-46451255D01*
X156331504Y-46327247D01*
X156342501Y-46215594D01*
X156342501Y-46215585D01*
X156346177Y-46178262D01*
X156342501Y-46140939D01*
X156342501Y-45172061D01*
X156346177Y-45134738D01*
X156342501Y-45097415D01*
X156342501Y-45097406D01*
X156331504Y-44985753D01*
X156288047Y-44842492D01*
X156255705Y-44781985D01*
X156217475Y-44710462D01*
X156146300Y-44623736D01*
X156122502Y-44594738D01*
X156093505Y-44570941D01*
X155581064Y-44058501D01*
X155561583Y-44034763D01*
X155577477Y-44018869D01*
X155461067Y-43902459D01*
X155701156Y-43835480D01*
X155818256Y-43586452D01*
X155884523Y-43319365D01*
X155897410Y-43044483D01*
X155856422Y-42772367D01*
X155763136Y-42513477D01*
X155701156Y-42397520D01*
X155461065Y-42330540D01*
X154675105Y-43116500D01*
X154689248Y-43130643D01*
X154509643Y-43310248D01*
X154495500Y-43296105D01*
X154481358Y-43310248D01*
X154301753Y-43130643D01*
X154315895Y-43116500D01*
X153529935Y-42330540D01*
X153289844Y-42397520D01*
X153172744Y-42646548D01*
X153106477Y-42913635D01*
X153093590Y-43188517D01*
X153134578Y-43460633D01*
X153227864Y-43719523D01*
X153275957Y-43809499D01*
X152838316Y-43809499D01*
X152827934Y-41349200D01*
X153289216Y-41349200D01*
X153410380Y-41530535D01*
X153604965Y-41725120D01*
X153833773Y-41878005D01*
X153836131Y-41878982D01*
X153776520Y-41910844D01*
X153709540Y-42150935D01*
X154495500Y-42936895D01*
X155281460Y-42150935D01*
X155214480Y-41910844D01*
X155150537Y-41880776D01*
X155157227Y-41878005D01*
X155386035Y-41725120D01*
X155580620Y-41530535D01*
X155733505Y-41301727D01*
X155838814Y-41047490D01*
X155892500Y-40777592D01*
X155892500Y-40502408D01*
X155838814Y-40232510D01*
X155733505Y-39978273D01*
X155580620Y-39749465D01*
X155386035Y-39554880D01*
X155157227Y-39401995D01*
X155079985Y-39370000D01*
X155157227Y-39338005D01*
X155386035Y-39185120D01*
X155580620Y-38990535D01*
X155733505Y-38761727D01*
X155838814Y-38507490D01*
X155892500Y-38237592D01*
X155892500Y-37962408D01*
X155838814Y-37692510D01*
X155733505Y-37438273D01*
X155580620Y-37209465D01*
X155386035Y-37014880D01*
X155157227Y-36861995D01*
X154902990Y-36756686D01*
X154633092Y-36703000D01*
X154357908Y-36703000D01*
X154088010Y-36756686D01*
X153833773Y-36861995D01*
X153604965Y-37014880D01*
X153410380Y-37209465D01*
X153257495Y-37438273D01*
X153152186Y-37692510D01*
X153098500Y-37962408D01*
X153098500Y-38237592D01*
X153152186Y-38507490D01*
X153257495Y-38761727D01*
X153410380Y-38990535D01*
X153604965Y-39185120D01*
X153833773Y-39338005D01*
X153911015Y-39370000D01*
X153833773Y-39401995D01*
X153604965Y-39554880D01*
X153410380Y-39749465D01*
X153357103Y-39829200D01*
X152821521Y-39829200D01*
X152781537Y-30353000D01*
X169799393Y-30353000D01*
X170028000Y-104192986D01*
G37*
X170028000Y-104192986D02*
X170028000Y-112141000D01*
X120835801Y-112141000D01*
X122685003Y-110291799D01*
X122714001Y-110268001D01*
X122808974Y-110152276D01*
X122879546Y-110020247D01*
X122923003Y-109876986D01*
X122934000Y-109765333D01*
X122934000Y-109765324D01*
X122937676Y-109728001D01*
X122934000Y-109690678D01*
X122934000Y-108878000D01*
X127035928Y-108878000D01*
X127035928Y-110578000D01*
X127048188Y-110702482D01*
X127084498Y-110822180D01*
X127143463Y-110932494D01*
X127222815Y-111029185D01*
X127319506Y-111108537D01*
X127429820Y-111167502D01*
X127549518Y-111203812D01*
X127674000Y-111216072D01*
X129374000Y-111216072D01*
X129498482Y-111203812D01*
X129618180Y-111167502D01*
X129728494Y-111108537D01*
X129825185Y-111029185D01*
X129904537Y-110932494D01*
X129963502Y-110822180D01*
X129985513Y-110749620D01*
X130117368Y-110881475D01*
X130360589Y-111043990D01*
X130630842Y-111155932D01*
X130917740Y-111213000D01*
X131210260Y-111213000D01*
X131497158Y-111155932D01*
X131767411Y-111043990D01*
X132010632Y-110881475D01*
X132217475Y-110674632D01*
X132379990Y-110431411D01*
X132491932Y-110161158D01*
X132549000Y-109874260D01*
X132549000Y-109581740D01*
X132491932Y-109294842D01*
X132379990Y-109024589D01*
X132217475Y-108781368D01*
X132010632Y-108574525D01*
X131767411Y-108412010D01*
X131497158Y-108300068D01*
X131210260Y-108243000D01*
X130917740Y-108243000D01*
X130630842Y-108300068D01*
X130360589Y-108412010D01*
X130117368Y-108574525D01*
X129985513Y-108706380D01*
X129963502Y-108633820D01*
X129904537Y-108523506D01*
X129825185Y-108426815D01*
X129728494Y-108347463D01*
X129618180Y-108288498D01*
X129498482Y-108252188D01*
X129374000Y-108239928D01*
X128776000Y-108239928D01*
X128776000Y-106740801D01*
X128796209Y-106720592D01*
X138673000Y-106720592D01*
X138673000Y-108671407D01*
X138695210Y-108896912D01*
X138782983Y-109186260D01*
X138925519Y-109452926D01*
X139117339Y-109686661D01*
X139351073Y-109878481D01*
X139617739Y-110021017D01*
X139907087Y-110108790D01*
X140208000Y-110138427D01*
X140508912Y-110108790D01*
X140798260Y-110021017D01*
X141064926Y-109878481D01*
X141298661Y-109686661D01*
X141490481Y-109452927D01*
X141633017Y-109186261D01*
X141720790Y-108896913D01*
X141743000Y-108671408D01*
X141743000Y-106720592D01*
X141720790Y-106495087D01*
X141633017Y-106205739D01*
X141601086Y-106146000D01*
X143749928Y-106146000D01*
X143749928Y-109246000D01*
X143766992Y-109419254D01*
X143817528Y-109585850D01*
X143899595Y-109739386D01*
X144010038Y-109873962D01*
X144144614Y-109984405D01*
X144298150Y-110066472D01*
X144464746Y-110117008D01*
X144638000Y-110134072D01*
X145938000Y-110134072D01*
X146111254Y-110117008D01*
X146277850Y-110066472D01*
X146431386Y-109984405D01*
X146565962Y-109873962D01*
X146676405Y-109739386D01*
X146758472Y-109585850D01*
X146809008Y-109419254D01*
X146826072Y-109246000D01*
X146826072Y-106146000D01*
X146809008Y-105972746D01*
X146758472Y-105806150D01*
X146676405Y-105652614D01*
X146565962Y-105518038D01*
X146431386Y-105407595D01*
X146277850Y-105325528D01*
X146111254Y-105274992D01*
X145938000Y-105257928D01*
X144638000Y-105257928D01*
X144464746Y-105274992D01*
X144298150Y-105325528D01*
X144144614Y-105407595D01*
X144010038Y-105518038D01*
X143899595Y-105652614D01*
X143817528Y-105806150D01*
X143766992Y-105972746D01*
X143749928Y-106146000D01*
X141601086Y-106146000D01*
X141490481Y-105939073D01*
X141298661Y-105705339D01*
X141064927Y-105513519D01*
X140798261Y-105370983D01*
X140508913Y-105283210D01*
X140208000Y-105253573D01*
X139907088Y-105283210D01*
X139617740Y-105370983D01*
X139351074Y-105513519D01*
X139117340Y-105705339D01*
X138925520Y-105939073D01*
X138782984Y-106205739D01*
X138695211Y-106495087D01*
X138673000Y-106720592D01*
X128796209Y-106720592D01*
X131264136Y-104252665D01*
X155791000Y-104252665D01*
X155791000Y-104535335D01*
X155846147Y-104812574D01*
X155954320Y-105073727D01*
X156111363Y-105308759D01*
X156311241Y-105508637D01*
X156546273Y-105665680D01*
X156807426Y-105773853D01*
X157084665Y-105829000D01*
X157367335Y-105829000D01*
X157644574Y-105773853D01*
X157905727Y-105665680D01*
X158140759Y-105508637D01*
X158340637Y-105308759D01*
X158497680Y-105073727D01*
X158605853Y-104812574D01*
X158661000Y-104535335D01*
X158661000Y-104252665D01*
X158605853Y-103975426D01*
X158497680Y-103714273D01*
X158340637Y-103479241D01*
X158140759Y-103279363D01*
X157905727Y-103122320D01*
X157644574Y-103014147D01*
X157367335Y-102959000D01*
X157084665Y-102959000D01*
X156807426Y-103014147D01*
X156546273Y-103122320D01*
X156311241Y-103279363D01*
X156111363Y-103479241D01*
X155954320Y-103714273D01*
X155846147Y-103975426D01*
X155791000Y-104252665D01*
X131264136Y-104252665D01*
X135979000Y-99537802D01*
X135979000Y-99709335D01*
X136034147Y-99986574D01*
X136142320Y-100247727D01*
X136299363Y-100482759D01*
X136499241Y-100682637D01*
X136734273Y-100839680D01*
X136995426Y-100947853D01*
X137272665Y-101003000D01*
X137555335Y-101003000D01*
X137832574Y-100947853D01*
X138093727Y-100839680D01*
X138328759Y-100682637D01*
X138528637Y-100482759D01*
X138685680Y-100247727D01*
X138793853Y-99986574D01*
X138849000Y-99709335D01*
X138849000Y-99426665D01*
X151219000Y-99426665D01*
X151219000Y-99709335D01*
X151274147Y-99986574D01*
X151382320Y-100247727D01*
X151539363Y-100482759D01*
X151739241Y-100682637D01*
X151974273Y-100839680D01*
X152235426Y-100947853D01*
X152512665Y-101003000D01*
X152795335Y-101003000D01*
X153072574Y-100947853D01*
X153333727Y-100839680D01*
X153568759Y-100682637D01*
X153768637Y-100482759D01*
X153925680Y-100247727D01*
X154033853Y-99986574D01*
X154089000Y-99709335D01*
X154089000Y-99426665D01*
X154033853Y-99149426D01*
X153925680Y-98888273D01*
X153768637Y-98653241D01*
X153568759Y-98453363D01*
X153333727Y-98296320D01*
X153072574Y-98188147D01*
X152795335Y-98133000D01*
X152512665Y-98133000D01*
X152235426Y-98188147D01*
X151974273Y-98296320D01*
X151739241Y-98453363D01*
X151539363Y-98653241D01*
X151382320Y-98888273D01*
X151274147Y-99149426D01*
X151219000Y-99426665D01*
X138849000Y-99426665D01*
X138793853Y-99149426D01*
X138685680Y-98888273D01*
X138528637Y-98653241D01*
X138328759Y-98453363D01*
X138093727Y-98296320D01*
X137832574Y-98188147D01*
X137555335Y-98133000D01*
X137383802Y-98133000D01*
X141951803Y-93564999D01*
X145126456Y-93564999D01*
X145073000Y-93833740D01*
X145073000Y-94126260D01*
X145130068Y-94413158D01*
X145242010Y-94683411D01*
X145404525Y-94926632D01*
X145611368Y-95133475D01*
X145854589Y-95295990D01*
X146124842Y-95407932D01*
X146411740Y-95465000D01*
X146704260Y-95465000D01*
X146991158Y-95407932D01*
X147261411Y-95295990D01*
X147504632Y-95133475D01*
X147636487Y-95001620D01*
X147658498Y-95074180D01*
X147717463Y-95184494D01*
X147796815Y-95281185D01*
X147893506Y-95360537D01*
X148003820Y-95419502D01*
X148123518Y-95455812D01*
X148248000Y-95468072D01*
X149948000Y-95468072D01*
X150072482Y-95455812D01*
X150192180Y-95419502D01*
X150302494Y-95360537D01*
X150399185Y-95281185D01*
X150478537Y-95184494D01*
X150537502Y-95074180D01*
X150573812Y-94954482D01*
X150586072Y-94830000D01*
X150586072Y-93130000D01*
X150573812Y-93005518D01*
X150537502Y-92885820D01*
X150478537Y-92775506D01*
X150399185Y-92678815D01*
X150302494Y-92599463D01*
X150192180Y-92540498D01*
X150072482Y-92504188D01*
X149948000Y-92491928D01*
X148684729Y-92491928D01*
X148486803Y-92294002D01*
X148463000Y-92264998D01*
X148347275Y-92170025D01*
X148215246Y-92099453D01*
X148071985Y-92055996D01*
X147960332Y-92044999D01*
X147960321Y-92044999D01*
X147922999Y-92041323D01*
X147885677Y-92044999D01*
X141674323Y-92044999D01*
X141637000Y-92041323D01*
X141599677Y-92044999D01*
X141599668Y-92044999D01*
X141488015Y-92055996D01*
X141344754Y-92099453D01*
X141212725Y-92170025D01*
X141097000Y-92264998D01*
X141073202Y-92293996D01*
X127505003Y-105862196D01*
X127475999Y-105885999D01*
X127432443Y-105939073D01*
X127381026Y-106001724D01*
X127373810Y-106015225D01*
X127310454Y-106133754D01*
X127266997Y-106277015D01*
X127256000Y-106388668D01*
X127256000Y-106388678D01*
X127252324Y-106426000D01*
X127256000Y-106463323D01*
X127256001Y-108399580D01*
X127222815Y-108426815D01*
X127143463Y-108523506D01*
X127084498Y-108633820D01*
X127048188Y-108753518D01*
X127035928Y-108878000D01*
X122934000Y-108878000D01*
X122934000Y-89910920D01*
X126693359Y-89910920D01*
X126724010Y-90222124D01*
X126814785Y-90521369D01*
X126962195Y-90797155D01*
X127160577Y-91038883D01*
X127333649Y-91180920D01*
X127160577Y-91322957D01*
X126962195Y-91564685D01*
X126814785Y-91840471D01*
X126724010Y-92139716D01*
X126693359Y-92450920D01*
X126724010Y-92762124D01*
X126814785Y-93061369D01*
X126962195Y-93337155D01*
X127065486Y-93463015D01*
X126981546Y-93507883D01*
X126884855Y-93587235D01*
X126805503Y-93683926D01*
X126746538Y-93794240D01*
X126710228Y-93913938D01*
X126697968Y-94038420D01*
X126697968Y-95943420D01*
X126710228Y-96067902D01*
X126746538Y-96187600D01*
X126805503Y-96297914D01*
X126884855Y-96394605D01*
X126981546Y-96473957D01*
X127091860Y-96532922D01*
X127211558Y-96569232D01*
X127336040Y-96581492D01*
X129336040Y-96581492D01*
X129460522Y-96569232D01*
X129580220Y-96532922D01*
X129690534Y-96473957D01*
X129787225Y-96394605D01*
X129866577Y-96297914D01*
X129925542Y-96187600D01*
X129961852Y-96067902D01*
X129974112Y-95943420D01*
X129974112Y-94038420D01*
X129961852Y-93913938D01*
X129925542Y-93794240D01*
X129866577Y-93683926D01*
X129787225Y-93587235D01*
X129690534Y-93507883D01*
X129606594Y-93463015D01*
X129709885Y-93337155D01*
X129857295Y-93061369D01*
X129948070Y-92762124D01*
X129978721Y-92450920D01*
X129948070Y-92139716D01*
X129857295Y-91840471D01*
X129709885Y-91564685D01*
X129511503Y-91322957D01*
X129338431Y-91180920D01*
X129511503Y-91038883D01*
X129709885Y-90797155D01*
X129857295Y-90521369D01*
X129948070Y-90222124D01*
X129978721Y-89910920D01*
X129948070Y-89599716D01*
X129857295Y-89300471D01*
X129709885Y-89024685D01*
X129511503Y-88782957D01*
X129269775Y-88584575D01*
X128993989Y-88437165D01*
X128694744Y-88346390D01*
X128461526Y-88323420D01*
X128210554Y-88323420D01*
X127977336Y-88346390D01*
X127678091Y-88437165D01*
X127402305Y-88584575D01*
X127160577Y-88782957D01*
X126962195Y-89024685D01*
X126814785Y-89300471D01*
X126724010Y-89599716D01*
X126693359Y-89910920D01*
X122934000Y-89910920D01*
X122934000Y-86054043D01*
X123088759Y-85950637D01*
X123288637Y-85750759D01*
X123445680Y-85515727D01*
X123553853Y-85254574D01*
X123609000Y-84977335D01*
X123609000Y-84694665D01*
X123553853Y-84417426D01*
X123445680Y-84156273D01*
X123288637Y-83921241D01*
X123088759Y-83721363D01*
X122853727Y-83564320D01*
X122592574Y-83456147D01*
X122315335Y-83401000D01*
X122032665Y-83401000D01*
X121755426Y-83456147D01*
X121494273Y-83564320D01*
X121259241Y-83721363D01*
X121059363Y-83921241D01*
X120902320Y-84156273D01*
X120794147Y-84417426D01*
X120739000Y-84694665D01*
X120739000Y-84977335D01*
X120794147Y-85254574D01*
X120902320Y-85515727D01*
X121059363Y-85750759D01*
X121259241Y-85950637D01*
X121414000Y-86054043D01*
X121414000Y-91200187D01*
X121388385Y-91168975D01*
X121291694Y-91089623D01*
X121181380Y-91030658D01*
X121061682Y-90994348D01*
X120937200Y-90982088D01*
X118737200Y-90982088D01*
X118612718Y-90994348D01*
X118493020Y-91030658D01*
X118382706Y-91089623D01*
X118286015Y-91168975D01*
X118206663Y-91265666D01*
X118147698Y-91375980D01*
X118111388Y-91495678D01*
X118099128Y-91620160D01*
X118099128Y-93820160D01*
X118111388Y-93944642D01*
X118147698Y-94064340D01*
X118206663Y-94174654D01*
X118286015Y-94271345D01*
X118382706Y-94350697D01*
X118493020Y-94409662D01*
X118612718Y-94445972D01*
X118737200Y-94458232D01*
X120937200Y-94458232D01*
X121061682Y-94445972D01*
X121181380Y-94409662D01*
X121291694Y-94350697D01*
X121388385Y-94271345D01*
X121414000Y-94240132D01*
X121414001Y-102153120D01*
X121374737Y-102058329D01*
X121184863Y-101774162D01*
X120943198Y-101532497D01*
X120659031Y-101342623D01*
X120343281Y-101211835D01*
X120008083Y-101145160D01*
X119666317Y-101145160D01*
X119331119Y-101211835D01*
X119015369Y-101342623D01*
X118731202Y-101532497D01*
X118489537Y-101774162D01*
X118299663Y-102058329D01*
X118168875Y-102374079D01*
X118102200Y-102709277D01*
X118102200Y-103051043D01*
X118168875Y-103386241D01*
X118299663Y-103701991D01*
X118489537Y-103986158D01*
X118731202Y-104227823D01*
X119015369Y-104417697D01*
X119331119Y-104548485D01*
X119666317Y-104615160D01*
X120008083Y-104615160D01*
X120343281Y-104548485D01*
X120659031Y-104417697D01*
X120943198Y-104227823D01*
X121184863Y-103986158D01*
X121374737Y-103701991D01*
X121414001Y-103607200D01*
X121414001Y-109413197D01*
X119573199Y-111254000D01*
X103184802Y-111254000D01*
X102679454Y-110748653D01*
X102753475Y-110674632D01*
X102915990Y-110431411D01*
X103027932Y-110161158D01*
X103085000Y-109874260D01*
X103085000Y-109581740D01*
X103031544Y-109312999D01*
X110778198Y-109312999D01*
X110779928Y-109314729D01*
X110779928Y-110578000D01*
X110792188Y-110702482D01*
X110828498Y-110822180D01*
X110887463Y-110932494D01*
X110966815Y-111029185D01*
X111063506Y-111108537D01*
X111173820Y-111167502D01*
X111293518Y-111203812D01*
X111418000Y-111216072D01*
X113118000Y-111216072D01*
X113242482Y-111203812D01*
X113362180Y-111167502D01*
X113472494Y-111108537D01*
X113569185Y-111029185D01*
X113648537Y-110932494D01*
X113707502Y-110822180D01*
X113729513Y-110749620D01*
X113861368Y-110881475D01*
X114104589Y-111043990D01*
X114374842Y-111155932D01*
X114661740Y-111213000D01*
X114954260Y-111213000D01*
X115241158Y-111155932D01*
X115511411Y-111043990D01*
X115754632Y-110881475D01*
X115961475Y-110674632D01*
X116123990Y-110431411D01*
X116235932Y-110161158D01*
X116293000Y-109874260D01*
X116293000Y-109581740D01*
X116249210Y-109361592D01*
X117206010Y-108404793D01*
X117235002Y-108381000D01*
X117258796Y-108352007D01*
X117258800Y-108352003D01*
X117329974Y-108265276D01*
X117329975Y-108265275D01*
X117400547Y-108133246D01*
X117444004Y-107989985D01*
X117455001Y-107878332D01*
X117455001Y-107878323D01*
X117458677Y-107841000D01*
X117455001Y-107803677D01*
X117455001Y-71177804D01*
X123285805Y-65347001D01*
X129338890Y-65347001D01*
X129317995Y-65378273D01*
X129212686Y-65632510D01*
X129159000Y-65902408D01*
X129159000Y-66177592D01*
X129196676Y-66367001D01*
X124680322Y-66367001D01*
X124642999Y-66363325D01*
X124605676Y-66367001D01*
X124605666Y-66367001D01*
X124494013Y-66377998D01*
X124350752Y-66421455D01*
X124218723Y-66492027D01*
X124102998Y-66587000D01*
X124079200Y-66615998D01*
X122497886Y-68197312D01*
X122315335Y-68161000D01*
X122032665Y-68161000D01*
X121755426Y-68216147D01*
X121494273Y-68324320D01*
X121259241Y-68481363D01*
X121059363Y-68681241D01*
X120902320Y-68916273D01*
X120794147Y-69177426D01*
X120739000Y-69454665D01*
X120739000Y-69737335D01*
X120794147Y-70014574D01*
X120902320Y-70275727D01*
X121059363Y-70510759D01*
X121259241Y-70710637D01*
X121494273Y-70867680D01*
X121755426Y-70975853D01*
X122032665Y-71031000D01*
X122315335Y-71031000D01*
X122592574Y-70975853D01*
X122853727Y-70867680D01*
X123088759Y-70710637D01*
X123288637Y-70510759D01*
X123445680Y-70275727D01*
X123553853Y-70014574D01*
X123609000Y-69737335D01*
X123609000Y-69454665D01*
X123572688Y-69272114D01*
X124957801Y-67887001D01*
X129338890Y-67887001D01*
X129317995Y-67918273D01*
X129212686Y-68172510D01*
X129159000Y-68442408D01*
X129159000Y-68717592D01*
X129212686Y-68987490D01*
X129317995Y-69241727D01*
X129470880Y-69470535D01*
X129665465Y-69665120D01*
X129894273Y-69818005D01*
X129971515Y-69850000D01*
X129894273Y-69881995D01*
X129665465Y-70034880D01*
X129470880Y-70229465D01*
X129317995Y-70458273D01*
X129212686Y-70712510D01*
X129159000Y-70982408D01*
X129159000Y-71257592D01*
X129212686Y-71527490D01*
X129317995Y-71781727D01*
X129470880Y-72010535D01*
X129665465Y-72205120D01*
X129894273Y-72358005D01*
X129971515Y-72390000D01*
X129894273Y-72421995D01*
X129665465Y-72574880D01*
X129470880Y-72769465D01*
X129317995Y-72998273D01*
X129212686Y-73252510D01*
X129159000Y-73522408D01*
X129159000Y-73797592D01*
X129212686Y-74067490D01*
X129317995Y-74321727D01*
X129470880Y-74550535D01*
X129493835Y-74573490D01*
X129470439Y-74601997D01*
X128958001Y-75114436D01*
X128928998Y-75138238D01*
X128873870Y-75205413D01*
X128834025Y-75253963D01*
X128780407Y-75354275D01*
X128763453Y-75385993D01*
X128719996Y-75529254D01*
X128708999Y-75640907D01*
X128708999Y-75640917D01*
X128705323Y-75678239D01*
X128708999Y-75715562D01*
X128709000Y-77615667D01*
X128705323Y-77652999D01*
X128719997Y-77801984D01*
X128763453Y-77945245D01*
X128834025Y-78077275D01*
X128893052Y-78149199D01*
X128928999Y-78193000D01*
X128957997Y-78216798D01*
X129189628Y-78448429D01*
X129159000Y-78602408D01*
X129159000Y-78877592D01*
X129212686Y-79147490D01*
X129317995Y-79401727D01*
X129470880Y-79630535D01*
X129665465Y-79825120D01*
X129894273Y-79978005D01*
X129971515Y-80010000D01*
X129894273Y-80041995D01*
X129665465Y-80194880D01*
X129470880Y-80389465D01*
X129317995Y-80618273D01*
X129212686Y-80872510D01*
X129159000Y-81142408D01*
X129159000Y-81417592D01*
X129212686Y-81687490D01*
X129317995Y-81941727D01*
X129470880Y-82170535D01*
X129665465Y-82365120D01*
X129894273Y-82518005D01*
X130148510Y-82623314D01*
X130418408Y-82677000D01*
X130693592Y-82677000D01*
X130963490Y-82623314D01*
X131217727Y-82518005D01*
X131446535Y-82365120D01*
X131641120Y-82170535D01*
X131794005Y-81941727D01*
X131899314Y-81687490D01*
X131953000Y-81417592D01*
X131953000Y-81142408D01*
X131899314Y-80872510D01*
X131794005Y-80618273D01*
X131641120Y-80389465D01*
X131446535Y-80194880D01*
X131217727Y-80041995D01*
X131140485Y-80010000D01*
X131217727Y-79978005D01*
X131446535Y-79825120D01*
X131641120Y-79630535D01*
X131794005Y-79401727D01*
X131899314Y-79147490D01*
X131953000Y-78877592D01*
X131953000Y-78602408D01*
X131899314Y-78332510D01*
X131794005Y-78078273D01*
X131641120Y-77849465D01*
X131446535Y-77654880D01*
X131217727Y-77501995D01*
X131140485Y-77470000D01*
X131217727Y-77438005D01*
X131446535Y-77285120D01*
X131641120Y-77090535D01*
X131794005Y-76861727D01*
X131899314Y-76607490D01*
X131953000Y-76337592D01*
X131953000Y-76062408D01*
X131922372Y-75908430D01*
X134493000Y-73337803D01*
X134493000Y-90424000D01*
X134495440Y-90448776D01*
X134502667Y-90472601D01*
X134514403Y-90494557D01*
X134530197Y-90513803D01*
X134549443Y-90529597D01*
X134571399Y-90541333D01*
X134595224Y-90548560D01*
X134620000Y-90551000D01*
X152908000Y-90551000D01*
X152932776Y-90548560D01*
X152956601Y-90541333D01*
X152978557Y-90529597D01*
X152997803Y-90513803D01*
X153013597Y-90494557D01*
X153025333Y-90472601D01*
X153032560Y-90448776D01*
X153034999Y-90423464D01*
X152972832Y-75690000D01*
X153194647Y-75690000D01*
X153152186Y-75792510D01*
X153098500Y-76062408D01*
X153098500Y-76337592D01*
X153152186Y-76607490D01*
X153257495Y-76861727D01*
X153410380Y-77090535D01*
X153604965Y-77285120D01*
X153833773Y-77438005D01*
X153911015Y-77470000D01*
X153833773Y-77501995D01*
X153604965Y-77654880D01*
X153410380Y-77849465D01*
X153257495Y-78078273D01*
X153152186Y-78332510D01*
X153098500Y-78602408D01*
X153098500Y-78877592D01*
X153152186Y-79147490D01*
X153257495Y-79401727D01*
X153410380Y-79630535D01*
X153604965Y-79825120D01*
X153833773Y-79978005D01*
X153911015Y-80010000D01*
X153833773Y-80041995D01*
X153604965Y-80194880D01*
X153410380Y-80389465D01*
X153257495Y-80618273D01*
X153152186Y-80872510D01*
X153098500Y-81142408D01*
X153098500Y-81417592D01*
X153152186Y-81687490D01*
X153257495Y-81941727D01*
X153410380Y-82170535D01*
X153604965Y-82365120D01*
X153833773Y-82518005D01*
X154088010Y-82623314D01*
X154357908Y-82677000D01*
X154633092Y-82677000D01*
X154902990Y-82623314D01*
X155157227Y-82518005D01*
X155386035Y-82365120D01*
X155580620Y-82170535D01*
X155733505Y-81941727D01*
X155838814Y-81687490D01*
X155892500Y-81417592D01*
X155892500Y-81275302D01*
X156720000Y-82102802D01*
X156720001Y-87810360D01*
X156546273Y-87882320D01*
X156311241Y-88039363D01*
X156111363Y-88239241D01*
X155954320Y-88474273D01*
X155846147Y-88735426D01*
X155791000Y-89012665D01*
X155791000Y-89295335D01*
X155846147Y-89572574D01*
X155954320Y-89833727D01*
X156111363Y-90068759D01*
X156311241Y-90268637D01*
X156546273Y-90425680D01*
X156807426Y-90533853D01*
X157084665Y-90589000D01*
X157367335Y-90589000D01*
X157644574Y-90533853D01*
X157905727Y-90425680D01*
X158140759Y-90268637D01*
X158340637Y-90068759D01*
X158497680Y-89833727D01*
X158605853Y-89572574D01*
X158661000Y-89295335D01*
X158661000Y-89012665D01*
X158605853Y-88735426D01*
X158497680Y-88474273D01*
X158340637Y-88239241D01*
X158240000Y-88138604D01*
X158240000Y-81825322D01*
X158243676Y-81788000D01*
X158240000Y-81750677D01*
X158240000Y-81750667D01*
X158229003Y-81639014D01*
X158185546Y-81495753D01*
X158149747Y-81428778D01*
X158114974Y-81363723D01*
X158043799Y-81276997D01*
X158020001Y-81247999D01*
X157991004Y-81224202D01*
X155851336Y-79084535D01*
X155892500Y-78877592D01*
X155892500Y-78602408D01*
X155838814Y-78332510D01*
X155733505Y-78078273D01*
X155580620Y-77849465D01*
X155386035Y-77654880D01*
X155157227Y-77501995D01*
X155079985Y-77470000D01*
X155157227Y-77438005D01*
X155386035Y-77285120D01*
X155580620Y-77090535D01*
X155733505Y-76861727D01*
X155838814Y-76607490D01*
X155892500Y-76337592D01*
X155892500Y-76062408D01*
X155838814Y-75792510D01*
X155796353Y-75690000D01*
X158435199Y-75690000D01*
X159260001Y-76514803D01*
X159260000Y-108957822D01*
X159073368Y-109082525D01*
X158866525Y-109289368D01*
X158750000Y-109463760D01*
X158633475Y-109289368D01*
X158426632Y-109082525D01*
X158183411Y-108920010D01*
X157913158Y-108808068D01*
X157626260Y-108751000D01*
X157333740Y-108751000D01*
X157046842Y-108808068D01*
X156776589Y-108920010D01*
X156533368Y-109082525D01*
X156401513Y-109214380D01*
X156379502Y-109141820D01*
X156320537Y-109031506D01*
X156241185Y-108934815D01*
X156144494Y-108855463D01*
X156034180Y-108796498D01*
X155914482Y-108760188D01*
X155790000Y-108747928D01*
X154090000Y-108747928D01*
X153965518Y-108760188D01*
X153845820Y-108796498D01*
X153735506Y-108855463D01*
X153638815Y-108934815D01*
X153559463Y-109031506D01*
X153500498Y-109141820D01*
X153464188Y-109261518D01*
X153451928Y-109386000D01*
X153451928Y-111086000D01*
X153464188Y-111210482D01*
X153500498Y-111330180D01*
X153559463Y-111440494D01*
X153638815Y-111537185D01*
X153735506Y-111616537D01*
X153845820Y-111675502D01*
X153965518Y-111711812D01*
X154090000Y-111724072D01*
X155790000Y-111724072D01*
X155914482Y-111711812D01*
X156034180Y-111675502D01*
X156144494Y-111616537D01*
X156241185Y-111537185D01*
X156320537Y-111440494D01*
X156379502Y-111330180D01*
X156401513Y-111257620D01*
X156533368Y-111389475D01*
X156776589Y-111551990D01*
X157046842Y-111663932D01*
X157333740Y-111721000D01*
X157626260Y-111721000D01*
X157913158Y-111663932D01*
X158183411Y-111551990D01*
X158426632Y-111389475D01*
X158633475Y-111182632D01*
X158750000Y-111008240D01*
X158866525Y-111182632D01*
X159073368Y-111389475D01*
X159316589Y-111551990D01*
X159586842Y-111663932D01*
X159873740Y-111721000D01*
X160166260Y-111721000D01*
X160453158Y-111663932D01*
X160723411Y-111551990D01*
X160966632Y-111389475D01*
X161173475Y-111182632D01*
X161290000Y-111008240D01*
X161406525Y-111182632D01*
X161613368Y-111389475D01*
X161856589Y-111551990D01*
X162126842Y-111663932D01*
X162413740Y-111721000D01*
X162706260Y-111721000D01*
X162993158Y-111663932D01*
X163263411Y-111551990D01*
X163506632Y-111389475D01*
X163713475Y-111182632D01*
X163830000Y-111008240D01*
X163946525Y-111182632D01*
X164153368Y-111389475D01*
X164396589Y-111551990D01*
X164666842Y-111663932D01*
X164953740Y-111721000D01*
X165246260Y-111721000D01*
X165533158Y-111663932D01*
X165803411Y-111551990D01*
X166046632Y-111389475D01*
X166253475Y-111182632D01*
X166375195Y-111000466D01*
X166444822Y-111117355D01*
X166639731Y-111333588D01*
X166873080Y-111507641D01*
X167135901Y-111632825D01*
X167283110Y-111677476D01*
X167513000Y-111556155D01*
X167513000Y-110363000D01*
X167767000Y-110363000D01*
X167767000Y-111556155D01*
X167996890Y-111677476D01*
X168144099Y-111632825D01*
X168406920Y-111507641D01*
X168640269Y-111333588D01*
X168835178Y-111117355D01*
X168984157Y-110867252D01*
X169081481Y-110592891D01*
X168960814Y-110363000D01*
X167767000Y-110363000D01*
X167513000Y-110363000D01*
X167493000Y-110363000D01*
X167493000Y-110109000D01*
X167513000Y-110109000D01*
X167513000Y-108915845D01*
X167767000Y-108915845D01*
X167767000Y-110109000D01*
X168960814Y-110109000D01*
X169081481Y-109879109D01*
X168984157Y-109604748D01*
X168835178Y-109354645D01*
X168640269Y-109138412D01*
X168406920Y-108964359D01*
X168144099Y-108839175D01*
X167996890Y-108794524D01*
X167767000Y-108915845D01*
X167513000Y-108915845D01*
X167283110Y-108794524D01*
X167135901Y-108839175D01*
X166873080Y-108964359D01*
X166639731Y-109138412D01*
X166444822Y-109354645D01*
X166375195Y-109471534D01*
X166253475Y-109289368D01*
X166046632Y-109082525D01*
X165803411Y-108920010D01*
X165533158Y-108808068D01*
X165246260Y-108751000D01*
X164953740Y-108751000D01*
X164666842Y-108808068D01*
X164396589Y-108920010D01*
X164153368Y-109082525D01*
X163946525Y-109289368D01*
X163830000Y-109463760D01*
X163713475Y-109289368D01*
X163506632Y-109082525D01*
X163263411Y-108920010D01*
X162993158Y-108808068D01*
X162706260Y-108751000D01*
X162413740Y-108751000D01*
X162126842Y-108808068D01*
X161856589Y-108920010D01*
X161613368Y-109082525D01*
X161406525Y-109289368D01*
X161290000Y-109463760D01*
X161173475Y-109289368D01*
X160966632Y-109082525D01*
X160780000Y-108957822D01*
X160780000Y-93330000D01*
X162915928Y-93330000D01*
X162915928Y-94630000D01*
X162932992Y-94803254D01*
X162983528Y-94969850D01*
X163065595Y-95123386D01*
X163176038Y-95257962D01*
X163310614Y-95368405D01*
X163464150Y-95450472D01*
X163630746Y-95501008D01*
X163804000Y-95518072D01*
X166904000Y-95518072D01*
X167077254Y-95501008D01*
X167243850Y-95450472D01*
X167397386Y-95368405D01*
X167531962Y-95257962D01*
X167642405Y-95123386D01*
X167724472Y-94969850D01*
X167775008Y-94803254D01*
X167792072Y-94630000D01*
X167792072Y-93330000D01*
X167775008Y-93156746D01*
X167724472Y-92990150D01*
X167642405Y-92836614D01*
X167531962Y-92702038D01*
X167397386Y-92591595D01*
X167243850Y-92509528D01*
X167077254Y-92458992D01*
X166904000Y-92441928D01*
X163804000Y-92441928D01*
X163630746Y-92458992D01*
X163464150Y-92509528D01*
X163310614Y-92591595D01*
X163176038Y-92702038D01*
X163065595Y-92836614D01*
X162983528Y-92990150D01*
X162932992Y-93156746D01*
X162915928Y-93330000D01*
X160780000Y-93330000D01*
X160780000Y-88900000D01*
X162911573Y-88900000D01*
X162941210Y-89200913D01*
X163028983Y-89490261D01*
X163171519Y-89756927D01*
X163363339Y-89990661D01*
X163597073Y-90182481D01*
X163863739Y-90325017D01*
X164153087Y-90412790D01*
X164378592Y-90435000D01*
X166329408Y-90435000D01*
X166554913Y-90412790D01*
X166844261Y-90325017D01*
X167110927Y-90182481D01*
X167344661Y-89990661D01*
X167536481Y-89756927D01*
X167679017Y-89490261D01*
X167766790Y-89200913D01*
X167796427Y-88900000D01*
X167766790Y-88599087D01*
X167679017Y-88309739D01*
X167536481Y-88043073D01*
X167344661Y-87809339D01*
X167110927Y-87617519D01*
X166844261Y-87474983D01*
X166554913Y-87387210D01*
X166329408Y-87365000D01*
X164378592Y-87365000D01*
X164153087Y-87387210D01*
X163863739Y-87474983D01*
X163597073Y-87617519D01*
X163363339Y-87809339D01*
X163171519Y-88043073D01*
X163028983Y-88309739D01*
X162941210Y-88599087D01*
X162911573Y-88900000D01*
X160780000Y-88900000D01*
X160780000Y-83820000D01*
X162911573Y-83820000D01*
X162941210Y-84120913D01*
X163028983Y-84410261D01*
X163171519Y-84676927D01*
X163363339Y-84910661D01*
X163597073Y-85102481D01*
X163863739Y-85245017D01*
X164153087Y-85332790D01*
X164378592Y-85355000D01*
X166329408Y-85355000D01*
X166554913Y-85332790D01*
X166844261Y-85245017D01*
X167110927Y-85102481D01*
X167344661Y-84910661D01*
X167536481Y-84676927D01*
X167679017Y-84410261D01*
X167766790Y-84120913D01*
X167796427Y-83820000D01*
X167766790Y-83519087D01*
X167679017Y-83229739D01*
X167536481Y-82963073D01*
X167344661Y-82729339D01*
X167110927Y-82537519D01*
X166844261Y-82394983D01*
X166554913Y-82307210D01*
X166329408Y-82285000D01*
X164378592Y-82285000D01*
X164153087Y-82307210D01*
X163863739Y-82394983D01*
X163597073Y-82537519D01*
X163363339Y-82729339D01*
X163171519Y-82963073D01*
X163028983Y-83229739D01*
X162941210Y-83519087D01*
X162911573Y-83820000D01*
X160780000Y-83820000D01*
X160780000Y-76237322D01*
X160783676Y-76199999D01*
X160780000Y-76162676D01*
X160780000Y-76077906D01*
X160769003Y-75966253D01*
X160725546Y-75822992D01*
X160654974Y-75690963D01*
X160560001Y-75575237D01*
X160444276Y-75480264D01*
X160312247Y-75409692D01*
X160301118Y-75406316D01*
X159510000Y-74615199D01*
X159510000Y-73974801D01*
X160804702Y-72680100D01*
X161011378Y-72680100D01*
X161048700Y-72683776D01*
X161086022Y-72680100D01*
X161086033Y-72680100D01*
X161197686Y-72669103D01*
X161340947Y-72625646D01*
X161472976Y-72555074D01*
X161588701Y-72460101D01*
X161612504Y-72431097D01*
X165367600Y-68676002D01*
X165367600Y-68802460D01*
X165424668Y-69089358D01*
X165536610Y-69359611D01*
X165699125Y-69602832D01*
X165905968Y-69809675D01*
X166080360Y-69926200D01*
X165905968Y-70042725D01*
X165699125Y-70249568D01*
X165536610Y-70492789D01*
X165424668Y-70763042D01*
X165367600Y-71049940D01*
X165367600Y-71342460D01*
X165424668Y-71629358D01*
X165536610Y-71899611D01*
X165699125Y-72142832D01*
X165905968Y-72349675D01*
X166080360Y-72466200D01*
X165905968Y-72582725D01*
X165699125Y-72789568D01*
X165536610Y-73032789D01*
X165424668Y-73303042D01*
X165367600Y-73589940D01*
X165367600Y-73882460D01*
X165424668Y-74169358D01*
X165536610Y-74439611D01*
X165699125Y-74682832D01*
X165905968Y-74889675D01*
X166080360Y-75006200D01*
X165905968Y-75122725D01*
X165699125Y-75329568D01*
X165536610Y-75572789D01*
X165424668Y-75843042D01*
X165367600Y-76129940D01*
X165367600Y-76422460D01*
X165424668Y-76709358D01*
X165536610Y-76979611D01*
X165699125Y-77222832D01*
X165905968Y-77429675D01*
X166149189Y-77592190D01*
X166419442Y-77704132D01*
X166706340Y-77761200D01*
X166998860Y-77761200D01*
X167285758Y-77704132D01*
X167556011Y-77592190D01*
X167799232Y-77429675D01*
X168006075Y-77222832D01*
X168168590Y-76979611D01*
X168280532Y-76709358D01*
X168337600Y-76422460D01*
X168337600Y-76129940D01*
X168280532Y-75843042D01*
X168168590Y-75572789D01*
X168006075Y-75329568D01*
X167799232Y-75122725D01*
X167624840Y-75006200D01*
X167799232Y-74889675D01*
X168006075Y-74682832D01*
X168168590Y-74439611D01*
X168280532Y-74169358D01*
X168337600Y-73882460D01*
X168337600Y-73589940D01*
X168280532Y-73303042D01*
X168168590Y-73032789D01*
X168006075Y-72789568D01*
X167799232Y-72582725D01*
X167624840Y-72466200D01*
X167799232Y-72349675D01*
X168006075Y-72142832D01*
X168168590Y-71899611D01*
X168280532Y-71629358D01*
X168337600Y-71342460D01*
X168337600Y-71049940D01*
X168280532Y-70763042D01*
X168168590Y-70492789D01*
X168006075Y-70249568D01*
X167799232Y-70042725D01*
X167624840Y-69926200D01*
X167799232Y-69809675D01*
X168006075Y-69602832D01*
X168168590Y-69359611D01*
X168280532Y-69089358D01*
X168337600Y-68802460D01*
X168337600Y-68509940D01*
X168280532Y-68223042D01*
X168168590Y-67952789D01*
X168006075Y-67709568D01*
X167799232Y-67502725D01*
X167624840Y-67386200D01*
X167799232Y-67269675D01*
X168006075Y-67062832D01*
X168168590Y-66819611D01*
X168280532Y-66549358D01*
X168337600Y-66262460D01*
X168337600Y-65969940D01*
X168293810Y-65749792D01*
X169077513Y-64966089D01*
X169106511Y-64942291D01*
X169201484Y-64826566D01*
X169272056Y-64694537D01*
X169315513Y-64551276D01*
X169326510Y-64439623D01*
X169326510Y-64439615D01*
X169330186Y-64402290D01*
X169326510Y-64364965D01*
X169326510Y-39214835D01*
X169330186Y-39177510D01*
X169326510Y-39140185D01*
X169326510Y-39140177D01*
X169315513Y-39028524D01*
X169272056Y-38885263D01*
X169201484Y-38753234D01*
X169106511Y-38637509D01*
X169077514Y-38613712D01*
X164362560Y-33898759D01*
X164533411Y-33827990D01*
X164776632Y-33665475D01*
X164983475Y-33458632D01*
X165105195Y-33276466D01*
X165174822Y-33393355D01*
X165369731Y-33609588D01*
X165603080Y-33783641D01*
X165865901Y-33908825D01*
X166013110Y-33953476D01*
X166243000Y-33832155D01*
X166243000Y-32639000D01*
X166497000Y-32639000D01*
X166497000Y-33832155D01*
X166726890Y-33953476D01*
X166874099Y-33908825D01*
X167136920Y-33783641D01*
X167370269Y-33609588D01*
X167565178Y-33393355D01*
X167714157Y-33143252D01*
X167811481Y-32868891D01*
X167690814Y-32639000D01*
X166497000Y-32639000D01*
X166243000Y-32639000D01*
X166223000Y-32639000D01*
X166223000Y-32385000D01*
X166243000Y-32385000D01*
X166243000Y-31191845D01*
X166497000Y-31191845D01*
X166497000Y-32385000D01*
X167690814Y-32385000D01*
X167811481Y-32155109D01*
X167714157Y-31880748D01*
X167565178Y-31630645D01*
X167370269Y-31414412D01*
X167136920Y-31240359D01*
X166874099Y-31115175D01*
X166726890Y-31070524D01*
X166497000Y-31191845D01*
X166243000Y-31191845D01*
X166013110Y-31070524D01*
X165865901Y-31115175D01*
X165603080Y-31240359D01*
X165369731Y-31414412D01*
X165174822Y-31630645D01*
X165105195Y-31747534D01*
X164983475Y-31565368D01*
X164776632Y-31358525D01*
X164533411Y-31196010D01*
X164263158Y-31084068D01*
X163976260Y-31027000D01*
X163683740Y-31027000D01*
X163396842Y-31084068D01*
X163126589Y-31196010D01*
X162923509Y-31331704D01*
X162417804Y-30826001D01*
X162394002Y-30796998D01*
X162278277Y-30702025D01*
X162146248Y-30631453D01*
X162002987Y-30587996D01*
X161891334Y-30576999D01*
X161891323Y-30576999D01*
X161854001Y-30573323D01*
X161816679Y-30576999D01*
X160763321Y-30576999D01*
X160725998Y-30573323D01*
X160688675Y-30576999D01*
X160688666Y-30576999D01*
X160577013Y-30587996D01*
X160433752Y-30631453D01*
X160301723Y-30702025D01*
X160301721Y-30702026D01*
X160301722Y-30702026D01*
X160214995Y-30773200D01*
X160214991Y-30773204D01*
X160185998Y-30796998D01*
X160162204Y-30825991D01*
X159890786Y-31097410D01*
X159844180Y-31072498D01*
X159724482Y-31036188D01*
X159600000Y-31023928D01*
X157900000Y-31023928D01*
X157775518Y-31036188D01*
X157655820Y-31072498D01*
X157545506Y-31131463D01*
X157448815Y-31210815D01*
X157369463Y-31307506D01*
X157310498Y-31417820D01*
X157274188Y-31537518D01*
X157261928Y-31662000D01*
X157261928Y-33362000D01*
X157274188Y-33486482D01*
X157310498Y-33606180D01*
X157369463Y-33716494D01*
X157448815Y-33813185D01*
X157545506Y-33892537D01*
X157655820Y-33951502D01*
X157775518Y-33987812D01*
X157900000Y-34000072D01*
X157990001Y-34000072D01*
X157990000Y-37694377D01*
X157986324Y-37731700D01*
X157990000Y-37769022D01*
X157990000Y-37769032D01*
X158000997Y-37880685D01*
X158022331Y-37951014D01*
X158044454Y-38023946D01*
X158115026Y-38155976D01*
X158136608Y-38182273D01*
X158209999Y-38271701D01*
X158239003Y-38295504D01*
X160164498Y-40221000D01*
X160132665Y-40221000D01*
X159855426Y-40276147D01*
X159594273Y-40384320D01*
X159359241Y-40541363D01*
X159159363Y-40741241D01*
X159002320Y-40976273D01*
X158894147Y-41237426D01*
X158839000Y-41514665D01*
X158839000Y-41797335D01*
X158894147Y-42074574D01*
X159002320Y-42335727D01*
X159159363Y-42570759D01*
X159359241Y-42770637D01*
X159594273Y-42927680D01*
X159855426Y-43035853D01*
X160132665Y-43091000D01*
X160415335Y-43091000D01*
X160692574Y-43035853D01*
X160953727Y-42927680D01*
X161188759Y-42770637D01*
X161388637Y-42570759D01*
X161444401Y-42487303D01*
X161444400Y-44768277D01*
X161440724Y-44805600D01*
X161444400Y-44842922D01*
X161444400Y-44842932D01*
X161455397Y-44954585D01*
X161486547Y-45057274D01*
X161498854Y-45097846D01*
X161569426Y-45229876D01*
X161600692Y-45267973D01*
X161664399Y-45345601D01*
X161693403Y-45369404D01*
X163869199Y-47545201D01*
X163892998Y-47574200D01*
X163921996Y-47597998D01*
X164008722Y-47669173D01*
X164063022Y-47698197D01*
X164140752Y-47739745D01*
X164284013Y-47783202D01*
X164395666Y-47794199D01*
X164395676Y-47794199D01*
X164432999Y-47797875D01*
X164470322Y-47794199D01*
X165451698Y-47794199D01*
X165453428Y-47795929D01*
X165453428Y-49059200D01*
X165465688Y-49183682D01*
X165501998Y-49303380D01*
X165560963Y-49413694D01*
X165640315Y-49510385D01*
X165737006Y-49589737D01*
X165847320Y-49648702D01*
X165967018Y-49685012D01*
X166091500Y-49697272D01*
X167356501Y-49697272D01*
X167356502Y-57010012D01*
X167138350Y-57011200D01*
X166979600Y-57169950D01*
X166979600Y-58369200D01*
X166999600Y-58369200D01*
X166999600Y-58623200D01*
X166979600Y-58623200D01*
X166979600Y-58643200D01*
X166725600Y-58643200D01*
X166725600Y-58623200D01*
X165526350Y-58623200D01*
X165367600Y-58781950D01*
X165364528Y-59346200D01*
X165376788Y-59470682D01*
X165413098Y-59590380D01*
X165472063Y-59700694D01*
X165551415Y-59797385D01*
X165648106Y-59876737D01*
X165758420Y-59935702D01*
X165830980Y-59957713D01*
X165699125Y-60089568D01*
X165536610Y-60332789D01*
X165424668Y-60603042D01*
X165367600Y-60889940D01*
X165367600Y-61182460D01*
X165424668Y-61469358D01*
X165536610Y-61739611D01*
X165699125Y-61982832D01*
X165905968Y-62189675D01*
X166080360Y-62306200D01*
X165905968Y-62422725D01*
X165699125Y-62629568D01*
X165536610Y-62872789D01*
X165424668Y-63143042D01*
X165367600Y-63429940D01*
X165367600Y-63722460D01*
X165411391Y-63942608D01*
X165278000Y-64075999D01*
X165206825Y-64162725D01*
X165136253Y-64294755D01*
X165092797Y-64438016D01*
X165078123Y-64587001D01*
X165092797Y-64735986D01*
X165136253Y-64879247D01*
X165206825Y-65011277D01*
X165301798Y-65127002D01*
X165417523Y-65221975D01*
X165549553Y-65292547D01*
X165605595Y-65309546D01*
X165536610Y-65412789D01*
X165424668Y-65683042D01*
X165367600Y-65969940D01*
X165367600Y-66262460D01*
X165411390Y-66482608D01*
X160733899Y-71160100D01*
X160527222Y-71160100D01*
X160489899Y-71156424D01*
X160452576Y-71160100D01*
X160452567Y-71160100D01*
X160340914Y-71171097D01*
X160197653Y-71214554D01*
X160065624Y-71285126D01*
X159949899Y-71380099D01*
X159926101Y-71409097D01*
X158239003Y-73096196D01*
X158209999Y-73119999D01*
X158154871Y-73187174D01*
X158115026Y-73235724D01*
X158106054Y-73252510D01*
X158044454Y-73367754D01*
X158000997Y-73511015D01*
X157990000Y-73622668D01*
X157990000Y-73622678D01*
X157986324Y-73660000D01*
X157990000Y-73697323D01*
X157990000Y-74170000D01*
X155796353Y-74170000D01*
X155838814Y-74067490D01*
X155892500Y-73797592D01*
X155892500Y-73522408D01*
X155838814Y-73252510D01*
X155733505Y-72998273D01*
X155580620Y-72769465D01*
X155386035Y-72574880D01*
X155157227Y-72421995D01*
X155079985Y-72390000D01*
X155157227Y-72358005D01*
X155386035Y-72205120D01*
X155580620Y-72010535D01*
X155733505Y-71781727D01*
X155838814Y-71527490D01*
X155892500Y-71257592D01*
X155892500Y-70982408D01*
X155838814Y-70712510D01*
X155733505Y-70458273D01*
X155580620Y-70229465D01*
X155386035Y-70034880D01*
X155157227Y-69881995D01*
X155079985Y-69850000D01*
X155157227Y-69818005D01*
X155386035Y-69665120D01*
X155580620Y-69470535D01*
X155733505Y-69241727D01*
X155838814Y-68987490D01*
X155892500Y-68717592D01*
X155892500Y-68442408D01*
X155838814Y-68172510D01*
X155733505Y-67918273D01*
X155580620Y-67689465D01*
X155386035Y-67494880D01*
X155157227Y-67341995D01*
X155079985Y-67310000D01*
X155157227Y-67278005D01*
X155386035Y-67125120D01*
X155580620Y-66930535D01*
X155733505Y-66701727D01*
X155838814Y-66447490D01*
X155892500Y-66177592D01*
X155892500Y-65902408D01*
X155838814Y-65632510D01*
X155733505Y-65378273D01*
X155580620Y-65149465D01*
X155386035Y-64954880D01*
X155157227Y-64801995D01*
X155079985Y-64770000D01*
X155157227Y-64738005D01*
X155386035Y-64585120D01*
X155580620Y-64390535D01*
X155733505Y-64161727D01*
X155838814Y-63907490D01*
X155892500Y-63637592D01*
X155892500Y-63362408D01*
X155838814Y-63092510D01*
X155733505Y-62838273D01*
X155580620Y-62609465D01*
X155386035Y-62414880D01*
X155157227Y-62261995D01*
X155079985Y-62230000D01*
X155157227Y-62198005D01*
X155386035Y-62045120D01*
X155580620Y-61850535D01*
X155733505Y-61621727D01*
X155838814Y-61367490D01*
X155892500Y-61097592D01*
X155892500Y-60822408D01*
X155838814Y-60552510D01*
X155733505Y-60298273D01*
X155580620Y-60069465D01*
X155386035Y-59874880D01*
X155157227Y-59721995D01*
X155003334Y-59658250D01*
X155157227Y-59594505D01*
X155386035Y-59441620D01*
X155580620Y-59247035D01*
X155733505Y-59018227D01*
X155838814Y-58763990D01*
X155892500Y-58494092D01*
X155892500Y-58218908D01*
X155838814Y-57949010D01*
X155733505Y-57694773D01*
X155580620Y-57465965D01*
X155386035Y-57271380D01*
X155157227Y-57118495D01*
X155079985Y-57086500D01*
X155157227Y-57054505D01*
X155386035Y-56901620D01*
X155532990Y-56754665D01*
X158839000Y-56754665D01*
X158839000Y-57037335D01*
X158894147Y-57314574D01*
X159002320Y-57575727D01*
X159159363Y-57810759D01*
X159359241Y-58010637D01*
X159594273Y-58167680D01*
X159855426Y-58275853D01*
X160132665Y-58331000D01*
X160415335Y-58331000D01*
X160692574Y-58275853D01*
X160953727Y-58167680D01*
X161188759Y-58010637D01*
X161388637Y-57810759D01*
X161498591Y-57646200D01*
X165364528Y-57646200D01*
X165367600Y-58210450D01*
X165526350Y-58369200D01*
X166725600Y-58369200D01*
X166725600Y-57169950D01*
X166566850Y-57011200D01*
X166002600Y-57008128D01*
X165878118Y-57020388D01*
X165758420Y-57056698D01*
X165648106Y-57115663D01*
X165551415Y-57195015D01*
X165472063Y-57291706D01*
X165413098Y-57402020D01*
X165376788Y-57521718D01*
X165364528Y-57646200D01*
X161498591Y-57646200D01*
X161545680Y-57575727D01*
X161653853Y-57314574D01*
X161709000Y-57037335D01*
X161709000Y-56754665D01*
X161653853Y-56477426D01*
X161545680Y-56216273D01*
X161388637Y-55981241D01*
X161188759Y-55781363D01*
X160953727Y-55624320D01*
X160692574Y-55516147D01*
X160415335Y-55461000D01*
X160132665Y-55461000D01*
X159855426Y-55516147D01*
X159594273Y-55624320D01*
X159359241Y-55781363D01*
X159159363Y-55981241D01*
X159002320Y-56216273D01*
X158894147Y-56477426D01*
X158839000Y-56754665D01*
X155532990Y-56754665D01*
X155580620Y-56707035D01*
X155733505Y-56478227D01*
X155838814Y-56223990D01*
X155892500Y-55954092D01*
X155892500Y-55678908D01*
X155838814Y-55409010D01*
X155733505Y-55154773D01*
X155580620Y-54925965D01*
X155386035Y-54731380D01*
X155157227Y-54578495D01*
X155079985Y-54546500D01*
X155157227Y-54514505D01*
X155386035Y-54361620D01*
X155580620Y-54167035D01*
X155733505Y-53938227D01*
X155838814Y-53683990D01*
X155892500Y-53414092D01*
X155892500Y-53138908D01*
X155838814Y-52869010D01*
X155733505Y-52614773D01*
X155580620Y-52385965D01*
X155386035Y-52191380D01*
X155157227Y-52038495D01*
X155079985Y-52006500D01*
X155157227Y-51974505D01*
X155386035Y-51821620D01*
X155580620Y-51627035D01*
X155733505Y-51398227D01*
X155838814Y-51143990D01*
X155892500Y-50874092D01*
X155892500Y-50598908D01*
X155838814Y-50329010D01*
X155733505Y-50074773D01*
X155580620Y-49845965D01*
X155386035Y-49651380D01*
X155157227Y-49498495D01*
X155079985Y-49466500D01*
X155157227Y-49434505D01*
X155386035Y-49281620D01*
X155580620Y-49087035D01*
X155733505Y-48858227D01*
X155838814Y-48603990D01*
X155892500Y-48334092D01*
X155892500Y-48058908D01*
X155838814Y-47789010D01*
X155733505Y-47534773D01*
X155580620Y-47305965D01*
X155557665Y-47283010D01*
X155581064Y-47254499D01*
X156093503Y-46742061D01*
X156122502Y-46718262D01*
X156148833Y-46686178D01*
X156217475Y-46602538D01*
X156288047Y-46470508D01*
X156293887Y-46451255D01*
X156331504Y-46327247D01*
X156342501Y-46215594D01*
X156342501Y-46215585D01*
X156346177Y-46178262D01*
X156342501Y-46140939D01*
X156342501Y-45172061D01*
X156346177Y-45134738D01*
X156342501Y-45097415D01*
X156342501Y-45097406D01*
X156331504Y-44985753D01*
X156288047Y-44842492D01*
X156255705Y-44781985D01*
X156217475Y-44710462D01*
X156146300Y-44623736D01*
X156122502Y-44594738D01*
X156093505Y-44570941D01*
X155581064Y-44058501D01*
X155561583Y-44034763D01*
X155577477Y-44018869D01*
X155461067Y-43902459D01*
X155701156Y-43835480D01*
X155818256Y-43586452D01*
X155884523Y-43319365D01*
X155897410Y-43044483D01*
X155856422Y-42772367D01*
X155763136Y-42513477D01*
X155701156Y-42397520D01*
X155461065Y-42330540D01*
X154675105Y-43116500D01*
X154689248Y-43130643D01*
X154509643Y-43310248D01*
X154495500Y-43296105D01*
X154481358Y-43310248D01*
X154301753Y-43130643D01*
X154315895Y-43116500D01*
X153529935Y-42330540D01*
X153289844Y-42397520D01*
X153172744Y-42646548D01*
X153106477Y-42913635D01*
X153093590Y-43188517D01*
X153134578Y-43460633D01*
X153227864Y-43719523D01*
X153275957Y-43809499D01*
X152838316Y-43809499D01*
X152827934Y-41349200D01*
X153289216Y-41349200D01*
X153410380Y-41530535D01*
X153604965Y-41725120D01*
X153833773Y-41878005D01*
X153836131Y-41878982D01*
X153776520Y-41910844D01*
X153709540Y-42150935D01*
X154495500Y-42936895D01*
X155281460Y-42150935D01*
X155214480Y-41910844D01*
X155150537Y-41880776D01*
X155157227Y-41878005D01*
X155386035Y-41725120D01*
X155580620Y-41530535D01*
X155733505Y-41301727D01*
X155838814Y-41047490D01*
X155892500Y-40777592D01*
X155892500Y-40502408D01*
X155838814Y-40232510D01*
X155733505Y-39978273D01*
X155580620Y-39749465D01*
X155386035Y-39554880D01*
X155157227Y-39401995D01*
X155079985Y-39370000D01*
X155157227Y-39338005D01*
X155386035Y-39185120D01*
X155580620Y-38990535D01*
X155733505Y-38761727D01*
X155838814Y-38507490D01*
X155892500Y-38237592D01*
X155892500Y-37962408D01*
X155838814Y-37692510D01*
X155733505Y-37438273D01*
X155580620Y-37209465D01*
X155386035Y-37014880D01*
X155157227Y-36861995D01*
X154902990Y-36756686D01*
X154633092Y-36703000D01*
X154357908Y-36703000D01*
X154088010Y-36756686D01*
X153833773Y-36861995D01*
X153604965Y-37014880D01*
X153410380Y-37209465D01*
X153257495Y-37438273D01*
X153152186Y-37692510D01*
X153098500Y-37962408D01*
X153098500Y-38237592D01*
X153152186Y-38507490D01*
X153257495Y-38761727D01*
X153410380Y-38990535D01*
X153604965Y-39185120D01*
X153833773Y-39338005D01*
X153911015Y-39370000D01*
X153833773Y-39401995D01*
X153604965Y-39554880D01*
X153410380Y-39749465D01*
X153357103Y-39829200D01*
X152821521Y-39829200D01*
X152781537Y-30353000D01*
X169799393Y-30353000D01*
X170028000Y-104192986D01*
G36*
X129243465Y-50041003D02*
G01*
X129267263Y-50070001D01*
X129296261Y-50093799D01*
X129329490Y-50121069D01*
X129317995Y-50138273D01*
X129212686Y-50392510D01*
X129159000Y-50662408D01*
X129159000Y-50937592D01*
X129212686Y-51207490D01*
X129317995Y-51461727D01*
X129470880Y-51690535D01*
X129665465Y-51885120D01*
X129894273Y-52038005D01*
X129971515Y-52070000D01*
X129894273Y-52101995D01*
X129665465Y-52254880D01*
X129470880Y-52449465D01*
X129317995Y-52678273D01*
X129212686Y-52932510D01*
X129159000Y-53202408D01*
X129159000Y-53477592D01*
X129212686Y-53747490D01*
X129317995Y-54001727D01*
X129470880Y-54230535D01*
X129665465Y-54425120D01*
X129894273Y-54578005D01*
X129971515Y-54610000D01*
X129894273Y-54641995D01*
X129665465Y-54794880D01*
X129470880Y-54989465D01*
X129317995Y-55218273D01*
X129212686Y-55472510D01*
X129159000Y-55742408D01*
X129159000Y-56017592D01*
X129212686Y-56287490D01*
X129317995Y-56541727D01*
X129470880Y-56770535D01*
X129665465Y-56965120D01*
X129894273Y-57118005D01*
X129971515Y-57150000D01*
X129894273Y-57181995D01*
X129665465Y-57334880D01*
X129470880Y-57529465D01*
X129317995Y-57758273D01*
X129212686Y-58012510D01*
X129159000Y-58282408D01*
X129159000Y-58557592D01*
X129212686Y-58827490D01*
X129317995Y-59081727D01*
X129470880Y-59310535D01*
X129665465Y-59505120D01*
X129894273Y-59658005D01*
X129971515Y-59690000D01*
X129894273Y-59721995D01*
X129665465Y-59874880D01*
X129470880Y-60069465D01*
X129317995Y-60298273D01*
X129244036Y-60476824D01*
X126050403Y-57283192D01*
X126080130Y-57278787D01*
X126346292Y-57183603D01*
X126471514Y-57116671D01*
X126543097Y-56872702D01*
X125730000Y-56059605D01*
X125715858Y-56073748D01*
X125536253Y-55894143D01*
X125550395Y-55880000D01*
X125909605Y-55880000D01*
X126722702Y-56693097D01*
X126966671Y-56621514D01*
X127087571Y-56366004D01*
X127156300Y-56091816D01*
X127170217Y-55809488D01*
X127128787Y-55529870D01*
X127033603Y-55263708D01*
X126966671Y-55138486D01*
X126722702Y-55066903D01*
X125909605Y-55880000D01*
X125550395Y-55880000D01*
X124737298Y-55066903D01*
X124493329Y-55138486D01*
X124372429Y-55393996D01*
X124330095Y-55562884D01*
X123654509Y-54887298D01*
X124916903Y-54887298D01*
X125730000Y-55700395D01*
X126543097Y-54887298D01*
X126471514Y-54643329D01*
X126216004Y-54522429D01*
X125941816Y-54453700D01*
X125659488Y-54439783D01*
X125379870Y-54481213D01*
X125113708Y-54576397D01*
X124988486Y-54643329D01*
X124916903Y-54887298D01*
X123654509Y-54887298D01*
X120070016Y-51302805D01*
X120294759Y-51152637D01*
X120494637Y-50952759D01*
X120651680Y-50717727D01*
X120759853Y-50456574D01*
X120815000Y-50179335D01*
X120815000Y-49896665D01*
X120759853Y-49619426D01*
X120651680Y-49358273D01*
X120494637Y-49123241D01*
X120294759Y-48923363D01*
X120059727Y-48766320D01*
X119798574Y-48658147D01*
X119521335Y-48603000D01*
X119238665Y-48603000D01*
X118961426Y-48658147D01*
X118700273Y-48766320D01*
X118465241Y-48923363D01*
X118265363Y-49123241D01*
X118115195Y-49347984D01*
X118108000Y-49340789D01*
X118108000Y-42732801D01*
X118549802Y-42291000D01*
X119702625Y-42291000D01*
X119907860Y-42270786D01*
X120171195Y-42190904D01*
X120413887Y-42061183D01*
X120626608Y-41886608D01*
X120801183Y-41673887D01*
X120827366Y-41624903D01*
X129243465Y-50041003D01*
G37*
X129243465Y-50041003D02*
X129267263Y-50070001D01*
X129296261Y-50093799D01*
X129329490Y-50121069D01*
X129317995Y-50138273D01*
X129212686Y-50392510D01*
X129159000Y-50662408D01*
X129159000Y-50937592D01*
X129212686Y-51207490D01*
X129317995Y-51461727D01*
X129470880Y-51690535D01*
X129665465Y-51885120D01*
X129894273Y-52038005D01*
X129971515Y-52070000D01*
X129894273Y-52101995D01*
X129665465Y-52254880D01*
X129470880Y-52449465D01*
X129317995Y-52678273D01*
X129212686Y-52932510D01*
X129159000Y-53202408D01*
X129159000Y-53477592D01*
X129212686Y-53747490D01*
X129317995Y-54001727D01*
X129470880Y-54230535D01*
X129665465Y-54425120D01*
X129894273Y-54578005D01*
X129971515Y-54610000D01*
X129894273Y-54641995D01*
X129665465Y-54794880D01*
X129470880Y-54989465D01*
X129317995Y-55218273D01*
X129212686Y-55472510D01*
X129159000Y-55742408D01*
X129159000Y-56017592D01*
X129212686Y-56287490D01*
X129317995Y-56541727D01*
X129470880Y-56770535D01*
X129665465Y-56965120D01*
X129894273Y-57118005D01*
X129971515Y-57150000D01*
X129894273Y-57181995D01*
X129665465Y-57334880D01*
X129470880Y-57529465D01*
X129317995Y-57758273D01*
X129212686Y-58012510D01*
X129159000Y-58282408D01*
X129159000Y-58557592D01*
X129212686Y-58827490D01*
X129317995Y-59081727D01*
X129470880Y-59310535D01*
X129665465Y-59505120D01*
X129894273Y-59658005D01*
X129971515Y-59690000D01*
X129894273Y-59721995D01*
X129665465Y-59874880D01*
X129470880Y-60069465D01*
X129317995Y-60298273D01*
X129244036Y-60476824D01*
X126050403Y-57283192D01*
X126080130Y-57278787D01*
X126346292Y-57183603D01*
X126471514Y-57116671D01*
X126543097Y-56872702D01*
X125730000Y-56059605D01*
X125715858Y-56073748D01*
X125536253Y-55894143D01*
X125550395Y-55880000D01*
X125909605Y-55880000D01*
X126722702Y-56693097D01*
X126966671Y-56621514D01*
X127087571Y-56366004D01*
X127156300Y-56091816D01*
X127170217Y-55809488D01*
X127128787Y-55529870D01*
X127033603Y-55263708D01*
X126966671Y-55138486D01*
X126722702Y-55066903D01*
X125909605Y-55880000D01*
X125550395Y-55880000D01*
X124737298Y-55066903D01*
X124493329Y-55138486D01*
X124372429Y-55393996D01*
X124330095Y-55562884D01*
X123654509Y-54887298D01*
X124916903Y-54887298D01*
X125730000Y-55700395D01*
X126543097Y-54887298D01*
X126471514Y-54643329D01*
X126216004Y-54522429D01*
X125941816Y-54453700D01*
X125659488Y-54439783D01*
X125379870Y-54481213D01*
X125113708Y-54576397D01*
X124988486Y-54643329D01*
X124916903Y-54887298D01*
X123654509Y-54887298D01*
X120070016Y-51302805D01*
X120294759Y-51152637D01*
X120494637Y-50952759D01*
X120651680Y-50717727D01*
X120759853Y-50456574D01*
X120815000Y-50179335D01*
X120815000Y-49896665D01*
X120759853Y-49619426D01*
X120651680Y-49358273D01*
X120494637Y-49123241D01*
X120294759Y-48923363D01*
X120059727Y-48766320D01*
X119798574Y-48658147D01*
X119521335Y-48603000D01*
X119238665Y-48603000D01*
X118961426Y-48658147D01*
X118700273Y-48766320D01*
X118465241Y-48923363D01*
X118265363Y-49123241D01*
X118115195Y-49347984D01*
X118108000Y-49340789D01*
X118108000Y-42732801D01*
X118549802Y-42291000D01*
X119702625Y-42291000D01*
X119907860Y-42270786D01*
X120171195Y-42190904D01*
X120413887Y-42061183D01*
X120626608Y-41886608D01*
X120801183Y-41673887D01*
X120827366Y-41624903D01*
X129243465Y-50041003D01*
G36*
X109309426Y-30370147D02*
G01*
X109048273Y-30478320D01*
X108813241Y-30635363D01*
X108613363Y-30835241D01*
X108456320Y-31070273D01*
X108348147Y-31331426D01*
X108293000Y-31608665D01*
X108293000Y-31891335D01*
X108348147Y-32168574D01*
X108456320Y-32429727D01*
X108613363Y-32664759D01*
X108813241Y-32864637D01*
X109048273Y-33021680D01*
X109309426Y-33129853D01*
X109586665Y-33185000D01*
X109869335Y-33185000D01*
X110146574Y-33129853D01*
X110407727Y-33021680D01*
X110642759Y-32864637D01*
X110842637Y-32664759D01*
X110946043Y-32510000D01*
X114493199Y-32510000D01*
X116976396Y-34993197D01*
X116942817Y-35034113D01*
X116813096Y-35276805D01*
X116733214Y-35540140D01*
X116706241Y-35814000D01*
X116733214Y-36087860D01*
X116813096Y-36351195D01*
X116942817Y-36593887D01*
X117117392Y-36806608D01*
X117330113Y-36981183D01*
X117522471Y-37084000D01*
X117330113Y-37186817D01*
X117117392Y-37361392D01*
X116942817Y-37574113D01*
X116813096Y-37816805D01*
X116733214Y-38080140D01*
X116706241Y-38354000D01*
X116733214Y-38627860D01*
X116813096Y-38891195D01*
X116942817Y-39133887D01*
X117084908Y-39307026D01*
X113730635Y-42661300D01*
X92948602Y-42661300D01*
X89007967Y-38720665D01*
X90259000Y-38720665D01*
X90259000Y-39003335D01*
X90314147Y-39280574D01*
X90422320Y-39541727D01*
X90579363Y-39776759D01*
X90779241Y-39976637D01*
X91014273Y-40133680D01*
X91275426Y-40241853D01*
X91552665Y-40297000D01*
X91835335Y-40297000D01*
X92112574Y-40241853D01*
X92373727Y-40133680D01*
X92608759Y-39976637D01*
X92808637Y-39776759D01*
X92965680Y-39541727D01*
X93010005Y-39434716D01*
X96051800Y-39434716D01*
X96051800Y-39737084D01*
X96110789Y-40033643D01*
X96226501Y-40312995D01*
X96394488Y-40564405D01*
X96608295Y-40778212D01*
X96859705Y-40946199D01*
X97139057Y-41061911D01*
X97435616Y-41120900D01*
X97737984Y-41120900D01*
X98034543Y-41061911D01*
X98313895Y-40946199D01*
X98565305Y-40778212D01*
X98779112Y-40564405D01*
X98856800Y-40448137D01*
X98934488Y-40564405D01*
X99148295Y-40778212D01*
X99399705Y-40946199D01*
X99679057Y-41061911D01*
X99975616Y-41120900D01*
X100277984Y-41120900D01*
X100574543Y-41061911D01*
X100853895Y-40946199D01*
X101105305Y-40778212D01*
X101171744Y-40711773D01*
X101177298Y-40730080D01*
X101236263Y-40840394D01*
X101315615Y-40937085D01*
X101412306Y-41016437D01*
X101522620Y-41075402D01*
X101642318Y-41111712D01*
X101766800Y-41123972D01*
X103566800Y-41123972D01*
X103691282Y-41111712D01*
X103810980Y-41075402D01*
X103921294Y-41016437D01*
X104017985Y-40937085D01*
X104097337Y-40840394D01*
X104156302Y-40730080D01*
X104192612Y-40610382D01*
X104204872Y-40485900D01*
X104204872Y-38685900D01*
X104192612Y-38561418D01*
X104156302Y-38441720D01*
X104097337Y-38331406D01*
X104017985Y-38234715D01*
X103921294Y-38155363D01*
X103810980Y-38096398D01*
X103691282Y-38060088D01*
X103566800Y-38047828D01*
X101766800Y-38047828D01*
X101642318Y-38060088D01*
X101522620Y-38096398D01*
X101412306Y-38155363D01*
X101315615Y-38234715D01*
X101236263Y-38331406D01*
X101177298Y-38441720D01*
X101171744Y-38460027D01*
X101105305Y-38393588D01*
X100853895Y-38225601D01*
X100574543Y-38109889D01*
X100277984Y-38050900D01*
X99975616Y-38050900D01*
X99679057Y-38109889D01*
X99399705Y-38225601D01*
X99148295Y-38393588D01*
X98934488Y-38607395D01*
X98856800Y-38723663D01*
X98779112Y-38607395D01*
X98565305Y-38393588D01*
X98313895Y-38225601D01*
X98034543Y-38109889D01*
X97737984Y-38050900D01*
X97435616Y-38050900D01*
X97139057Y-38109889D01*
X96859705Y-38225601D01*
X96608295Y-38393588D01*
X96394488Y-38607395D01*
X96226501Y-38858805D01*
X96110789Y-39138157D01*
X96051800Y-39434716D01*
X93010005Y-39434716D01*
X93073853Y-39280574D01*
X93129000Y-39003335D01*
X93129000Y-38720665D01*
X93073853Y-38443426D01*
X92965680Y-38182273D01*
X92808637Y-37947241D01*
X92608759Y-37747363D01*
X92373727Y-37590320D01*
X92112574Y-37482147D01*
X91835335Y-37427000D01*
X91552665Y-37427000D01*
X91275426Y-37482147D01*
X91014273Y-37590320D01*
X90779241Y-37747363D01*
X90579363Y-37947241D01*
X90422320Y-38182273D01*
X90314147Y-38443426D01*
X90259000Y-38720665D01*
X89007967Y-38720665D01*
X88638304Y-38351003D01*
X88614501Y-38321999D01*
X88498776Y-38227026D01*
X88366747Y-38156454D01*
X88223486Y-38112997D01*
X88111833Y-38102000D01*
X88111822Y-38102000D01*
X88074500Y-38098324D01*
X88037178Y-38102000D01*
X77672043Y-38102000D01*
X77568637Y-37947241D01*
X77368759Y-37747363D01*
X77133727Y-37590320D01*
X76872574Y-37482147D01*
X76595335Y-37427000D01*
X76312665Y-37427000D01*
X76035426Y-37482147D01*
X75774273Y-37590320D01*
X75539241Y-37747363D01*
X75339363Y-37947241D01*
X75182320Y-38182273D01*
X75074147Y-38443426D01*
X75019000Y-38720665D01*
X75019000Y-39003335D01*
X75074147Y-39280574D01*
X75182320Y-39541727D01*
X75339363Y-39776759D01*
X75539241Y-39976637D01*
X75774273Y-40133680D01*
X76035426Y-40241853D01*
X76312665Y-40297000D01*
X76595335Y-40297000D01*
X76872574Y-40241853D01*
X77133727Y-40133680D01*
X77368759Y-39976637D01*
X77568637Y-39776759D01*
X77672043Y-39622000D01*
X87759699Y-39622000D01*
X92070001Y-43932303D01*
X92093799Y-43961301D01*
X92122797Y-43985099D01*
X92209523Y-44056274D01*
X92291429Y-44100054D01*
X92341553Y-44126846D01*
X92484814Y-44170303D01*
X92596467Y-44181300D01*
X92596477Y-44181300D01*
X92633800Y-44184976D01*
X92671123Y-44181300D01*
X114008114Y-44181300D01*
X114045436Y-44184976D01*
X114082758Y-44181300D01*
X114082769Y-44181300D01*
X114194422Y-44170303D01*
X114337683Y-44126846D01*
X114469712Y-44056274D01*
X114585437Y-43961301D01*
X114609240Y-43932297D01*
X116916635Y-41624903D01*
X116942817Y-41673887D01*
X116976396Y-41714803D01*
X116836998Y-41854201D01*
X116808000Y-41877999D01*
X116784202Y-41906997D01*
X116784201Y-41906998D01*
X116713026Y-41993724D01*
X116642454Y-42125754D01*
X116622692Y-42190904D01*
X116598998Y-42269014D01*
X116596833Y-42291000D01*
X116584324Y-42418000D01*
X116588001Y-42455332D01*
X116588000Y-48457199D01*
X113484803Y-45354002D01*
X113461000Y-45324998D01*
X113345275Y-45230025D01*
X113213246Y-45159453D01*
X113069985Y-45115996D01*
X112958332Y-45104999D01*
X112958321Y-45104999D01*
X112920999Y-45101323D01*
X112883677Y-45104999D01*
X109225322Y-45104999D01*
X109187999Y-45101323D01*
X109150676Y-45104999D01*
X109150666Y-45104999D01*
X109039013Y-45115996D01*
X108899893Y-45158197D01*
X108895752Y-45159453D01*
X108839000Y-45189788D01*
X108839000Y-44450000D01*
X108836560Y-44425224D01*
X108829333Y-44401399D01*
X108817597Y-44379443D01*
X108801803Y-44360197D01*
X108782557Y-44344403D01*
X108760601Y-44332667D01*
X108736776Y-44325440D01*
X108712000Y-44323000D01*
X73304000Y-44323000D01*
X73304000Y-32624665D01*
X75019000Y-32624665D01*
X75019000Y-32907335D01*
X75074147Y-33184574D01*
X75182320Y-33445727D01*
X75339363Y-33680759D01*
X75539241Y-33880637D01*
X75774273Y-34037680D01*
X76035426Y-34145853D01*
X76312665Y-34201000D01*
X76595335Y-34201000D01*
X76872574Y-34145853D01*
X77133727Y-34037680D01*
X77368759Y-33880637D01*
X77568637Y-33680759D01*
X77725680Y-33445727D01*
X77833853Y-33184574D01*
X77889000Y-32907335D01*
X77889000Y-32624665D01*
X90259000Y-32624665D01*
X90259000Y-32907335D01*
X90314147Y-33184574D01*
X90422320Y-33445727D01*
X90579363Y-33680759D01*
X90779241Y-33880637D01*
X91014273Y-34037680D01*
X91275426Y-34145853D01*
X91552665Y-34201000D01*
X91835335Y-34201000D01*
X92112574Y-34145853D01*
X92373727Y-34037680D01*
X92608759Y-33880637D01*
X92808637Y-33680759D01*
X92965680Y-33445727D01*
X93073853Y-33184574D01*
X93129000Y-32907335D01*
X93129000Y-32624665D01*
X93073853Y-32347426D01*
X92965680Y-32086273D01*
X92808637Y-31851241D01*
X92619396Y-31662000D01*
X95793928Y-31662000D01*
X95793928Y-33362000D01*
X95806188Y-33486482D01*
X95842498Y-33606180D01*
X95901463Y-33716494D01*
X95980815Y-33813185D01*
X96077506Y-33892537D01*
X96187820Y-33951502D01*
X96307518Y-33987812D01*
X96432000Y-34000072D01*
X98132000Y-34000072D01*
X98256482Y-33987812D01*
X98376180Y-33951502D01*
X98486494Y-33892537D01*
X98583185Y-33813185D01*
X98662537Y-33716494D01*
X98721502Y-33606180D01*
X98745966Y-33525534D01*
X98821731Y-33609588D01*
X99055080Y-33783641D01*
X99317901Y-33908825D01*
X99465110Y-33953476D01*
X99695000Y-33832155D01*
X99695000Y-32639000D01*
X99675000Y-32639000D01*
X99675000Y-32385000D01*
X99695000Y-32385000D01*
X99695000Y-31191845D01*
X99949000Y-31191845D01*
X99949000Y-32385000D01*
X99969000Y-32385000D01*
X99969000Y-32639000D01*
X99949000Y-32639000D01*
X99949000Y-33832155D01*
X100178890Y-33953476D01*
X100326099Y-33908825D01*
X100588920Y-33783641D01*
X100822269Y-33609588D01*
X101017178Y-33393355D01*
X101086805Y-33276466D01*
X101208525Y-33458632D01*
X101415368Y-33665475D01*
X101658589Y-33827990D01*
X101928842Y-33939932D01*
X102215740Y-33997000D01*
X102508260Y-33997000D01*
X102795158Y-33939932D01*
X103065411Y-33827990D01*
X103308632Y-33665475D01*
X103515475Y-33458632D01*
X103677990Y-33215411D01*
X103789932Y-32945158D01*
X103847000Y-32658260D01*
X103847000Y-32365740D01*
X103789932Y-32078842D01*
X103677990Y-31808589D01*
X103515475Y-31565368D01*
X103308632Y-31358525D01*
X103065411Y-31196010D01*
X102795158Y-31084068D01*
X102508260Y-31027000D01*
X102215740Y-31027000D01*
X101928842Y-31084068D01*
X101658589Y-31196010D01*
X101415368Y-31358525D01*
X101208525Y-31565368D01*
X101086805Y-31747534D01*
X101017178Y-31630645D01*
X100822269Y-31414412D01*
X100588920Y-31240359D01*
X100326099Y-31115175D01*
X100178890Y-31070524D01*
X99949000Y-31191845D01*
X99695000Y-31191845D01*
X99465110Y-31070524D01*
X99317901Y-31115175D01*
X99055080Y-31240359D01*
X98821731Y-31414412D01*
X98745966Y-31498466D01*
X98721502Y-31417820D01*
X98662537Y-31307506D01*
X98583185Y-31210815D01*
X98486494Y-31131463D01*
X98376180Y-31072498D01*
X98256482Y-31036188D01*
X98132000Y-31023928D01*
X96432000Y-31023928D01*
X96307518Y-31036188D01*
X96187820Y-31072498D01*
X96077506Y-31131463D01*
X95980815Y-31210815D01*
X95901463Y-31307506D01*
X95842498Y-31417820D01*
X95806188Y-31537518D01*
X95793928Y-31662000D01*
X92619396Y-31662000D01*
X92608759Y-31651363D01*
X92373727Y-31494320D01*
X92112574Y-31386147D01*
X91835335Y-31331000D01*
X91552665Y-31331000D01*
X91275426Y-31386147D01*
X91014273Y-31494320D01*
X90779241Y-31651363D01*
X90579363Y-31851241D01*
X90422320Y-32086273D01*
X90314147Y-32347426D01*
X90259000Y-32624665D01*
X77889000Y-32624665D01*
X77833853Y-32347426D01*
X77725680Y-32086273D01*
X77568637Y-31851241D01*
X77368759Y-31651363D01*
X77133727Y-31494320D01*
X76872574Y-31386147D01*
X76595335Y-31331000D01*
X76312665Y-31331000D01*
X76035426Y-31386147D01*
X75774273Y-31494320D01*
X75539241Y-31651363D01*
X75339363Y-31851241D01*
X75182320Y-32086273D01*
X75074147Y-32347426D01*
X75019000Y-32624665D01*
X73304000Y-32624665D01*
X73304000Y-30353000D01*
X109395629Y-30353000D01*
X109309426Y-30370147D01*
G37*
X109309426Y-30370147D02*
X109048273Y-30478320D01*
X108813241Y-30635363D01*
X108613363Y-30835241D01*
X108456320Y-31070273D01*
X108348147Y-31331426D01*
X108293000Y-31608665D01*
X108293000Y-31891335D01*
X108348147Y-32168574D01*
X108456320Y-32429727D01*
X108613363Y-32664759D01*
X108813241Y-32864637D01*
X109048273Y-33021680D01*
X109309426Y-33129853D01*
X109586665Y-33185000D01*
X109869335Y-33185000D01*
X110146574Y-33129853D01*
X110407727Y-33021680D01*
X110642759Y-32864637D01*
X110842637Y-32664759D01*
X110946043Y-32510000D01*
X114493199Y-32510000D01*
X116976396Y-34993197D01*
X116942817Y-35034113D01*
X116813096Y-35276805D01*
X116733214Y-35540140D01*
X116706241Y-35814000D01*
X116733214Y-36087860D01*
X116813096Y-36351195D01*
X116942817Y-36593887D01*
X117117392Y-36806608D01*
X117330113Y-36981183D01*
X117522471Y-37084000D01*
X117330113Y-37186817D01*
X117117392Y-37361392D01*
X116942817Y-37574113D01*
X116813096Y-37816805D01*
X116733214Y-38080140D01*
X116706241Y-38354000D01*
X116733214Y-38627860D01*
X116813096Y-38891195D01*
X116942817Y-39133887D01*
X117084908Y-39307026D01*
X113730635Y-42661300D01*
X92948602Y-42661300D01*
X89007967Y-38720665D01*
X90259000Y-38720665D01*
X90259000Y-39003335D01*
X90314147Y-39280574D01*
X90422320Y-39541727D01*
X90579363Y-39776759D01*
X90779241Y-39976637D01*
X91014273Y-40133680D01*
X91275426Y-40241853D01*
X91552665Y-40297000D01*
X91835335Y-40297000D01*
X92112574Y-40241853D01*
X92373727Y-40133680D01*
X92608759Y-39976637D01*
X92808637Y-39776759D01*
X92965680Y-39541727D01*
X93010005Y-39434716D01*
X96051800Y-39434716D01*
X96051800Y-39737084D01*
X96110789Y-40033643D01*
X96226501Y-40312995D01*
X96394488Y-40564405D01*
X96608295Y-40778212D01*
X96859705Y-40946199D01*
X97139057Y-41061911D01*
X97435616Y-41120900D01*
X97737984Y-41120900D01*
X98034543Y-41061911D01*
X98313895Y-40946199D01*
X98565305Y-40778212D01*
X98779112Y-40564405D01*
X98856800Y-40448137D01*
X98934488Y-40564405D01*
X99148295Y-40778212D01*
X99399705Y-40946199D01*
X99679057Y-41061911D01*
X99975616Y-41120900D01*
X100277984Y-41120900D01*
X100574543Y-41061911D01*
X100853895Y-40946199D01*
X101105305Y-40778212D01*
X101171744Y-40711773D01*
X101177298Y-40730080D01*
X101236263Y-40840394D01*
X101315615Y-40937085D01*
X101412306Y-41016437D01*
X101522620Y-41075402D01*
X101642318Y-41111712D01*
X101766800Y-41123972D01*
X103566800Y-41123972D01*
X103691282Y-41111712D01*
X103810980Y-41075402D01*
X103921294Y-41016437D01*
X104017985Y-40937085D01*
X104097337Y-40840394D01*
X104156302Y-40730080D01*
X104192612Y-40610382D01*
X104204872Y-40485900D01*
X104204872Y-38685900D01*
X104192612Y-38561418D01*
X104156302Y-38441720D01*
X104097337Y-38331406D01*
X104017985Y-38234715D01*
X103921294Y-38155363D01*
X103810980Y-38096398D01*
X103691282Y-38060088D01*
X103566800Y-38047828D01*
X101766800Y-38047828D01*
X101642318Y-38060088D01*
X101522620Y-38096398D01*
X101412306Y-38155363D01*
X101315615Y-38234715D01*
X101236263Y-38331406D01*
X101177298Y-38441720D01*
X101171744Y-38460027D01*
X101105305Y-38393588D01*
X100853895Y-38225601D01*
X100574543Y-38109889D01*
X100277984Y-38050900D01*
X99975616Y-38050900D01*
X99679057Y-38109889D01*
X99399705Y-38225601D01*
X99148295Y-38393588D01*
X98934488Y-38607395D01*
X98856800Y-38723663D01*
X98779112Y-38607395D01*
X98565305Y-38393588D01*
X98313895Y-38225601D01*
X98034543Y-38109889D01*
X97737984Y-38050900D01*
X97435616Y-38050900D01*
X97139057Y-38109889D01*
X96859705Y-38225601D01*
X96608295Y-38393588D01*
X96394488Y-38607395D01*
X96226501Y-38858805D01*
X96110789Y-39138157D01*
X96051800Y-39434716D01*
X93010005Y-39434716D01*
X93073853Y-39280574D01*
X93129000Y-39003335D01*
X93129000Y-38720665D01*
X93073853Y-38443426D01*
X92965680Y-38182273D01*
X92808637Y-37947241D01*
X92608759Y-37747363D01*
X92373727Y-37590320D01*
X92112574Y-37482147D01*
X91835335Y-37427000D01*
X91552665Y-37427000D01*
X91275426Y-37482147D01*
X91014273Y-37590320D01*
X90779241Y-37747363D01*
X90579363Y-37947241D01*
X90422320Y-38182273D01*
X90314147Y-38443426D01*
X90259000Y-38720665D01*
X89007967Y-38720665D01*
X88638304Y-38351003D01*
X88614501Y-38321999D01*
X88498776Y-38227026D01*
X88366747Y-38156454D01*
X88223486Y-38112997D01*
X88111833Y-38102000D01*
X88111822Y-38102000D01*
X88074500Y-38098324D01*
X88037178Y-38102000D01*
X77672043Y-38102000D01*
X77568637Y-37947241D01*
X77368759Y-37747363D01*
X77133727Y-37590320D01*
X76872574Y-37482147D01*
X76595335Y-37427000D01*
X76312665Y-37427000D01*
X76035426Y-37482147D01*
X75774273Y-37590320D01*
X75539241Y-37747363D01*
X75339363Y-37947241D01*
X75182320Y-38182273D01*
X75074147Y-38443426D01*
X75019000Y-38720665D01*
X75019000Y-39003335D01*
X75074147Y-39280574D01*
X75182320Y-39541727D01*
X75339363Y-39776759D01*
X75539241Y-39976637D01*
X75774273Y-40133680D01*
X76035426Y-40241853D01*
X76312665Y-40297000D01*
X76595335Y-40297000D01*
X76872574Y-40241853D01*
X77133727Y-40133680D01*
X77368759Y-39976637D01*
X77568637Y-39776759D01*
X77672043Y-39622000D01*
X87759699Y-39622000D01*
X92070001Y-43932303D01*
X92093799Y-43961301D01*
X92122797Y-43985099D01*
X92209523Y-44056274D01*
X92291429Y-44100054D01*
X92341553Y-44126846D01*
X92484814Y-44170303D01*
X92596467Y-44181300D01*
X92596477Y-44181300D01*
X92633800Y-44184976D01*
X92671123Y-44181300D01*
X114008114Y-44181300D01*
X114045436Y-44184976D01*
X114082758Y-44181300D01*
X114082769Y-44181300D01*
X114194422Y-44170303D01*
X114337683Y-44126846D01*
X114469712Y-44056274D01*
X114585437Y-43961301D01*
X114609240Y-43932297D01*
X116916635Y-41624903D01*
X116942817Y-41673887D01*
X116976396Y-41714803D01*
X116836998Y-41854201D01*
X116808000Y-41877999D01*
X116784202Y-41906997D01*
X116784201Y-41906998D01*
X116713026Y-41993724D01*
X116642454Y-42125754D01*
X116622692Y-42190904D01*
X116598998Y-42269014D01*
X116596833Y-42291000D01*
X116584324Y-42418000D01*
X116588001Y-42455332D01*
X116588000Y-48457199D01*
X113484803Y-45354002D01*
X113461000Y-45324998D01*
X113345275Y-45230025D01*
X113213246Y-45159453D01*
X113069985Y-45115996D01*
X112958332Y-45104999D01*
X112958321Y-45104999D01*
X112920999Y-45101323D01*
X112883677Y-45104999D01*
X109225322Y-45104999D01*
X109187999Y-45101323D01*
X109150676Y-45104999D01*
X109150666Y-45104999D01*
X109039013Y-45115996D01*
X108899893Y-45158197D01*
X108895752Y-45159453D01*
X108839000Y-45189788D01*
X108839000Y-44450000D01*
X108836560Y-44425224D01*
X108829333Y-44401399D01*
X108817597Y-44379443D01*
X108801803Y-44360197D01*
X108782557Y-44344403D01*
X108760601Y-44332667D01*
X108736776Y-44325440D01*
X108712000Y-44323000D01*
X73304000Y-44323000D01*
X73304000Y-32624665D01*
X75019000Y-32624665D01*
X75019000Y-32907335D01*
X75074147Y-33184574D01*
X75182320Y-33445727D01*
X75339363Y-33680759D01*
X75539241Y-33880637D01*
X75774273Y-34037680D01*
X76035426Y-34145853D01*
X76312665Y-34201000D01*
X76595335Y-34201000D01*
X76872574Y-34145853D01*
X77133727Y-34037680D01*
X77368759Y-33880637D01*
X77568637Y-33680759D01*
X77725680Y-33445727D01*
X77833853Y-33184574D01*
X77889000Y-32907335D01*
X77889000Y-32624665D01*
X90259000Y-32624665D01*
X90259000Y-32907335D01*
X90314147Y-33184574D01*
X90422320Y-33445727D01*
X90579363Y-33680759D01*
X90779241Y-33880637D01*
X91014273Y-34037680D01*
X91275426Y-34145853D01*
X91552665Y-34201000D01*
X91835335Y-34201000D01*
X92112574Y-34145853D01*
X92373727Y-34037680D01*
X92608759Y-33880637D01*
X92808637Y-33680759D01*
X92965680Y-33445727D01*
X93073853Y-33184574D01*
X93129000Y-32907335D01*
X93129000Y-32624665D01*
X93073853Y-32347426D01*
X92965680Y-32086273D01*
X92808637Y-31851241D01*
X92619396Y-31662000D01*
X95793928Y-31662000D01*
X95793928Y-33362000D01*
X95806188Y-33486482D01*
X95842498Y-33606180D01*
X95901463Y-33716494D01*
X95980815Y-33813185D01*
X96077506Y-33892537D01*
X96187820Y-33951502D01*
X96307518Y-33987812D01*
X96432000Y-34000072D01*
X98132000Y-34000072D01*
X98256482Y-33987812D01*
X98376180Y-33951502D01*
X98486494Y-33892537D01*
X98583185Y-33813185D01*
X98662537Y-33716494D01*
X98721502Y-33606180D01*
X98745966Y-33525534D01*
X98821731Y-33609588D01*
X99055080Y-33783641D01*
X99317901Y-33908825D01*
X99465110Y-33953476D01*
X99695000Y-33832155D01*
X99695000Y-32639000D01*
X99675000Y-32639000D01*
X99675000Y-32385000D01*
X99695000Y-32385000D01*
X99695000Y-31191845D01*
X99949000Y-31191845D01*
X99949000Y-32385000D01*
X99969000Y-32385000D01*
X99969000Y-32639000D01*
X99949000Y-32639000D01*
X99949000Y-33832155D01*
X100178890Y-33953476D01*
X100326099Y-33908825D01*
X100588920Y-33783641D01*
X100822269Y-33609588D01*
X101017178Y-33393355D01*
X101086805Y-33276466D01*
X101208525Y-33458632D01*
X101415368Y-33665475D01*
X101658589Y-33827990D01*
X101928842Y-33939932D01*
X102215740Y-33997000D01*
X102508260Y-33997000D01*
X102795158Y-33939932D01*
X103065411Y-33827990D01*
X103308632Y-33665475D01*
X103515475Y-33458632D01*
X103677990Y-33215411D01*
X103789932Y-32945158D01*
X103847000Y-32658260D01*
X103847000Y-32365740D01*
X103789932Y-32078842D01*
X103677990Y-31808589D01*
X103515475Y-31565368D01*
X103308632Y-31358525D01*
X103065411Y-31196010D01*
X102795158Y-31084068D01*
X102508260Y-31027000D01*
X102215740Y-31027000D01*
X101928842Y-31084068D01*
X101658589Y-31196010D01*
X101415368Y-31358525D01*
X101208525Y-31565368D01*
X101086805Y-31747534D01*
X101017178Y-31630645D01*
X100822269Y-31414412D01*
X100588920Y-31240359D01*
X100326099Y-31115175D01*
X100178890Y-31070524D01*
X99949000Y-31191845D01*
X99695000Y-31191845D01*
X99465110Y-31070524D01*
X99317901Y-31115175D01*
X99055080Y-31240359D01*
X98821731Y-31414412D01*
X98745966Y-31498466D01*
X98721502Y-31417820D01*
X98662537Y-31307506D01*
X98583185Y-31210815D01*
X98486494Y-31131463D01*
X98376180Y-31072498D01*
X98256482Y-31036188D01*
X98132000Y-31023928D01*
X96432000Y-31023928D01*
X96307518Y-31036188D01*
X96187820Y-31072498D01*
X96077506Y-31131463D01*
X95980815Y-31210815D01*
X95901463Y-31307506D01*
X95842498Y-31417820D01*
X95806188Y-31537518D01*
X95793928Y-31662000D01*
X92619396Y-31662000D01*
X92608759Y-31651363D01*
X92373727Y-31494320D01*
X92112574Y-31386147D01*
X91835335Y-31331000D01*
X91552665Y-31331000D01*
X91275426Y-31386147D01*
X91014273Y-31494320D01*
X90779241Y-31651363D01*
X90579363Y-31851241D01*
X90422320Y-32086273D01*
X90314147Y-32347426D01*
X90259000Y-32624665D01*
X77889000Y-32624665D01*
X77833853Y-32347426D01*
X77725680Y-32086273D01*
X77568637Y-31851241D01*
X77368759Y-31651363D01*
X77133727Y-31494320D01*
X76872574Y-31386147D01*
X76595335Y-31331000D01*
X76312665Y-31331000D01*
X76035426Y-31386147D01*
X75774273Y-31494320D01*
X75539241Y-31651363D01*
X75339363Y-31851241D01*
X75182320Y-32086273D01*
X75074147Y-32347426D01*
X75019000Y-32624665D01*
X73304000Y-32624665D01*
X73304000Y-30353000D01*
X109395629Y-30353000D01*
X109309426Y-30370147D01*
G36*
X129189628Y-37808430D02*
G01*
X129159000Y-37962408D01*
X129159000Y-38237592D01*
X129189628Y-38391571D01*
X128957997Y-38623202D01*
X128928999Y-38647000D01*
X128905201Y-38675998D01*
X128905200Y-38675999D01*
X128834025Y-38762725D01*
X128763453Y-38894755D01*
X128719997Y-39038016D01*
X128705323Y-39187001D01*
X128709000Y-39224333D01*
X128708999Y-44595676D01*
X128705323Y-44632999D01*
X128708999Y-44670321D01*
X128708999Y-44670331D01*
X128719996Y-44781984D01*
X128757471Y-44905524D01*
X128763453Y-44925245D01*
X128834025Y-45057275D01*
X128866960Y-45097406D01*
X128928998Y-45173000D01*
X128958001Y-45196803D01*
X129189628Y-45428429D01*
X129159000Y-45582408D01*
X129159000Y-45857592D01*
X129212686Y-46127490D01*
X129317995Y-46381727D01*
X129470880Y-46610535D01*
X129665465Y-46805120D01*
X129894273Y-46958005D01*
X129971515Y-46990000D01*
X129894273Y-47021995D01*
X129665465Y-47174880D01*
X129470880Y-47369465D01*
X129317995Y-47598273D01*
X129212686Y-47852510D01*
X129211340Y-47859275D01*
X120659092Y-39307027D01*
X120801183Y-39133887D01*
X120811813Y-39114000D01*
X124907199Y-39114000D01*
X124970001Y-39176802D01*
X124970001Y-39421956D01*
X124815241Y-39525363D01*
X124615363Y-39725241D01*
X124458320Y-39960273D01*
X124350147Y-40221426D01*
X124295000Y-40498665D01*
X124295000Y-40781335D01*
X124350147Y-41058574D01*
X124458320Y-41319727D01*
X124615363Y-41554759D01*
X124815241Y-41754637D01*
X125050273Y-41911680D01*
X125311426Y-42019853D01*
X125588665Y-42075000D01*
X125871335Y-42075000D01*
X126148574Y-42019853D01*
X126409727Y-41911680D01*
X126644759Y-41754637D01*
X126844637Y-41554759D01*
X127001680Y-41319727D01*
X127109853Y-41058574D01*
X127165000Y-40781335D01*
X127165000Y-40498665D01*
X127109853Y-40221426D01*
X127001680Y-39960273D01*
X126844637Y-39725241D01*
X126644759Y-39525363D01*
X126490000Y-39421957D01*
X126490000Y-38899322D01*
X126493676Y-38861999D01*
X126490000Y-38824676D01*
X126490000Y-38824667D01*
X126479003Y-38713014D01*
X126435546Y-38569753D01*
X126364974Y-38437724D01*
X126270001Y-38321999D01*
X126241002Y-38298200D01*
X125785803Y-37843002D01*
X125762001Y-37813999D01*
X125646276Y-37719026D01*
X125514247Y-37648454D01*
X125370986Y-37604997D01*
X125259333Y-37594000D01*
X125259322Y-37594000D01*
X125222000Y-37590324D01*
X125184678Y-37594000D01*
X120811813Y-37594000D01*
X120801183Y-37574113D01*
X120626608Y-37361392D01*
X120413887Y-37186817D01*
X120221529Y-37084000D01*
X120413887Y-36981183D01*
X120626608Y-36806608D01*
X120801183Y-36593887D01*
X120811813Y-36574000D01*
X127955199Y-36574000D01*
X129189628Y-37808430D01*
G37*
X129189628Y-37808430D02*
X129159000Y-37962408D01*
X129159000Y-38237592D01*
X129189628Y-38391571D01*
X128957997Y-38623202D01*
X128928999Y-38647000D01*
X128905201Y-38675998D01*
X128905200Y-38675999D01*
X128834025Y-38762725D01*
X128763453Y-38894755D01*
X128719997Y-39038016D01*
X128705323Y-39187001D01*
X128709000Y-39224333D01*
X128708999Y-44595676D01*
X128705323Y-44632999D01*
X128708999Y-44670321D01*
X128708999Y-44670331D01*
X128719996Y-44781984D01*
X128757471Y-44905524D01*
X128763453Y-44925245D01*
X128834025Y-45057275D01*
X128866960Y-45097406D01*
X128928998Y-45173000D01*
X128958001Y-45196803D01*
X129189628Y-45428429D01*
X129159000Y-45582408D01*
X129159000Y-45857592D01*
X129212686Y-46127490D01*
X129317995Y-46381727D01*
X129470880Y-46610535D01*
X129665465Y-46805120D01*
X129894273Y-46958005D01*
X129971515Y-46990000D01*
X129894273Y-47021995D01*
X129665465Y-47174880D01*
X129470880Y-47369465D01*
X129317995Y-47598273D01*
X129212686Y-47852510D01*
X129211340Y-47859275D01*
X120659092Y-39307027D01*
X120801183Y-39133887D01*
X120811813Y-39114000D01*
X124907199Y-39114000D01*
X124970001Y-39176802D01*
X124970001Y-39421956D01*
X124815241Y-39525363D01*
X124615363Y-39725241D01*
X124458320Y-39960273D01*
X124350147Y-40221426D01*
X124295000Y-40498665D01*
X124295000Y-40781335D01*
X124350147Y-41058574D01*
X124458320Y-41319727D01*
X124615363Y-41554759D01*
X124815241Y-41754637D01*
X125050273Y-41911680D01*
X125311426Y-42019853D01*
X125588665Y-42075000D01*
X125871335Y-42075000D01*
X126148574Y-42019853D01*
X126409727Y-41911680D01*
X126644759Y-41754637D01*
X126844637Y-41554759D01*
X127001680Y-41319727D01*
X127109853Y-41058574D01*
X127165000Y-40781335D01*
X127165000Y-40498665D01*
X127109853Y-40221426D01*
X127001680Y-39960273D01*
X126844637Y-39725241D01*
X126644759Y-39525363D01*
X126490000Y-39421957D01*
X126490000Y-38899322D01*
X126493676Y-38861999D01*
X126490000Y-38824676D01*
X126490000Y-38824667D01*
X126479003Y-38713014D01*
X126435546Y-38569753D01*
X126364974Y-38437724D01*
X126270001Y-38321999D01*
X126241002Y-38298200D01*
X125785803Y-37843002D01*
X125762001Y-37813999D01*
X125646276Y-37719026D01*
X125514247Y-37648454D01*
X125370986Y-37604997D01*
X125259333Y-37594000D01*
X125259322Y-37594000D01*
X125222000Y-37590324D01*
X125184678Y-37594000D01*
X120811813Y-37594000D01*
X120801183Y-37574113D01*
X120626608Y-37361392D01*
X120413887Y-37186817D01*
X120221529Y-37084000D01*
X120413887Y-36981183D01*
X120626608Y-36806608D01*
X120801183Y-36593887D01*
X120811813Y-36574000D01*
X127955199Y-36574000D01*
X129189628Y-37808430D01*
G36*
X134493000Y-44856960D02*
G01*
X131777055Y-47572906D01*
X131641120Y-47369465D01*
X131446535Y-47174880D01*
X131217727Y-47021995D01*
X131140485Y-46990000D01*
X131217727Y-46958005D01*
X131446535Y-46805120D01*
X131641120Y-46610535D01*
X131794005Y-46381727D01*
X131899314Y-46127490D01*
X131953000Y-45857592D01*
X131953000Y-45582408D01*
X131899314Y-45312510D01*
X131794005Y-45058273D01*
X131641120Y-44829465D01*
X131446535Y-44634880D01*
X131217727Y-44481995D01*
X131146057Y-44452308D01*
X131159023Y-44447636D01*
X131274980Y-44385656D01*
X131341960Y-44145565D01*
X130556000Y-43359605D01*
X130541858Y-43373748D01*
X130362253Y-43194143D01*
X130376395Y-43180000D01*
X130735605Y-43180000D01*
X131521565Y-43965960D01*
X131761656Y-43898980D01*
X131878756Y-43649952D01*
X131945023Y-43382865D01*
X131957910Y-43107983D01*
X131916922Y-42835867D01*
X131823636Y-42576977D01*
X131761656Y-42461020D01*
X131521565Y-42394040D01*
X130735605Y-43180000D01*
X130376395Y-43180000D01*
X130362253Y-43165858D01*
X130541858Y-42986253D01*
X130556000Y-43000395D01*
X131341960Y-42214435D01*
X131274980Y-41974344D01*
X131139240Y-41910515D01*
X131217727Y-41878005D01*
X131446535Y-41725120D01*
X131641120Y-41530535D01*
X131762284Y-41349200D01*
X134493000Y-41349200D01*
X134493000Y-44856960D01*
G37*
X134493000Y-44856960D02*
X131777055Y-47572906D01*
X131641120Y-47369465D01*
X131446535Y-47174880D01*
X131217727Y-47021995D01*
X131140485Y-46990000D01*
X131217727Y-46958005D01*
X131446535Y-46805120D01*
X131641120Y-46610535D01*
X131794005Y-46381727D01*
X131899314Y-46127490D01*
X131953000Y-45857592D01*
X131953000Y-45582408D01*
X131899314Y-45312510D01*
X131794005Y-45058273D01*
X131641120Y-44829465D01*
X131446535Y-44634880D01*
X131217727Y-44481995D01*
X131146057Y-44452308D01*
X131159023Y-44447636D01*
X131274980Y-44385656D01*
X131341960Y-44145565D01*
X130556000Y-43359605D01*
X130541858Y-43373748D01*
X130362253Y-43194143D01*
X130376395Y-43180000D01*
X130735605Y-43180000D01*
X131521565Y-43965960D01*
X131761656Y-43898980D01*
X131878756Y-43649952D01*
X131945023Y-43382865D01*
X131957910Y-43107983D01*
X131916922Y-42835867D01*
X131823636Y-42576977D01*
X131761656Y-42461020D01*
X131521565Y-42394040D01*
X130735605Y-43180000D01*
X130376395Y-43180000D01*
X130362253Y-43165858D01*
X130541858Y-42986253D01*
X130556000Y-43000395D01*
X131341960Y-42214435D01*
X131274980Y-41974344D01*
X131139240Y-41910515D01*
X131217727Y-41878005D01*
X131446535Y-41725120D01*
X131641120Y-41530535D01*
X131762284Y-41349200D01*
X134493000Y-41349200D01*
X134493000Y-44856960D01*
G36*
X167551814Y-39237616D02*
G01*
X167298391Y-39147719D01*
X167068500Y-39268386D01*
X167068500Y-40462200D01*
X167088500Y-40462200D01*
X167088500Y-40716200D01*
X167068500Y-40716200D01*
X167068500Y-40736200D01*
X166814500Y-40736200D01*
X166814500Y-40716200D01*
X165621345Y-40716200D01*
X165500024Y-40946090D01*
X165544675Y-41093299D01*
X165669859Y-41356120D01*
X165843912Y-41589469D01*
X166060145Y-41784378D01*
X166177034Y-41854005D01*
X165994868Y-41975725D01*
X165788025Y-42182568D01*
X165625510Y-42425789D01*
X165513568Y-42696042D01*
X165456500Y-42982940D01*
X165456500Y-43275460D01*
X165513568Y-43562358D01*
X165625510Y-43832611D01*
X165788025Y-44075832D01*
X165994868Y-44282675D01*
X166169260Y-44399200D01*
X165994868Y-44515725D01*
X165788025Y-44722568D01*
X165663322Y-44909200D01*
X165414802Y-44909200D01*
X164094700Y-43589099D01*
X164094700Y-41223422D01*
X164098376Y-41186099D01*
X164094700Y-41148776D01*
X164094700Y-41148767D01*
X164083703Y-41037114D01*
X164040246Y-40893853D01*
X163969674Y-40761824D01*
X163950275Y-40738186D01*
X163898499Y-40675096D01*
X163898495Y-40675092D01*
X163874701Y-40646099D01*
X163845709Y-40622306D01*
X163455713Y-40232310D01*
X165500024Y-40232310D01*
X165621345Y-40462200D01*
X166814500Y-40462200D01*
X166814500Y-39268386D01*
X166584609Y-39147719D01*
X166310248Y-39245043D01*
X166060145Y-39394022D01*
X165843912Y-39588931D01*
X165669859Y-39822280D01*
X165544675Y-40085101D01*
X165500024Y-40232310D01*
X163455713Y-40232310D01*
X162050000Y-38826599D01*
X162050000Y-33790178D01*
X162082597Y-33768398D01*
X167551814Y-39237616D01*
G37*
X167551814Y-39237616D02*
X167298391Y-39147719D01*
X167068500Y-39268386D01*
X167068500Y-40462200D01*
X167088500Y-40462200D01*
X167088500Y-40716200D01*
X167068500Y-40716200D01*
X167068500Y-40736200D01*
X166814500Y-40736200D01*
X166814500Y-40716200D01*
X165621345Y-40716200D01*
X165500024Y-40946090D01*
X165544675Y-41093299D01*
X165669859Y-41356120D01*
X165843912Y-41589469D01*
X166060145Y-41784378D01*
X166177034Y-41854005D01*
X165994868Y-41975725D01*
X165788025Y-42182568D01*
X165625510Y-42425789D01*
X165513568Y-42696042D01*
X165456500Y-42982940D01*
X165456500Y-43275460D01*
X165513568Y-43562358D01*
X165625510Y-43832611D01*
X165788025Y-44075832D01*
X165994868Y-44282675D01*
X166169260Y-44399200D01*
X165994868Y-44515725D01*
X165788025Y-44722568D01*
X165663322Y-44909200D01*
X165414802Y-44909200D01*
X164094700Y-43589099D01*
X164094700Y-41223422D01*
X164098376Y-41186099D01*
X164094700Y-41148776D01*
X164094700Y-41148767D01*
X164083703Y-41037114D01*
X164040246Y-40893853D01*
X163969674Y-40761824D01*
X163950275Y-40738186D01*
X163898499Y-40675096D01*
X163898495Y-40675092D01*
X163874701Y-40646099D01*
X163845709Y-40622306D01*
X163455713Y-40232310D01*
X165500024Y-40232310D01*
X165621345Y-40462200D01*
X166814500Y-40462200D01*
X166814500Y-39268386D01*
X166584609Y-39147719D01*
X166310248Y-39245043D01*
X166060145Y-39394022D01*
X165843912Y-39588931D01*
X165669859Y-39822280D01*
X165544675Y-40085101D01*
X165500024Y-40232310D01*
X163455713Y-40232310D01*
X162050000Y-38826599D01*
X162050000Y-33790178D01*
X162082597Y-33768398D01*
X167551814Y-39237616D01*
%TD*%
M02*
