M48
; DRILL file {KiCad 5.1.5+dfsg1-2build2} date qui 22 out 2020 23:19:59
; FORMAT={-:-/ absolute / inch / decimal}
; #@! TF.CreationDate,2020-10-22T23:19:59-04:00
; #@! TF.GenerationSoftware,Kicad,Pcbnew,5.1.5+dfsg1-2build2
; #@! TF.FileFunction,Plated,1,2,PTH
FMAT,2
INCH
T1C0.0315
T2C0.0354
T3C0.0394
T4C0.0400
T5C0.0433
T6C0.0472
T7C0.0508
T8C0.0520
%
G90
G05
T1
X2.96Y-3.48
X5.41Y-3.92
X6.01Y-3.92
X4.81Y-2.74
X3.95Y-3.26
X6.19Y-3.51
X6.19Y-4.11
X6.31Y-1.64
X6.31Y-2.24
X2.94Y-3.71
X3.54Y-3.71
X2.96Y-3.24
X3.56Y-3.24
X3.56Y-3.48
X3.01Y-1.53
X3.61Y-1.53
X4.81Y-3.34
X4.55Y-3.26
X4.32Y-1.25
X4.32Y-1.85
X3.01Y-1.29
X3.61Y-1.29
X4.7Y-1.97
X4.7Y-2.57
X4.95Y-1.6
X4.95Y-2.2
T2
X5.14Y-1.5
X5.14Y-1.6
X5.14Y-1.7
X5.14Y-1.8
X5.14Y-1.9
X5.14Y-2.0
X5.14Y-2.1
X5.14Y-2.2
X5.14Y-2.3
X5.14Y-2.4
X5.14Y-2.5
X5.14Y-2.6
X5.14Y-2.7
X5.14Y-2.8
X5.14Y-2.9
X5.14Y-3.0
X5.14Y-3.1
X5.14Y-3.2
X6.0825Y-1.5
X6.0825Y-1.6
X6.0825Y-1.6975
X6.0825Y-1.7975
X6.0825Y-1.8975
X6.0825Y-1.9975
X6.0825Y-2.0975
X6.0825Y-2.1975
X6.0825Y-2.2975
X6.0825Y-2.4
X6.0825Y-2.5
X6.0825Y-2.6
X6.0825Y-2.7
X6.0825Y-2.8
X6.0825Y-2.9
X6.0825Y-3.0
X6.0825Y-3.1
X6.0825Y-3.2
X3.7194Y-3.5166
X3.8194Y-3.5166
T3
X3.83Y-1.28
X3.93Y-1.28
X4.03Y-1.28
X5.77Y-3.7
X5.87Y-3.7
X3.7Y-4.32
X3.8Y-4.32
X3.9Y-4.32
X4.0Y-4.32
X6.25Y-1.28
X6.35Y-1.28
X6.45Y-1.28
X6.55Y-1.28
X6.5725Y-1.598
X6.5725Y-1.698
X6.5725Y-1.798
X6.5725Y-1.898
X3.1122Y-4.3126
X3.2122Y-4.3126
X3.3122Y-4.3126
X3.4122Y-4.3126
X6.1Y-4.34
X6.2Y-4.34
X6.3Y-4.34
X6.4Y-4.34
X6.5Y-4.34
X6.6Y-4.34
X6.569Y-2.303
X6.569Y-2.403
X6.569Y-2.503
X6.569Y-2.603
X6.569Y-2.703
X6.569Y-2.803
X6.569Y-2.903
X6.569Y-3.003
X5.06Y-4.32
X5.16Y-4.32
X3.842Y-1.5585
X3.942Y-1.5585
X4.042Y-1.5585
X4.42Y-4.32
X4.52Y-4.32
X2.9934Y-3.9226
X2.9934Y-4.0226
X2.9934Y-4.1226
T4
X4.2Y-3.5
X4.3Y-3.5
X4.4Y-3.5
X4.68Y-1.41
X4.68Y-1.51
X4.68Y-1.61
T5
X5.0526Y-3.5398
X5.0526Y-3.6398
X5.0526Y-3.7398
X4.2492Y-3.7334
X4.2492Y-4.1334
X4.718Y-3.6504
X4.718Y-4.0504
X4.41Y-2.26
X4.41Y-2.66
X4.0092Y-3.7286
X4.0092Y-4.1286
T6
X6.51Y-3.3
X6.51Y-3.5
X6.51Y-3.7
X3.08Y-2.2
X3.08Y-2.4
X3.08Y-2.6
X5.52Y-4.24
X5.72Y-4.24
T7
X4.1589Y-2.4
T8
X3.5998Y-2.1638
X3.5998Y-2.6362
X4.0802Y-2.1638
X4.0802Y-2.6362
T0
M30
