%TF.GenerationSoftware,KiCad,Pcbnew,5.1.6-c6e7f7d~87~ubuntu20.04.1*%
%TF.CreationDate,2020-09-08T10:24:42-03:00*%
%TF.ProjectId,Projeto_placa,50726f6a-6574-46f5-9f70-6c6163612e6b,rev?*%
%TF.SameCoordinates,Original*%
%TF.FileFunction,Legend,Bot*%
%TF.FilePolarity,Positive*%
%FSLAX46Y46*%
G04 Gerber Fmt 4.6, Leading zero omitted, Abs format (unit mm)*
G04 Created by KiCad (PCBNEW 5.1.6-c6e7f7d~87~ubuntu20.04.1) date 2020-09-08 10:24:42*
%MOMM*%
%LPD*%
G01*
G04 APERTURE LIST*
%ADD10C,0.150000*%
%TA.AperFunction,Profile*%
%ADD11C,0.050000*%
%TD*%
G04 APERTURE END LIST*
D10*
X74529904Y-70809238D02*
X73729904Y-70809238D01*
X73729904Y-71114000D01*
X73768000Y-71190190D01*
X73806095Y-71228285D01*
X73882285Y-71266380D01*
X73996571Y-71266380D01*
X74072761Y-71228285D01*
X74110857Y-71190190D01*
X74148952Y-71114000D01*
X74148952Y-70809238D01*
X74529904Y-71723523D02*
X74491809Y-71647333D01*
X74415619Y-71609238D01*
X73729904Y-71609238D01*
X74529904Y-72371142D02*
X74110857Y-72371142D01*
X74034666Y-72333047D01*
X73996571Y-72256857D01*
X73996571Y-72104476D01*
X74034666Y-72028285D01*
X74491809Y-72371142D02*
X74529904Y-72294952D01*
X74529904Y-72104476D01*
X74491809Y-72028285D01*
X74415619Y-71990190D01*
X74339428Y-71990190D01*
X74263238Y-72028285D01*
X74225142Y-72104476D01*
X74225142Y-72294952D01*
X74187047Y-72371142D01*
X73996571Y-72752095D02*
X74529904Y-72752095D01*
X74072761Y-72752095D02*
X74034666Y-72790190D01*
X73996571Y-72866380D01*
X73996571Y-72980666D01*
X74034666Y-73056857D01*
X74110857Y-73094952D01*
X74529904Y-73094952D01*
X74529904Y-73590190D02*
X74491809Y-73514000D01*
X74453714Y-73475904D01*
X74377523Y-73437809D01*
X74148952Y-73437809D01*
X74072761Y-73475904D01*
X74034666Y-73514000D01*
X73996571Y-73590190D01*
X73996571Y-73704476D01*
X74034666Y-73780666D01*
X74072761Y-73818761D01*
X74148952Y-73856857D01*
X74377523Y-73856857D01*
X74453714Y-73818761D01*
X74491809Y-73780666D01*
X74529904Y-73704476D01*
X74529904Y-73590190D01*
X74453714Y-74199714D02*
X74491809Y-74237809D01*
X74529904Y-74199714D01*
X74491809Y-74161619D01*
X74453714Y-74199714D01*
X74529904Y-74199714D01*
X74034666Y-74199714D02*
X74072761Y-74237809D01*
X74110857Y-74199714D01*
X74072761Y-74161619D01*
X74034666Y-74199714D01*
X74110857Y-74199714D01*
X73729904Y-75114000D02*
X73729904Y-75609238D01*
X74034666Y-75342571D01*
X74034666Y-75456857D01*
X74072761Y-75533047D01*
X74110857Y-75571142D01*
X74187047Y-75609238D01*
X74377523Y-75609238D01*
X74453714Y-75571142D01*
X74491809Y-75533047D01*
X74529904Y-75456857D01*
X74529904Y-75228285D01*
X74491809Y-75152095D01*
X74453714Y-75114000D01*
X73729904Y-75837809D02*
X74529904Y-76104476D01*
X73729904Y-76371142D01*
X73729904Y-76561619D02*
X73729904Y-77056857D01*
X74034666Y-76790190D01*
X74034666Y-76904476D01*
X74072761Y-76980666D01*
X74110857Y-77018761D01*
X74187047Y-77056857D01*
X74377523Y-77056857D01*
X74453714Y-77018761D01*
X74491809Y-76980666D01*
X74529904Y-76904476D01*
X74529904Y-76675904D01*
X74491809Y-76599714D01*
X74453714Y-76561619D01*
D11*
X72644000Y-29464000D02*
X72644000Y-113284000D01*
X170688000Y-29464000D02*
X72644000Y-29464000D01*
X170688000Y-113284000D02*
X170688000Y-29464000D01*
X72644000Y-113284000D02*
X170688000Y-113284000D01*
M02*
