%TF.GenerationSoftware,KiCad,Pcbnew,5.1.6-c6e7f7d~87~ubuntu20.04.1*%
%TF.CreationDate,2020-09-08T10:24:42-03:00*%
%TF.ProjectId,Projeto_placa,50726f6a-6574-46f5-9f70-6c6163612e6b,rev?*%
%TF.SameCoordinates,Original*%
%TF.FileFunction,Legend,Top*%
%TF.FilePolarity,Positive*%
%FSLAX46Y46*%
G04 Gerber Fmt 4.6, Leading zero omitted, Abs format (unit mm)*
G04 Created by KiCad (PCBNEW 5.1.6-c6e7f7d~87~ubuntu20.04.1) date 2020-09-08 10:24:42*
%MOMM*%
%LPD*%
G01*
G04 APERTURE LIST*
%ADD10C,0.070000*%
%ADD11C,0.150000*%
%ADD12C,0.200000*%
%ADD13C,0.100000*%
%ADD14C,0.010000*%
%TA.AperFunction,Profile*%
%ADD15C,0.050000*%
%TD*%
%ADD16C,0.120000*%
%ADD17C,0.300000*%
%ADD18C,0.127000*%
%ADD19C,0.015000*%
G04 APERTURE END LIST*
D10*
X163176961Y-97821652D02*
X162948390Y-97821652D01*
X163062676Y-97821652D02*
X163062676Y-97421652D01*
X163024580Y-97478795D01*
X162986485Y-97516890D01*
X162948390Y-97535938D01*
X163348390Y-97783557D02*
X163367438Y-97802604D01*
X163348390Y-97821652D01*
X163329342Y-97802604D01*
X163348390Y-97783557D01*
X163348390Y-97821652D01*
X163824580Y-97707366D02*
X164015057Y-97707366D01*
X163786485Y-97821652D02*
X163919819Y-97421652D01*
X164053152Y-97821652D01*
X164186485Y-97554985D02*
X164186485Y-97821652D01*
X164186485Y-97593080D02*
X164205533Y-97574033D01*
X164243628Y-97554985D01*
X164300771Y-97554985D01*
X164338866Y-97574033D01*
X164357914Y-97612128D01*
X164357914Y-97821652D01*
X164719819Y-97821652D02*
X164719819Y-97612128D01*
X164700771Y-97574033D01*
X164662676Y-97554985D01*
X164586485Y-97554985D01*
X164548390Y-97574033D01*
X164719819Y-97802604D02*
X164681723Y-97821652D01*
X164586485Y-97821652D01*
X164548390Y-97802604D01*
X164529342Y-97764509D01*
X164529342Y-97726414D01*
X164548390Y-97688319D01*
X164586485Y-97669271D01*
X164681723Y-97669271D01*
X164719819Y-97650223D01*
X164967438Y-97821652D02*
X164929342Y-97802604D01*
X164910295Y-97764509D01*
X164910295Y-97421652D01*
X165176961Y-97821652D02*
X165138866Y-97802604D01*
X165119819Y-97783557D01*
X165100771Y-97745461D01*
X165100771Y-97631176D01*
X165119819Y-97593080D01*
X165138866Y-97574033D01*
X165176961Y-97554985D01*
X165234104Y-97554985D01*
X165272200Y-97574033D01*
X165291247Y-97593080D01*
X165310295Y-97631176D01*
X165310295Y-97745461D01*
X165291247Y-97783557D01*
X165272200Y-97802604D01*
X165234104Y-97821652D01*
X165176961Y-97821652D01*
X165653152Y-97554985D02*
X165653152Y-97878795D01*
X165634104Y-97916890D01*
X165615057Y-97935938D01*
X165576961Y-97954985D01*
X165519819Y-97954985D01*
X165481723Y-97935938D01*
X165653152Y-97802604D02*
X165615057Y-97821652D01*
X165538866Y-97821652D01*
X165500771Y-97802604D01*
X165481723Y-97783557D01*
X165462676Y-97745461D01*
X165462676Y-97631176D01*
X165481723Y-97593080D01*
X165500771Y-97574033D01*
X165538866Y-97554985D01*
X165615057Y-97554985D01*
X165653152Y-97574033D01*
X166357914Y-97821652D02*
X166129342Y-97821652D01*
X166243628Y-97821652D02*
X166243628Y-97421652D01*
X166205533Y-97478795D01*
X166167438Y-97516890D01*
X166129342Y-97535938D01*
X162948390Y-98129747D02*
X162967438Y-98110700D01*
X163005533Y-98091652D01*
X163100771Y-98091652D01*
X163138866Y-98110700D01*
X163157914Y-98129747D01*
X163176961Y-98167842D01*
X163176961Y-98205938D01*
X163157914Y-98263080D01*
X162929342Y-98491652D01*
X163176961Y-98491652D01*
X163348390Y-98453557D02*
X163367438Y-98472604D01*
X163348390Y-98491652D01*
X163329342Y-98472604D01*
X163348390Y-98453557D01*
X163348390Y-98491652D01*
X163824580Y-98377366D02*
X164015057Y-98377366D01*
X163786485Y-98491652D02*
X163919819Y-98091652D01*
X164053152Y-98491652D01*
X164186485Y-98224985D02*
X164186485Y-98491652D01*
X164186485Y-98263080D02*
X164205533Y-98244033D01*
X164243628Y-98224985D01*
X164300771Y-98224985D01*
X164338866Y-98244033D01*
X164357914Y-98282128D01*
X164357914Y-98491652D01*
X164719819Y-98491652D02*
X164719819Y-98282128D01*
X164700771Y-98244033D01*
X164662676Y-98224985D01*
X164586485Y-98224985D01*
X164548390Y-98244033D01*
X164719819Y-98472604D02*
X164681723Y-98491652D01*
X164586485Y-98491652D01*
X164548390Y-98472604D01*
X164529342Y-98434509D01*
X164529342Y-98396414D01*
X164548390Y-98358319D01*
X164586485Y-98339271D01*
X164681723Y-98339271D01*
X164719819Y-98320223D01*
X164967438Y-98491652D02*
X164929342Y-98472604D01*
X164910295Y-98434509D01*
X164910295Y-98091652D01*
X165176961Y-98491652D02*
X165138866Y-98472604D01*
X165119819Y-98453557D01*
X165100771Y-98415461D01*
X165100771Y-98301176D01*
X165119819Y-98263080D01*
X165138866Y-98244033D01*
X165176961Y-98224985D01*
X165234104Y-98224985D01*
X165272200Y-98244033D01*
X165291247Y-98263080D01*
X165310295Y-98301176D01*
X165310295Y-98415461D01*
X165291247Y-98453557D01*
X165272200Y-98472604D01*
X165234104Y-98491652D01*
X165176961Y-98491652D01*
X165653152Y-98224985D02*
X165653152Y-98548795D01*
X165634104Y-98586890D01*
X165615057Y-98605938D01*
X165576961Y-98624985D01*
X165519819Y-98624985D01*
X165481723Y-98605938D01*
X165653152Y-98472604D02*
X165615057Y-98491652D01*
X165538866Y-98491652D01*
X165500771Y-98472604D01*
X165481723Y-98453557D01*
X165462676Y-98415461D01*
X165462676Y-98301176D01*
X165481723Y-98263080D01*
X165500771Y-98244033D01*
X165538866Y-98224985D01*
X165615057Y-98224985D01*
X165653152Y-98244033D01*
X166129342Y-98129747D02*
X166148390Y-98110700D01*
X166186485Y-98091652D01*
X166281723Y-98091652D01*
X166319819Y-98110700D01*
X166338866Y-98129747D01*
X166357914Y-98167842D01*
X166357914Y-98205938D01*
X166338866Y-98263080D01*
X166110295Y-98491652D01*
X166357914Y-98491652D01*
X162929342Y-98761652D02*
X163176961Y-98761652D01*
X163043628Y-98914033D01*
X163100771Y-98914033D01*
X163138866Y-98933080D01*
X163157914Y-98952128D01*
X163176961Y-98990223D01*
X163176961Y-99085461D01*
X163157914Y-99123557D01*
X163138866Y-99142604D01*
X163100771Y-99161652D01*
X162986485Y-99161652D01*
X162948390Y-99142604D01*
X162929342Y-99123557D01*
X163348390Y-99123557D02*
X163367438Y-99142604D01*
X163348390Y-99161652D01*
X163329342Y-99142604D01*
X163348390Y-99123557D01*
X163348390Y-99161652D01*
X164053152Y-98780700D02*
X164015057Y-98761652D01*
X163957914Y-98761652D01*
X163900771Y-98780700D01*
X163862676Y-98818795D01*
X163843628Y-98856890D01*
X163824580Y-98933080D01*
X163824580Y-98990223D01*
X163843628Y-99066414D01*
X163862676Y-99104509D01*
X163900771Y-99142604D01*
X163957914Y-99161652D01*
X163996009Y-99161652D01*
X164053152Y-99142604D01*
X164072200Y-99123557D01*
X164072200Y-98990223D01*
X163996009Y-98990223D01*
X164243628Y-99161652D02*
X164243628Y-98761652D01*
X164472200Y-99161652D01*
X164472200Y-98761652D01*
X164662676Y-99161652D02*
X164662676Y-98761652D01*
X164757914Y-98761652D01*
X164815057Y-98780700D01*
X164853152Y-98818795D01*
X164872200Y-98856890D01*
X164891247Y-98933080D01*
X164891247Y-98990223D01*
X164872200Y-99066414D01*
X164853152Y-99104509D01*
X164815057Y-99142604D01*
X164757914Y-99161652D01*
X164662676Y-99161652D01*
D11*
X167186052Y-98944014D02*
X166947957Y-98944014D01*
X166947957Y-97515442D01*
X167186052Y-97515442D01*
X168090814Y-98610680D02*
X167519385Y-98610680D01*
X167805100Y-98610680D02*
X167805100Y-97610680D01*
X167709861Y-97753538D01*
X167614623Y-97848776D01*
X167519385Y-97896395D01*
X168424147Y-98944014D02*
X168662242Y-98944014D01*
X168662242Y-97515442D01*
X168424147Y-97515442D01*
D12*
X106371814Y-96272657D02*
X106371814Y-95072657D01*
X106371814Y-95644085D02*
X107057528Y-95644085D01*
X107057528Y-96272657D02*
X107057528Y-95072657D01*
X108086100Y-96215514D02*
X107971814Y-96272657D01*
X107743242Y-96272657D01*
X107628957Y-96215514D01*
X107571814Y-96101228D01*
X107571814Y-95644085D01*
X107628957Y-95529800D01*
X107743242Y-95472657D01*
X107971814Y-95472657D01*
X108086100Y-95529800D01*
X108143242Y-95644085D01*
X108143242Y-95758371D01*
X107571814Y-95872657D01*
X108828957Y-96272657D02*
X108714671Y-96215514D01*
X108657528Y-96101228D01*
X108657528Y-95072657D01*
X109114671Y-95472657D02*
X109571814Y-95472657D01*
X109286100Y-95072657D02*
X109286100Y-96101228D01*
X109343242Y-96215514D01*
X109457528Y-96272657D01*
X109571814Y-96272657D01*
X110428957Y-96215514D02*
X110314671Y-96272657D01*
X110086100Y-96272657D01*
X109971814Y-96215514D01*
X109914671Y-96101228D01*
X109914671Y-95644085D01*
X109971814Y-95529800D01*
X110086100Y-95472657D01*
X110314671Y-95472657D01*
X110428957Y-95529800D01*
X110486100Y-95644085D01*
X110486100Y-95758371D01*
X109914671Y-95872657D01*
X111514671Y-96215514D02*
X111400385Y-96272657D01*
X111171814Y-96272657D01*
X111057528Y-96215514D01*
X111000385Y-96158371D01*
X110943242Y-96044085D01*
X110943242Y-95701228D01*
X111000385Y-95586942D01*
X111057528Y-95529800D01*
X111171814Y-95472657D01*
X111400385Y-95472657D01*
X111514671Y-95529800D01*
X112828957Y-95072657D02*
X113114671Y-96272657D01*
X113343242Y-95415514D01*
X113571814Y-96272657D01*
X113857528Y-95072657D01*
X114314671Y-96272657D02*
X114314671Y-95472657D01*
X114314671Y-95072657D02*
X114257528Y-95129800D01*
X114314671Y-95186942D01*
X114371814Y-95129800D01*
X114314671Y-95072657D01*
X114314671Y-95186942D01*
X114714671Y-95472657D02*
X115171814Y-95472657D01*
X114886100Y-96272657D02*
X114886100Y-95244085D01*
X114943242Y-95129800D01*
X115057528Y-95072657D01*
X115171814Y-95072657D01*
X115571814Y-96272657D02*
X115571814Y-95472657D01*
X115571814Y-95072657D02*
X115514671Y-95129800D01*
X115571814Y-95186942D01*
X115628957Y-95129800D01*
X115571814Y-95072657D01*
X115571814Y-95186942D01*
X117628957Y-96272657D02*
X117057528Y-96272657D01*
X117057528Y-95072657D01*
X118200385Y-96272657D02*
X118086100Y-96215514D01*
X118028957Y-96158371D01*
X117971814Y-96044085D01*
X117971814Y-95701228D01*
X118028957Y-95586942D01*
X118086100Y-95529800D01*
X118200385Y-95472657D01*
X118371814Y-95472657D01*
X118486100Y-95529800D01*
X118543242Y-95586942D01*
X118600385Y-95701228D01*
X118600385Y-96044085D01*
X118543242Y-96158371D01*
X118486100Y-96215514D01*
X118371814Y-96272657D01*
X118200385Y-96272657D01*
X119800385Y-96272657D02*
X119400385Y-95701228D01*
X119114671Y-96272657D02*
X119114671Y-95072657D01*
X119571814Y-95072657D01*
X119686100Y-95129800D01*
X119743242Y-95186942D01*
X119800385Y-95301228D01*
X119800385Y-95472657D01*
X119743242Y-95586942D01*
X119686100Y-95644085D01*
X119571814Y-95701228D01*
X119114671Y-95701228D01*
X120828957Y-96272657D02*
X120828957Y-95644085D01*
X120771814Y-95529800D01*
X120657528Y-95472657D01*
X120428957Y-95472657D01*
X120314671Y-95529800D01*
X120828957Y-96215514D02*
X120714671Y-96272657D01*
X120428957Y-96272657D01*
X120314671Y-96215514D01*
X120257528Y-96101228D01*
X120257528Y-95986942D01*
X120314671Y-95872657D01*
X120428957Y-95815514D01*
X120714671Y-95815514D01*
X120828957Y-95758371D01*
X122143242Y-95072657D02*
X122543242Y-96272657D01*
X122943242Y-95072657D01*
X123971814Y-96272657D02*
X123286100Y-96272657D01*
X123628957Y-96272657D02*
X123628957Y-95072657D01*
X123514671Y-95244085D01*
X123400385Y-95358371D01*
X123286100Y-95415514D01*
X125400385Y-96272657D02*
X125400385Y-95072657D01*
X125686100Y-95072657D01*
X125857528Y-95129800D01*
X125971814Y-95244085D01*
X126028957Y-95358371D01*
X126086100Y-95586942D01*
X126086100Y-95758371D01*
X126028957Y-95986942D01*
X125971814Y-96101228D01*
X125857528Y-96215514D01*
X125686100Y-96272657D01*
X125400385Y-96272657D01*
X127057528Y-96215514D02*
X126943242Y-96272657D01*
X126714671Y-96272657D01*
X126600385Y-96215514D01*
X126543242Y-96101228D01*
X126543242Y-95644085D01*
X126600385Y-95529800D01*
X126714671Y-95472657D01*
X126943242Y-95472657D01*
X127057528Y-95529800D01*
X127114671Y-95644085D01*
X127114671Y-95758371D01*
X126543242Y-95872657D01*
X127514671Y-95472657D02*
X127800385Y-96272657D01*
X128086100Y-95472657D01*
X128543242Y-96272657D02*
X128543242Y-95072657D01*
X129228957Y-96272657D02*
X128714671Y-95586942D01*
X129228957Y-95072657D02*
X128543242Y-95758371D01*
X129743242Y-96272657D02*
X129743242Y-95472657D01*
X129743242Y-95072657D02*
X129686100Y-95129800D01*
X129743242Y-95186942D01*
X129800385Y-95129800D01*
X129743242Y-95072657D01*
X129743242Y-95186942D01*
X130143242Y-95472657D02*
X130600385Y-95472657D01*
X130314671Y-95072657D02*
X130314671Y-96101228D01*
X130371814Y-96215514D01*
X130486100Y-96272657D01*
X130600385Y-96272657D01*
X106314671Y-97929800D02*
X106886100Y-97929800D01*
X106200385Y-98272657D02*
X106600385Y-97072657D01*
X107000385Y-98272657D01*
X107914671Y-97472657D02*
X107914671Y-98272657D01*
X107400385Y-97472657D02*
X107400385Y-98101228D01*
X107457528Y-98215514D01*
X107571814Y-98272657D01*
X107743242Y-98272657D01*
X107857528Y-98215514D01*
X107914671Y-98158371D01*
X108314671Y-97472657D02*
X108771814Y-97472657D01*
X108486100Y-97072657D02*
X108486100Y-98101228D01*
X108543242Y-98215514D01*
X108657528Y-98272657D01*
X108771814Y-98272657D01*
X109171814Y-98272657D02*
X109171814Y-97072657D01*
X109686100Y-98272657D02*
X109686100Y-97644085D01*
X109628957Y-97529800D01*
X109514671Y-97472657D01*
X109343242Y-97472657D01*
X109228957Y-97529800D01*
X109171814Y-97586942D01*
X110428957Y-98272657D02*
X110314671Y-98215514D01*
X110257528Y-98158371D01*
X110200385Y-98044085D01*
X110200385Y-97701228D01*
X110257528Y-97586942D01*
X110314671Y-97529800D01*
X110428957Y-97472657D01*
X110600385Y-97472657D01*
X110714671Y-97529800D01*
X110771814Y-97586942D01*
X110828957Y-97701228D01*
X110828957Y-98044085D01*
X110771814Y-98158371D01*
X110714671Y-98215514D01*
X110600385Y-98272657D01*
X110428957Y-98272657D01*
X111343242Y-98272657D02*
X111343242Y-97472657D01*
X111343242Y-97701228D02*
X111400385Y-97586942D01*
X111457528Y-97529800D01*
X111571814Y-97472657D01*
X111686100Y-97472657D01*
X112086100Y-98158371D02*
X112143242Y-98215514D01*
X112086100Y-98272657D01*
X112028957Y-98215514D01*
X112086100Y-98158371D01*
X112086100Y-98272657D01*
X112086100Y-97529800D02*
X112143242Y-97586942D01*
X112086100Y-97644085D01*
X112028957Y-97586942D01*
X112086100Y-97529800D01*
X112086100Y-97644085D01*
X113571814Y-98272657D02*
X113571814Y-97072657D01*
X114028957Y-97072657D01*
X114143242Y-97129800D01*
X114200385Y-97186942D01*
X114257528Y-97301228D01*
X114257528Y-97472657D01*
X114200385Y-97586942D01*
X114143242Y-97644085D01*
X114028957Y-97701228D01*
X113571814Y-97701228D01*
X115228957Y-98215514D02*
X115114671Y-98272657D01*
X114886100Y-98272657D01*
X114771814Y-98215514D01*
X114714671Y-98101228D01*
X114714671Y-97644085D01*
X114771814Y-97529800D01*
X114886100Y-97472657D01*
X115114671Y-97472657D01*
X115228957Y-97529800D01*
X115286100Y-97644085D01*
X115286100Y-97758371D01*
X114714671Y-97872657D01*
X116314671Y-98272657D02*
X116314671Y-97072657D01*
X116314671Y-98215514D02*
X116200385Y-98272657D01*
X115971814Y-98272657D01*
X115857528Y-98215514D01*
X115800385Y-98158371D01*
X115743242Y-98044085D01*
X115743242Y-97701228D01*
X115800385Y-97586942D01*
X115857528Y-97529800D01*
X115971814Y-97472657D01*
X116200385Y-97472657D01*
X116314671Y-97529800D01*
X116886100Y-98272657D02*
X116886100Y-97472657D01*
X116886100Y-97701228D02*
X116943242Y-97586942D01*
X117000385Y-97529800D01*
X117114671Y-97472657D01*
X117228957Y-97472657D01*
X117800385Y-98272657D02*
X117686100Y-98215514D01*
X117628957Y-98158371D01*
X117571814Y-98044085D01*
X117571814Y-97701228D01*
X117628957Y-97586942D01*
X117686100Y-97529800D01*
X117800385Y-97472657D01*
X117971814Y-97472657D01*
X118086100Y-97529800D01*
X118143242Y-97586942D01*
X118200385Y-97701228D01*
X118200385Y-98044085D01*
X118143242Y-98158371D01*
X118086100Y-98215514D01*
X117971814Y-98272657D01*
X117800385Y-98272657D01*
X120028957Y-97644085D02*
X120200385Y-97701228D01*
X120257528Y-97758371D01*
X120314671Y-97872657D01*
X120314671Y-98044085D01*
X120257528Y-98158371D01*
X120200385Y-98215514D01*
X120086100Y-98272657D01*
X119628957Y-98272657D01*
X119628957Y-97072657D01*
X120028957Y-97072657D01*
X120143242Y-97129800D01*
X120200385Y-97186942D01*
X120257528Y-97301228D01*
X120257528Y-97415514D01*
X120200385Y-97529800D01*
X120143242Y-97586942D01*
X120028957Y-97644085D01*
X119628957Y-97644085D01*
X121286100Y-98215514D02*
X121171814Y-98272657D01*
X120943242Y-98272657D01*
X120828957Y-98215514D01*
X120771814Y-98101228D01*
X120771814Y-97644085D01*
X120828957Y-97529800D01*
X120943242Y-97472657D01*
X121171814Y-97472657D01*
X121286100Y-97529800D01*
X121343242Y-97644085D01*
X121343242Y-97758371D01*
X120771814Y-97872657D01*
X121857528Y-98272657D02*
X121857528Y-97472657D01*
X121857528Y-97701228D02*
X121914671Y-97586942D01*
X121971814Y-97529800D01*
X122086100Y-97472657D01*
X122200385Y-97472657D01*
X122428957Y-97472657D02*
X122886100Y-97472657D01*
X122600385Y-97072657D02*
X122600385Y-98101228D01*
X122657528Y-98215514D01*
X122771814Y-98272657D01*
X122886100Y-98272657D01*
X123457528Y-98272657D02*
X123343242Y-98215514D01*
X123286100Y-98158371D01*
X123228957Y-98044085D01*
X123228957Y-97701228D01*
X123286100Y-97586942D01*
X123343242Y-97529800D01*
X123457528Y-97472657D01*
X123628957Y-97472657D01*
X123743242Y-97529800D01*
X123800385Y-97586942D01*
X123857528Y-97701228D01*
X123857528Y-98044085D01*
X123800385Y-98158371D01*
X123743242Y-98215514D01*
X123628957Y-98272657D01*
X123457528Y-98272657D01*
X124543242Y-98272657D02*
X124428957Y-98215514D01*
X124371814Y-98101228D01*
X124371814Y-97072657D01*
X125457528Y-98215514D02*
X125343242Y-98272657D01*
X125114671Y-98272657D01*
X125000385Y-98215514D01*
X124943242Y-98101228D01*
X124943242Y-97644085D01*
X125000385Y-97529800D01*
X125114671Y-97472657D01*
X125343242Y-97472657D01*
X125457528Y-97529800D01*
X125514671Y-97644085D01*
X125514671Y-97758371D01*
X124943242Y-97872657D01*
X125857528Y-97472657D02*
X126314671Y-97472657D01*
X126028957Y-97072657D02*
X126028957Y-98101228D01*
X126086100Y-98215514D01*
X126200385Y-98272657D01*
X126314671Y-98272657D01*
X126714671Y-98272657D02*
X126714671Y-97472657D01*
X126714671Y-97072657D02*
X126657528Y-97129800D01*
X126714671Y-97186942D01*
X126771814Y-97129800D01*
X126714671Y-97072657D01*
X126714671Y-97186942D01*
X106314671Y-100215514D02*
X106486100Y-100272657D01*
X106771814Y-100272657D01*
X106886100Y-100215514D01*
X106943242Y-100158371D01*
X107000385Y-100044085D01*
X107000385Y-99929800D01*
X106943242Y-99815514D01*
X106886100Y-99758371D01*
X106771814Y-99701228D01*
X106543242Y-99644085D01*
X106428957Y-99586942D01*
X106371814Y-99529800D01*
X106314671Y-99415514D01*
X106314671Y-99301228D01*
X106371814Y-99186942D01*
X106428957Y-99129800D01*
X106543242Y-99072657D01*
X106828957Y-99072657D01*
X107000385Y-99129800D01*
X107514671Y-100272657D02*
X107514671Y-99072657D01*
X107914671Y-99472657D02*
X108371814Y-99472657D01*
X108086100Y-99072657D02*
X108086100Y-100101228D01*
X108143242Y-100215514D01*
X108257528Y-100272657D01*
X108371814Y-100272657D01*
X109228957Y-100215514D02*
X109114671Y-100272657D01*
X108886100Y-100272657D01*
X108771814Y-100215514D01*
X108714671Y-100101228D01*
X108714671Y-99644085D01*
X108771814Y-99529800D01*
X108886100Y-99472657D01*
X109114671Y-99472657D01*
X109228957Y-99529800D01*
X109286100Y-99644085D01*
X109286100Y-99758371D01*
X108714671Y-99872657D01*
X109800385Y-100158371D02*
X109857528Y-100215514D01*
X109800385Y-100272657D01*
X109743242Y-100215514D01*
X109800385Y-100158371D01*
X109800385Y-100272657D01*
X109800385Y-99529800D02*
X109857528Y-99586942D01*
X109800385Y-99644085D01*
X109743242Y-99586942D01*
X109800385Y-99529800D01*
X109800385Y-99644085D01*
X111171814Y-99472657D02*
X111400385Y-100272657D01*
X111628957Y-99701228D01*
X111857528Y-100272657D01*
X112086100Y-99472657D01*
X112428957Y-99472657D02*
X112657528Y-100272657D01*
X112886100Y-99701228D01*
X113114671Y-100272657D01*
X113343242Y-99472657D01*
X113686100Y-99472657D02*
X113914671Y-100272657D01*
X114143242Y-99701228D01*
X114371814Y-100272657D01*
X114600385Y-99472657D01*
X115057528Y-100158371D02*
X115114671Y-100215514D01*
X115057528Y-100272657D01*
X115000385Y-100215514D01*
X115057528Y-100158371D01*
X115057528Y-100272657D01*
X115628957Y-99472657D02*
X115628957Y-100672657D01*
X115628957Y-99529800D02*
X115743242Y-99472657D01*
X115971814Y-99472657D01*
X116086100Y-99529800D01*
X116143242Y-99586942D01*
X116200385Y-99701228D01*
X116200385Y-100044085D01*
X116143242Y-100158371D01*
X116086100Y-100215514D01*
X115971814Y-100272657D01*
X115743242Y-100272657D01*
X115628957Y-100215514D01*
X117171814Y-100215514D02*
X117057528Y-100272657D01*
X116828957Y-100272657D01*
X116714671Y-100215514D01*
X116657528Y-100101228D01*
X116657528Y-99644085D01*
X116714671Y-99529800D01*
X116828957Y-99472657D01*
X117057528Y-99472657D01*
X117171814Y-99529800D01*
X117228957Y-99644085D01*
X117228957Y-99758371D01*
X116657528Y-99872657D01*
X118257528Y-100272657D02*
X118257528Y-99072657D01*
X118257528Y-100215514D02*
X118143242Y-100272657D01*
X117914671Y-100272657D01*
X117800385Y-100215514D01*
X117743242Y-100158371D01*
X117686100Y-100044085D01*
X117686100Y-99701228D01*
X117743242Y-99586942D01*
X117800385Y-99529800D01*
X117914671Y-99472657D01*
X118143242Y-99472657D01*
X118257528Y-99529800D01*
X118828957Y-100272657D02*
X118828957Y-99472657D01*
X118828957Y-99701228D02*
X118886100Y-99586942D01*
X118943242Y-99529800D01*
X119057528Y-99472657D01*
X119171814Y-99472657D01*
X119743242Y-100272657D02*
X119628957Y-100215514D01*
X119571814Y-100158371D01*
X119514671Y-100044085D01*
X119514671Y-99701228D01*
X119571814Y-99586942D01*
X119628957Y-99529800D01*
X119743242Y-99472657D01*
X119914671Y-99472657D01*
X120028957Y-99529800D01*
X120086100Y-99586942D01*
X120143242Y-99701228D01*
X120143242Y-100044085D01*
X120086100Y-100158371D01*
X120028957Y-100215514D01*
X119914671Y-100272657D01*
X119743242Y-100272657D01*
X120657528Y-100272657D02*
X120657528Y-99072657D01*
X120657528Y-99529800D02*
X120771814Y-99472657D01*
X121000385Y-99472657D01*
X121114671Y-99529800D01*
X121171814Y-99586942D01*
X121228957Y-99701228D01*
X121228957Y-100044085D01*
X121171814Y-100158371D01*
X121114671Y-100215514D01*
X121000385Y-100272657D01*
X120771814Y-100272657D01*
X120657528Y-100215514D01*
X122200385Y-100215514D02*
X122086100Y-100272657D01*
X121857528Y-100272657D01*
X121743242Y-100215514D01*
X121686100Y-100101228D01*
X121686100Y-99644085D01*
X121743242Y-99529800D01*
X121857528Y-99472657D01*
X122086100Y-99472657D01*
X122200385Y-99529800D01*
X122257528Y-99644085D01*
X122257528Y-99758371D01*
X121686100Y-99872657D01*
X122771814Y-100272657D02*
X122771814Y-99472657D01*
X122771814Y-99701228D02*
X122828957Y-99586942D01*
X122886100Y-99529800D01*
X123000385Y-99472657D01*
X123114671Y-99472657D01*
X123343242Y-99472657D02*
X123800385Y-99472657D01*
X123514671Y-99072657D02*
X123514671Y-100101228D01*
X123571814Y-100215514D01*
X123686100Y-100272657D01*
X123800385Y-100272657D01*
X124371814Y-100272657D02*
X124257528Y-100215514D01*
X124200385Y-100158371D01*
X124143242Y-100044085D01*
X124143242Y-99701228D01*
X124200385Y-99586942D01*
X124257528Y-99529800D01*
X124371814Y-99472657D01*
X124543242Y-99472657D01*
X124657528Y-99529800D01*
X124714671Y-99586942D01*
X124771814Y-99701228D01*
X124771814Y-100044085D01*
X124714671Y-100158371D01*
X124657528Y-100215514D01*
X124543242Y-100272657D01*
X124371814Y-100272657D01*
X125457528Y-100272657D02*
X125343242Y-100215514D01*
X125286100Y-100101228D01*
X125286100Y-99072657D01*
X126371814Y-100215514D02*
X126257528Y-100272657D01*
X126028957Y-100272657D01*
X125914671Y-100215514D01*
X125857528Y-100101228D01*
X125857528Y-99644085D01*
X125914671Y-99529800D01*
X126028957Y-99472657D01*
X126257528Y-99472657D01*
X126371814Y-99529800D01*
X126428957Y-99644085D01*
X126428957Y-99758371D01*
X125857528Y-99872657D01*
X126771814Y-99472657D02*
X127228957Y-99472657D01*
X126943242Y-99072657D02*
X126943242Y-100101228D01*
X127000385Y-100215514D01*
X127114671Y-100272657D01*
X127228957Y-100272657D01*
X127628957Y-100272657D02*
X127628957Y-99472657D01*
X127628957Y-99072657D02*
X127571814Y-99129800D01*
X127628957Y-99186942D01*
X127686100Y-99129800D01*
X127628957Y-99072657D01*
X127628957Y-99186942D01*
X128200385Y-100158371D02*
X128257528Y-100215514D01*
X128200385Y-100272657D01*
X128143242Y-100215514D01*
X128200385Y-100158371D01*
X128200385Y-100272657D01*
X129286100Y-100215514D02*
X129171814Y-100272657D01*
X128943242Y-100272657D01*
X128828957Y-100215514D01*
X128771814Y-100158371D01*
X128714671Y-100044085D01*
X128714671Y-99701228D01*
X128771814Y-99586942D01*
X128828957Y-99529800D01*
X128943242Y-99472657D01*
X129171814Y-99472657D01*
X129286100Y-99529800D01*
X129971814Y-100272657D02*
X129857528Y-100215514D01*
X129800385Y-100158371D01*
X129743242Y-100044085D01*
X129743242Y-99701228D01*
X129800385Y-99586942D01*
X129857528Y-99529800D01*
X129971814Y-99472657D01*
X130143242Y-99472657D01*
X130257528Y-99529800D01*
X130314671Y-99586942D01*
X130371814Y-99701228D01*
X130371814Y-100044085D01*
X130314671Y-100158371D01*
X130257528Y-100215514D01*
X130143242Y-100272657D01*
X129971814Y-100272657D01*
X130886100Y-100272657D02*
X130886100Y-99472657D01*
X130886100Y-99586942D02*
X130943242Y-99529800D01*
X131057528Y-99472657D01*
X131228957Y-99472657D01*
X131343242Y-99529800D01*
X131400385Y-99644085D01*
X131400385Y-100272657D01*
X131400385Y-99644085D02*
X131457528Y-99529800D01*
X131571814Y-99472657D01*
X131743242Y-99472657D01*
X131857528Y-99529800D01*
X131914671Y-99644085D01*
X131914671Y-100272657D01*
X132486100Y-100158371D02*
X132543242Y-100215514D01*
X132486100Y-100272657D01*
X132428957Y-100215514D01*
X132486100Y-100158371D01*
X132486100Y-100272657D01*
X133057528Y-100272657D02*
X133057528Y-99072657D01*
X133057528Y-99529800D02*
X133171814Y-99472657D01*
X133400385Y-99472657D01*
X133514671Y-99529800D01*
X133571814Y-99586942D01*
X133628957Y-99701228D01*
X133628957Y-100044085D01*
X133571814Y-100158371D01*
X133514671Y-100215514D01*
X133400385Y-100272657D01*
X133171814Y-100272657D01*
X133057528Y-100215514D01*
X134143242Y-100272657D02*
X134143242Y-99472657D01*
X134143242Y-99701228D02*
X134200385Y-99586942D01*
X134257528Y-99529800D01*
X134371814Y-99472657D01*
X134486100Y-99472657D01*
X107057528Y-102272657D02*
X106657528Y-101701228D01*
X106371814Y-102272657D02*
X106371814Y-101072657D01*
X106828957Y-101072657D01*
X106943242Y-101129800D01*
X107000385Y-101186942D01*
X107057528Y-101301228D01*
X107057528Y-101472657D01*
X107000385Y-101586942D01*
X106943242Y-101644085D01*
X106828957Y-101701228D01*
X106371814Y-101701228D01*
X108028957Y-102215514D02*
X107914671Y-102272657D01*
X107686100Y-102272657D01*
X107571814Y-102215514D01*
X107514671Y-102101228D01*
X107514671Y-101644085D01*
X107571814Y-101529800D01*
X107686100Y-101472657D01*
X107914671Y-101472657D01*
X108028957Y-101529800D01*
X108086100Y-101644085D01*
X108086100Y-101758371D01*
X107514671Y-101872657D01*
X108486100Y-101472657D02*
X108771814Y-102272657D01*
X109057528Y-101472657D01*
X109514671Y-102158371D02*
X109571814Y-102215514D01*
X109514671Y-102272657D01*
X109457528Y-102215514D01*
X109514671Y-102158371D01*
X109514671Y-102272657D01*
X109514671Y-101529800D02*
X109571814Y-101586942D01*
X109514671Y-101644085D01*
X109457528Y-101586942D01*
X109514671Y-101529800D01*
X109514671Y-101644085D01*
X111628957Y-102272657D02*
X110943242Y-102272657D01*
X111286100Y-102272657D02*
X111286100Y-101072657D01*
X111171814Y-101244085D01*
X111057528Y-101358371D01*
X110943242Y-101415514D01*
X112143242Y-102158371D02*
X112200385Y-102215514D01*
X112143242Y-102272657D01*
X112086100Y-102215514D01*
X112143242Y-102158371D01*
X112143242Y-102272657D01*
X112943242Y-101072657D02*
X113057528Y-101072657D01*
X113171814Y-101129800D01*
X113228957Y-101186942D01*
X113286100Y-101301228D01*
X113343242Y-101529800D01*
X113343242Y-101815514D01*
X113286100Y-102044085D01*
X113228957Y-102158371D01*
X113171814Y-102215514D01*
X113057528Y-102272657D01*
X112943242Y-102272657D01*
X112828957Y-102215514D01*
X112771814Y-102158371D01*
X112714671Y-102044085D01*
X112657528Y-101815514D01*
X112657528Y-101529800D01*
X112714671Y-101301228D01*
X112771814Y-101186942D01*
X112828957Y-101129800D01*
X112943242Y-101072657D01*
D10*
X96796628Y-34567066D02*
X96510914Y-34567066D01*
X96482342Y-34900400D01*
X96510914Y-34867066D01*
X96568057Y-34833733D01*
X96710914Y-34833733D01*
X96768057Y-34867066D01*
X96796628Y-34900400D01*
X96825200Y-34967066D01*
X96825200Y-35133733D01*
X96796628Y-35200400D01*
X96768057Y-35233733D01*
X96710914Y-35267066D01*
X96568057Y-35267066D01*
X96510914Y-35233733D01*
X96482342Y-35200400D01*
X96996628Y-34567066D02*
X97196628Y-35267066D01*
X97396628Y-34567066D01*
X98910914Y-34567066D02*
X99282342Y-34567066D01*
X99082342Y-34833733D01*
X99168057Y-34833733D01*
X99225200Y-34867066D01*
X99253771Y-34900400D01*
X99282342Y-34967066D01*
X99282342Y-35133733D01*
X99253771Y-35200400D01*
X99225200Y-35233733D01*
X99168057Y-35267066D01*
X98996628Y-35267066D01*
X98939485Y-35233733D01*
X98910914Y-35200400D01*
X99453771Y-34567066D02*
X99653771Y-35267066D01*
X99853771Y-34567066D01*
X99996628Y-34567066D02*
X100368057Y-34567066D01*
X100168057Y-34833733D01*
X100253771Y-34833733D01*
X100310914Y-34867066D01*
X100339485Y-34900400D01*
X100368057Y-34967066D01*
X100368057Y-35133733D01*
X100339485Y-35200400D01*
X100310914Y-35233733D01*
X100253771Y-35267066D01*
X100082342Y-35267066D01*
X100025200Y-35233733D01*
X99996628Y-35200400D01*
X102310914Y-34600400D02*
X102253771Y-34567066D01*
X102168057Y-34567066D01*
X102082342Y-34600400D01*
X102025200Y-34667066D01*
X101996628Y-34733733D01*
X101968057Y-34867066D01*
X101968057Y-34967066D01*
X101996628Y-35100400D01*
X102025200Y-35167066D01*
X102082342Y-35233733D01*
X102168057Y-35267066D01*
X102225200Y-35267066D01*
X102310914Y-35233733D01*
X102339485Y-35200400D01*
X102339485Y-34967066D01*
X102225200Y-34967066D01*
X102596628Y-35267066D02*
X102596628Y-34567066D01*
X102939485Y-35267066D01*
X102939485Y-34567066D01*
X103225200Y-35267066D02*
X103225200Y-34567066D01*
X103368057Y-34567066D01*
X103453771Y-34600400D01*
X103510914Y-34667066D01*
X103539485Y-34733733D01*
X103568057Y-34867066D01*
X103568057Y-34967066D01*
X103539485Y-35100400D01*
X103510914Y-35167066D01*
X103453771Y-35233733D01*
X103368057Y-35267066D01*
X103225200Y-35267066D01*
D13*
X86012280Y-67156838D02*
X85012280Y-67156838D01*
X86012280Y-66585409D01*
X85012280Y-66585409D01*
X85917042Y-65537790D02*
X85964661Y-65585409D01*
X86012280Y-65728266D01*
X86012280Y-65823504D01*
X85964661Y-65966361D01*
X85869423Y-66061600D01*
X85774185Y-66109219D01*
X85583709Y-66156838D01*
X85440852Y-66156838D01*
X85250376Y-66109219D01*
X85155138Y-66061600D01*
X85059900Y-65966361D01*
X85012280Y-65823504D01*
X85012280Y-65728266D01*
X85059900Y-65585409D01*
X85107519Y-65537790D01*
X85917042Y-61490171D02*
X85964661Y-61537790D01*
X86012280Y-61680647D01*
X86012280Y-61775885D01*
X85964661Y-61918742D01*
X85869423Y-62013980D01*
X85774185Y-62061600D01*
X85583709Y-62109219D01*
X85440852Y-62109219D01*
X85250376Y-62061600D01*
X85155138Y-62013980D01*
X85059900Y-61918742D01*
X85012280Y-61775885D01*
X85012280Y-61680647D01*
X85059900Y-61537790D01*
X85107519Y-61490171D01*
X85012280Y-60871123D02*
X85012280Y-60680647D01*
X85059900Y-60585409D01*
X85155138Y-60490171D01*
X85345614Y-60442552D01*
X85678947Y-60442552D01*
X85869423Y-60490171D01*
X85964661Y-60585409D01*
X86012280Y-60680647D01*
X86012280Y-60871123D01*
X85964661Y-60966361D01*
X85869423Y-61061600D01*
X85678947Y-61109219D01*
X85345614Y-61109219D01*
X85155138Y-61061600D01*
X85059900Y-60966361D01*
X85012280Y-60871123D01*
X86012280Y-60013980D02*
X85012280Y-60013980D01*
X85726566Y-59680647D01*
X85012280Y-59347314D01*
X86012280Y-59347314D01*
X86012280Y-56585409D02*
X85012280Y-56585409D01*
X86012280Y-56013980D01*
X85012280Y-56013980D01*
X85012280Y-55347314D02*
X85012280Y-55156838D01*
X85059900Y-55061600D01*
X85155138Y-54966361D01*
X85345614Y-54918742D01*
X85678947Y-54918742D01*
X85869423Y-54966361D01*
X85964661Y-55061600D01*
X86012280Y-55156838D01*
X86012280Y-55347314D01*
X85964661Y-55442552D01*
X85869423Y-55537790D01*
X85678947Y-55585409D01*
X85345614Y-55585409D01*
X85155138Y-55537790D01*
X85059900Y-55442552D01*
X85012280Y-55347314D01*
D10*
X77513228Y-106774500D02*
X77456085Y-106741166D01*
X77370371Y-106741166D01*
X77284657Y-106774500D01*
X77227514Y-106841166D01*
X77198942Y-106907833D01*
X77170371Y-107041166D01*
X77170371Y-107141166D01*
X77198942Y-107274500D01*
X77227514Y-107341166D01*
X77284657Y-107407833D01*
X77370371Y-107441166D01*
X77427514Y-107441166D01*
X77513228Y-107407833D01*
X77541800Y-107374500D01*
X77541800Y-107141166D01*
X77427514Y-107141166D01*
X77798942Y-107441166D02*
X77798942Y-106741166D01*
X78141800Y-107441166D01*
X78141800Y-106741166D01*
X78427514Y-107441166D02*
X78427514Y-106741166D01*
X78570371Y-106741166D01*
X78656085Y-106774500D01*
X78713228Y-106841166D01*
X78741800Y-106907833D01*
X78770371Y-107041166D01*
X78770371Y-107141166D01*
X78741800Y-107274500D01*
X78713228Y-107341166D01*
X78656085Y-107407833D01*
X78570371Y-107441166D01*
X78427514Y-107441166D01*
X80741800Y-107441166D02*
X80541800Y-107107833D01*
X80398942Y-107441166D02*
X80398942Y-106741166D01*
X80627514Y-106741166D01*
X80684657Y-106774500D01*
X80713228Y-106807833D01*
X80741800Y-106874500D01*
X80741800Y-106974500D01*
X80713228Y-107041166D01*
X80684657Y-107074500D01*
X80627514Y-107107833D01*
X80398942Y-107107833D01*
X80941800Y-106741166D02*
X81341800Y-107441166D01*
X81341800Y-106741166D02*
X80941800Y-107441166D01*
X82856085Y-106741166D02*
X83198942Y-106741166D01*
X83027514Y-107441166D02*
X83027514Y-106741166D01*
X83341800Y-106741166D02*
X83741800Y-107441166D01*
X83741800Y-106741166D02*
X83341800Y-107441166D01*
X93737528Y-107198366D02*
X93451814Y-107198366D01*
X93423242Y-107531700D01*
X93451814Y-107498366D01*
X93508957Y-107465033D01*
X93651814Y-107465033D01*
X93708957Y-107498366D01*
X93737528Y-107531700D01*
X93766100Y-107598366D01*
X93766100Y-107765033D01*
X93737528Y-107831700D01*
X93708957Y-107865033D01*
X93651814Y-107898366D01*
X93508957Y-107898366D01*
X93451814Y-107865033D01*
X93423242Y-107831700D01*
X93937528Y-107198366D02*
X94137528Y-107898366D01*
X94337528Y-107198366D01*
X96223242Y-107231700D02*
X96166100Y-107198366D01*
X96080385Y-107198366D01*
X95994671Y-107231700D01*
X95937528Y-107298366D01*
X95908957Y-107365033D01*
X95880385Y-107498366D01*
X95880385Y-107598366D01*
X95908957Y-107731700D01*
X95937528Y-107798366D01*
X95994671Y-107865033D01*
X96080385Y-107898366D01*
X96137528Y-107898366D01*
X96223242Y-107865033D01*
X96251814Y-107831700D01*
X96251814Y-107598366D01*
X96137528Y-107598366D01*
X96508957Y-107898366D02*
X96508957Y-107198366D01*
X96851814Y-107898366D01*
X96851814Y-107198366D01*
X97137528Y-107898366D02*
X97137528Y-107198366D01*
X97280385Y-107198366D01*
X97366100Y-107231700D01*
X97423242Y-107298366D01*
X97451814Y-107365033D01*
X97480385Y-107498366D01*
X97480385Y-107598366D01*
X97451814Y-107731700D01*
X97423242Y-107798366D01*
X97366100Y-107865033D01*
X97280385Y-107898366D01*
X97137528Y-107898366D01*
X98651814Y-107898366D02*
X98651814Y-107198366D01*
X98794671Y-107198366D01*
X98880385Y-107231700D01*
X98937528Y-107298366D01*
X98966100Y-107365033D01*
X98994671Y-107498366D01*
X98994671Y-107598366D01*
X98966100Y-107731700D01*
X98937528Y-107798366D01*
X98880385Y-107865033D01*
X98794671Y-107898366D01*
X98651814Y-107898366D01*
X99366100Y-107198366D02*
X99480385Y-107198366D01*
X99537528Y-107231700D01*
X99594671Y-107298366D01*
X99623242Y-107431700D01*
X99623242Y-107665033D01*
X99594671Y-107798366D01*
X99537528Y-107865033D01*
X99480385Y-107898366D01*
X99366100Y-107898366D01*
X99308957Y-107865033D01*
X99251814Y-107798366D01*
X99223242Y-107665033D01*
X99223242Y-107431700D01*
X99251814Y-107298366D01*
X99308957Y-107231700D01*
X99366100Y-107198366D01*
X99880385Y-107198366D02*
X99880385Y-107765033D01*
X99908957Y-107831700D01*
X99937528Y-107865033D01*
X99994671Y-107898366D01*
X100108957Y-107898366D01*
X100166100Y-107865033D01*
X100194671Y-107831700D01*
X100223242Y-107765033D01*
X100223242Y-107198366D01*
X100423242Y-107198366D02*
X100766100Y-107198366D01*
X100594671Y-107898366D02*
X100594671Y-107198366D01*
X111531685Y-107029304D02*
X111150733Y-107029304D01*
X111112638Y-107410257D01*
X111150733Y-107372161D01*
X111226923Y-107334066D01*
X111417400Y-107334066D01*
X111493590Y-107372161D01*
X111531685Y-107410257D01*
X111569780Y-107486447D01*
X111569780Y-107676923D01*
X111531685Y-107753114D01*
X111493590Y-107791209D01*
X111417400Y-107829304D01*
X111226923Y-107829304D01*
X111150733Y-107791209D01*
X111112638Y-107753114D01*
X111798352Y-107029304D02*
X112065019Y-107829304D01*
X112331685Y-107029304D01*
X114274542Y-107829304D02*
X114007876Y-107448352D01*
X113817400Y-107829304D02*
X113817400Y-107029304D01*
X114122161Y-107029304D01*
X114198352Y-107067400D01*
X114236447Y-107105495D01*
X114274542Y-107181685D01*
X114274542Y-107295971D01*
X114236447Y-107372161D01*
X114198352Y-107410257D01*
X114122161Y-107448352D01*
X113817400Y-107448352D01*
X114617400Y-107410257D02*
X114884066Y-107410257D01*
X114998352Y-107829304D02*
X114617400Y-107829304D01*
X114617400Y-107029304D01*
X114998352Y-107029304D01*
X115341209Y-107410257D02*
X115607876Y-107410257D01*
X115722161Y-107829304D02*
X115341209Y-107829304D01*
X115341209Y-107029304D01*
X115722161Y-107029304D01*
X116065019Y-107829304D02*
X116065019Y-107029304D01*
X116255495Y-107029304D01*
X116369780Y-107067400D01*
X116445971Y-107143590D01*
X116484066Y-107219780D01*
X116522161Y-107372161D01*
X116522161Y-107486447D01*
X116484066Y-107638828D01*
X116445971Y-107715019D01*
X116369780Y-107791209D01*
X116255495Y-107829304D01*
X116065019Y-107829304D01*
X127178152Y-106572104D02*
X127673390Y-106572104D01*
X127406723Y-106876866D01*
X127521009Y-106876866D01*
X127597200Y-106914961D01*
X127635295Y-106953057D01*
X127673390Y-107029247D01*
X127673390Y-107219723D01*
X127635295Y-107295914D01*
X127597200Y-107334009D01*
X127521009Y-107372104D01*
X127292438Y-107372104D01*
X127216247Y-107334009D01*
X127178152Y-107295914D01*
X127901961Y-106572104D02*
X128168628Y-107372104D01*
X128435295Y-106572104D01*
X128625771Y-106572104D02*
X129121009Y-106572104D01*
X128854342Y-106876866D01*
X128968628Y-106876866D01*
X129044819Y-106914961D01*
X129082914Y-106953057D01*
X129121009Y-107029247D01*
X129121009Y-107219723D01*
X129082914Y-107295914D01*
X129044819Y-107334009D01*
X128968628Y-107372104D01*
X128740057Y-107372104D01*
X128663866Y-107334009D01*
X128625771Y-107295914D01*
X131101961Y-106610200D02*
X131025771Y-106572104D01*
X130911485Y-106572104D01*
X130797200Y-106610200D01*
X130721009Y-106686390D01*
X130682914Y-106762580D01*
X130644819Y-106914961D01*
X130644819Y-107029247D01*
X130682914Y-107181628D01*
X130721009Y-107257819D01*
X130797200Y-107334009D01*
X130911485Y-107372104D01*
X130987676Y-107372104D01*
X131101961Y-107334009D01*
X131140057Y-107295914D01*
X131140057Y-107029247D01*
X130987676Y-107029247D01*
X131482914Y-107372104D02*
X131482914Y-106572104D01*
X131940057Y-107372104D01*
X131940057Y-106572104D01*
X132321009Y-107372104D02*
X132321009Y-106572104D01*
X132511485Y-106572104D01*
X132625771Y-106610200D01*
X132701961Y-106686390D01*
X132740057Y-106762580D01*
X132778152Y-106914961D01*
X132778152Y-107029247D01*
X132740057Y-107181628D01*
X132701961Y-107257819D01*
X132625771Y-107334009D01*
X132511485Y-107372104D01*
X132321009Y-107372104D01*
D14*
X148879766Y-106661600D02*
X149579766Y-106428266D01*
X148879766Y-106194933D01*
X149579766Y-105961600D02*
X149113100Y-105961600D01*
X148879766Y-105961600D02*
X148913100Y-105994933D01*
X148946433Y-105961600D01*
X148913100Y-105928266D01*
X148879766Y-105961600D01*
X148946433Y-105961600D01*
X149113100Y-105628266D02*
X149579766Y-105628266D01*
X149179766Y-105628266D02*
X149146433Y-105594933D01*
X149113100Y-105528266D01*
X149113100Y-105428266D01*
X149146433Y-105361600D01*
X149213100Y-105328266D01*
X149579766Y-105328266D01*
X149313100Y-104994933D02*
X149313100Y-104461600D01*
X149579766Y-104728266D02*
X149046433Y-104728266D01*
X135811466Y-106509200D02*
X136511466Y-106275866D01*
X135811466Y-106042533D01*
X136511466Y-105809200D02*
X136044800Y-105809200D01*
X135811466Y-105809200D02*
X135844800Y-105842533D01*
X135878133Y-105809200D01*
X135844800Y-105775866D01*
X135811466Y-105809200D01*
X135878133Y-105809200D01*
X136044800Y-105475866D02*
X136511466Y-105475866D01*
X136111466Y-105475866D02*
X136078133Y-105442533D01*
X136044800Y-105375866D01*
X136044800Y-105275866D01*
X136078133Y-105209200D01*
X136144800Y-105175866D01*
X136511466Y-105175866D01*
X136244800Y-104842533D02*
X136244800Y-104309200D01*
D10*
X159416514Y-108126980D02*
X159487942Y-108150790D01*
X159606990Y-108150790D01*
X159654609Y-108126980D01*
X159678419Y-108103171D01*
X159702228Y-108055552D01*
X159702228Y-108007933D01*
X159678419Y-107960314D01*
X159654609Y-107936504D01*
X159606990Y-107912695D01*
X159511752Y-107888885D01*
X159464133Y-107865076D01*
X159440323Y-107841266D01*
X159416514Y-107793647D01*
X159416514Y-107746028D01*
X159440323Y-107698409D01*
X159464133Y-107674600D01*
X159511752Y-107650790D01*
X159630800Y-107650790D01*
X159702228Y-107674600D01*
X159916514Y-108150790D02*
X159916514Y-107650790D01*
X160035561Y-107650790D01*
X160106990Y-107674600D01*
X160154609Y-107722219D01*
X160178419Y-107769838D01*
X160202228Y-107865076D01*
X160202228Y-107936504D01*
X160178419Y-108031742D01*
X160154609Y-108079361D01*
X160106990Y-108126980D01*
X160035561Y-108150790D01*
X159916514Y-108150790D01*
X160392704Y-108007933D02*
X160630800Y-108007933D01*
X160345085Y-108150790D02*
X160511752Y-107650790D01*
X160678419Y-108150790D01*
X161964133Y-108126980D02*
X162035561Y-108150790D01*
X162154609Y-108150790D01*
X162202228Y-108126980D01*
X162226038Y-108103171D01*
X162249847Y-108055552D01*
X162249847Y-108007933D01*
X162226038Y-107960314D01*
X162202228Y-107936504D01*
X162154609Y-107912695D01*
X162059371Y-107888885D01*
X162011752Y-107865076D01*
X161987942Y-107841266D01*
X161964133Y-107793647D01*
X161964133Y-107746028D01*
X161987942Y-107698409D01*
X162011752Y-107674600D01*
X162059371Y-107650790D01*
X162178419Y-107650790D01*
X162249847Y-107674600D01*
X162749847Y-108103171D02*
X162726038Y-108126980D01*
X162654609Y-108150790D01*
X162606990Y-108150790D01*
X162535561Y-108126980D01*
X162487942Y-108079361D01*
X162464133Y-108031742D01*
X162440323Y-107936504D01*
X162440323Y-107865076D01*
X162464133Y-107769838D01*
X162487942Y-107722219D01*
X162535561Y-107674600D01*
X162606990Y-107650790D01*
X162654609Y-107650790D01*
X162726038Y-107674600D01*
X162749847Y-107698409D01*
X163202228Y-108150790D02*
X162964133Y-108150790D01*
X162964133Y-107650790D01*
X164773657Y-107674600D02*
X164726038Y-107650790D01*
X164654609Y-107650790D01*
X164583180Y-107674600D01*
X164535561Y-107722219D01*
X164511752Y-107769838D01*
X164487942Y-107865076D01*
X164487942Y-107936504D01*
X164511752Y-108031742D01*
X164535561Y-108079361D01*
X164583180Y-108126980D01*
X164654609Y-108150790D01*
X164702228Y-108150790D01*
X164773657Y-108126980D01*
X164797466Y-108103171D01*
X164797466Y-107936504D01*
X164702228Y-107936504D01*
X165011752Y-108150790D02*
X165011752Y-107650790D01*
X165297466Y-108150790D01*
X165297466Y-107650790D01*
X165535561Y-108150790D02*
X165535561Y-107650790D01*
X165654609Y-107650790D01*
X165726038Y-107674600D01*
X165773657Y-107722219D01*
X165797466Y-107769838D01*
X165821276Y-107865076D01*
X165821276Y-107936504D01*
X165797466Y-108031742D01*
X165773657Y-108079361D01*
X165726038Y-108126980D01*
X165654609Y-108150790D01*
X165535561Y-108150790D01*
X167130800Y-107650790D02*
X167440323Y-107650790D01*
X167273657Y-107841266D01*
X167345085Y-107841266D01*
X167392704Y-107865076D01*
X167416514Y-107888885D01*
X167440323Y-107936504D01*
X167440323Y-108055552D01*
X167416514Y-108103171D01*
X167392704Y-108126980D01*
X167345085Y-108150790D01*
X167202228Y-108150790D01*
X167154609Y-108126980D01*
X167130800Y-108103171D01*
X167583180Y-107650790D02*
X167749847Y-108150790D01*
X167916514Y-107650790D01*
X168035561Y-107650790D02*
X168345085Y-107650790D01*
X168178419Y-107841266D01*
X168249847Y-107841266D01*
X168297466Y-107865076D01*
X168321276Y-107888885D01*
X168345085Y-107936504D01*
X168345085Y-108055552D01*
X168321276Y-108103171D01*
X168297466Y-108126980D01*
X168249847Y-108150790D01*
X168106990Y-108150790D01*
X168059371Y-108126980D01*
X168035561Y-108103171D01*
X162838580Y-66668885D02*
X162862390Y-66597457D01*
X162862390Y-66478409D01*
X162838580Y-66430790D01*
X162814771Y-66406980D01*
X162767152Y-66383171D01*
X162719533Y-66383171D01*
X162671914Y-66406980D01*
X162648104Y-66430790D01*
X162624295Y-66478409D01*
X162600485Y-66573647D01*
X162576676Y-66621266D01*
X162552866Y-66645076D01*
X162505247Y-66668885D01*
X162457628Y-66668885D01*
X162410009Y-66645076D01*
X162386200Y-66621266D01*
X162362390Y-66573647D01*
X162362390Y-66454600D01*
X162386200Y-66383171D01*
X162862390Y-66168885D02*
X162362390Y-66168885D01*
X162362390Y-66049838D01*
X162386200Y-65978409D01*
X162433819Y-65930790D01*
X162481438Y-65906980D01*
X162576676Y-65883171D01*
X162648104Y-65883171D01*
X162743342Y-65906980D01*
X162790961Y-65930790D01*
X162838580Y-65978409D01*
X162862390Y-66049838D01*
X162862390Y-66168885D01*
X162719533Y-65692695D02*
X162719533Y-65454600D01*
X162862390Y-65740314D02*
X162362390Y-65573647D01*
X162862390Y-65406980D01*
X162838580Y-64121266D02*
X162862390Y-64049838D01*
X162862390Y-63930790D01*
X162838580Y-63883171D01*
X162814771Y-63859361D01*
X162767152Y-63835552D01*
X162719533Y-63835552D01*
X162671914Y-63859361D01*
X162648104Y-63883171D01*
X162624295Y-63930790D01*
X162600485Y-64026028D01*
X162576676Y-64073647D01*
X162552866Y-64097457D01*
X162505247Y-64121266D01*
X162457628Y-64121266D01*
X162410009Y-64097457D01*
X162386200Y-64073647D01*
X162362390Y-64026028D01*
X162362390Y-63906980D01*
X162386200Y-63835552D01*
X162814771Y-63335552D02*
X162838580Y-63359361D01*
X162862390Y-63430790D01*
X162862390Y-63478409D01*
X162838580Y-63549838D01*
X162790961Y-63597457D01*
X162743342Y-63621266D01*
X162648104Y-63645076D01*
X162576676Y-63645076D01*
X162481438Y-63621266D01*
X162433819Y-63597457D01*
X162386200Y-63549838D01*
X162362390Y-63478409D01*
X162362390Y-63430790D01*
X162386200Y-63359361D01*
X162410009Y-63335552D01*
X162862390Y-62883171D02*
X162862390Y-63121266D01*
X162362390Y-63121266D01*
X162386200Y-61311742D02*
X162362390Y-61359361D01*
X162362390Y-61430790D01*
X162386200Y-61502219D01*
X162433819Y-61549838D01*
X162481438Y-61573647D01*
X162576676Y-61597457D01*
X162648104Y-61597457D01*
X162743342Y-61573647D01*
X162790961Y-61549838D01*
X162838580Y-61502219D01*
X162862390Y-61430790D01*
X162862390Y-61383171D01*
X162838580Y-61311742D01*
X162814771Y-61287933D01*
X162648104Y-61287933D01*
X162648104Y-61383171D01*
X162862390Y-61073647D02*
X162362390Y-61073647D01*
X162862390Y-60787933D01*
X162362390Y-60787933D01*
X162862390Y-60549838D02*
X162362390Y-60549838D01*
X162362390Y-60430790D01*
X162386200Y-60359361D01*
X162433819Y-60311742D01*
X162481438Y-60287933D01*
X162576676Y-60264123D01*
X162648104Y-60264123D01*
X162743342Y-60287933D01*
X162790961Y-60311742D01*
X162838580Y-60359361D01*
X162862390Y-60430790D01*
X162862390Y-60549838D01*
X162362390Y-58954600D02*
X162362390Y-58645076D01*
X162552866Y-58811742D01*
X162552866Y-58740314D01*
X162576676Y-58692695D01*
X162600485Y-58668885D01*
X162648104Y-58645076D01*
X162767152Y-58645076D01*
X162814771Y-58668885D01*
X162838580Y-58692695D01*
X162862390Y-58740314D01*
X162862390Y-58883171D01*
X162838580Y-58930790D01*
X162814771Y-58954600D01*
X162362390Y-58502219D02*
X162862390Y-58335552D01*
X162362390Y-58168885D01*
X162362390Y-58049838D02*
X162362390Y-57740314D01*
X162552866Y-57906980D01*
X162552866Y-57835552D01*
X162576676Y-57787933D01*
X162600485Y-57764123D01*
X162648104Y-57740314D01*
X162767152Y-57740314D01*
X162814771Y-57764123D01*
X162838580Y-57787933D01*
X162862390Y-57835552D01*
X162862390Y-57978409D01*
X162838580Y-58026028D01*
X162814771Y-58049838D01*
X164959480Y-49066685D02*
X164983290Y-48995257D01*
X164983290Y-48876209D01*
X164959480Y-48828590D01*
X164935671Y-48804780D01*
X164888052Y-48780971D01*
X164840433Y-48780971D01*
X164792814Y-48804780D01*
X164769004Y-48828590D01*
X164745195Y-48876209D01*
X164721385Y-48971447D01*
X164697576Y-49019066D01*
X164673766Y-49042876D01*
X164626147Y-49066685D01*
X164578528Y-49066685D01*
X164530909Y-49042876D01*
X164507100Y-49019066D01*
X164483290Y-48971447D01*
X164483290Y-48852400D01*
X164507100Y-48780971D01*
X164983290Y-48566685D02*
X164483290Y-48566685D01*
X164483290Y-48447638D01*
X164507100Y-48376209D01*
X164554719Y-48328590D01*
X164602338Y-48304780D01*
X164697576Y-48280971D01*
X164769004Y-48280971D01*
X164864242Y-48304780D01*
X164911861Y-48328590D01*
X164959480Y-48376209D01*
X164983290Y-48447638D01*
X164983290Y-48566685D01*
X164840433Y-48090495D02*
X164840433Y-47852400D01*
X164983290Y-48138114D02*
X164483290Y-47971447D01*
X164983290Y-47804780D01*
X164959480Y-46519066D02*
X164983290Y-46447638D01*
X164983290Y-46328590D01*
X164959480Y-46280971D01*
X164935671Y-46257161D01*
X164888052Y-46233352D01*
X164840433Y-46233352D01*
X164792814Y-46257161D01*
X164769004Y-46280971D01*
X164745195Y-46328590D01*
X164721385Y-46423828D01*
X164697576Y-46471447D01*
X164673766Y-46495257D01*
X164626147Y-46519066D01*
X164578528Y-46519066D01*
X164530909Y-46495257D01*
X164507100Y-46471447D01*
X164483290Y-46423828D01*
X164483290Y-46304780D01*
X164507100Y-46233352D01*
X164935671Y-45733352D02*
X164959480Y-45757161D01*
X164983290Y-45828590D01*
X164983290Y-45876209D01*
X164959480Y-45947638D01*
X164911861Y-45995257D01*
X164864242Y-46019066D01*
X164769004Y-46042876D01*
X164697576Y-46042876D01*
X164602338Y-46019066D01*
X164554719Y-45995257D01*
X164507100Y-45947638D01*
X164483290Y-45876209D01*
X164483290Y-45828590D01*
X164507100Y-45757161D01*
X164530909Y-45733352D01*
X164983290Y-45280971D02*
X164983290Y-45519066D01*
X164483290Y-45519066D01*
X164507100Y-43709542D02*
X164483290Y-43757161D01*
X164483290Y-43828590D01*
X164507100Y-43900019D01*
X164554719Y-43947638D01*
X164602338Y-43971447D01*
X164697576Y-43995257D01*
X164769004Y-43995257D01*
X164864242Y-43971447D01*
X164911861Y-43947638D01*
X164959480Y-43900019D01*
X164983290Y-43828590D01*
X164983290Y-43780971D01*
X164959480Y-43709542D01*
X164935671Y-43685733D01*
X164769004Y-43685733D01*
X164769004Y-43780971D01*
X164983290Y-43471447D02*
X164483290Y-43471447D01*
X164983290Y-43185733D01*
X164483290Y-43185733D01*
X164983290Y-42947638D02*
X164483290Y-42947638D01*
X164483290Y-42828590D01*
X164507100Y-42757161D01*
X164554719Y-42709542D01*
X164602338Y-42685733D01*
X164697576Y-42661923D01*
X164769004Y-42661923D01*
X164864242Y-42685733D01*
X164911861Y-42709542D01*
X164959480Y-42757161D01*
X164983290Y-42828590D01*
X164983290Y-42947638D01*
X164483290Y-41352400D02*
X164483290Y-41042876D01*
X164673766Y-41209542D01*
X164673766Y-41138114D01*
X164697576Y-41090495D01*
X164721385Y-41066685D01*
X164769004Y-41042876D01*
X164888052Y-41042876D01*
X164935671Y-41066685D01*
X164959480Y-41090495D01*
X164983290Y-41138114D01*
X164983290Y-41280971D01*
X164959480Y-41328590D01*
X164935671Y-41352400D01*
X164483290Y-40900019D02*
X164983290Y-40733352D01*
X164483290Y-40566685D01*
X164483290Y-40447638D02*
X164483290Y-40138114D01*
X164673766Y-40304780D01*
X164673766Y-40233352D01*
X164697576Y-40185733D01*
X164721385Y-40161923D01*
X164769004Y-40138114D01*
X164888052Y-40138114D01*
X164935671Y-40161923D01*
X164959480Y-40185733D01*
X164983290Y-40233352D01*
X164983290Y-40376209D01*
X164959480Y-40423828D01*
X164935671Y-40447638D01*
X158070314Y-35152780D02*
X158141742Y-35176590D01*
X158260790Y-35176590D01*
X158308409Y-35152780D01*
X158332219Y-35128971D01*
X158356028Y-35081352D01*
X158356028Y-35033733D01*
X158332219Y-34986114D01*
X158308409Y-34962304D01*
X158260790Y-34938495D01*
X158165552Y-34914685D01*
X158117933Y-34890876D01*
X158094123Y-34867066D01*
X158070314Y-34819447D01*
X158070314Y-34771828D01*
X158094123Y-34724209D01*
X158117933Y-34700400D01*
X158165552Y-34676590D01*
X158284600Y-34676590D01*
X158356028Y-34700400D01*
X158570314Y-35176590D02*
X158570314Y-34676590D01*
X158689361Y-34676590D01*
X158760790Y-34700400D01*
X158808409Y-34748019D01*
X158832219Y-34795638D01*
X158856028Y-34890876D01*
X158856028Y-34962304D01*
X158832219Y-35057542D01*
X158808409Y-35105161D01*
X158760790Y-35152780D01*
X158689361Y-35176590D01*
X158570314Y-35176590D01*
X159046504Y-35033733D02*
X159284600Y-35033733D01*
X158998885Y-35176590D02*
X159165552Y-34676590D01*
X159332219Y-35176590D01*
X160617933Y-35152780D02*
X160689361Y-35176590D01*
X160808409Y-35176590D01*
X160856028Y-35152780D01*
X160879838Y-35128971D01*
X160903647Y-35081352D01*
X160903647Y-35033733D01*
X160879838Y-34986114D01*
X160856028Y-34962304D01*
X160808409Y-34938495D01*
X160713171Y-34914685D01*
X160665552Y-34890876D01*
X160641742Y-34867066D01*
X160617933Y-34819447D01*
X160617933Y-34771828D01*
X160641742Y-34724209D01*
X160665552Y-34700400D01*
X160713171Y-34676590D01*
X160832219Y-34676590D01*
X160903647Y-34700400D01*
X161403647Y-35128971D02*
X161379838Y-35152780D01*
X161308409Y-35176590D01*
X161260790Y-35176590D01*
X161189361Y-35152780D01*
X161141742Y-35105161D01*
X161117933Y-35057542D01*
X161094123Y-34962304D01*
X161094123Y-34890876D01*
X161117933Y-34795638D01*
X161141742Y-34748019D01*
X161189361Y-34700400D01*
X161260790Y-34676590D01*
X161308409Y-34676590D01*
X161379838Y-34700400D01*
X161403647Y-34724209D01*
X161856028Y-35176590D02*
X161617933Y-35176590D01*
X161617933Y-34676590D01*
X163427457Y-34700400D02*
X163379838Y-34676590D01*
X163308409Y-34676590D01*
X163236980Y-34700400D01*
X163189361Y-34748019D01*
X163165552Y-34795638D01*
X163141742Y-34890876D01*
X163141742Y-34962304D01*
X163165552Y-35057542D01*
X163189361Y-35105161D01*
X163236980Y-35152780D01*
X163308409Y-35176590D01*
X163356028Y-35176590D01*
X163427457Y-35152780D01*
X163451266Y-35128971D01*
X163451266Y-34962304D01*
X163356028Y-34962304D01*
X163665552Y-35176590D02*
X163665552Y-34676590D01*
X163951266Y-35176590D01*
X163951266Y-34676590D01*
X164189361Y-35176590D02*
X164189361Y-34676590D01*
X164308409Y-34676590D01*
X164379838Y-34700400D01*
X164427457Y-34748019D01*
X164451266Y-34795638D01*
X164475076Y-34890876D01*
X164475076Y-34962304D01*
X164451266Y-35057542D01*
X164427457Y-35105161D01*
X164379838Y-35152780D01*
X164308409Y-35176590D01*
X164189361Y-35176590D01*
X165784600Y-34676590D02*
X166094123Y-34676590D01*
X165927457Y-34867066D01*
X165998885Y-34867066D01*
X166046504Y-34890876D01*
X166070314Y-34914685D01*
X166094123Y-34962304D01*
X166094123Y-35081352D01*
X166070314Y-35128971D01*
X166046504Y-35152780D01*
X165998885Y-35176590D01*
X165856028Y-35176590D01*
X165808409Y-35152780D01*
X165784600Y-35128971D01*
X166236980Y-34676590D02*
X166403647Y-35176590D01*
X166570314Y-34676590D01*
X166689361Y-34676590D02*
X166998885Y-34676590D01*
X166832219Y-34867066D01*
X166903647Y-34867066D01*
X166951266Y-34890876D01*
X166975076Y-34914685D01*
X166998885Y-34962304D01*
X166998885Y-35081352D01*
X166975076Y-35128971D01*
X166951266Y-35152780D01*
X166903647Y-35176590D01*
X166760790Y-35176590D01*
X166713171Y-35152780D01*
X166689361Y-35128971D01*
D11*
X117684952Y-111105904D02*
X117684952Y-110305904D01*
X117989714Y-110305904D01*
X118065904Y-110344000D01*
X118104000Y-110382095D01*
X118142095Y-110458285D01*
X118142095Y-110572571D01*
X118104000Y-110648761D01*
X118065904Y-110686857D01*
X117989714Y-110724952D01*
X117684952Y-110724952D01*
X118599238Y-111105904D02*
X118523047Y-111067809D01*
X118484952Y-110991619D01*
X118484952Y-110305904D01*
X119246857Y-111105904D02*
X119246857Y-110686857D01*
X119208761Y-110610666D01*
X119132571Y-110572571D01*
X118980190Y-110572571D01*
X118904000Y-110610666D01*
X119246857Y-111067809D02*
X119170666Y-111105904D01*
X118980190Y-111105904D01*
X118904000Y-111067809D01*
X118865904Y-110991619D01*
X118865904Y-110915428D01*
X118904000Y-110839238D01*
X118980190Y-110801142D01*
X119170666Y-110801142D01*
X119246857Y-110763047D01*
X119627809Y-110572571D02*
X119627809Y-111105904D01*
X119627809Y-110648761D02*
X119665904Y-110610666D01*
X119742095Y-110572571D01*
X119856380Y-110572571D01*
X119932571Y-110610666D01*
X119970666Y-110686857D01*
X119970666Y-111105904D01*
X120465904Y-111105904D02*
X120389714Y-111067809D01*
X120351619Y-111029714D01*
X120313523Y-110953523D01*
X120313523Y-110724952D01*
X120351619Y-110648761D01*
X120389714Y-110610666D01*
X120465904Y-110572571D01*
X120580190Y-110572571D01*
X120656380Y-110610666D01*
X120694476Y-110648761D01*
X120732571Y-110724952D01*
X120732571Y-110953523D01*
X120694476Y-111029714D01*
X120656380Y-111067809D01*
X120580190Y-111105904D01*
X120465904Y-111105904D01*
X121075428Y-111029714D02*
X121113523Y-111067809D01*
X121075428Y-111105904D01*
X121037333Y-111067809D01*
X121075428Y-111029714D01*
X121075428Y-111105904D01*
X121075428Y-110610666D02*
X121113523Y-110648761D01*
X121075428Y-110686857D01*
X121037333Y-110648761D01*
X121075428Y-110610666D01*
X121075428Y-110686857D01*
X122484952Y-110344000D02*
X122408761Y-110305904D01*
X122294476Y-110305904D01*
X122180190Y-110344000D01*
X122104000Y-110420190D01*
X122065904Y-110496380D01*
X122027809Y-110648761D01*
X122027809Y-110763047D01*
X122065904Y-110915428D01*
X122104000Y-110991619D01*
X122180190Y-111067809D01*
X122294476Y-111105904D01*
X122370666Y-111105904D01*
X122484952Y-111067809D01*
X122523047Y-111029714D01*
X122523047Y-110763047D01*
X122370666Y-110763047D01*
X122865904Y-111105904D02*
X122865904Y-110305904D01*
X123323047Y-111105904D01*
X123323047Y-110305904D01*
X123704000Y-111105904D02*
X123704000Y-110305904D01*
X123894476Y-110305904D01*
X124008761Y-110344000D01*
X124084952Y-110420190D01*
X124123047Y-110496380D01*
X124161142Y-110648761D01*
X124161142Y-110763047D01*
X124123047Y-110915428D01*
X124084952Y-110991619D01*
X124008761Y-111067809D01*
X123894476Y-111105904D01*
X123704000Y-111105904D01*
D15*
X72644000Y-29464000D02*
X72644000Y-113284000D01*
X170688000Y-29464000D02*
X72644000Y-29464000D01*
X170688000Y-113284000D02*
X170688000Y-29464000D01*
X72644000Y-113284000D02*
X170688000Y-113284000D01*
D16*
%TO.C,J9*%
X166852600Y-57166200D02*
X168182600Y-57166200D01*
X168182600Y-57166200D02*
X168182600Y-58496200D01*
X168182600Y-59766200D02*
X168182600Y-77606200D01*
X165522600Y-77606200D02*
X168182600Y-77606200D01*
X165522600Y-59766200D02*
X165522600Y-77606200D01*
X165522600Y-59766200D02*
X168182600Y-59766200D01*
%TO.C,D1*%
X101560000Y-96012000D02*
G75*
G03*
X101560000Y-96012000I-2500000J0D01*
G01*
X101620000Y-97557000D02*
X101620000Y-94467000D01*
X96070000Y-96011538D02*
G75*
G03*
X101620000Y-97556830I2990000J-462D01*
G01*
X96070000Y-96012462D02*
G75*
G02*
X101620000Y-94467170I2990000J462D01*
G01*
%TO.C,D2*%
X110544000Y-64424000D02*
X113484000Y-64424000D01*
X110544000Y-64184000D02*
X113484000Y-64184000D01*
X110544000Y-64304000D02*
X113484000Y-64304000D01*
X112014000Y-58744000D02*
X112014000Y-59764000D01*
X112014000Y-66224000D02*
X112014000Y-65204000D01*
X110544000Y-59764000D02*
X110544000Y-65204000D01*
X113484000Y-59764000D02*
X110544000Y-59764000D01*
X113484000Y-65204000D02*
X113484000Y-59764000D01*
X110544000Y-65204000D02*
X113484000Y-65204000D01*
%TO.C,J1*%
X127194000Y-111058000D02*
X127194000Y-109728000D01*
X128524000Y-111058000D02*
X127194000Y-111058000D01*
X129794000Y-111058000D02*
X129794000Y-108398000D01*
X129794000Y-108398000D02*
X132394000Y-108398000D01*
X129794000Y-111058000D02*
X132394000Y-111058000D01*
X132394000Y-111058000D02*
X132394000Y-108398000D01*
%TO.C,J2*%
X103692000Y-33842000D02*
X103692000Y-31182000D01*
X98552000Y-33842000D02*
X103692000Y-33842000D01*
X98552000Y-31182000D02*
X103692000Y-31182000D01*
X98552000Y-33842000D02*
X98552000Y-31182000D01*
X97282000Y-33842000D02*
X95952000Y-33842000D01*
X95952000Y-33842000D02*
X95952000Y-32512000D01*
%TO.C,J3*%
X84388000Y-109728000D02*
X84388000Y-111058000D01*
X84388000Y-111058000D02*
X83058000Y-111058000D01*
X81788000Y-111058000D02*
X76648000Y-111058000D01*
X76648000Y-108398000D02*
X76648000Y-111058000D01*
X81788000Y-108398000D02*
X76648000Y-108398000D01*
X81788000Y-108398000D02*
X81788000Y-111058000D01*
%TO.C,J4*%
X157420000Y-32512000D02*
X157420000Y-31182000D01*
X157420000Y-31182000D02*
X158750000Y-31182000D01*
X160020000Y-31182000D02*
X167700000Y-31182000D01*
X167700000Y-33842000D02*
X167700000Y-31182000D01*
X160020000Y-33842000D02*
X167700000Y-33842000D01*
X160020000Y-33842000D02*
X160020000Y-31182000D01*
%TO.C,J5*%
X168271500Y-46939200D02*
X165611500Y-46939200D01*
X168271500Y-46939200D02*
X168271500Y-39259200D01*
X168271500Y-39259200D02*
X165611500Y-39259200D01*
X165611500Y-46939200D02*
X165611500Y-39259200D01*
X165611500Y-49539200D02*
X165611500Y-48209200D01*
X166941500Y-49539200D02*
X165611500Y-49539200D01*
%TO.C,J6*%
X92650000Y-109728000D02*
X92650000Y-108398000D01*
X92650000Y-108398000D02*
X93980000Y-108398000D01*
X95250000Y-108398000D02*
X102930000Y-108398000D01*
X102930000Y-111058000D02*
X102930000Y-108398000D01*
X95250000Y-111058000D02*
X102930000Y-111058000D01*
X95250000Y-111058000D02*
X95250000Y-108398000D01*
%TO.C,J7*%
X110938000Y-109728000D02*
X110938000Y-108398000D01*
X110938000Y-108398000D02*
X112268000Y-108398000D01*
X113538000Y-108398000D02*
X116138000Y-108398000D01*
X116138000Y-111058000D02*
X116138000Y-108398000D01*
X113538000Y-111058000D02*
X116138000Y-111058000D01*
X113538000Y-111058000D02*
X113538000Y-108398000D01*
%TO.C,J8*%
X153610000Y-110236000D02*
X153610000Y-108906000D01*
X153610000Y-108906000D02*
X154940000Y-108906000D01*
X156210000Y-108906000D02*
X168970000Y-108906000D01*
X168970000Y-111566000D02*
X168970000Y-108906000D01*
X156210000Y-111566000D02*
X168970000Y-111566000D01*
X156210000Y-111566000D02*
X156210000Y-108906000D01*
%TO.C,J10*%
X148328000Y-112546000D02*
X146328000Y-112546000D01*
X148328000Y-111296000D02*
X148328000Y-112546000D01*
X138708000Y-105546000D02*
X139458000Y-105546000D01*
X138708000Y-109846000D02*
X138708000Y-105546000D01*
X139458000Y-109846000D02*
X138708000Y-109846000D01*
X139458000Y-110196000D02*
X139458000Y-109846000D01*
X138958000Y-110196000D02*
X139458000Y-110196000D01*
X138708000Y-111196000D02*
X138958000Y-110196000D01*
X141708000Y-111196000D02*
X138708000Y-111196000D01*
X141458000Y-110196000D02*
X141708000Y-111196000D01*
X140958000Y-110196000D02*
X141458000Y-110196000D01*
X140958000Y-109846000D02*
X140958000Y-110196000D01*
X141708000Y-109846000D02*
X140958000Y-109846000D01*
X141708000Y-105546000D02*
X141708000Y-109846000D01*
X140958000Y-105546000D02*
X141708000Y-105546000D01*
X143788000Y-105546000D02*
X144538000Y-105546000D01*
X143788000Y-109846000D02*
X143788000Y-105546000D01*
X144538000Y-109846000D02*
X143788000Y-109846000D01*
X144538000Y-110196000D02*
X144538000Y-109846000D01*
X144038000Y-110196000D02*
X144538000Y-110196000D01*
X143788000Y-111196000D02*
X144038000Y-110196000D01*
X146788000Y-111196000D02*
X143788000Y-111196000D01*
X146538000Y-110196000D02*
X146788000Y-111196000D01*
X146038000Y-110196000D02*
X146538000Y-110196000D01*
X146038000Y-109846000D02*
X146038000Y-110196000D01*
X146788000Y-109846000D02*
X146038000Y-109846000D01*
X146788000Y-105546000D02*
X146788000Y-109846000D01*
X146038000Y-105546000D02*
X146788000Y-105546000D01*
X137558000Y-112156000D02*
X147938000Y-112156000D01*
X137558000Y-104686000D02*
X137558000Y-112156000D01*
X147938000Y-104686000D02*
X137558000Y-104686000D01*
X147938000Y-112156000D02*
X147938000Y-104686000D01*
X144538353Y-105546155D02*
G75*
G03*
X146038000Y-105546000I749647J1700155D01*
G01*
X139458353Y-105546155D02*
G75*
G03*
X140958000Y-105546000I749647J1700155D01*
G01*
%TO.C,J11*%
X160504000Y-97020000D02*
X160504000Y-95020000D01*
X161754000Y-97020000D02*
X160504000Y-97020000D01*
X167504000Y-82320000D02*
X167504000Y-83070000D01*
X163204000Y-82320000D02*
X167504000Y-82320000D01*
X163204000Y-83070000D02*
X163204000Y-82320000D01*
X162854000Y-83070000D02*
X163204000Y-83070000D01*
X162854000Y-82570000D02*
X162854000Y-83070000D01*
X161854000Y-82320000D02*
X162854000Y-82570000D01*
X161854000Y-85320000D02*
X161854000Y-82320000D01*
X162854000Y-85070000D02*
X161854000Y-85320000D01*
X162854000Y-84570000D02*
X162854000Y-85070000D01*
X163204000Y-84570000D02*
X162854000Y-84570000D01*
X163204000Y-85320000D02*
X163204000Y-84570000D01*
X167504000Y-85320000D02*
X163204000Y-85320000D01*
X167504000Y-84570000D02*
X167504000Y-85320000D01*
X167504000Y-87400000D02*
X167504000Y-88150000D01*
X163204000Y-87400000D02*
X167504000Y-87400000D01*
X163204000Y-88150000D02*
X163204000Y-87400000D01*
X162854000Y-88150000D02*
X163204000Y-88150000D01*
X162854000Y-87650000D02*
X162854000Y-88150000D01*
X161854000Y-87400000D02*
X162854000Y-87650000D01*
X161854000Y-90400000D02*
X161854000Y-87400000D01*
X162854000Y-90150000D02*
X161854000Y-90400000D01*
X162854000Y-89650000D02*
X162854000Y-90150000D01*
X163204000Y-89650000D02*
X162854000Y-89650000D01*
X163204000Y-90400000D02*
X163204000Y-89650000D01*
X167504000Y-90400000D02*
X163204000Y-90400000D01*
X167504000Y-89650000D02*
X167504000Y-90400000D01*
X167504000Y-92480000D02*
X167504000Y-93230000D01*
X163204000Y-92480000D02*
X167504000Y-92480000D01*
X163204000Y-93230000D02*
X163204000Y-92480000D01*
X162854000Y-93230000D02*
X163204000Y-93230000D01*
X162854000Y-92730000D02*
X162854000Y-93230000D01*
X161854000Y-92480000D02*
X162854000Y-92730000D01*
X161854000Y-95480000D02*
X161854000Y-92480000D01*
X162854000Y-95230000D02*
X161854000Y-95480000D01*
X162854000Y-94730000D02*
X162854000Y-95230000D01*
X163204000Y-94730000D02*
X162854000Y-94730000D01*
X163204000Y-95480000D02*
X163204000Y-94730000D01*
X167504000Y-95480000D02*
X163204000Y-95480000D01*
X167504000Y-94730000D02*
X167504000Y-95480000D01*
X160894000Y-81170000D02*
X160894000Y-96630000D01*
X168364000Y-81170000D02*
X160894000Y-81170000D01*
X168364000Y-96630000D02*
X168364000Y-81170000D01*
X160894000Y-96630000D02*
X168364000Y-96630000D01*
X167503845Y-93230353D02*
G75*
G03*
X167504000Y-94730000I1700155J-749647D01*
G01*
X167503845Y-88150353D02*
G75*
G03*
X167504000Y-89650000I1700155J-749647D01*
G01*
X167503845Y-83070353D02*
G75*
G03*
X167504000Y-84570000I1700155J-749647D01*
G01*
%TO.C,J12*%
X147828000Y-92650000D02*
X147828000Y-95310000D01*
X147828000Y-92650000D02*
X145228000Y-92650000D01*
X145228000Y-92650000D02*
X145228000Y-95310000D01*
X147828000Y-95310000D02*
X145228000Y-95310000D01*
X150428000Y-95310000D02*
X149098000Y-95310000D01*
X150428000Y-93980000D02*
X150428000Y-95310000D01*
%TO.C,J13*%
X82692000Y-53230000D02*
X75222000Y-53230000D01*
X75222000Y-53230000D02*
X75222000Y-68690000D01*
X75222000Y-68690000D02*
X82692000Y-68690000D01*
X82692000Y-68690000D02*
X82692000Y-53230000D01*
X76082000Y-55130000D02*
X76082000Y-54380000D01*
X76082000Y-54380000D02*
X80382000Y-54380000D01*
X80382000Y-54380000D02*
X80382000Y-55130000D01*
X80382000Y-55130000D02*
X80732000Y-55130000D01*
X80732000Y-55130000D02*
X80732000Y-54630000D01*
X80732000Y-54630000D02*
X81732000Y-54380000D01*
X81732000Y-54380000D02*
X81732000Y-57380000D01*
X81732000Y-57380000D02*
X80732000Y-57130000D01*
X80732000Y-57130000D02*
X80732000Y-56630000D01*
X80732000Y-56630000D02*
X80382000Y-56630000D01*
X80382000Y-56630000D02*
X80382000Y-57380000D01*
X80382000Y-57380000D02*
X76082000Y-57380000D01*
X76082000Y-57380000D02*
X76082000Y-56630000D01*
X76082000Y-60210000D02*
X76082000Y-59460000D01*
X76082000Y-59460000D02*
X80382000Y-59460000D01*
X80382000Y-59460000D02*
X80382000Y-60210000D01*
X80382000Y-60210000D02*
X80732000Y-60210000D01*
X80732000Y-60210000D02*
X80732000Y-59710000D01*
X80732000Y-59710000D02*
X81732000Y-59460000D01*
X81732000Y-59460000D02*
X81732000Y-62460000D01*
X81732000Y-62460000D02*
X80732000Y-62210000D01*
X80732000Y-62210000D02*
X80732000Y-61710000D01*
X80732000Y-61710000D02*
X80382000Y-61710000D01*
X80382000Y-61710000D02*
X80382000Y-62460000D01*
X80382000Y-62460000D02*
X76082000Y-62460000D01*
X76082000Y-62460000D02*
X76082000Y-61710000D01*
X76082000Y-65290000D02*
X76082000Y-64540000D01*
X76082000Y-64540000D02*
X80382000Y-64540000D01*
X80382000Y-64540000D02*
X80382000Y-65290000D01*
X80382000Y-65290000D02*
X80732000Y-65290000D01*
X80732000Y-65290000D02*
X80732000Y-64790000D01*
X80732000Y-64790000D02*
X81732000Y-64540000D01*
X81732000Y-64540000D02*
X81732000Y-67540000D01*
X81732000Y-67540000D02*
X80732000Y-67290000D01*
X80732000Y-67290000D02*
X80732000Y-66790000D01*
X80732000Y-66790000D02*
X80382000Y-66790000D01*
X80382000Y-66790000D02*
X80382000Y-67540000D01*
X80382000Y-67540000D02*
X76082000Y-67540000D01*
X76082000Y-67540000D02*
X76082000Y-66790000D01*
X81832000Y-52840000D02*
X83082000Y-52840000D01*
X83082000Y-52840000D02*
X83082000Y-54840000D01*
X76082155Y-66789647D02*
G75*
G03*
X76082000Y-65290000I-1700155J749647D01*
G01*
X76082155Y-61709647D02*
G75*
G03*
X76082000Y-60210000I-1700155J749647D01*
G01*
X76082155Y-56629647D02*
G75*
G03*
X76082000Y-55130000I-1700155J749647D01*
G01*
%TO.C,JP1*%
X88916000Y-101476000D02*
X88916000Y-98676000D01*
X88916000Y-98676000D02*
X90916000Y-98676000D01*
X90916000Y-98676000D02*
X90916000Y-101476000D01*
X90916000Y-101476000D02*
X88916000Y-101476000D01*
D17*
%TO.C,K1*%
X107836000Y-67079000D02*
G75*
G03*
X107836000Y-67079000I-100000J0D01*
G01*
D18*
X87986000Y-53210000D02*
X107086000Y-53210000D01*
X87986000Y-68710000D02*
X87986000Y-53210000D01*
X107086000Y-68710000D02*
X87986000Y-68710000D01*
X107086000Y-53210000D02*
X107086000Y-68710000D01*
D14*
%TO.C,Q1*%
G36*
X112651580Y-87122000D02*
G01*
X114554000Y-87122000D01*
X114554000Y-87630960D01*
X112651580Y-87630960D01*
X112651580Y-87122000D01*
G37*
X112651580Y-87122000D02*
X114554000Y-87122000D01*
X114554000Y-87630960D01*
X112651580Y-87630960D01*
X112651580Y-87122000D01*
G36*
X110109697Y-87122000D02*
G01*
X110871000Y-87122000D01*
X110871000Y-87631000D01*
X110109697Y-87631000D01*
X110109697Y-87122000D01*
G37*
X110109697Y-87122000D02*
X110871000Y-87122000D01*
X110871000Y-87631000D01*
X110109697Y-87631000D01*
X110109697Y-87122000D01*
G36*
X107566460Y-87122000D02*
G01*
X108331000Y-87122000D01*
X108331000Y-87631960D01*
X107566460Y-87631960D01*
X107566460Y-87122000D01*
G37*
X107566460Y-87122000D02*
X108331000Y-87122000D01*
X108331000Y-87631960D01*
X107566460Y-87631960D01*
X107566460Y-87122000D01*
G36*
X103883280Y-87122000D02*
G01*
X105791000Y-87122000D01*
X105791000Y-87630650D01*
X103883280Y-87630650D01*
X103883280Y-87122000D01*
G37*
X103883280Y-87122000D02*
X105791000Y-87122000D01*
X105791000Y-87630650D01*
X103883280Y-87630650D01*
X103883280Y-87122000D01*
G36*
X103879560Y-86360000D02*
G01*
X114554000Y-86360000D01*
X114554000Y-87122919D01*
X103879560Y-87122919D01*
X103879560Y-86360000D01*
G37*
X103879560Y-86360000D02*
X114554000Y-86360000D01*
X114554000Y-87122919D01*
X103879560Y-87122919D01*
X103879560Y-86360000D01*
D18*
X104978200Y-90068400D02*
G75*
G03*
X104978200Y-90068400I-254000J0D01*
G01*
X104267000Y-90424000D02*
X104140000Y-87503000D01*
X104267000Y-90424000D02*
X104521000Y-90678000D01*
X113919000Y-90678000D02*
X104521000Y-90678000D01*
X113919000Y-90678000D02*
X114173000Y-90424000D01*
X114300000Y-87503000D02*
X114173000Y-90424000D01*
%TO.C,Q2*%
X105918000Y-38227000D02*
X105791000Y-41148000D01*
X105537000Y-41402000D02*
X105791000Y-41148000D01*
X105537000Y-41402000D02*
X96139000Y-41402000D01*
X95885000Y-41148000D02*
X96139000Y-41402000D01*
X95885000Y-41148000D02*
X95758000Y-38227000D01*
X96596200Y-40792400D02*
G75*
G03*
X96596200Y-40792400I-254000J0D01*
G01*
D14*
G36*
X95497560Y-37084000D02*
G01*
X106172000Y-37084000D01*
X106172000Y-37846919D01*
X95497560Y-37846919D01*
X95497560Y-37084000D01*
G37*
X95497560Y-37084000D02*
X106172000Y-37084000D01*
X106172000Y-37846919D01*
X95497560Y-37846919D01*
X95497560Y-37084000D01*
G36*
X95501280Y-37846000D02*
G01*
X97409000Y-37846000D01*
X97409000Y-38354650D01*
X95501280Y-38354650D01*
X95501280Y-37846000D01*
G37*
X95501280Y-37846000D02*
X97409000Y-37846000D01*
X97409000Y-38354650D01*
X95501280Y-38354650D01*
X95501280Y-37846000D01*
G36*
X99184460Y-37846000D02*
G01*
X99949000Y-37846000D01*
X99949000Y-38355960D01*
X99184460Y-38355960D01*
X99184460Y-37846000D01*
G37*
X99184460Y-37846000D02*
X99949000Y-37846000D01*
X99949000Y-38355960D01*
X99184460Y-38355960D01*
X99184460Y-37846000D01*
G36*
X101727697Y-37846000D02*
G01*
X102489000Y-37846000D01*
X102489000Y-38355000D01*
X101727697Y-38355000D01*
X101727697Y-37846000D01*
G37*
X101727697Y-37846000D02*
X102489000Y-37846000D01*
X102489000Y-38355000D01*
X101727697Y-38355000D01*
X101727697Y-37846000D01*
G36*
X104269580Y-37846000D02*
G01*
X106172000Y-37846000D01*
X106172000Y-38354960D01*
X104269580Y-38354960D01*
X104269580Y-37846000D01*
G37*
X104269580Y-37846000D02*
X106172000Y-37846000D01*
X106172000Y-38354960D01*
X104269580Y-38354960D01*
X104269580Y-37846000D01*
%TO.C,Q3*%
G36*
X117094000Y-34922420D02*
G01*
X117094000Y-33020000D01*
X117602960Y-33020000D01*
X117602960Y-34922420D01*
X117094000Y-34922420D01*
G37*
X117094000Y-34922420D02*
X117094000Y-33020000D01*
X117602960Y-33020000D01*
X117602960Y-34922420D01*
X117094000Y-34922420D01*
G36*
X117094000Y-37464303D02*
G01*
X117094000Y-36703000D01*
X117603000Y-36703000D01*
X117603000Y-37464303D01*
X117094000Y-37464303D01*
G37*
X117094000Y-37464303D02*
X117094000Y-36703000D01*
X117603000Y-36703000D01*
X117603000Y-37464303D01*
X117094000Y-37464303D01*
G36*
X117094000Y-40007540D02*
G01*
X117094000Y-39243000D01*
X117603960Y-39243000D01*
X117603960Y-40007540D01*
X117094000Y-40007540D01*
G37*
X117094000Y-40007540D02*
X117094000Y-39243000D01*
X117603960Y-39243000D01*
X117603960Y-40007540D01*
X117094000Y-40007540D01*
G36*
X117094000Y-43690720D02*
G01*
X117094000Y-41783000D01*
X117602650Y-41783000D01*
X117602650Y-43690720D01*
X117094000Y-43690720D01*
G37*
X117094000Y-43690720D02*
X117094000Y-41783000D01*
X117602650Y-41783000D01*
X117602650Y-43690720D01*
X117094000Y-43690720D01*
G36*
X116332000Y-43694440D02*
G01*
X116332000Y-33020000D01*
X117094919Y-33020000D01*
X117094919Y-43694440D01*
X116332000Y-43694440D01*
G37*
X116332000Y-43694440D02*
X116332000Y-33020000D01*
X117094919Y-33020000D01*
X117094919Y-43694440D01*
X116332000Y-43694440D01*
D18*
X120294400Y-42849800D02*
G75*
G03*
X120294400Y-42849800I-254000J0D01*
G01*
X120396000Y-43307000D02*
X117475000Y-43434000D01*
X120396000Y-43307000D02*
X120650000Y-43053000D01*
X120650000Y-33655000D02*
X120650000Y-43053000D01*
X120650000Y-33655000D02*
X120396000Y-33401000D01*
X117475000Y-33274000D02*
X120396000Y-33401000D01*
D16*
%TO.C,R1*%
X157226000Y-90194000D02*
X157226000Y-93504000D01*
X157226000Y-103354000D02*
X157226000Y-100044000D01*
X155856000Y-93504000D02*
X155856000Y-100044000D01*
X158596000Y-93504000D02*
X155856000Y-93504000D01*
X158596000Y-100044000D02*
X158596000Y-93504000D01*
X155856000Y-100044000D02*
X158596000Y-100044000D01*
%TO.C,R2*%
X141764000Y-98198000D02*
X141764000Y-100938000D01*
X141764000Y-100938000D02*
X148304000Y-100938000D01*
X148304000Y-100938000D02*
X148304000Y-98198000D01*
X148304000Y-98198000D02*
X141764000Y-98198000D01*
X138454000Y-99568000D02*
X141764000Y-99568000D01*
X151614000Y-99568000D02*
X148304000Y-99568000D01*
%TO.C,R3*%
X79534000Y-80926000D02*
X79534000Y-83666000D01*
X79534000Y-83666000D02*
X86074000Y-83666000D01*
X86074000Y-83666000D02*
X86074000Y-80926000D01*
X86074000Y-80926000D02*
X79534000Y-80926000D01*
X76224000Y-82296000D02*
X79534000Y-82296000D01*
X89384000Y-82296000D02*
X86074000Y-82296000D01*
%TO.C,R4*%
X109728000Y-32790000D02*
X109728000Y-36100000D01*
X109728000Y-45950000D02*
X109728000Y-42640000D01*
X108358000Y-36100000D02*
X108358000Y-42640000D01*
X111098000Y-36100000D02*
X108358000Y-36100000D01*
X111098000Y-42640000D02*
X111098000Y-36100000D01*
X108358000Y-42640000D02*
X111098000Y-42640000D01*
%TO.C,R5*%
X101370000Y-82804000D02*
X104680000Y-82804000D01*
X114530000Y-82804000D02*
X111220000Y-82804000D01*
X104680000Y-84174000D02*
X111220000Y-84174000D01*
X104680000Y-81434000D02*
X104680000Y-84174000D01*
X111220000Y-81434000D02*
X104680000Y-81434000D01*
X111220000Y-84174000D02*
X111220000Y-81434000D01*
%TO.C,R6*%
X75716000Y-94234000D02*
X79026000Y-94234000D01*
X88876000Y-94234000D02*
X85566000Y-94234000D01*
X79026000Y-95604000D02*
X85566000Y-95604000D01*
X79026000Y-92864000D02*
X79026000Y-95604000D01*
X85566000Y-92864000D02*
X79026000Y-92864000D01*
X85566000Y-95604000D02*
X85566000Y-92864000D01*
%TO.C,R7*%
X86074000Y-89762000D02*
X86074000Y-87022000D01*
X86074000Y-87022000D02*
X79534000Y-87022000D01*
X79534000Y-87022000D02*
X79534000Y-89762000D01*
X79534000Y-89762000D02*
X86074000Y-89762000D01*
X89384000Y-88392000D02*
X86074000Y-88392000D01*
X76224000Y-88392000D02*
X79534000Y-88392000D01*
%TO.C,R8*%
X77494000Y-38862000D02*
X80804000Y-38862000D01*
X90654000Y-38862000D02*
X87344000Y-38862000D01*
X80804000Y-40232000D02*
X87344000Y-40232000D01*
X80804000Y-37492000D02*
X80804000Y-40232000D01*
X87344000Y-37492000D02*
X80804000Y-37492000D01*
X87344000Y-40232000D02*
X87344000Y-37492000D01*
%TO.C,R9*%
X87344000Y-34136000D02*
X87344000Y-31396000D01*
X87344000Y-31396000D02*
X80804000Y-31396000D01*
X80804000Y-31396000D02*
X80804000Y-34136000D01*
X80804000Y-34136000D02*
X87344000Y-34136000D01*
X90654000Y-32766000D02*
X87344000Y-32766000D01*
X77494000Y-32766000D02*
X80804000Y-32766000D01*
%TO.C,R11*%
X120804000Y-80486000D02*
X123544000Y-80486000D01*
X123544000Y-80486000D02*
X123544000Y-73946000D01*
X123544000Y-73946000D02*
X120804000Y-73946000D01*
X120804000Y-73946000D02*
X120804000Y-80486000D01*
X122174000Y-83796000D02*
X122174000Y-80486000D01*
X122174000Y-70636000D02*
X122174000Y-73946000D01*
%TO.C,R12*%
X119380000Y-51078000D02*
X119380000Y-54388000D01*
X119380000Y-64238000D02*
X119380000Y-60928000D01*
X118010000Y-54388000D02*
X118010000Y-60928000D01*
X120750000Y-54388000D02*
X118010000Y-54388000D01*
X120750000Y-60928000D02*
X120750000Y-54388000D01*
X118010000Y-60928000D02*
X120750000Y-60928000D01*
%TO.C,R13*%
X161644000Y-46006000D02*
X158904000Y-46006000D01*
X158904000Y-46006000D02*
X158904000Y-52546000D01*
X158904000Y-52546000D02*
X161644000Y-52546000D01*
X161644000Y-52546000D02*
X161644000Y-46006000D01*
X160274000Y-42696000D02*
X160274000Y-46006000D01*
X160274000Y-55856000D02*
X160274000Y-52546000D01*
%TO.C,R14*%
X125730000Y-41680000D02*
X125730000Y-44990000D01*
X125730000Y-54840000D02*
X125730000Y-51530000D01*
X124360000Y-44990000D02*
X124360000Y-51530000D01*
X127100000Y-44990000D02*
X124360000Y-44990000D01*
X127100000Y-51530000D02*
X127100000Y-44990000D01*
X124360000Y-51530000D02*
X127100000Y-51530000D01*
%TO.C,U1*%
X155956000Y-81280000D02*
X155956000Y-35560000D01*
X130556000Y-35560000D02*
X130556000Y-81280000D01*
X130556000Y-35560000D02*
X155956000Y-35560000D01*
X155956000Y-86360000D02*
X155956000Y-81280000D01*
X153416000Y-86360000D02*
X155956000Y-86360000D01*
X150876000Y-88900000D02*
X153416000Y-86360000D01*
X135636000Y-88900000D02*
X150876000Y-88900000D01*
X133096000Y-86360000D02*
X135636000Y-88900000D01*
X130556000Y-86360000D02*
X133096000Y-86360000D01*
X130556000Y-81280000D02*
X130556000Y-86360000D01*
%TD*%
%TO.C,J9*%
D11*
X166519266Y-55178580D02*
X166519266Y-55892866D01*
X166471647Y-56035723D01*
X166376409Y-56130961D01*
X166233552Y-56178580D01*
X166138314Y-56178580D01*
X167043076Y-56178580D02*
X167233552Y-56178580D01*
X167328790Y-56130961D01*
X167376409Y-56083342D01*
X167471647Y-55940485D01*
X167519266Y-55750009D01*
X167519266Y-55369057D01*
X167471647Y-55273819D01*
X167424028Y-55226200D01*
X167328790Y-55178580D01*
X167138314Y-55178580D01*
X167043076Y-55226200D01*
X166995457Y-55273819D01*
X166947838Y-55369057D01*
X166947838Y-55607152D01*
X166995457Y-55702390D01*
X167043076Y-55750009D01*
X167138314Y-55797628D01*
X167328790Y-55797628D01*
X167424028Y-55750009D01*
X167471647Y-55702390D01*
X167519266Y-55607152D01*
%TO.C,D1*%
X98321904Y-100424380D02*
X98321904Y-99424380D01*
X98560000Y-99424380D01*
X98702857Y-99472000D01*
X98798095Y-99567238D01*
X98845714Y-99662476D01*
X98893333Y-99852952D01*
X98893333Y-99995809D01*
X98845714Y-100186285D01*
X98798095Y-100281523D01*
X98702857Y-100376761D01*
X98560000Y-100424380D01*
X98321904Y-100424380D01*
X99845714Y-100424380D02*
X99274285Y-100424380D01*
X99560000Y-100424380D02*
X99560000Y-99424380D01*
X99464761Y-99567238D01*
X99369523Y-99662476D01*
X99274285Y-99710095D01*
%TO.C,D2*%
X109996380Y-63222095D02*
X108996380Y-63222095D01*
X108996380Y-62984000D01*
X109044000Y-62841142D01*
X109139238Y-62745904D01*
X109234476Y-62698285D01*
X109424952Y-62650666D01*
X109567809Y-62650666D01*
X109758285Y-62698285D01*
X109853523Y-62745904D01*
X109948761Y-62841142D01*
X109996380Y-62984000D01*
X109996380Y-63222095D01*
X109091619Y-62269714D02*
X109044000Y-62222095D01*
X108996380Y-62126857D01*
X108996380Y-61888761D01*
X109044000Y-61793523D01*
X109091619Y-61745904D01*
X109186857Y-61698285D01*
X109282095Y-61698285D01*
X109424952Y-61745904D01*
X109996380Y-62317333D01*
X109996380Y-61698285D01*
X110366380Y-67825904D02*
X109366380Y-67825904D01*
X110366380Y-67254476D02*
X109794952Y-67683047D01*
X109366380Y-67254476D02*
X109937809Y-67825904D01*
%TO.C,J1*%
X125646380Y-110061333D02*
X126360666Y-110061333D01*
X126503523Y-110108952D01*
X126598761Y-110204190D01*
X126646380Y-110347047D01*
X126646380Y-110442285D01*
X126646380Y-109061333D02*
X126646380Y-109632761D01*
X126646380Y-109347047D02*
X125646380Y-109347047D01*
X125789238Y-109442285D01*
X125884476Y-109537523D01*
X125932095Y-109632761D01*
%TO.C,J2*%
X94404380Y-32845333D02*
X95118666Y-32845333D01*
X95261523Y-32892952D01*
X95356761Y-32988190D01*
X95404380Y-33131047D01*
X95404380Y-33226285D01*
X94499619Y-32416761D02*
X94452000Y-32369142D01*
X94404380Y-32273904D01*
X94404380Y-32035809D01*
X94452000Y-31940571D01*
X94499619Y-31892952D01*
X94594857Y-31845333D01*
X94690095Y-31845333D01*
X94832952Y-31892952D01*
X95404380Y-32464380D01*
X95404380Y-31845333D01*
%TO.C,J3*%
X85280380Y-110061333D02*
X85994666Y-110061333D01*
X86137523Y-110108952D01*
X86232761Y-110204190D01*
X86280380Y-110347047D01*
X86280380Y-110442285D01*
X85280380Y-109680380D02*
X85280380Y-109061333D01*
X85661333Y-109394666D01*
X85661333Y-109251809D01*
X85708952Y-109156571D01*
X85756571Y-109108952D01*
X85851809Y-109061333D01*
X86089904Y-109061333D01*
X86185142Y-109108952D01*
X86232761Y-109156571D01*
X86280380Y-109251809D01*
X86280380Y-109537523D01*
X86232761Y-109632761D01*
X86185142Y-109680380D01*
%TO.C,J4*%
X155432380Y-32845333D02*
X156146666Y-32845333D01*
X156289523Y-32892952D01*
X156384761Y-32988190D01*
X156432380Y-33131047D01*
X156432380Y-33226285D01*
X155765714Y-31940571D02*
X156432380Y-31940571D01*
X155384761Y-32178666D02*
X156099047Y-32416761D01*
X156099047Y-31797714D01*
%TO.C,J5*%
X166608166Y-50431580D02*
X166608166Y-51145866D01*
X166560547Y-51288723D01*
X166465309Y-51383961D01*
X166322452Y-51431580D01*
X166227214Y-51431580D01*
X167560547Y-50431580D02*
X167084357Y-50431580D01*
X167036738Y-50907771D01*
X167084357Y-50860152D01*
X167179595Y-50812533D01*
X167417690Y-50812533D01*
X167512928Y-50860152D01*
X167560547Y-50907771D01*
X167608166Y-51003009D01*
X167608166Y-51241104D01*
X167560547Y-51336342D01*
X167512928Y-51383961D01*
X167417690Y-51431580D01*
X167179595Y-51431580D01*
X167084357Y-51383961D01*
X167036738Y-51336342D01*
%TO.C,J6*%
X90662380Y-110061333D02*
X91376666Y-110061333D01*
X91519523Y-110108952D01*
X91614761Y-110204190D01*
X91662380Y-110347047D01*
X91662380Y-110442285D01*
X90662380Y-109156571D02*
X90662380Y-109347047D01*
X90710000Y-109442285D01*
X90757619Y-109489904D01*
X90900476Y-109585142D01*
X91090952Y-109632761D01*
X91471904Y-109632761D01*
X91567142Y-109585142D01*
X91614761Y-109537523D01*
X91662380Y-109442285D01*
X91662380Y-109251809D01*
X91614761Y-109156571D01*
X91567142Y-109108952D01*
X91471904Y-109061333D01*
X91233809Y-109061333D01*
X91138571Y-109108952D01*
X91090952Y-109156571D01*
X91043333Y-109251809D01*
X91043333Y-109442285D01*
X91090952Y-109537523D01*
X91138571Y-109585142D01*
X91233809Y-109632761D01*
%TO.C,J7*%
X108950380Y-110061333D02*
X109664666Y-110061333D01*
X109807523Y-110108952D01*
X109902761Y-110204190D01*
X109950380Y-110347047D01*
X109950380Y-110442285D01*
X108950380Y-109680380D02*
X108950380Y-109013714D01*
X109950380Y-109442285D01*
%TO.C,J8*%
X151622380Y-110569333D02*
X152336666Y-110569333D01*
X152479523Y-110616952D01*
X152574761Y-110712190D01*
X152622380Y-110855047D01*
X152622380Y-110950285D01*
X152050952Y-109950285D02*
X152003333Y-110045523D01*
X151955714Y-110093142D01*
X151860476Y-110140761D01*
X151812857Y-110140761D01*
X151717619Y-110093142D01*
X151670000Y-110045523D01*
X151622380Y-109950285D01*
X151622380Y-109759809D01*
X151670000Y-109664571D01*
X151717619Y-109616952D01*
X151812857Y-109569333D01*
X151860476Y-109569333D01*
X151955714Y-109616952D01*
X152003333Y-109664571D01*
X152050952Y-109759809D01*
X152050952Y-109950285D01*
X152098571Y-110045523D01*
X152146190Y-110093142D01*
X152241428Y-110140761D01*
X152431904Y-110140761D01*
X152527142Y-110093142D01*
X152574761Y-110045523D01*
X152622380Y-109950285D01*
X152622380Y-109759809D01*
X152574761Y-109664571D01*
X152527142Y-109616952D01*
X152431904Y-109569333D01*
X152241428Y-109569333D01*
X152146190Y-109616952D01*
X152098571Y-109664571D01*
X152050952Y-109759809D01*
%TO.C,J10*%
X149312380Y-111553523D02*
X150026666Y-111553523D01*
X150169523Y-111601142D01*
X150264761Y-111696380D01*
X150312380Y-111839238D01*
X150312380Y-111934476D01*
X150312380Y-110553523D02*
X150312380Y-111124952D01*
X150312380Y-110839238D02*
X149312380Y-110839238D01*
X149455238Y-110934476D01*
X149550476Y-111029714D01*
X149598095Y-111124952D01*
X149312380Y-109934476D02*
X149312380Y-109839238D01*
X149360000Y-109744000D01*
X149407619Y-109696380D01*
X149502857Y-109648761D01*
X149693333Y-109601142D01*
X149931428Y-109601142D01*
X150121904Y-109648761D01*
X150217142Y-109696380D01*
X150264761Y-109744000D01*
X150312380Y-109839238D01*
X150312380Y-109934476D01*
X150264761Y-110029714D01*
X150217142Y-110077333D01*
X150121904Y-110124952D01*
X149931428Y-110172571D01*
X149693333Y-110172571D01*
X149502857Y-110124952D01*
X149407619Y-110077333D01*
X149360000Y-110029714D01*
X149312380Y-109934476D01*
%TO.C,J11*%
X159256380Y-89709523D02*
X159970666Y-89709523D01*
X160113523Y-89757142D01*
X160208761Y-89852380D01*
X160256380Y-89995238D01*
X160256380Y-90090476D01*
X160256380Y-88709523D02*
X160256380Y-89280952D01*
X160256380Y-88995238D02*
X159256380Y-88995238D01*
X159399238Y-89090476D01*
X159494476Y-89185714D01*
X159542095Y-89280952D01*
X160256380Y-87757142D02*
X160256380Y-88328571D01*
X160256380Y-88042857D02*
X159256380Y-88042857D01*
X159399238Y-88138095D01*
X159494476Y-88233333D01*
X159542095Y-88328571D01*
%TO.C,J12*%
X151320380Y-94789523D02*
X152034666Y-94789523D01*
X152177523Y-94837142D01*
X152272761Y-94932380D01*
X152320380Y-95075238D01*
X152320380Y-95170476D01*
X152320380Y-93789523D02*
X152320380Y-94360952D01*
X152320380Y-94075238D02*
X151320380Y-94075238D01*
X151463238Y-94170476D01*
X151558476Y-94265714D01*
X151606095Y-94360952D01*
X151415619Y-93408571D02*
X151368000Y-93360952D01*
X151320380Y-93265714D01*
X151320380Y-93027619D01*
X151368000Y-92932380D01*
X151415619Y-92884761D01*
X151510857Y-92837142D01*
X151606095Y-92837142D01*
X151748952Y-92884761D01*
X152320380Y-93456190D01*
X152320380Y-92837142D01*
%TO.C,J13*%
X83234380Y-61769523D02*
X83948666Y-61769523D01*
X84091523Y-61817142D01*
X84186761Y-61912380D01*
X84234380Y-62055238D01*
X84234380Y-62150476D01*
X84234380Y-60769523D02*
X84234380Y-61340952D01*
X84234380Y-61055238D02*
X83234380Y-61055238D01*
X83377238Y-61150476D01*
X83472476Y-61245714D01*
X83520095Y-61340952D01*
X83234380Y-60436190D02*
X83234380Y-59817142D01*
X83615333Y-60150476D01*
X83615333Y-60007619D01*
X83662952Y-59912380D01*
X83710571Y-59864761D01*
X83805809Y-59817142D01*
X84043904Y-59817142D01*
X84139142Y-59864761D01*
X84186761Y-59912380D01*
X84234380Y-60007619D01*
X84234380Y-60293333D01*
X84186761Y-60388571D01*
X84139142Y-60436190D01*
%TO.C,JP1*%
X87568380Y-100909333D02*
X88282666Y-100909333D01*
X88425523Y-100956952D01*
X88520761Y-101052190D01*
X88568380Y-101195047D01*
X88568380Y-101290285D01*
X88568380Y-100433142D02*
X87568380Y-100433142D01*
X87568380Y-100052190D01*
X87616000Y-99956952D01*
X87663619Y-99909333D01*
X87758857Y-99861714D01*
X87901714Y-99861714D01*
X87996952Y-99909333D01*
X88044571Y-99956952D01*
X88092190Y-100052190D01*
X88092190Y-100433142D01*
X88568380Y-98909333D02*
X88568380Y-99480761D01*
X88568380Y-99195047D02*
X87568380Y-99195047D01*
X87711238Y-99290285D01*
X87806476Y-99385523D01*
X87854095Y-99480761D01*
%TO.C,K1*%
D19*
X103423465Y-70248263D02*
X103423465Y-69248169D01*
X103994947Y-70248263D02*
X103566335Y-69676781D01*
X103994947Y-69248169D02*
X103423465Y-69819651D01*
X104947418Y-70248263D02*
X104375935Y-70248263D01*
X104661677Y-70248263D02*
X104661677Y-69248169D01*
X104566429Y-69391040D01*
X104471182Y-69486287D01*
X104375935Y-69533910D01*
%TO.C,Q1*%
X107219047Y-92319967D02*
X107123774Y-92272331D01*
X107028502Y-92177058D01*
X106885593Y-92034149D01*
X106790320Y-91986513D01*
X106695048Y-91986513D01*
X106742684Y-92224694D02*
X106647412Y-92177058D01*
X106552139Y-92081785D01*
X106504503Y-91891240D01*
X106504503Y-91557786D01*
X106552139Y-91367241D01*
X106647412Y-91271969D01*
X106742684Y-91224332D01*
X106933229Y-91224332D01*
X107028502Y-91271969D01*
X107123774Y-91367241D01*
X107171411Y-91557786D01*
X107171411Y-91891240D01*
X107123774Y-92081785D01*
X107028502Y-92177058D01*
X106933229Y-92224694D01*
X106742684Y-92224694D01*
X108124136Y-92224694D02*
X107552501Y-92224694D01*
X107838319Y-92224694D02*
X107838319Y-91224332D01*
X107743046Y-91367241D01*
X107647774Y-91462514D01*
X107552501Y-91510150D01*
%TO.C,Q2*%
X98837047Y-43043967D02*
X98741774Y-42996331D01*
X98646502Y-42901058D01*
X98503593Y-42758149D01*
X98408320Y-42710513D01*
X98313048Y-42710513D01*
X98360684Y-42948694D02*
X98265412Y-42901058D01*
X98170139Y-42805785D01*
X98122503Y-42615240D01*
X98122503Y-42281786D01*
X98170139Y-42091241D01*
X98265412Y-41995969D01*
X98360684Y-41948332D01*
X98551229Y-41948332D01*
X98646502Y-41995969D01*
X98741774Y-42091241D01*
X98789411Y-42281786D01*
X98789411Y-42615240D01*
X98741774Y-42805785D01*
X98646502Y-42901058D01*
X98551229Y-42948694D01*
X98360684Y-42948694D01*
X99170501Y-42043605D02*
X99218137Y-41995969D01*
X99313410Y-41948332D01*
X99551591Y-41948332D01*
X99646864Y-41995969D01*
X99694500Y-42043605D01*
X99742136Y-42138877D01*
X99742136Y-42234150D01*
X99694500Y-42377059D01*
X99122865Y-42948694D01*
X99742136Y-42948694D01*
%TO.C,Q3*%
X122291967Y-40354952D02*
X122244331Y-40450225D01*
X122149058Y-40545497D01*
X122006149Y-40688406D01*
X121958513Y-40783679D01*
X121958513Y-40878951D01*
X122196694Y-40831315D02*
X122149058Y-40926588D01*
X122053785Y-41021860D01*
X121863240Y-41069496D01*
X121529786Y-41069496D01*
X121339241Y-41021860D01*
X121243969Y-40926588D01*
X121196332Y-40831315D01*
X121196332Y-40640770D01*
X121243969Y-40545497D01*
X121339241Y-40450225D01*
X121529786Y-40402588D01*
X121863240Y-40402588D01*
X122053785Y-40450225D01*
X122149058Y-40545497D01*
X122196694Y-40640770D01*
X122196694Y-40831315D01*
X121196332Y-40069134D02*
X121196332Y-39449863D01*
X121577423Y-39783317D01*
X121577423Y-39640408D01*
X121625059Y-39545135D01*
X121672695Y-39497499D01*
X121767968Y-39449863D01*
X122006149Y-39449863D01*
X122101422Y-39497499D01*
X122149058Y-39545135D01*
X122196694Y-39640408D01*
X122196694Y-39926226D01*
X122149058Y-40021498D01*
X122101422Y-40069134D01*
%TO.C,R1*%
D11*
X155308380Y-96940666D02*
X154832190Y-97274000D01*
X155308380Y-97512095D02*
X154308380Y-97512095D01*
X154308380Y-97131142D01*
X154356000Y-97035904D01*
X154403619Y-96988285D01*
X154498857Y-96940666D01*
X154641714Y-96940666D01*
X154736952Y-96988285D01*
X154784571Y-97035904D01*
X154832190Y-97131142D01*
X154832190Y-97512095D01*
X155308380Y-95988285D02*
X155308380Y-96559714D01*
X155308380Y-96274000D02*
X154308380Y-96274000D01*
X154451238Y-96369238D01*
X154546476Y-96464476D01*
X154594095Y-96559714D01*
%TO.C,R2*%
X144867333Y-97650380D02*
X144534000Y-97174190D01*
X144295904Y-97650380D02*
X144295904Y-96650380D01*
X144676857Y-96650380D01*
X144772095Y-96698000D01*
X144819714Y-96745619D01*
X144867333Y-96840857D01*
X144867333Y-96983714D01*
X144819714Y-97078952D01*
X144772095Y-97126571D01*
X144676857Y-97174190D01*
X144295904Y-97174190D01*
X145248285Y-96745619D02*
X145295904Y-96698000D01*
X145391142Y-96650380D01*
X145629238Y-96650380D01*
X145724476Y-96698000D01*
X145772095Y-96745619D01*
X145819714Y-96840857D01*
X145819714Y-96936095D01*
X145772095Y-97078952D01*
X145200666Y-97650380D01*
X145819714Y-97650380D01*
%TO.C,R3*%
X82637333Y-80378380D02*
X82304000Y-79902190D01*
X82065904Y-80378380D02*
X82065904Y-79378380D01*
X82446857Y-79378380D01*
X82542095Y-79426000D01*
X82589714Y-79473619D01*
X82637333Y-79568857D01*
X82637333Y-79711714D01*
X82589714Y-79806952D01*
X82542095Y-79854571D01*
X82446857Y-79902190D01*
X82065904Y-79902190D01*
X82970666Y-79378380D02*
X83589714Y-79378380D01*
X83256380Y-79759333D01*
X83399238Y-79759333D01*
X83494476Y-79806952D01*
X83542095Y-79854571D01*
X83589714Y-79949809D01*
X83589714Y-80187904D01*
X83542095Y-80283142D01*
X83494476Y-80330761D01*
X83399238Y-80378380D01*
X83113523Y-80378380D01*
X83018285Y-80330761D01*
X82970666Y-80283142D01*
%TO.C,R4*%
X107810380Y-39536666D02*
X107334190Y-39870000D01*
X107810380Y-40108095D02*
X106810380Y-40108095D01*
X106810380Y-39727142D01*
X106858000Y-39631904D01*
X106905619Y-39584285D01*
X107000857Y-39536666D01*
X107143714Y-39536666D01*
X107238952Y-39584285D01*
X107286571Y-39631904D01*
X107334190Y-39727142D01*
X107334190Y-40108095D01*
X107143714Y-38679523D02*
X107810380Y-38679523D01*
X106762761Y-38917619D02*
X107477047Y-39155714D01*
X107477047Y-38536666D01*
%TO.C,R5*%
X107783333Y-85626380D02*
X107450000Y-85150190D01*
X107211904Y-85626380D02*
X107211904Y-84626380D01*
X107592857Y-84626380D01*
X107688095Y-84674000D01*
X107735714Y-84721619D01*
X107783333Y-84816857D01*
X107783333Y-84959714D01*
X107735714Y-85054952D01*
X107688095Y-85102571D01*
X107592857Y-85150190D01*
X107211904Y-85150190D01*
X108688095Y-84626380D02*
X108211904Y-84626380D01*
X108164285Y-85102571D01*
X108211904Y-85054952D01*
X108307142Y-85007333D01*
X108545238Y-85007333D01*
X108640476Y-85054952D01*
X108688095Y-85102571D01*
X108735714Y-85197809D01*
X108735714Y-85435904D01*
X108688095Y-85531142D01*
X108640476Y-85578761D01*
X108545238Y-85626380D01*
X108307142Y-85626380D01*
X108211904Y-85578761D01*
X108164285Y-85531142D01*
%TO.C,R6*%
X82129333Y-97056380D02*
X81796000Y-96580190D01*
X81557904Y-97056380D02*
X81557904Y-96056380D01*
X81938857Y-96056380D01*
X82034095Y-96104000D01*
X82081714Y-96151619D01*
X82129333Y-96246857D01*
X82129333Y-96389714D01*
X82081714Y-96484952D01*
X82034095Y-96532571D01*
X81938857Y-96580190D01*
X81557904Y-96580190D01*
X82986476Y-96056380D02*
X82796000Y-96056380D01*
X82700761Y-96104000D01*
X82653142Y-96151619D01*
X82557904Y-96294476D01*
X82510285Y-96484952D01*
X82510285Y-96865904D01*
X82557904Y-96961142D01*
X82605523Y-97008761D01*
X82700761Y-97056380D01*
X82891238Y-97056380D01*
X82986476Y-97008761D01*
X83034095Y-96961142D01*
X83081714Y-96865904D01*
X83081714Y-96627809D01*
X83034095Y-96532571D01*
X82986476Y-96484952D01*
X82891238Y-96437333D01*
X82700761Y-96437333D01*
X82605523Y-96484952D01*
X82557904Y-96532571D01*
X82510285Y-96627809D01*
%TO.C,R7*%
X82637333Y-91214380D02*
X82304000Y-90738190D01*
X82065904Y-91214380D02*
X82065904Y-90214380D01*
X82446857Y-90214380D01*
X82542095Y-90262000D01*
X82589714Y-90309619D01*
X82637333Y-90404857D01*
X82637333Y-90547714D01*
X82589714Y-90642952D01*
X82542095Y-90690571D01*
X82446857Y-90738190D01*
X82065904Y-90738190D01*
X82970666Y-90214380D02*
X83637333Y-90214380D01*
X83208761Y-91214380D01*
%TO.C,R8*%
X83907333Y-41684380D02*
X83574000Y-41208190D01*
X83335904Y-41684380D02*
X83335904Y-40684380D01*
X83716857Y-40684380D01*
X83812095Y-40732000D01*
X83859714Y-40779619D01*
X83907333Y-40874857D01*
X83907333Y-41017714D01*
X83859714Y-41112952D01*
X83812095Y-41160571D01*
X83716857Y-41208190D01*
X83335904Y-41208190D01*
X84478761Y-41112952D02*
X84383523Y-41065333D01*
X84335904Y-41017714D01*
X84288285Y-40922476D01*
X84288285Y-40874857D01*
X84335904Y-40779619D01*
X84383523Y-40732000D01*
X84478761Y-40684380D01*
X84669238Y-40684380D01*
X84764476Y-40732000D01*
X84812095Y-40779619D01*
X84859714Y-40874857D01*
X84859714Y-40922476D01*
X84812095Y-41017714D01*
X84764476Y-41065333D01*
X84669238Y-41112952D01*
X84478761Y-41112952D01*
X84383523Y-41160571D01*
X84335904Y-41208190D01*
X84288285Y-41303428D01*
X84288285Y-41493904D01*
X84335904Y-41589142D01*
X84383523Y-41636761D01*
X84478761Y-41684380D01*
X84669238Y-41684380D01*
X84764476Y-41636761D01*
X84812095Y-41589142D01*
X84859714Y-41493904D01*
X84859714Y-41303428D01*
X84812095Y-41208190D01*
X84764476Y-41160571D01*
X84669238Y-41112952D01*
%TO.C,R9*%
X83907333Y-35588380D02*
X83574000Y-35112190D01*
X83335904Y-35588380D02*
X83335904Y-34588380D01*
X83716857Y-34588380D01*
X83812095Y-34636000D01*
X83859714Y-34683619D01*
X83907333Y-34778857D01*
X83907333Y-34921714D01*
X83859714Y-35016952D01*
X83812095Y-35064571D01*
X83716857Y-35112190D01*
X83335904Y-35112190D01*
X84383523Y-35588380D02*
X84574000Y-35588380D01*
X84669238Y-35540761D01*
X84716857Y-35493142D01*
X84812095Y-35350285D01*
X84859714Y-35159809D01*
X84859714Y-34778857D01*
X84812095Y-34683619D01*
X84764476Y-34636000D01*
X84669238Y-34588380D01*
X84478761Y-34588380D01*
X84383523Y-34636000D01*
X84335904Y-34683619D01*
X84288285Y-34778857D01*
X84288285Y-35016952D01*
X84335904Y-35112190D01*
X84383523Y-35159809D01*
X84478761Y-35207428D01*
X84669238Y-35207428D01*
X84764476Y-35159809D01*
X84812095Y-35112190D01*
X84859714Y-35016952D01*
%TO.C,R11*%
X120256380Y-77858857D02*
X119780190Y-78192190D01*
X120256380Y-78430285D02*
X119256380Y-78430285D01*
X119256380Y-78049333D01*
X119304000Y-77954095D01*
X119351619Y-77906476D01*
X119446857Y-77858857D01*
X119589714Y-77858857D01*
X119684952Y-77906476D01*
X119732571Y-77954095D01*
X119780190Y-78049333D01*
X119780190Y-78430285D01*
X120256380Y-76906476D02*
X120256380Y-77477904D01*
X120256380Y-77192190D02*
X119256380Y-77192190D01*
X119399238Y-77287428D01*
X119494476Y-77382666D01*
X119542095Y-77477904D01*
X120256380Y-75954095D02*
X120256380Y-76525523D01*
X120256380Y-76239809D02*
X119256380Y-76239809D01*
X119399238Y-76335047D01*
X119494476Y-76430285D01*
X119542095Y-76525523D01*
%TO.C,R12*%
X117462380Y-58300857D02*
X116986190Y-58634190D01*
X117462380Y-58872285D02*
X116462380Y-58872285D01*
X116462380Y-58491333D01*
X116510000Y-58396095D01*
X116557619Y-58348476D01*
X116652857Y-58300857D01*
X116795714Y-58300857D01*
X116890952Y-58348476D01*
X116938571Y-58396095D01*
X116986190Y-58491333D01*
X116986190Y-58872285D01*
X117462380Y-57348476D02*
X117462380Y-57919904D01*
X117462380Y-57634190D02*
X116462380Y-57634190D01*
X116605238Y-57729428D01*
X116700476Y-57824666D01*
X116748095Y-57919904D01*
X116557619Y-56967523D02*
X116510000Y-56919904D01*
X116462380Y-56824666D01*
X116462380Y-56586571D01*
X116510000Y-56491333D01*
X116557619Y-56443714D01*
X116652857Y-56396095D01*
X116748095Y-56396095D01*
X116890952Y-56443714D01*
X117462380Y-57015142D01*
X117462380Y-56396095D01*
%TO.C,R13*%
X163096380Y-49918857D02*
X162620190Y-50252190D01*
X163096380Y-50490285D02*
X162096380Y-50490285D01*
X162096380Y-50109333D01*
X162144000Y-50014095D01*
X162191619Y-49966476D01*
X162286857Y-49918857D01*
X162429714Y-49918857D01*
X162524952Y-49966476D01*
X162572571Y-50014095D01*
X162620190Y-50109333D01*
X162620190Y-50490285D01*
X163096380Y-48966476D02*
X163096380Y-49537904D01*
X163096380Y-49252190D02*
X162096380Y-49252190D01*
X162239238Y-49347428D01*
X162334476Y-49442666D01*
X162382095Y-49537904D01*
X162096380Y-48633142D02*
X162096380Y-48014095D01*
X162477333Y-48347428D01*
X162477333Y-48204571D01*
X162524952Y-48109333D01*
X162572571Y-48061714D01*
X162667809Y-48014095D01*
X162905904Y-48014095D01*
X163001142Y-48061714D01*
X163048761Y-48109333D01*
X163096380Y-48204571D01*
X163096380Y-48490285D01*
X163048761Y-48585523D01*
X163001142Y-48633142D01*
%TO.C,R14*%
X123812380Y-48902857D02*
X123336190Y-49236190D01*
X123812380Y-49474285D02*
X122812380Y-49474285D01*
X122812380Y-49093333D01*
X122860000Y-48998095D01*
X122907619Y-48950476D01*
X123002857Y-48902857D01*
X123145714Y-48902857D01*
X123240952Y-48950476D01*
X123288571Y-48998095D01*
X123336190Y-49093333D01*
X123336190Y-49474285D01*
X123812380Y-47950476D02*
X123812380Y-48521904D01*
X123812380Y-48236190D02*
X122812380Y-48236190D01*
X122955238Y-48331428D01*
X123050476Y-48426666D01*
X123098095Y-48521904D01*
X123145714Y-47093333D02*
X123812380Y-47093333D01*
X122764761Y-47331428D02*
X123479047Y-47569523D01*
X123479047Y-46950476D01*
%TO.C,U1*%
X142494095Y-90892380D02*
X142494095Y-91701904D01*
X142541714Y-91797142D01*
X142589333Y-91844761D01*
X142684571Y-91892380D01*
X142875047Y-91892380D01*
X142970285Y-91844761D01*
X143017904Y-91797142D01*
X143065523Y-91701904D01*
X143065523Y-90892380D01*
X144065523Y-91892380D02*
X143494095Y-91892380D01*
X143779809Y-91892380D02*
X143779809Y-90892380D01*
X143684571Y-91035238D01*
X143589333Y-91130476D01*
X143494095Y-91178095D01*
X132486476Y-37700000D02*
X132410285Y-37661904D01*
X132296000Y-37661904D01*
X132181714Y-37700000D01*
X132105523Y-37776190D01*
X132067428Y-37852380D01*
X132029333Y-38004761D01*
X132029333Y-38119047D01*
X132067428Y-38271428D01*
X132105523Y-38347619D01*
X132181714Y-38423809D01*
X132296000Y-38461904D01*
X132372190Y-38461904D01*
X132486476Y-38423809D01*
X132524571Y-38385714D01*
X132524571Y-38119047D01*
X132372190Y-38119047D01*
X132867428Y-38461904D02*
X132867428Y-37661904D01*
X133324571Y-38461904D01*
X133324571Y-37661904D01*
X133705523Y-38461904D02*
X133705523Y-37661904D01*
X133896000Y-37661904D01*
X134010285Y-37700000D01*
X134086476Y-37776190D01*
X134124571Y-37852380D01*
X134162666Y-38004761D01*
X134162666Y-38119047D01*
X134124571Y-38271428D01*
X134086476Y-38347619D01*
X134010285Y-38423809D01*
X133896000Y-38461904D01*
X133705523Y-38461904D01*
X132105523Y-42741904D02*
X132600761Y-42741904D01*
X132334095Y-43046666D01*
X132448380Y-43046666D01*
X132524571Y-43084761D01*
X132562666Y-43122857D01*
X132600761Y-43199047D01*
X132600761Y-43389523D01*
X132562666Y-43465714D01*
X132524571Y-43503809D01*
X132448380Y-43541904D01*
X132219809Y-43541904D01*
X132143619Y-43503809D01*
X132105523Y-43465714D01*
X132829333Y-42741904D02*
X133096000Y-43541904D01*
X133362666Y-42741904D01*
X133553142Y-42741904D02*
X134048380Y-42741904D01*
X133781714Y-43046666D01*
X133896000Y-43046666D01*
X133972190Y-43084761D01*
X134010285Y-43122857D01*
X134048380Y-43199047D01*
X134048380Y-43389523D01*
X134010285Y-43465714D01*
X133972190Y-43503809D01*
X133896000Y-43541904D01*
X133667428Y-43541904D01*
X133591238Y-43503809D01*
X133553142Y-43465714D01*
X132943619Y-40201904D02*
X132562666Y-40201904D01*
X132524571Y-40582857D01*
X132562666Y-40544761D01*
X132638857Y-40506666D01*
X132829333Y-40506666D01*
X132905523Y-40544761D01*
X132943619Y-40582857D01*
X132981714Y-40659047D01*
X132981714Y-40849523D01*
X132943619Y-40925714D01*
X132905523Y-40963809D01*
X132829333Y-41001904D01*
X132638857Y-41001904D01*
X132562666Y-40963809D01*
X132524571Y-40925714D01*
X133210285Y-40201904D02*
X133476952Y-41001904D01*
X133743619Y-40201904D01*
X132486476Y-45320000D02*
X132410285Y-45281904D01*
X132296000Y-45281904D01*
X132181714Y-45320000D01*
X132105523Y-45396190D01*
X132067428Y-45472380D01*
X132029333Y-45624761D01*
X132029333Y-45739047D01*
X132067428Y-45891428D01*
X132105523Y-45967619D01*
X132181714Y-46043809D01*
X132296000Y-46081904D01*
X132372190Y-46081904D01*
X132486476Y-46043809D01*
X132524571Y-46005714D01*
X132524571Y-45739047D01*
X132372190Y-45739047D01*
X132867428Y-46081904D02*
X132867428Y-45281904D01*
X133324571Y-46081904D01*
X133324571Y-45281904D01*
X133705523Y-46081904D02*
X133705523Y-45281904D01*
X133896000Y-45281904D01*
X134010285Y-45320000D01*
X134086476Y-45396190D01*
X134124571Y-45472380D01*
X134162666Y-45624761D01*
X134162666Y-45739047D01*
X134124571Y-45891428D01*
X134086476Y-45967619D01*
X134010285Y-46043809D01*
X133896000Y-46081904D01*
X133705523Y-46081904D01*
X134455047Y-47860000D02*
X134378857Y-47821904D01*
X134264571Y-47821904D01*
X134150285Y-47860000D01*
X134074095Y-47936190D01*
X134036000Y-48012380D01*
X133997904Y-48164761D01*
X133997904Y-48279047D01*
X134036000Y-48431428D01*
X134074095Y-48507619D01*
X134150285Y-48583809D01*
X134264571Y-48621904D01*
X134340761Y-48621904D01*
X134455047Y-48583809D01*
X134493142Y-48545714D01*
X134493142Y-48279047D01*
X134340761Y-48279047D01*
X134836000Y-48621904D02*
X134836000Y-47821904D01*
X135140761Y-47821904D01*
X135216952Y-47860000D01*
X135255047Y-47898095D01*
X135293142Y-47974285D01*
X135293142Y-48088571D01*
X135255047Y-48164761D01*
X135216952Y-48202857D01*
X135140761Y-48240952D01*
X134836000Y-48240952D01*
X135636000Y-48621904D02*
X135636000Y-47821904D01*
X136169333Y-47821904D02*
X136321714Y-47821904D01*
X136397904Y-47860000D01*
X136474095Y-47936190D01*
X136512190Y-48088571D01*
X136512190Y-48355238D01*
X136474095Y-48507619D01*
X136397904Y-48583809D01*
X136321714Y-48621904D01*
X136169333Y-48621904D01*
X136093142Y-48583809D01*
X136016952Y-48507619D01*
X135978857Y-48355238D01*
X135978857Y-48088571D01*
X136016952Y-47936190D01*
X136093142Y-47860000D01*
X136169333Y-47821904D01*
X136778857Y-47821904D02*
X137274095Y-47821904D01*
X137007428Y-48126666D01*
X137121714Y-48126666D01*
X137197904Y-48164761D01*
X137236000Y-48202857D01*
X137274095Y-48279047D01*
X137274095Y-48469523D01*
X137236000Y-48545714D01*
X137197904Y-48583809D01*
X137121714Y-48621904D01*
X136893142Y-48621904D01*
X136816952Y-48583809D01*
X136778857Y-48545714D01*
X134455047Y-50400000D02*
X134378857Y-50361904D01*
X134264571Y-50361904D01*
X134150285Y-50400000D01*
X134074095Y-50476190D01*
X134036000Y-50552380D01*
X133997904Y-50704761D01*
X133997904Y-50819047D01*
X134036000Y-50971428D01*
X134074095Y-51047619D01*
X134150285Y-51123809D01*
X134264571Y-51161904D01*
X134340761Y-51161904D01*
X134455047Y-51123809D01*
X134493142Y-51085714D01*
X134493142Y-50819047D01*
X134340761Y-50819047D01*
X134836000Y-51161904D02*
X134836000Y-50361904D01*
X135140761Y-50361904D01*
X135216952Y-50400000D01*
X135255047Y-50438095D01*
X135293142Y-50514285D01*
X135293142Y-50628571D01*
X135255047Y-50704761D01*
X135216952Y-50742857D01*
X135140761Y-50780952D01*
X134836000Y-50780952D01*
X135636000Y-51161904D02*
X135636000Y-50361904D01*
X136169333Y-50361904D02*
X136321714Y-50361904D01*
X136397904Y-50400000D01*
X136474095Y-50476190D01*
X136512190Y-50628571D01*
X136512190Y-50895238D01*
X136474095Y-51047619D01*
X136397904Y-51123809D01*
X136321714Y-51161904D01*
X136169333Y-51161904D01*
X136093142Y-51123809D01*
X136016952Y-51047619D01*
X135978857Y-50895238D01*
X135978857Y-50628571D01*
X136016952Y-50476190D01*
X136093142Y-50400000D01*
X136169333Y-50361904D01*
X137274095Y-51161904D02*
X136816952Y-51161904D01*
X137045523Y-51161904D02*
X137045523Y-50361904D01*
X136969333Y-50476190D01*
X136893142Y-50552380D01*
X136816952Y-50590476D01*
X132657904Y-53701904D02*
X132391238Y-53320952D01*
X132200761Y-53701904D02*
X132200761Y-52901904D01*
X132505523Y-52901904D01*
X132581714Y-52940000D01*
X132619809Y-52978095D01*
X132657904Y-53054285D01*
X132657904Y-53168571D01*
X132619809Y-53244761D01*
X132581714Y-53282857D01*
X132505523Y-53320952D01*
X132200761Y-53320952D01*
X132962666Y-53663809D02*
X133076952Y-53701904D01*
X133267428Y-53701904D01*
X133343619Y-53663809D01*
X133381714Y-53625714D01*
X133419809Y-53549523D01*
X133419809Y-53473333D01*
X133381714Y-53397142D01*
X133343619Y-53359047D01*
X133267428Y-53320952D01*
X133115047Y-53282857D01*
X133038857Y-53244761D01*
X133000761Y-53206666D01*
X132962666Y-53130476D01*
X132962666Y-53054285D01*
X133000761Y-52978095D01*
X133038857Y-52940000D01*
X133115047Y-52901904D01*
X133305523Y-52901904D01*
X133419809Y-52940000D01*
X133648380Y-52901904D02*
X134105523Y-52901904D01*
X133876952Y-53701904D02*
X133876952Y-52901904D01*
X134455047Y-55480000D02*
X134378857Y-55441904D01*
X134264571Y-55441904D01*
X134150285Y-55480000D01*
X134074095Y-55556190D01*
X134036000Y-55632380D01*
X133997904Y-55784761D01*
X133997904Y-55899047D01*
X134036000Y-56051428D01*
X134074095Y-56127619D01*
X134150285Y-56203809D01*
X134264571Y-56241904D01*
X134340761Y-56241904D01*
X134455047Y-56203809D01*
X134493142Y-56165714D01*
X134493142Y-55899047D01*
X134340761Y-55899047D01*
X134836000Y-56241904D02*
X134836000Y-55441904D01*
X135140761Y-55441904D01*
X135216952Y-55480000D01*
X135255047Y-55518095D01*
X135293142Y-55594285D01*
X135293142Y-55708571D01*
X135255047Y-55784761D01*
X135216952Y-55822857D01*
X135140761Y-55860952D01*
X134836000Y-55860952D01*
X135636000Y-56241904D02*
X135636000Y-55441904D01*
X136169333Y-55441904D02*
X136321714Y-55441904D01*
X136397904Y-55480000D01*
X136474095Y-55556190D01*
X136512190Y-55708571D01*
X136512190Y-55975238D01*
X136474095Y-56127619D01*
X136397904Y-56203809D01*
X136321714Y-56241904D01*
X136169333Y-56241904D01*
X136093142Y-56203809D01*
X136016952Y-56127619D01*
X135978857Y-55975238D01*
X135978857Y-55708571D01*
X136016952Y-55556190D01*
X136093142Y-55480000D01*
X136169333Y-55441904D01*
X137007428Y-55441904D02*
X137083619Y-55441904D01*
X137159809Y-55480000D01*
X137197904Y-55518095D01*
X137236000Y-55594285D01*
X137274095Y-55746666D01*
X137274095Y-55937142D01*
X137236000Y-56089523D01*
X137197904Y-56165714D01*
X137159809Y-56203809D01*
X137083619Y-56241904D01*
X137007428Y-56241904D01*
X136931238Y-56203809D01*
X136893142Y-56165714D01*
X136855047Y-56089523D01*
X136816952Y-55937142D01*
X136816952Y-55746666D01*
X136855047Y-55594285D01*
X136893142Y-55518095D01*
X136931238Y-55480000D01*
X137007428Y-55441904D01*
X134074095Y-58020000D02*
X133997904Y-57981904D01*
X133883619Y-57981904D01*
X133769333Y-58020000D01*
X133693142Y-58096190D01*
X133655047Y-58172380D01*
X133616952Y-58324761D01*
X133616952Y-58439047D01*
X133655047Y-58591428D01*
X133693142Y-58667619D01*
X133769333Y-58743809D01*
X133883619Y-58781904D01*
X133959809Y-58781904D01*
X134074095Y-58743809D01*
X134112190Y-58705714D01*
X134112190Y-58439047D01*
X133959809Y-58439047D01*
X134455047Y-58781904D02*
X134455047Y-57981904D01*
X134759809Y-57981904D01*
X134836000Y-58020000D01*
X134874095Y-58058095D01*
X134912190Y-58134285D01*
X134912190Y-58248571D01*
X134874095Y-58324761D01*
X134836000Y-58362857D01*
X134759809Y-58400952D01*
X134455047Y-58400952D01*
X135255047Y-58781904D02*
X135255047Y-57981904D01*
X135788380Y-57981904D02*
X135940761Y-57981904D01*
X136016952Y-58020000D01*
X136093142Y-58096190D01*
X136131238Y-58248571D01*
X136131238Y-58515238D01*
X136093142Y-58667619D01*
X136016952Y-58743809D01*
X135940761Y-58781904D01*
X135788380Y-58781904D01*
X135712190Y-58743809D01*
X135636000Y-58667619D01*
X135597904Y-58515238D01*
X135597904Y-58248571D01*
X135636000Y-58096190D01*
X135712190Y-58020000D01*
X135788380Y-57981904D01*
X136436000Y-58058095D02*
X136474095Y-58020000D01*
X136550285Y-57981904D01*
X136740761Y-57981904D01*
X136816952Y-58020000D01*
X136855047Y-58058095D01*
X136893142Y-58134285D01*
X136893142Y-58210476D01*
X136855047Y-58324761D01*
X136397904Y-58781904D01*
X136893142Y-58781904D01*
X137197904Y-58058095D02*
X137236000Y-58020000D01*
X137312190Y-57981904D01*
X137502666Y-57981904D01*
X137578857Y-58020000D01*
X137616952Y-58058095D01*
X137655047Y-58134285D01*
X137655047Y-58210476D01*
X137616952Y-58324761D01*
X137159809Y-58781904D01*
X137655047Y-58781904D01*
X134074095Y-60560000D02*
X133997904Y-60521904D01*
X133883619Y-60521904D01*
X133769333Y-60560000D01*
X133693142Y-60636190D01*
X133655047Y-60712380D01*
X133616952Y-60864761D01*
X133616952Y-60979047D01*
X133655047Y-61131428D01*
X133693142Y-61207619D01*
X133769333Y-61283809D01*
X133883619Y-61321904D01*
X133959809Y-61321904D01*
X134074095Y-61283809D01*
X134112190Y-61245714D01*
X134112190Y-60979047D01*
X133959809Y-60979047D01*
X134455047Y-61321904D02*
X134455047Y-60521904D01*
X134759809Y-60521904D01*
X134836000Y-60560000D01*
X134874095Y-60598095D01*
X134912190Y-60674285D01*
X134912190Y-60788571D01*
X134874095Y-60864761D01*
X134836000Y-60902857D01*
X134759809Y-60940952D01*
X134455047Y-60940952D01*
X135255047Y-61321904D02*
X135255047Y-60521904D01*
X135788380Y-60521904D02*
X135940761Y-60521904D01*
X136016952Y-60560000D01*
X136093142Y-60636190D01*
X136131238Y-60788571D01*
X136131238Y-61055238D01*
X136093142Y-61207619D01*
X136016952Y-61283809D01*
X135940761Y-61321904D01*
X135788380Y-61321904D01*
X135712190Y-61283809D01*
X135636000Y-61207619D01*
X135597904Y-61055238D01*
X135597904Y-60788571D01*
X135636000Y-60636190D01*
X135712190Y-60560000D01*
X135788380Y-60521904D01*
X136893142Y-61321904D02*
X136436000Y-61321904D01*
X136664571Y-61321904D02*
X136664571Y-60521904D01*
X136588380Y-60636190D01*
X136512190Y-60712380D01*
X136436000Y-60750476D01*
X137274095Y-61321904D02*
X137426476Y-61321904D01*
X137502666Y-61283809D01*
X137540761Y-61245714D01*
X137616952Y-61131428D01*
X137655047Y-60979047D01*
X137655047Y-60674285D01*
X137616952Y-60598095D01*
X137578857Y-60560000D01*
X137502666Y-60521904D01*
X137350285Y-60521904D01*
X137274095Y-60560000D01*
X137236000Y-60598095D01*
X137197904Y-60674285D01*
X137197904Y-60864761D01*
X137236000Y-60940952D01*
X137274095Y-60979047D01*
X137350285Y-61017142D01*
X137502666Y-61017142D01*
X137578857Y-60979047D01*
X137616952Y-60940952D01*
X137655047Y-60864761D01*
X134074095Y-63100000D02*
X133997904Y-63061904D01*
X133883619Y-63061904D01*
X133769333Y-63100000D01*
X133693142Y-63176190D01*
X133655047Y-63252380D01*
X133616952Y-63404761D01*
X133616952Y-63519047D01*
X133655047Y-63671428D01*
X133693142Y-63747619D01*
X133769333Y-63823809D01*
X133883619Y-63861904D01*
X133959809Y-63861904D01*
X134074095Y-63823809D01*
X134112190Y-63785714D01*
X134112190Y-63519047D01*
X133959809Y-63519047D01*
X134455047Y-63861904D02*
X134455047Y-63061904D01*
X134759809Y-63061904D01*
X134836000Y-63100000D01*
X134874095Y-63138095D01*
X134912190Y-63214285D01*
X134912190Y-63328571D01*
X134874095Y-63404761D01*
X134836000Y-63442857D01*
X134759809Y-63480952D01*
X134455047Y-63480952D01*
X135255047Y-63861904D02*
X135255047Y-63061904D01*
X135788380Y-63061904D02*
X135940761Y-63061904D01*
X136016952Y-63100000D01*
X136093142Y-63176190D01*
X136131238Y-63328571D01*
X136131238Y-63595238D01*
X136093142Y-63747619D01*
X136016952Y-63823809D01*
X135940761Y-63861904D01*
X135788380Y-63861904D01*
X135712190Y-63823809D01*
X135636000Y-63747619D01*
X135597904Y-63595238D01*
X135597904Y-63328571D01*
X135636000Y-63176190D01*
X135712190Y-63100000D01*
X135788380Y-63061904D01*
X136436000Y-63138095D02*
X136474095Y-63100000D01*
X136550285Y-63061904D01*
X136740761Y-63061904D01*
X136816952Y-63100000D01*
X136855047Y-63138095D01*
X136893142Y-63214285D01*
X136893142Y-63290476D01*
X136855047Y-63404761D01*
X136397904Y-63861904D01*
X136893142Y-63861904D01*
X137159809Y-63061904D02*
X137655047Y-63061904D01*
X137388380Y-63366666D01*
X137502666Y-63366666D01*
X137578857Y-63404761D01*
X137616952Y-63442857D01*
X137655047Y-63519047D01*
X137655047Y-63709523D01*
X137616952Y-63785714D01*
X137578857Y-63823809D01*
X137502666Y-63861904D01*
X137274095Y-63861904D01*
X137197904Y-63823809D01*
X137159809Y-63785714D01*
X134074095Y-65640000D02*
X133997904Y-65601904D01*
X133883619Y-65601904D01*
X133769333Y-65640000D01*
X133693142Y-65716190D01*
X133655047Y-65792380D01*
X133616952Y-65944761D01*
X133616952Y-66059047D01*
X133655047Y-66211428D01*
X133693142Y-66287619D01*
X133769333Y-66363809D01*
X133883619Y-66401904D01*
X133959809Y-66401904D01*
X134074095Y-66363809D01*
X134112190Y-66325714D01*
X134112190Y-66059047D01*
X133959809Y-66059047D01*
X134455047Y-66401904D02*
X134455047Y-65601904D01*
X134759809Y-65601904D01*
X134836000Y-65640000D01*
X134874095Y-65678095D01*
X134912190Y-65754285D01*
X134912190Y-65868571D01*
X134874095Y-65944761D01*
X134836000Y-65982857D01*
X134759809Y-66020952D01*
X134455047Y-66020952D01*
X135255047Y-66401904D02*
X135255047Y-65601904D01*
X135788380Y-65601904D02*
X135940761Y-65601904D01*
X136016952Y-65640000D01*
X136093142Y-65716190D01*
X136131238Y-65868571D01*
X136131238Y-66135238D01*
X136093142Y-66287619D01*
X136016952Y-66363809D01*
X135940761Y-66401904D01*
X135788380Y-66401904D01*
X135712190Y-66363809D01*
X135636000Y-66287619D01*
X135597904Y-66135238D01*
X135597904Y-65868571D01*
X135636000Y-65716190D01*
X135712190Y-65640000D01*
X135788380Y-65601904D01*
X136893142Y-66401904D02*
X136436000Y-66401904D01*
X136664571Y-66401904D02*
X136664571Y-65601904D01*
X136588380Y-65716190D01*
X136512190Y-65792380D01*
X136436000Y-65830476D01*
X137350285Y-65944761D02*
X137274095Y-65906666D01*
X137236000Y-65868571D01*
X137197904Y-65792380D01*
X137197904Y-65754285D01*
X137236000Y-65678095D01*
X137274095Y-65640000D01*
X137350285Y-65601904D01*
X137502666Y-65601904D01*
X137578857Y-65640000D01*
X137616952Y-65678095D01*
X137655047Y-65754285D01*
X137655047Y-65792380D01*
X137616952Y-65868571D01*
X137578857Y-65906666D01*
X137502666Y-65944761D01*
X137350285Y-65944761D01*
X137274095Y-65982857D01*
X137236000Y-66020952D01*
X137197904Y-66097142D01*
X137197904Y-66249523D01*
X137236000Y-66325714D01*
X137274095Y-66363809D01*
X137350285Y-66401904D01*
X137502666Y-66401904D01*
X137578857Y-66363809D01*
X137616952Y-66325714D01*
X137655047Y-66249523D01*
X137655047Y-66097142D01*
X137616952Y-66020952D01*
X137578857Y-65982857D01*
X137502666Y-65944761D01*
X134455047Y-68180000D02*
X134378857Y-68141904D01*
X134264571Y-68141904D01*
X134150285Y-68180000D01*
X134074095Y-68256190D01*
X134036000Y-68332380D01*
X133997904Y-68484761D01*
X133997904Y-68599047D01*
X134036000Y-68751428D01*
X134074095Y-68827619D01*
X134150285Y-68903809D01*
X134264571Y-68941904D01*
X134340761Y-68941904D01*
X134455047Y-68903809D01*
X134493142Y-68865714D01*
X134493142Y-68599047D01*
X134340761Y-68599047D01*
X134836000Y-68941904D02*
X134836000Y-68141904D01*
X135140761Y-68141904D01*
X135216952Y-68180000D01*
X135255047Y-68218095D01*
X135293142Y-68294285D01*
X135293142Y-68408571D01*
X135255047Y-68484761D01*
X135216952Y-68522857D01*
X135140761Y-68560952D01*
X134836000Y-68560952D01*
X135636000Y-68941904D02*
X135636000Y-68141904D01*
X136169333Y-68141904D02*
X136321714Y-68141904D01*
X136397904Y-68180000D01*
X136474095Y-68256190D01*
X136512190Y-68408571D01*
X136512190Y-68675238D01*
X136474095Y-68827619D01*
X136397904Y-68903809D01*
X136321714Y-68941904D01*
X136169333Y-68941904D01*
X136093142Y-68903809D01*
X136016952Y-68827619D01*
X135978857Y-68675238D01*
X135978857Y-68408571D01*
X136016952Y-68256190D01*
X136093142Y-68180000D01*
X136169333Y-68141904D01*
X137236000Y-68141904D02*
X136855047Y-68141904D01*
X136816952Y-68522857D01*
X136855047Y-68484761D01*
X136931238Y-68446666D01*
X137121714Y-68446666D01*
X137197904Y-68484761D01*
X137236000Y-68522857D01*
X137274095Y-68599047D01*
X137274095Y-68789523D01*
X137236000Y-68865714D01*
X137197904Y-68903809D01*
X137121714Y-68941904D01*
X136931238Y-68941904D01*
X136855047Y-68903809D01*
X136816952Y-68865714D01*
X134074095Y-70720000D02*
X133997904Y-70681904D01*
X133883619Y-70681904D01*
X133769333Y-70720000D01*
X133693142Y-70796190D01*
X133655047Y-70872380D01*
X133616952Y-71024761D01*
X133616952Y-71139047D01*
X133655047Y-71291428D01*
X133693142Y-71367619D01*
X133769333Y-71443809D01*
X133883619Y-71481904D01*
X133959809Y-71481904D01*
X134074095Y-71443809D01*
X134112190Y-71405714D01*
X134112190Y-71139047D01*
X133959809Y-71139047D01*
X134455047Y-71481904D02*
X134455047Y-70681904D01*
X134759809Y-70681904D01*
X134836000Y-70720000D01*
X134874095Y-70758095D01*
X134912190Y-70834285D01*
X134912190Y-70948571D01*
X134874095Y-71024761D01*
X134836000Y-71062857D01*
X134759809Y-71100952D01*
X134455047Y-71100952D01*
X135255047Y-71481904D02*
X135255047Y-70681904D01*
X135788380Y-70681904D02*
X135940761Y-70681904D01*
X136016952Y-70720000D01*
X136093142Y-70796190D01*
X136131238Y-70948571D01*
X136131238Y-71215238D01*
X136093142Y-71367619D01*
X136016952Y-71443809D01*
X135940761Y-71481904D01*
X135788380Y-71481904D01*
X135712190Y-71443809D01*
X135636000Y-71367619D01*
X135597904Y-71215238D01*
X135597904Y-70948571D01*
X135636000Y-70796190D01*
X135712190Y-70720000D01*
X135788380Y-70681904D01*
X136893142Y-71481904D02*
X136436000Y-71481904D01*
X136664571Y-71481904D02*
X136664571Y-70681904D01*
X136588380Y-70796190D01*
X136512190Y-70872380D01*
X136436000Y-70910476D01*
X137616952Y-70681904D02*
X137236000Y-70681904D01*
X137197904Y-71062857D01*
X137236000Y-71024761D01*
X137312190Y-70986666D01*
X137502666Y-70986666D01*
X137578857Y-71024761D01*
X137616952Y-71062857D01*
X137655047Y-71139047D01*
X137655047Y-71329523D01*
X137616952Y-71405714D01*
X137578857Y-71443809D01*
X137502666Y-71481904D01*
X137312190Y-71481904D01*
X137236000Y-71443809D01*
X137197904Y-71405714D01*
X134455047Y-73260000D02*
X134378857Y-73221904D01*
X134264571Y-73221904D01*
X134150285Y-73260000D01*
X134074095Y-73336190D01*
X134036000Y-73412380D01*
X133997904Y-73564761D01*
X133997904Y-73679047D01*
X134036000Y-73831428D01*
X134074095Y-73907619D01*
X134150285Y-73983809D01*
X134264571Y-74021904D01*
X134340761Y-74021904D01*
X134455047Y-73983809D01*
X134493142Y-73945714D01*
X134493142Y-73679047D01*
X134340761Y-73679047D01*
X134836000Y-74021904D02*
X134836000Y-73221904D01*
X135140761Y-73221904D01*
X135216952Y-73260000D01*
X135255047Y-73298095D01*
X135293142Y-73374285D01*
X135293142Y-73488571D01*
X135255047Y-73564761D01*
X135216952Y-73602857D01*
X135140761Y-73640952D01*
X134836000Y-73640952D01*
X135636000Y-74021904D02*
X135636000Y-73221904D01*
X136169333Y-73221904D02*
X136321714Y-73221904D01*
X136397904Y-73260000D01*
X136474095Y-73336190D01*
X136512190Y-73488571D01*
X136512190Y-73755238D01*
X136474095Y-73907619D01*
X136397904Y-73983809D01*
X136321714Y-74021904D01*
X136169333Y-74021904D01*
X136093142Y-73983809D01*
X136016952Y-73907619D01*
X135978857Y-73755238D01*
X135978857Y-73488571D01*
X136016952Y-73336190D01*
X136093142Y-73260000D01*
X136169333Y-73221904D01*
X136816952Y-73298095D02*
X136855047Y-73260000D01*
X136931238Y-73221904D01*
X137121714Y-73221904D01*
X137197904Y-73260000D01*
X137236000Y-73298095D01*
X137274095Y-73374285D01*
X137274095Y-73450476D01*
X137236000Y-73564761D01*
X136778857Y-74021904D01*
X137274095Y-74021904D01*
X134455047Y-75800000D02*
X134378857Y-75761904D01*
X134264571Y-75761904D01*
X134150285Y-75800000D01*
X134074095Y-75876190D01*
X134036000Y-75952380D01*
X133997904Y-76104761D01*
X133997904Y-76219047D01*
X134036000Y-76371428D01*
X134074095Y-76447619D01*
X134150285Y-76523809D01*
X134264571Y-76561904D01*
X134340761Y-76561904D01*
X134455047Y-76523809D01*
X134493142Y-76485714D01*
X134493142Y-76219047D01*
X134340761Y-76219047D01*
X134836000Y-76561904D02*
X134836000Y-75761904D01*
X135140761Y-75761904D01*
X135216952Y-75800000D01*
X135255047Y-75838095D01*
X135293142Y-75914285D01*
X135293142Y-76028571D01*
X135255047Y-76104761D01*
X135216952Y-76142857D01*
X135140761Y-76180952D01*
X134836000Y-76180952D01*
X135636000Y-76561904D02*
X135636000Y-75761904D01*
X136169333Y-75761904D02*
X136321714Y-75761904D01*
X136397904Y-75800000D01*
X136474095Y-75876190D01*
X136512190Y-76028571D01*
X136512190Y-76295238D01*
X136474095Y-76447619D01*
X136397904Y-76523809D01*
X136321714Y-76561904D01*
X136169333Y-76561904D01*
X136093142Y-76523809D01*
X136016952Y-76447619D01*
X135978857Y-76295238D01*
X135978857Y-76028571D01*
X136016952Y-75876190D01*
X136093142Y-75800000D01*
X136169333Y-75761904D01*
X137197904Y-76028571D02*
X137197904Y-76561904D01*
X137007428Y-75723809D02*
X136816952Y-76295238D01*
X137312190Y-76295238D01*
X134074095Y-78340000D02*
X133997904Y-78301904D01*
X133883619Y-78301904D01*
X133769333Y-78340000D01*
X133693142Y-78416190D01*
X133655047Y-78492380D01*
X133616952Y-78644761D01*
X133616952Y-78759047D01*
X133655047Y-78911428D01*
X133693142Y-78987619D01*
X133769333Y-79063809D01*
X133883619Y-79101904D01*
X133959809Y-79101904D01*
X134074095Y-79063809D01*
X134112190Y-79025714D01*
X134112190Y-78759047D01*
X133959809Y-78759047D01*
X134455047Y-79101904D02*
X134455047Y-78301904D01*
X134759809Y-78301904D01*
X134836000Y-78340000D01*
X134874095Y-78378095D01*
X134912190Y-78454285D01*
X134912190Y-78568571D01*
X134874095Y-78644761D01*
X134836000Y-78682857D01*
X134759809Y-78720952D01*
X134455047Y-78720952D01*
X135255047Y-79101904D02*
X135255047Y-78301904D01*
X135788380Y-78301904D02*
X135940761Y-78301904D01*
X136016952Y-78340000D01*
X136093142Y-78416190D01*
X136131238Y-78568571D01*
X136131238Y-78835238D01*
X136093142Y-78987619D01*
X136016952Y-79063809D01*
X135940761Y-79101904D01*
X135788380Y-79101904D01*
X135712190Y-79063809D01*
X135636000Y-78987619D01*
X135597904Y-78835238D01*
X135597904Y-78568571D01*
X135636000Y-78416190D01*
X135712190Y-78340000D01*
X135788380Y-78301904D01*
X136893142Y-79101904D02*
X136436000Y-79101904D01*
X136664571Y-79101904D02*
X136664571Y-78301904D01*
X136588380Y-78416190D01*
X136512190Y-78492380D01*
X136436000Y-78530476D01*
X137159809Y-78301904D02*
X137693142Y-78301904D01*
X137350285Y-79101904D01*
X134074095Y-80880000D02*
X133997904Y-80841904D01*
X133883619Y-80841904D01*
X133769333Y-80880000D01*
X133693142Y-80956190D01*
X133655047Y-81032380D01*
X133616952Y-81184761D01*
X133616952Y-81299047D01*
X133655047Y-81451428D01*
X133693142Y-81527619D01*
X133769333Y-81603809D01*
X133883619Y-81641904D01*
X133959809Y-81641904D01*
X134074095Y-81603809D01*
X134112190Y-81565714D01*
X134112190Y-81299047D01*
X133959809Y-81299047D01*
X134455047Y-81641904D02*
X134455047Y-80841904D01*
X134759809Y-80841904D01*
X134836000Y-80880000D01*
X134874095Y-80918095D01*
X134912190Y-80994285D01*
X134912190Y-81108571D01*
X134874095Y-81184761D01*
X134836000Y-81222857D01*
X134759809Y-81260952D01*
X134455047Y-81260952D01*
X135255047Y-81641904D02*
X135255047Y-80841904D01*
X135788380Y-80841904D02*
X135940761Y-80841904D01*
X136016952Y-80880000D01*
X136093142Y-80956190D01*
X136131238Y-81108571D01*
X136131238Y-81375238D01*
X136093142Y-81527619D01*
X136016952Y-81603809D01*
X135940761Y-81641904D01*
X135788380Y-81641904D01*
X135712190Y-81603809D01*
X135636000Y-81527619D01*
X135597904Y-81375238D01*
X135597904Y-81108571D01*
X135636000Y-80956190D01*
X135712190Y-80880000D01*
X135788380Y-80841904D01*
X136893142Y-81641904D02*
X136436000Y-81641904D01*
X136664571Y-81641904D02*
X136664571Y-80841904D01*
X136588380Y-80956190D01*
X136512190Y-81032380D01*
X136436000Y-81070476D01*
X137578857Y-80841904D02*
X137426476Y-80841904D01*
X137350285Y-80880000D01*
X137312190Y-80918095D01*
X137236000Y-81032380D01*
X137197904Y-81184761D01*
X137197904Y-81489523D01*
X137236000Y-81565714D01*
X137274095Y-81603809D01*
X137350285Y-81641904D01*
X137502666Y-81641904D01*
X137578857Y-81603809D01*
X137616952Y-81565714D01*
X137655047Y-81489523D01*
X137655047Y-81299047D01*
X137616952Y-81222857D01*
X137578857Y-81184761D01*
X137502666Y-81146666D01*
X137350285Y-81146666D01*
X137274095Y-81184761D01*
X137236000Y-81222857D01*
X137197904Y-81299047D01*
X152806476Y-37700000D02*
X152730285Y-37661904D01*
X152616000Y-37661904D01*
X152501714Y-37700000D01*
X152425523Y-37776190D01*
X152387428Y-37852380D01*
X152349333Y-38004761D01*
X152349333Y-38119047D01*
X152387428Y-38271428D01*
X152425523Y-38347619D01*
X152501714Y-38423809D01*
X152616000Y-38461904D01*
X152692190Y-38461904D01*
X152806476Y-38423809D01*
X152844571Y-38385714D01*
X152844571Y-38119047D01*
X152692190Y-38119047D01*
X153187428Y-38461904D02*
X153187428Y-37661904D01*
X153644571Y-38461904D01*
X153644571Y-37661904D01*
X154025523Y-38461904D02*
X154025523Y-37661904D01*
X154216000Y-37661904D01*
X154330285Y-37700000D01*
X154406476Y-37776190D01*
X154444571Y-37852380D01*
X154482666Y-38004761D01*
X154482666Y-38119047D01*
X154444571Y-38271428D01*
X154406476Y-38347619D01*
X154330285Y-38423809D01*
X154216000Y-38461904D01*
X154025523Y-38461904D01*
X153263619Y-40201904D02*
X152882666Y-40201904D01*
X152844571Y-40582857D01*
X152882666Y-40544761D01*
X152958857Y-40506666D01*
X153149333Y-40506666D01*
X153225523Y-40544761D01*
X153263619Y-40582857D01*
X153301714Y-40659047D01*
X153301714Y-40849523D01*
X153263619Y-40925714D01*
X153225523Y-40963809D01*
X153149333Y-41001904D01*
X152958857Y-41001904D01*
X152882666Y-40963809D01*
X152844571Y-40925714D01*
X153530285Y-40201904D02*
X153796952Y-41001904D01*
X154063619Y-40201904D01*
X152425523Y-42741904D02*
X152920761Y-42741904D01*
X152654095Y-43046666D01*
X152768380Y-43046666D01*
X152844571Y-43084761D01*
X152882666Y-43122857D01*
X152920761Y-43199047D01*
X152920761Y-43389523D01*
X152882666Y-43465714D01*
X152844571Y-43503809D01*
X152768380Y-43541904D01*
X152539809Y-43541904D01*
X152463619Y-43503809D01*
X152425523Y-43465714D01*
X153149333Y-42741904D02*
X153416000Y-43541904D01*
X153682666Y-42741904D01*
X153873142Y-42741904D02*
X154368380Y-42741904D01*
X154101714Y-43046666D01*
X154216000Y-43046666D01*
X154292190Y-43084761D01*
X154330285Y-43122857D01*
X154368380Y-43199047D01*
X154368380Y-43389523D01*
X154330285Y-43465714D01*
X154292190Y-43503809D01*
X154216000Y-43541904D01*
X153987428Y-43541904D01*
X153911238Y-43503809D01*
X153873142Y-43465714D01*
X149314095Y-45320000D02*
X149237904Y-45281904D01*
X149123619Y-45281904D01*
X149009333Y-45320000D01*
X148933142Y-45396190D01*
X148895047Y-45472380D01*
X148856952Y-45624761D01*
X148856952Y-45739047D01*
X148895047Y-45891428D01*
X148933142Y-45967619D01*
X149009333Y-46043809D01*
X149123619Y-46081904D01*
X149199809Y-46081904D01*
X149314095Y-46043809D01*
X149352190Y-46005714D01*
X149352190Y-45739047D01*
X149199809Y-45739047D01*
X149695047Y-46081904D02*
X149695047Y-45281904D01*
X149999809Y-45281904D01*
X150076000Y-45320000D01*
X150114095Y-45358095D01*
X150152190Y-45434285D01*
X150152190Y-45548571D01*
X150114095Y-45624761D01*
X150076000Y-45662857D01*
X149999809Y-45700952D01*
X149695047Y-45700952D01*
X150495047Y-46081904D02*
X150495047Y-45281904D01*
X151028380Y-45281904D02*
X151180761Y-45281904D01*
X151256952Y-45320000D01*
X151333142Y-45396190D01*
X151371238Y-45548571D01*
X151371238Y-45815238D01*
X151333142Y-45967619D01*
X151256952Y-46043809D01*
X151180761Y-46081904D01*
X151028380Y-46081904D01*
X150952190Y-46043809D01*
X150876000Y-45967619D01*
X150837904Y-45815238D01*
X150837904Y-45548571D01*
X150876000Y-45396190D01*
X150952190Y-45320000D01*
X151028380Y-45281904D01*
X151637904Y-45281904D02*
X152133142Y-45281904D01*
X151866476Y-45586666D01*
X151980761Y-45586666D01*
X152056952Y-45624761D01*
X152095047Y-45662857D01*
X152133142Y-45739047D01*
X152133142Y-45929523D01*
X152095047Y-46005714D01*
X152056952Y-46043809D01*
X151980761Y-46081904D01*
X151752190Y-46081904D01*
X151676000Y-46043809D01*
X151637904Y-46005714D01*
X152818857Y-45281904D02*
X152666476Y-45281904D01*
X152590285Y-45320000D01*
X152552190Y-45358095D01*
X152476000Y-45472380D01*
X152437904Y-45624761D01*
X152437904Y-45929523D01*
X152476000Y-46005714D01*
X152514095Y-46043809D01*
X152590285Y-46081904D01*
X152742666Y-46081904D01*
X152818857Y-46043809D01*
X152856952Y-46005714D01*
X152895047Y-45929523D01*
X152895047Y-45739047D01*
X152856952Y-45662857D01*
X152818857Y-45624761D01*
X152742666Y-45586666D01*
X152590285Y-45586666D01*
X152514095Y-45624761D01*
X152476000Y-45662857D01*
X152437904Y-45739047D01*
X149314095Y-47860000D02*
X149237904Y-47821904D01*
X149123619Y-47821904D01*
X149009333Y-47860000D01*
X148933142Y-47936190D01*
X148895047Y-48012380D01*
X148856952Y-48164761D01*
X148856952Y-48279047D01*
X148895047Y-48431428D01*
X148933142Y-48507619D01*
X149009333Y-48583809D01*
X149123619Y-48621904D01*
X149199809Y-48621904D01*
X149314095Y-48583809D01*
X149352190Y-48545714D01*
X149352190Y-48279047D01*
X149199809Y-48279047D01*
X149695047Y-48621904D02*
X149695047Y-47821904D01*
X149999809Y-47821904D01*
X150076000Y-47860000D01*
X150114095Y-47898095D01*
X150152190Y-47974285D01*
X150152190Y-48088571D01*
X150114095Y-48164761D01*
X150076000Y-48202857D01*
X149999809Y-48240952D01*
X149695047Y-48240952D01*
X150495047Y-48621904D02*
X150495047Y-47821904D01*
X151028380Y-47821904D02*
X151180761Y-47821904D01*
X151256952Y-47860000D01*
X151333142Y-47936190D01*
X151371238Y-48088571D01*
X151371238Y-48355238D01*
X151333142Y-48507619D01*
X151256952Y-48583809D01*
X151180761Y-48621904D01*
X151028380Y-48621904D01*
X150952190Y-48583809D01*
X150876000Y-48507619D01*
X150837904Y-48355238D01*
X150837904Y-48088571D01*
X150876000Y-47936190D01*
X150952190Y-47860000D01*
X151028380Y-47821904D01*
X151637904Y-47821904D02*
X152133142Y-47821904D01*
X151866476Y-48126666D01*
X151980761Y-48126666D01*
X152056952Y-48164761D01*
X152095047Y-48202857D01*
X152133142Y-48279047D01*
X152133142Y-48469523D01*
X152095047Y-48545714D01*
X152056952Y-48583809D01*
X151980761Y-48621904D01*
X151752190Y-48621904D01*
X151676000Y-48583809D01*
X151637904Y-48545714D01*
X152399809Y-47821904D02*
X152933142Y-47821904D01*
X152590285Y-48621904D01*
X149314095Y-50400000D02*
X149237904Y-50361904D01*
X149123619Y-50361904D01*
X149009333Y-50400000D01*
X148933142Y-50476190D01*
X148895047Y-50552380D01*
X148856952Y-50704761D01*
X148856952Y-50819047D01*
X148895047Y-50971428D01*
X148933142Y-51047619D01*
X149009333Y-51123809D01*
X149123619Y-51161904D01*
X149199809Y-51161904D01*
X149314095Y-51123809D01*
X149352190Y-51085714D01*
X149352190Y-50819047D01*
X149199809Y-50819047D01*
X149695047Y-51161904D02*
X149695047Y-50361904D01*
X149999809Y-50361904D01*
X150076000Y-50400000D01*
X150114095Y-50438095D01*
X150152190Y-50514285D01*
X150152190Y-50628571D01*
X150114095Y-50704761D01*
X150076000Y-50742857D01*
X149999809Y-50780952D01*
X149695047Y-50780952D01*
X150495047Y-51161904D02*
X150495047Y-50361904D01*
X151028380Y-50361904D02*
X151180761Y-50361904D01*
X151256952Y-50400000D01*
X151333142Y-50476190D01*
X151371238Y-50628571D01*
X151371238Y-50895238D01*
X151333142Y-51047619D01*
X151256952Y-51123809D01*
X151180761Y-51161904D01*
X151028380Y-51161904D01*
X150952190Y-51123809D01*
X150876000Y-51047619D01*
X150837904Y-50895238D01*
X150837904Y-50628571D01*
X150876000Y-50476190D01*
X150952190Y-50400000D01*
X151028380Y-50361904D01*
X151637904Y-50361904D02*
X152133142Y-50361904D01*
X151866476Y-50666666D01*
X151980761Y-50666666D01*
X152056952Y-50704761D01*
X152095047Y-50742857D01*
X152133142Y-50819047D01*
X152133142Y-51009523D01*
X152095047Y-51085714D01*
X152056952Y-51123809D01*
X151980761Y-51161904D01*
X151752190Y-51161904D01*
X151676000Y-51123809D01*
X151637904Y-51085714D01*
X152590285Y-50704761D02*
X152514095Y-50666666D01*
X152476000Y-50628571D01*
X152437904Y-50552380D01*
X152437904Y-50514285D01*
X152476000Y-50438095D01*
X152514095Y-50400000D01*
X152590285Y-50361904D01*
X152742666Y-50361904D01*
X152818857Y-50400000D01*
X152856952Y-50438095D01*
X152895047Y-50514285D01*
X152895047Y-50552380D01*
X152856952Y-50628571D01*
X152818857Y-50666666D01*
X152742666Y-50704761D01*
X152590285Y-50704761D01*
X152514095Y-50742857D01*
X152476000Y-50780952D01*
X152437904Y-50857142D01*
X152437904Y-51009523D01*
X152476000Y-51085714D01*
X152514095Y-51123809D01*
X152590285Y-51161904D01*
X152742666Y-51161904D01*
X152818857Y-51123809D01*
X152856952Y-51085714D01*
X152895047Y-51009523D01*
X152895047Y-50857142D01*
X152856952Y-50780952D01*
X152818857Y-50742857D01*
X152742666Y-50704761D01*
X149314095Y-52940000D02*
X149237904Y-52901904D01*
X149123619Y-52901904D01*
X149009333Y-52940000D01*
X148933142Y-53016190D01*
X148895047Y-53092380D01*
X148856952Y-53244761D01*
X148856952Y-53359047D01*
X148895047Y-53511428D01*
X148933142Y-53587619D01*
X149009333Y-53663809D01*
X149123619Y-53701904D01*
X149199809Y-53701904D01*
X149314095Y-53663809D01*
X149352190Y-53625714D01*
X149352190Y-53359047D01*
X149199809Y-53359047D01*
X149695047Y-53701904D02*
X149695047Y-52901904D01*
X149999809Y-52901904D01*
X150076000Y-52940000D01*
X150114095Y-52978095D01*
X150152190Y-53054285D01*
X150152190Y-53168571D01*
X150114095Y-53244761D01*
X150076000Y-53282857D01*
X149999809Y-53320952D01*
X149695047Y-53320952D01*
X150495047Y-53701904D02*
X150495047Y-52901904D01*
X151028380Y-52901904D02*
X151180761Y-52901904D01*
X151256952Y-52940000D01*
X151333142Y-53016190D01*
X151371238Y-53168571D01*
X151371238Y-53435238D01*
X151333142Y-53587619D01*
X151256952Y-53663809D01*
X151180761Y-53701904D01*
X151028380Y-53701904D01*
X150952190Y-53663809D01*
X150876000Y-53587619D01*
X150837904Y-53435238D01*
X150837904Y-53168571D01*
X150876000Y-53016190D01*
X150952190Y-52940000D01*
X151028380Y-52901904D01*
X151637904Y-52901904D02*
X152133142Y-52901904D01*
X151866476Y-53206666D01*
X151980761Y-53206666D01*
X152056952Y-53244761D01*
X152095047Y-53282857D01*
X152133142Y-53359047D01*
X152133142Y-53549523D01*
X152095047Y-53625714D01*
X152056952Y-53663809D01*
X151980761Y-53701904D01*
X151752190Y-53701904D01*
X151676000Y-53663809D01*
X151637904Y-53625714D01*
X152514095Y-53701904D02*
X152666476Y-53701904D01*
X152742666Y-53663809D01*
X152780761Y-53625714D01*
X152856952Y-53511428D01*
X152895047Y-53359047D01*
X152895047Y-53054285D01*
X152856952Y-52978095D01*
X152818857Y-52940000D01*
X152742666Y-52901904D01*
X152590285Y-52901904D01*
X152514095Y-52940000D01*
X152476000Y-52978095D01*
X152437904Y-53054285D01*
X152437904Y-53244761D01*
X152476000Y-53320952D01*
X152514095Y-53359047D01*
X152590285Y-53397142D01*
X152742666Y-53397142D01*
X152818857Y-53359047D01*
X152856952Y-53320952D01*
X152895047Y-53244761D01*
X149314095Y-55480000D02*
X149237904Y-55441904D01*
X149123619Y-55441904D01*
X149009333Y-55480000D01*
X148933142Y-55556190D01*
X148895047Y-55632380D01*
X148856952Y-55784761D01*
X148856952Y-55899047D01*
X148895047Y-56051428D01*
X148933142Y-56127619D01*
X149009333Y-56203809D01*
X149123619Y-56241904D01*
X149199809Y-56241904D01*
X149314095Y-56203809D01*
X149352190Y-56165714D01*
X149352190Y-55899047D01*
X149199809Y-55899047D01*
X149695047Y-56241904D02*
X149695047Y-55441904D01*
X149999809Y-55441904D01*
X150076000Y-55480000D01*
X150114095Y-55518095D01*
X150152190Y-55594285D01*
X150152190Y-55708571D01*
X150114095Y-55784761D01*
X150076000Y-55822857D01*
X149999809Y-55860952D01*
X149695047Y-55860952D01*
X150495047Y-56241904D02*
X150495047Y-55441904D01*
X151028380Y-55441904D02*
X151180761Y-55441904D01*
X151256952Y-55480000D01*
X151333142Y-55556190D01*
X151371238Y-55708571D01*
X151371238Y-55975238D01*
X151333142Y-56127619D01*
X151256952Y-56203809D01*
X151180761Y-56241904D01*
X151028380Y-56241904D01*
X150952190Y-56203809D01*
X150876000Y-56127619D01*
X150837904Y-55975238D01*
X150837904Y-55708571D01*
X150876000Y-55556190D01*
X150952190Y-55480000D01*
X151028380Y-55441904D01*
X151637904Y-55441904D02*
X152133142Y-55441904D01*
X151866476Y-55746666D01*
X151980761Y-55746666D01*
X152056952Y-55784761D01*
X152095047Y-55822857D01*
X152133142Y-55899047D01*
X152133142Y-56089523D01*
X152095047Y-56165714D01*
X152056952Y-56203809D01*
X151980761Y-56241904D01*
X151752190Y-56241904D01*
X151676000Y-56203809D01*
X151637904Y-56165714D01*
X152818857Y-55708571D02*
X152818857Y-56241904D01*
X152628380Y-55403809D02*
X152437904Y-55975238D01*
X152933142Y-55975238D01*
X149314095Y-58020000D02*
X149237904Y-57981904D01*
X149123619Y-57981904D01*
X149009333Y-58020000D01*
X148933142Y-58096190D01*
X148895047Y-58172380D01*
X148856952Y-58324761D01*
X148856952Y-58439047D01*
X148895047Y-58591428D01*
X148933142Y-58667619D01*
X149009333Y-58743809D01*
X149123619Y-58781904D01*
X149199809Y-58781904D01*
X149314095Y-58743809D01*
X149352190Y-58705714D01*
X149352190Y-58439047D01*
X149199809Y-58439047D01*
X149695047Y-58781904D02*
X149695047Y-57981904D01*
X149999809Y-57981904D01*
X150076000Y-58020000D01*
X150114095Y-58058095D01*
X150152190Y-58134285D01*
X150152190Y-58248571D01*
X150114095Y-58324761D01*
X150076000Y-58362857D01*
X149999809Y-58400952D01*
X149695047Y-58400952D01*
X150495047Y-58781904D02*
X150495047Y-57981904D01*
X151028380Y-57981904D02*
X151180761Y-57981904D01*
X151256952Y-58020000D01*
X151333142Y-58096190D01*
X151371238Y-58248571D01*
X151371238Y-58515238D01*
X151333142Y-58667619D01*
X151256952Y-58743809D01*
X151180761Y-58781904D01*
X151028380Y-58781904D01*
X150952190Y-58743809D01*
X150876000Y-58667619D01*
X150837904Y-58515238D01*
X150837904Y-58248571D01*
X150876000Y-58096190D01*
X150952190Y-58020000D01*
X151028380Y-57981904D01*
X151637904Y-57981904D02*
X152133142Y-57981904D01*
X151866476Y-58286666D01*
X151980761Y-58286666D01*
X152056952Y-58324761D01*
X152095047Y-58362857D01*
X152133142Y-58439047D01*
X152133142Y-58629523D01*
X152095047Y-58705714D01*
X152056952Y-58743809D01*
X151980761Y-58781904D01*
X151752190Y-58781904D01*
X151676000Y-58743809D01*
X151637904Y-58705714D01*
X152856952Y-57981904D02*
X152476000Y-57981904D01*
X152437904Y-58362857D01*
X152476000Y-58324761D01*
X152552190Y-58286666D01*
X152742666Y-58286666D01*
X152818857Y-58324761D01*
X152856952Y-58362857D01*
X152895047Y-58439047D01*
X152895047Y-58629523D01*
X152856952Y-58705714D01*
X152818857Y-58743809D01*
X152742666Y-58781904D01*
X152552190Y-58781904D01*
X152476000Y-58743809D01*
X152437904Y-58705714D01*
X149314095Y-60560000D02*
X149237904Y-60521904D01*
X149123619Y-60521904D01*
X149009333Y-60560000D01*
X148933142Y-60636190D01*
X148895047Y-60712380D01*
X148856952Y-60864761D01*
X148856952Y-60979047D01*
X148895047Y-61131428D01*
X148933142Y-61207619D01*
X149009333Y-61283809D01*
X149123619Y-61321904D01*
X149199809Y-61321904D01*
X149314095Y-61283809D01*
X149352190Y-61245714D01*
X149352190Y-60979047D01*
X149199809Y-60979047D01*
X149695047Y-61321904D02*
X149695047Y-60521904D01*
X149999809Y-60521904D01*
X150076000Y-60560000D01*
X150114095Y-60598095D01*
X150152190Y-60674285D01*
X150152190Y-60788571D01*
X150114095Y-60864761D01*
X150076000Y-60902857D01*
X149999809Y-60940952D01*
X149695047Y-60940952D01*
X150495047Y-61321904D02*
X150495047Y-60521904D01*
X151028380Y-60521904D02*
X151180761Y-60521904D01*
X151256952Y-60560000D01*
X151333142Y-60636190D01*
X151371238Y-60788571D01*
X151371238Y-61055238D01*
X151333142Y-61207619D01*
X151256952Y-61283809D01*
X151180761Y-61321904D01*
X151028380Y-61321904D01*
X150952190Y-61283809D01*
X150876000Y-61207619D01*
X150837904Y-61055238D01*
X150837904Y-60788571D01*
X150876000Y-60636190D01*
X150952190Y-60560000D01*
X151028380Y-60521904D01*
X151637904Y-60521904D02*
X152133142Y-60521904D01*
X151866476Y-60826666D01*
X151980761Y-60826666D01*
X152056952Y-60864761D01*
X152095047Y-60902857D01*
X152133142Y-60979047D01*
X152133142Y-61169523D01*
X152095047Y-61245714D01*
X152056952Y-61283809D01*
X151980761Y-61321904D01*
X151752190Y-61321904D01*
X151676000Y-61283809D01*
X151637904Y-61245714D01*
X152437904Y-60598095D02*
X152476000Y-60560000D01*
X152552190Y-60521904D01*
X152742666Y-60521904D01*
X152818857Y-60560000D01*
X152856952Y-60598095D01*
X152895047Y-60674285D01*
X152895047Y-60750476D01*
X152856952Y-60864761D01*
X152399809Y-61321904D01*
X152895047Y-61321904D01*
X149314095Y-63100000D02*
X149237904Y-63061904D01*
X149123619Y-63061904D01*
X149009333Y-63100000D01*
X148933142Y-63176190D01*
X148895047Y-63252380D01*
X148856952Y-63404761D01*
X148856952Y-63519047D01*
X148895047Y-63671428D01*
X148933142Y-63747619D01*
X149009333Y-63823809D01*
X149123619Y-63861904D01*
X149199809Y-63861904D01*
X149314095Y-63823809D01*
X149352190Y-63785714D01*
X149352190Y-63519047D01*
X149199809Y-63519047D01*
X149695047Y-63861904D02*
X149695047Y-63061904D01*
X149999809Y-63061904D01*
X150076000Y-63100000D01*
X150114095Y-63138095D01*
X150152190Y-63214285D01*
X150152190Y-63328571D01*
X150114095Y-63404761D01*
X150076000Y-63442857D01*
X149999809Y-63480952D01*
X149695047Y-63480952D01*
X150495047Y-63861904D02*
X150495047Y-63061904D01*
X151028380Y-63061904D02*
X151180761Y-63061904D01*
X151256952Y-63100000D01*
X151333142Y-63176190D01*
X151371238Y-63328571D01*
X151371238Y-63595238D01*
X151333142Y-63747619D01*
X151256952Y-63823809D01*
X151180761Y-63861904D01*
X151028380Y-63861904D01*
X150952190Y-63823809D01*
X150876000Y-63747619D01*
X150837904Y-63595238D01*
X150837904Y-63328571D01*
X150876000Y-63176190D01*
X150952190Y-63100000D01*
X151028380Y-63061904D01*
X151637904Y-63061904D02*
X152133142Y-63061904D01*
X151866476Y-63366666D01*
X151980761Y-63366666D01*
X152056952Y-63404761D01*
X152095047Y-63442857D01*
X152133142Y-63519047D01*
X152133142Y-63709523D01*
X152095047Y-63785714D01*
X152056952Y-63823809D01*
X151980761Y-63861904D01*
X151752190Y-63861904D01*
X151676000Y-63823809D01*
X151637904Y-63785714D01*
X152399809Y-63061904D02*
X152895047Y-63061904D01*
X152628380Y-63366666D01*
X152742666Y-63366666D01*
X152818857Y-63404761D01*
X152856952Y-63442857D01*
X152895047Y-63519047D01*
X152895047Y-63709523D01*
X152856952Y-63785714D01*
X152818857Y-63823809D01*
X152742666Y-63861904D01*
X152514095Y-63861904D01*
X152437904Y-63823809D01*
X152399809Y-63785714D01*
X149314095Y-65640000D02*
X149237904Y-65601904D01*
X149123619Y-65601904D01*
X149009333Y-65640000D01*
X148933142Y-65716190D01*
X148895047Y-65792380D01*
X148856952Y-65944761D01*
X148856952Y-66059047D01*
X148895047Y-66211428D01*
X148933142Y-66287619D01*
X149009333Y-66363809D01*
X149123619Y-66401904D01*
X149199809Y-66401904D01*
X149314095Y-66363809D01*
X149352190Y-66325714D01*
X149352190Y-66059047D01*
X149199809Y-66059047D01*
X149695047Y-66401904D02*
X149695047Y-65601904D01*
X149999809Y-65601904D01*
X150076000Y-65640000D01*
X150114095Y-65678095D01*
X150152190Y-65754285D01*
X150152190Y-65868571D01*
X150114095Y-65944761D01*
X150076000Y-65982857D01*
X149999809Y-66020952D01*
X149695047Y-66020952D01*
X150495047Y-66401904D02*
X150495047Y-65601904D01*
X151028380Y-65601904D02*
X151180761Y-65601904D01*
X151256952Y-65640000D01*
X151333142Y-65716190D01*
X151371238Y-65868571D01*
X151371238Y-66135238D01*
X151333142Y-66287619D01*
X151256952Y-66363809D01*
X151180761Y-66401904D01*
X151028380Y-66401904D01*
X150952190Y-66363809D01*
X150876000Y-66287619D01*
X150837904Y-66135238D01*
X150837904Y-65868571D01*
X150876000Y-65716190D01*
X150952190Y-65640000D01*
X151028380Y-65601904D01*
X151676000Y-65678095D02*
X151714095Y-65640000D01*
X151790285Y-65601904D01*
X151980761Y-65601904D01*
X152056952Y-65640000D01*
X152095047Y-65678095D01*
X152133142Y-65754285D01*
X152133142Y-65830476D01*
X152095047Y-65944761D01*
X151637904Y-66401904D01*
X152133142Y-66401904D01*
X152856952Y-65601904D02*
X152476000Y-65601904D01*
X152437904Y-65982857D01*
X152476000Y-65944761D01*
X152552190Y-65906666D01*
X152742666Y-65906666D01*
X152818857Y-65944761D01*
X152856952Y-65982857D01*
X152895047Y-66059047D01*
X152895047Y-66249523D01*
X152856952Y-66325714D01*
X152818857Y-66363809D01*
X152742666Y-66401904D01*
X152552190Y-66401904D01*
X152476000Y-66363809D01*
X152437904Y-66325714D01*
X149314095Y-68180000D02*
X149237904Y-68141904D01*
X149123619Y-68141904D01*
X149009333Y-68180000D01*
X148933142Y-68256190D01*
X148895047Y-68332380D01*
X148856952Y-68484761D01*
X148856952Y-68599047D01*
X148895047Y-68751428D01*
X148933142Y-68827619D01*
X149009333Y-68903809D01*
X149123619Y-68941904D01*
X149199809Y-68941904D01*
X149314095Y-68903809D01*
X149352190Y-68865714D01*
X149352190Y-68599047D01*
X149199809Y-68599047D01*
X149695047Y-68941904D02*
X149695047Y-68141904D01*
X149999809Y-68141904D01*
X150076000Y-68180000D01*
X150114095Y-68218095D01*
X150152190Y-68294285D01*
X150152190Y-68408571D01*
X150114095Y-68484761D01*
X150076000Y-68522857D01*
X149999809Y-68560952D01*
X149695047Y-68560952D01*
X150495047Y-68941904D02*
X150495047Y-68141904D01*
X151028380Y-68141904D02*
X151180761Y-68141904D01*
X151256952Y-68180000D01*
X151333142Y-68256190D01*
X151371238Y-68408571D01*
X151371238Y-68675238D01*
X151333142Y-68827619D01*
X151256952Y-68903809D01*
X151180761Y-68941904D01*
X151028380Y-68941904D01*
X150952190Y-68903809D01*
X150876000Y-68827619D01*
X150837904Y-68675238D01*
X150837904Y-68408571D01*
X150876000Y-68256190D01*
X150952190Y-68180000D01*
X151028380Y-68141904D01*
X151676000Y-68218095D02*
X151714095Y-68180000D01*
X151790285Y-68141904D01*
X151980761Y-68141904D01*
X152056952Y-68180000D01*
X152095047Y-68218095D01*
X152133142Y-68294285D01*
X152133142Y-68370476D01*
X152095047Y-68484761D01*
X151637904Y-68941904D01*
X152133142Y-68941904D01*
X152818857Y-68141904D02*
X152666476Y-68141904D01*
X152590285Y-68180000D01*
X152552190Y-68218095D01*
X152476000Y-68332380D01*
X152437904Y-68484761D01*
X152437904Y-68789523D01*
X152476000Y-68865714D01*
X152514095Y-68903809D01*
X152590285Y-68941904D01*
X152742666Y-68941904D01*
X152818857Y-68903809D01*
X152856952Y-68865714D01*
X152895047Y-68789523D01*
X152895047Y-68599047D01*
X152856952Y-68522857D01*
X152818857Y-68484761D01*
X152742666Y-68446666D01*
X152590285Y-68446666D01*
X152514095Y-68484761D01*
X152476000Y-68522857D01*
X152437904Y-68599047D01*
X149314095Y-70720000D02*
X149237904Y-70681904D01*
X149123619Y-70681904D01*
X149009333Y-70720000D01*
X148933142Y-70796190D01*
X148895047Y-70872380D01*
X148856952Y-71024761D01*
X148856952Y-71139047D01*
X148895047Y-71291428D01*
X148933142Y-71367619D01*
X149009333Y-71443809D01*
X149123619Y-71481904D01*
X149199809Y-71481904D01*
X149314095Y-71443809D01*
X149352190Y-71405714D01*
X149352190Y-71139047D01*
X149199809Y-71139047D01*
X149695047Y-71481904D02*
X149695047Y-70681904D01*
X149999809Y-70681904D01*
X150076000Y-70720000D01*
X150114095Y-70758095D01*
X150152190Y-70834285D01*
X150152190Y-70948571D01*
X150114095Y-71024761D01*
X150076000Y-71062857D01*
X149999809Y-71100952D01*
X149695047Y-71100952D01*
X150495047Y-71481904D02*
X150495047Y-70681904D01*
X151028380Y-70681904D02*
X151180761Y-70681904D01*
X151256952Y-70720000D01*
X151333142Y-70796190D01*
X151371238Y-70948571D01*
X151371238Y-71215238D01*
X151333142Y-71367619D01*
X151256952Y-71443809D01*
X151180761Y-71481904D01*
X151028380Y-71481904D01*
X150952190Y-71443809D01*
X150876000Y-71367619D01*
X150837904Y-71215238D01*
X150837904Y-70948571D01*
X150876000Y-70796190D01*
X150952190Y-70720000D01*
X151028380Y-70681904D01*
X151676000Y-70758095D02*
X151714095Y-70720000D01*
X151790285Y-70681904D01*
X151980761Y-70681904D01*
X152056952Y-70720000D01*
X152095047Y-70758095D01*
X152133142Y-70834285D01*
X152133142Y-70910476D01*
X152095047Y-71024761D01*
X151637904Y-71481904D01*
X152133142Y-71481904D01*
X152399809Y-70681904D02*
X152933142Y-70681904D01*
X152590285Y-71481904D01*
X149314095Y-73260000D02*
X149237904Y-73221904D01*
X149123619Y-73221904D01*
X149009333Y-73260000D01*
X148933142Y-73336190D01*
X148895047Y-73412380D01*
X148856952Y-73564761D01*
X148856952Y-73679047D01*
X148895047Y-73831428D01*
X148933142Y-73907619D01*
X149009333Y-73983809D01*
X149123619Y-74021904D01*
X149199809Y-74021904D01*
X149314095Y-73983809D01*
X149352190Y-73945714D01*
X149352190Y-73679047D01*
X149199809Y-73679047D01*
X149695047Y-74021904D02*
X149695047Y-73221904D01*
X149999809Y-73221904D01*
X150076000Y-73260000D01*
X150114095Y-73298095D01*
X150152190Y-73374285D01*
X150152190Y-73488571D01*
X150114095Y-73564761D01*
X150076000Y-73602857D01*
X149999809Y-73640952D01*
X149695047Y-73640952D01*
X150495047Y-74021904D02*
X150495047Y-73221904D01*
X151028380Y-73221904D02*
X151180761Y-73221904D01*
X151256952Y-73260000D01*
X151333142Y-73336190D01*
X151371238Y-73488571D01*
X151371238Y-73755238D01*
X151333142Y-73907619D01*
X151256952Y-73983809D01*
X151180761Y-74021904D01*
X151028380Y-74021904D01*
X150952190Y-73983809D01*
X150876000Y-73907619D01*
X150837904Y-73755238D01*
X150837904Y-73488571D01*
X150876000Y-73336190D01*
X150952190Y-73260000D01*
X151028380Y-73221904D01*
X152133142Y-74021904D02*
X151676000Y-74021904D01*
X151904571Y-74021904D02*
X151904571Y-73221904D01*
X151828380Y-73336190D01*
X151752190Y-73412380D01*
X151676000Y-73450476D01*
X152818857Y-73488571D02*
X152818857Y-74021904D01*
X152628380Y-73183809D02*
X152437904Y-73755238D01*
X152933142Y-73755238D01*
X149314095Y-75800000D02*
X149237904Y-75761904D01*
X149123619Y-75761904D01*
X149009333Y-75800000D01*
X148933142Y-75876190D01*
X148895047Y-75952380D01*
X148856952Y-76104761D01*
X148856952Y-76219047D01*
X148895047Y-76371428D01*
X148933142Y-76447619D01*
X149009333Y-76523809D01*
X149123619Y-76561904D01*
X149199809Y-76561904D01*
X149314095Y-76523809D01*
X149352190Y-76485714D01*
X149352190Y-76219047D01*
X149199809Y-76219047D01*
X149695047Y-76561904D02*
X149695047Y-75761904D01*
X149999809Y-75761904D01*
X150076000Y-75800000D01*
X150114095Y-75838095D01*
X150152190Y-75914285D01*
X150152190Y-76028571D01*
X150114095Y-76104761D01*
X150076000Y-76142857D01*
X149999809Y-76180952D01*
X149695047Y-76180952D01*
X150495047Y-76561904D02*
X150495047Y-75761904D01*
X151028380Y-75761904D02*
X151180761Y-75761904D01*
X151256952Y-75800000D01*
X151333142Y-75876190D01*
X151371238Y-76028571D01*
X151371238Y-76295238D01*
X151333142Y-76447619D01*
X151256952Y-76523809D01*
X151180761Y-76561904D01*
X151028380Y-76561904D01*
X150952190Y-76523809D01*
X150876000Y-76447619D01*
X150837904Y-76295238D01*
X150837904Y-76028571D01*
X150876000Y-75876190D01*
X150952190Y-75800000D01*
X151028380Y-75761904D01*
X152133142Y-76561904D02*
X151676000Y-76561904D01*
X151904571Y-76561904D02*
X151904571Y-75761904D01*
X151828380Y-75876190D01*
X151752190Y-75952380D01*
X151676000Y-75990476D01*
X152437904Y-75838095D02*
X152476000Y-75800000D01*
X152552190Y-75761904D01*
X152742666Y-75761904D01*
X152818857Y-75800000D01*
X152856952Y-75838095D01*
X152895047Y-75914285D01*
X152895047Y-75990476D01*
X152856952Y-76104761D01*
X152399809Y-76561904D01*
X152895047Y-76561904D01*
X149314095Y-78340000D02*
X149237904Y-78301904D01*
X149123619Y-78301904D01*
X149009333Y-78340000D01*
X148933142Y-78416190D01*
X148895047Y-78492380D01*
X148856952Y-78644761D01*
X148856952Y-78759047D01*
X148895047Y-78911428D01*
X148933142Y-78987619D01*
X149009333Y-79063809D01*
X149123619Y-79101904D01*
X149199809Y-79101904D01*
X149314095Y-79063809D01*
X149352190Y-79025714D01*
X149352190Y-78759047D01*
X149199809Y-78759047D01*
X149695047Y-79101904D02*
X149695047Y-78301904D01*
X149999809Y-78301904D01*
X150076000Y-78340000D01*
X150114095Y-78378095D01*
X150152190Y-78454285D01*
X150152190Y-78568571D01*
X150114095Y-78644761D01*
X150076000Y-78682857D01*
X149999809Y-78720952D01*
X149695047Y-78720952D01*
X150495047Y-79101904D02*
X150495047Y-78301904D01*
X151028380Y-78301904D02*
X151180761Y-78301904D01*
X151256952Y-78340000D01*
X151333142Y-78416190D01*
X151371238Y-78568571D01*
X151371238Y-78835238D01*
X151333142Y-78987619D01*
X151256952Y-79063809D01*
X151180761Y-79101904D01*
X151028380Y-79101904D01*
X150952190Y-79063809D01*
X150876000Y-78987619D01*
X150837904Y-78835238D01*
X150837904Y-78568571D01*
X150876000Y-78416190D01*
X150952190Y-78340000D01*
X151028380Y-78301904D01*
X152133142Y-79101904D02*
X151676000Y-79101904D01*
X151904571Y-79101904D02*
X151904571Y-78301904D01*
X151828380Y-78416190D01*
X151752190Y-78492380D01*
X151676000Y-78530476D01*
X152399809Y-78301904D02*
X152895047Y-78301904D01*
X152628380Y-78606666D01*
X152742666Y-78606666D01*
X152818857Y-78644761D01*
X152856952Y-78682857D01*
X152895047Y-78759047D01*
X152895047Y-78949523D01*
X152856952Y-79025714D01*
X152818857Y-79063809D01*
X152742666Y-79101904D01*
X152514095Y-79101904D01*
X152437904Y-79063809D01*
X152399809Y-79025714D01*
X149314095Y-80880000D02*
X149237904Y-80841904D01*
X149123619Y-80841904D01*
X149009333Y-80880000D01*
X148933142Y-80956190D01*
X148895047Y-81032380D01*
X148856952Y-81184761D01*
X148856952Y-81299047D01*
X148895047Y-81451428D01*
X148933142Y-81527619D01*
X149009333Y-81603809D01*
X149123619Y-81641904D01*
X149199809Y-81641904D01*
X149314095Y-81603809D01*
X149352190Y-81565714D01*
X149352190Y-81299047D01*
X149199809Y-81299047D01*
X149695047Y-81641904D02*
X149695047Y-80841904D01*
X149999809Y-80841904D01*
X150076000Y-80880000D01*
X150114095Y-80918095D01*
X150152190Y-80994285D01*
X150152190Y-81108571D01*
X150114095Y-81184761D01*
X150076000Y-81222857D01*
X149999809Y-81260952D01*
X149695047Y-81260952D01*
X150495047Y-81641904D02*
X150495047Y-80841904D01*
X151028380Y-80841904D02*
X151180761Y-80841904D01*
X151256952Y-80880000D01*
X151333142Y-80956190D01*
X151371238Y-81108571D01*
X151371238Y-81375238D01*
X151333142Y-81527619D01*
X151256952Y-81603809D01*
X151180761Y-81641904D01*
X151028380Y-81641904D01*
X150952190Y-81603809D01*
X150876000Y-81527619D01*
X150837904Y-81375238D01*
X150837904Y-81108571D01*
X150876000Y-80956190D01*
X150952190Y-80880000D01*
X151028380Y-80841904D01*
X151676000Y-80918095D02*
X151714095Y-80880000D01*
X151790285Y-80841904D01*
X151980761Y-80841904D01*
X152056952Y-80880000D01*
X152095047Y-80918095D01*
X152133142Y-80994285D01*
X152133142Y-81070476D01*
X152095047Y-81184761D01*
X151637904Y-81641904D01*
X152133142Y-81641904D01*
X152895047Y-81641904D02*
X152437904Y-81641904D01*
X152666476Y-81641904D02*
X152666476Y-80841904D01*
X152590285Y-80956190D01*
X152514095Y-81032380D01*
X152437904Y-81070476D01*
X140946476Y-86526666D02*
X141422666Y-86526666D01*
X140851238Y-86812380D02*
X141184571Y-85812380D01*
X141517904Y-86812380D01*
X141851238Y-86145714D02*
X141851238Y-86812380D01*
X141851238Y-86240952D02*
X141898857Y-86193333D01*
X141994095Y-86145714D01*
X142136952Y-86145714D01*
X142232190Y-86193333D01*
X142279809Y-86288571D01*
X142279809Y-86812380D01*
X142613142Y-86145714D02*
X142994095Y-86145714D01*
X142756000Y-85812380D02*
X142756000Y-86669523D01*
X142803619Y-86764761D01*
X142898857Y-86812380D01*
X142994095Y-86812380D01*
X143708380Y-86764761D02*
X143613142Y-86812380D01*
X143422666Y-86812380D01*
X143327428Y-86764761D01*
X143279809Y-86669523D01*
X143279809Y-86288571D01*
X143327428Y-86193333D01*
X143422666Y-86145714D01*
X143613142Y-86145714D01*
X143708380Y-86193333D01*
X143756000Y-86288571D01*
X143756000Y-86383809D01*
X143279809Y-86479047D01*
X144184571Y-86145714D02*
X144184571Y-86812380D01*
X144184571Y-86240952D02*
X144232190Y-86193333D01*
X144327428Y-86145714D01*
X144470285Y-86145714D01*
X144565523Y-86193333D01*
X144613142Y-86288571D01*
X144613142Y-86812380D01*
X145517904Y-86812380D02*
X145517904Y-86288571D01*
X145470285Y-86193333D01*
X145375047Y-86145714D01*
X145184571Y-86145714D01*
X145089333Y-86193333D01*
X145517904Y-86764761D02*
X145422666Y-86812380D01*
X145184571Y-86812380D01*
X145089333Y-86764761D01*
X145041714Y-86669523D01*
X145041714Y-86574285D01*
X145089333Y-86479047D01*
X145184571Y-86431428D01*
X145422666Y-86431428D01*
X145517904Y-86383809D01*
%TD*%
M02*
