%TF.GenerationSoftware,KiCad,Pcbnew,5.1.6-c6e7f7d~87~ubuntu20.04.1*%
%TF.CreationDate,2020-09-08T10:24:42-03:00*%
%TF.ProjectId,Projeto_placa,50726f6a-6574-46f5-9f70-6c6163612e6b,rev?*%
%TF.SameCoordinates,Original*%
%TF.FileFunction,Soldermask,Top*%
%TF.FilePolarity,Negative*%
%FSLAX46Y46*%
G04 Gerber Fmt 4.6, Leading zero omitted, Abs format (unit mm)*
G04 Created by KiCad (PCBNEW 5.1.6-c6e7f7d~87~ubuntu20.04.1) date 2020-09-08 10:24:42*
%MOMM*%
%LPD*%
G01*
G04 APERTURE LIST*
%TA.AperFunction,Profile*%
%ADD10C,0.050000*%
%TD*%
%ADD11R,1.800000X1.800000*%
%ADD12O,1.800000X1.800000*%
%ADD13R,1.900000X1.900000*%
%ADD14C,1.900000*%
%ADD15R,2.300000X2.300000*%
%ADD16O,2.300000X2.300000*%
%ADD17O,1.900000X3.700000*%
%ADD18O,3.700000X1.900000*%
%ADD19R,1.600000X1.100000*%
%ADD20R,2.080000X2.080000*%
%ADD21C,2.035000*%
%ADD22C,2.080000*%
%ADD23O,1.624000X3.148000*%
%ADD24O,3.148000X1.624000*%
%ADD25C,1.700000*%
%ADD26O,1.700000X1.700000*%
%ADD27C,1.624000*%
G04 APERTURE END LIST*
D10*
X72644000Y-29464000D02*
X72644000Y-113284000D01*
X170688000Y-29464000D02*
X72644000Y-29464000D01*
X170688000Y-113284000D02*
X170688000Y-29464000D01*
X72644000Y-113284000D02*
X170688000Y-113284000D01*
D11*
%TO.C,J9*%
X166852600Y-58496200D03*
D12*
X166852600Y-61036200D03*
X166852600Y-63576200D03*
X166852600Y-66116200D03*
X166852600Y-68656200D03*
X166852600Y-71196200D03*
X166852600Y-73736200D03*
X166852600Y-76276200D03*
%TD*%
D13*
%TO.C,D1*%
X100330000Y-96012000D03*
D14*
X97790000Y-96012000D03*
%TD*%
D15*
%TO.C,D2*%
X112014000Y-67564000D03*
D16*
X112014000Y-57404000D03*
%TD*%
D11*
%TO.C,J1*%
X128524000Y-109728000D03*
D12*
X131064000Y-109728000D03*
%TD*%
%TO.C,J2*%
X102362000Y-32512000D03*
X99822000Y-32512000D03*
D11*
X97282000Y-32512000D03*
%TD*%
%TO.C,J3*%
X83058000Y-109728000D03*
D12*
X80518000Y-109728000D03*
X77978000Y-109728000D03*
%TD*%
D11*
%TO.C,J4*%
X158750000Y-32512000D03*
D12*
X161290000Y-32512000D03*
X163830000Y-32512000D03*
X166370000Y-32512000D03*
%TD*%
%TO.C,J5*%
X166941500Y-40589200D03*
X166941500Y-43129200D03*
X166941500Y-45669200D03*
D11*
X166941500Y-48209200D03*
%TD*%
%TO.C,J6*%
X93980000Y-109728000D03*
D12*
X96520000Y-109728000D03*
X99060000Y-109728000D03*
X101600000Y-109728000D03*
%TD*%
D11*
%TO.C,J7*%
X112268000Y-109728000D03*
D12*
X114808000Y-109728000D03*
%TD*%
D11*
%TO.C,J8*%
X154940000Y-110236000D03*
D12*
X157480000Y-110236000D03*
X160020000Y-110236000D03*
X162560000Y-110236000D03*
X165100000Y-110236000D03*
X167640000Y-110236000D03*
%TD*%
%TO.C,J10*%
G36*
G01*
X146238000Y-106109889D02*
X146238000Y-109282111D01*
G75*
G02*
X145974111Y-109546000I-263889J0D01*
G01*
X144601889Y-109546000D01*
G75*
G02*
X144338000Y-109282111I0J263889D01*
G01*
X144338000Y-106109889D01*
G75*
G02*
X144601889Y-105846000I263889J0D01*
G01*
X145974111Y-105846000D01*
G75*
G02*
X146238000Y-106109889I0J-263889D01*
G01*
G37*
D17*
X140208000Y-107696000D03*
%TD*%
%TO.C,J11*%
G36*
G01*
X166940111Y-94930000D02*
X163767889Y-94930000D01*
G75*
G02*
X163504000Y-94666111I0J263889D01*
G01*
X163504000Y-93293889D01*
G75*
G02*
X163767889Y-93030000I263889J0D01*
G01*
X166940111Y-93030000D01*
G75*
G02*
X167204000Y-93293889I0J-263889D01*
G01*
X167204000Y-94666111D01*
G75*
G02*
X166940111Y-94930000I-263889J0D01*
G01*
G37*
D18*
X165354000Y-88900000D03*
X165354000Y-83820000D03*
%TD*%
D12*
%TO.C,J12*%
X146558000Y-93980000D03*
D11*
X149098000Y-93980000D03*
%TD*%
D18*
%TO.C,J13*%
X78232000Y-66040000D03*
X78232000Y-60960000D03*
G36*
G01*
X76645889Y-54930000D02*
X79818111Y-54930000D01*
G75*
G02*
X80082000Y-55193889I0J-263889D01*
G01*
X80082000Y-56566111D01*
G75*
G02*
X79818111Y-56830000I-263889J0D01*
G01*
X76645889Y-56830000D01*
G75*
G02*
X76382000Y-56566111I0J263889D01*
G01*
X76382000Y-55193889D01*
G75*
G02*
X76645889Y-54930000I263889J0D01*
G01*
G37*
%TD*%
D19*
%TO.C,JP1*%
X89916000Y-99426000D03*
X89916000Y-100726000D03*
%TD*%
D20*
%TO.C,K1*%
X103636000Y-66960000D03*
D21*
X105636000Y-60960000D03*
D22*
X103636000Y-54960000D03*
X91436000Y-54960000D03*
X91436000Y-66960000D03*
%TD*%
D23*
%TO.C,Q1*%
X106680000Y-88900000D03*
X109220000Y-88900000D03*
X111760000Y-88900000D03*
%TD*%
%TO.C,Q2*%
X103378000Y-39624000D03*
X100838000Y-39624000D03*
X98298000Y-39624000D03*
%TD*%
D24*
%TO.C,Q3*%
X118872000Y-40894000D03*
X118872000Y-38354000D03*
X118872000Y-35814000D03*
%TD*%
D25*
%TO.C,R1*%
X157226000Y-104394000D03*
D26*
X157226000Y-89154000D03*
%TD*%
%TO.C,R2*%
X152654000Y-99568000D03*
D25*
X137414000Y-99568000D03*
%TD*%
D26*
%TO.C,R3*%
X90424000Y-82296000D03*
D25*
X75184000Y-82296000D03*
%TD*%
%TO.C,R4*%
X109728000Y-46990000D03*
D26*
X109728000Y-31750000D03*
%TD*%
D25*
%TO.C,R5*%
X115570000Y-82804000D03*
D26*
X100330000Y-82804000D03*
%TD*%
D25*
%TO.C,R6*%
X89916000Y-94234000D03*
D26*
X74676000Y-94234000D03*
%TD*%
%TO.C,R7*%
X75184000Y-88392000D03*
D25*
X90424000Y-88392000D03*
%TD*%
%TO.C,R8*%
X91694000Y-38862000D03*
D26*
X76454000Y-38862000D03*
%TD*%
%TO.C,R9*%
X76454000Y-32766000D03*
D25*
X91694000Y-32766000D03*
%TD*%
D26*
%TO.C,R11*%
X122174000Y-69596000D03*
D25*
X122174000Y-84836000D03*
%TD*%
%TO.C,R12*%
X119380000Y-65278000D03*
D26*
X119380000Y-50038000D03*
%TD*%
%TO.C,R13*%
X160274000Y-56896000D03*
D25*
X160274000Y-41656000D03*
%TD*%
%TO.C,R14*%
X125730000Y-55880000D03*
D26*
X125730000Y-40640000D03*
%TD*%
D27*
%TO.C,U1*%
X130556000Y-38100000D03*
X130556000Y-40640000D03*
X130556000Y-43180000D03*
X130556000Y-45720000D03*
X130556000Y-48260000D03*
X130556000Y-50800000D03*
X130556000Y-53340000D03*
X130556000Y-55880000D03*
X130556000Y-58420000D03*
X130556000Y-60960000D03*
X130556000Y-63500000D03*
X130556000Y-66040000D03*
X130556000Y-68580000D03*
X130556000Y-71120000D03*
X130556000Y-73660000D03*
X130556000Y-76200000D03*
X130556000Y-78740000D03*
X130556000Y-81280000D03*
X155956000Y-81280000D03*
X155956000Y-78740000D03*
X155956000Y-76200000D03*
X155956000Y-73660000D03*
X155956000Y-71120000D03*
X155956000Y-68580000D03*
X155956000Y-66040000D03*
X155956000Y-63500000D03*
X155956000Y-60960000D03*
X155956000Y-58420000D03*
X155956000Y-55880000D03*
X155956000Y-53340000D03*
X155956000Y-50800000D03*
X155956000Y-48260000D03*
X155956000Y-45720000D03*
X155956000Y-43180000D03*
X155956000Y-40640000D03*
X155956000Y-38100000D03*
%TD*%
M02*
